<svg width="150" height="150" viewBox="0 0 150 150" fill="none" xmlns="http://www.w3.org/2000/svg">
<g clip-path="url(#clip0_8094_16284)">
<path d="M85.5618 84.7772C84.3752 83.5038 82.6194 82.7964 80.3846 82.7964C78.1497 82.7964 76.4776 83.4459 75.2331 84.6615C73.8472 85.9927 73.2266 87.9157 73.2266 90.1795C73.2266 92.5591 73.9051 94.4241 75.2621 95.7554C76.4519 96.9163 78.2044 97.6237 80.4135 97.6237C84.0633 97.6237 86.4396 96.0384 87.2596 92.8678L83.4105 92.5301C83.1275 93.9997 82.2239 94.8197 80.4135 94.8197C78.2912 94.8197 77.1593 93.6042 77.1304 91.2278H87.4879C87.5426 88.4559 86.922 86.2468 85.5618 84.7772ZM77.1593 88.5106C77.2429 87.7485 77.4712 87.0957 77.8667 86.5876C78.4037 85.8802 79.2237 85.5393 80.3846 85.5393C81.4039 85.5393 82.1114 85.7934 82.6484 86.3593C83.1565 86.8995 83.3848 87.6327 83.4684 88.5106H77.1593Z" fill="white"/>
<path d="M107.341 79.2014H103.434V83.1341H101.399V86.2469H103.434V93.4338C103.434 96.3762 105.36 97.4245 108.074 97.4245C108.811 97.4245 109.576 97.3666 110.171 97.2251L110.113 93.8583C109.66 93.9451 109.181 93.9998 108.811 93.9998C107.849 93.9998 107.341 93.7747 107.341 92.9837V86.2469H110.226V83.1341H107.341V79.2014Z" fill="white"/>
<path d="M115.824 83.134H111.863V97.2829H115.824V83.134Z" fill="white"/>
<path d="M59.0488 97.283H63.2935V88.993H71.9243V85.5684H63.2935V80.8993H72.9693V77.4746H59.0488V97.283Z" fill="white"/>
<path d="M115.824 77.1917H111.863V81.2659H115.824V77.1917Z" fill="white"/>
<path d="M26.4775 77.4746H22.5159V97.283H26.4775V77.4746Z" fill="white"/>
<path d="M20.2488 77.1917H16.2871V81.2659H20.2488V77.1917Z" fill="white"/>
<path d="M150 77.4746H146.038V97.283H150V77.4746Z" fill="white"/>
<path d="M1.1897 97.283H5.43434V88.993H14.0651V85.5684H5.43434V80.8993H15.1102V77.4746H1.1897V97.283Z" fill="white"/>
<path d="M20.2488 83.134H16.2871V97.2829H20.2488V83.134Z" fill="white"/>
<path d="M8.65972 69.5801C6.11293 69.5801 4.35719 68.2489 4.35719 65.477L0 65.9593C0.112547 70.741 3.96167 72.8633 8.54717 72.8633C12.6761 72.8633 16.9207 71.5031 16.9207 66.7504C16.9207 62.4768 13.5829 61.2902 9.28034 60.5249C6.45058 60.0168 4.86848 59.4509 4.86848 57.9781C4.86848 56.4217 6.19654 55.6307 8.23526 55.6307C10.528 55.6307 11.8561 56.7626 11.9686 59.393L16.3001 58.7145C15.8177 54.0743 12.5635 52.3765 8.2642 52.3765C4.44402 52.3765 0.537012 54.129 0.537012 58.1775C0.537012 61.9687 3.59509 63.3547 7.55676 64.2036C10.5537 64.8532 12.5635 64.94 12.5635 66.8629C12.5635 68.7859 10.8657 69.5801 8.65972 69.5801Z" fill="white"/>
<path d="M69.9433 64.0909C67.1135 64.599 64.5957 65.4769 64.5957 68.506C64.5957 71.5351 66.8306 72.8632 69.6025 72.8632C71.8663 72.8632 73.339 71.8439 74.0175 70.6251C74.0465 71.3068 74.1301 72.0143 74.2716 72.5224H78.2043V72.4098C77.8924 71.8149 77.6383 71.0496 77.6383 69.9756V62.705C77.6383 59.618 75.3745 58.0359 71.6958 58.0359C69.5735 58.0359 67.9914 58.4025 66.8852 59.1678C65.7276 59.9588 65.1038 61.2612 65.1038 63.1005L68.9818 63.3835C68.9818 61.4027 69.8565 60.8367 71.4129 60.8367C72.5448 60.8367 73.085 61.0329 73.4516 61.5442C73.8182 62.0522 73.7924 62.7307 73.7924 63.3835L69.9433 64.0909ZM73.7924 67.0333C73.7924 69.1845 72.4322 70.0592 70.5639 70.0592C69.4899 70.0592 68.6699 69.58 68.6699 68.4771C68.6699 67.3741 69.4063 66.9496 70.5929 66.6924L73.7924 65.985V67.0333Z" fill="white"/>
<path d="M55.0003 72.8633C56.7818 72.8633 58.2802 72.1269 58.962 70.5706V72.5225H62.9204V52.7141H58.962V60.0168C58.113 58.7434 56.6981 58.036 54.9713 58.036C51.1801 58.036 48.688 60.9783 48.688 65.4481C48.688 69.9178 51.3216 72.8633 55.0003 72.8633ZM53.7816 61.7983C54.235 61.1745 54.9713 60.8658 56.0454 60.8658C58.1677 60.8658 59.0456 62.4768 59.0456 65.477C59.0456 67.1459 58.7336 68.4193 58.0262 69.2103C57.5471 69.7506 56.8654 70.0336 55.9907 70.0336C53.669 70.0336 52.9905 68.6444 52.9905 65.4481C52.9905 63.7502 53.1867 62.5347 53.7816 61.7983Z" fill="white"/>
<path d="M83.8833 64.7984C83.8833 61.8818 85.2981 61.0618 86.5169 61.0618C87.3658 61.0618 87.8449 61.1486 88.3562 61.6278C88.9768 62.2227 89.0926 62.9012 89.0926 64.2035V72.5224H93.08V63.8626C93.08 62.0233 92.9385 60.4959 91.8066 59.3639C90.903 58.4604 89.8547 58.0359 88.0443 58.0359C86.2339 58.0359 84.5907 58.7144 83.8575 60.4959V58.3735H79.9248V72.5224H83.8833V64.7984Z" fill="white"/>
<path d="M88.6006 87.1246C88.6006 90.038 91.0927 90.8869 93.8099 91.5397C96.0448 92.0767 97.1188 92.4176 97.1188 93.3501C97.1188 94.3952 96.2988 94.9901 94.6846 94.9901C93.0703 94.9901 91.9706 94.228 91.9127 92.5301L88.1504 93.0093C88.4334 96.2635 91.2342 97.6237 94.601 97.6237C97.9677 97.6237 100.91 96.5465 100.91 93.1508C100.91 89.755 97.7684 89.1055 95.2505 88.5395C93.3565 88.1151 92.3372 87.7742 92.3372 86.8127C92.3372 85.8512 93.2986 85.3978 94.4595 85.3978C95.8744 85.3978 96.8069 86.1053 96.8937 87.6906L100.543 87.0668C100.174 83.8415 97.5143 82.7964 94.4016 82.7964C91.2889 82.7964 88.6006 84.0119 88.6006 87.1246Z" fill="white"/>
<path d="M37.9702 64.7984C37.9702 61.8818 39.3851 61.0618 40.6006 61.0618C41.4495 61.0618 41.9319 61.1486 42.44 61.6278C43.0638 62.2227 43.1763 62.9012 43.1763 64.2035V72.5224H47.1669V63.8626C47.1669 62.0233 47.0255 60.4959 45.8936 59.3639C44.9867 58.4604 43.9417 58.0359 42.128 58.0359C40.3144 58.0359 38.6777 58.7144 37.9413 60.4959V58.3735H34.0085V72.5224H37.9702V64.7984Z" fill="white"/>
<path d="M28.7415 83.134V97.2828H32.7031V89.6135C32.7031 88.0572 33.015 87.1246 33.4684 86.5876C33.9186 86.0763 34.5135 85.8223 35.221 85.8223C35.7869 85.8223 36.3239 85.8223 36.9188 86.3883C37.5973 87.0121 37.6552 87.861 37.6552 89.1634V97.2828H41.6169V89.5299C41.6169 88.1729 41.8999 87.2372 42.3822 86.6423C42.8613 86.0763 43.5398 85.8223 44.3341 85.8223C44.9547 85.8223 45.4081 85.9091 45.9741 86.4461C46.569 87.0121 46.6526 87.9157 46.6526 89.1634V97.2828H50.6142V88.4559C50.6142 84.6357 48.7749 82.7964 45.4949 82.7964C44.1058 82.7964 43.0896 83.0794 42.1828 83.7868C41.559 84.2659 41.1345 84.8029 40.7969 85.5683C40.2599 83.8704 38.845 82.7964 36.6937 82.7964C35.3914 82.7964 34.5425 83.1051 33.7514 83.7579C33.3527 84.0955 32.9572 84.5489 32.7031 85.1149V83.134H28.7415Z" fill="white"/>
<path d="M23.8664 72.8632C25.7347 72.8632 27.1207 72.04 27.857 70.5415V72.5224H31.7029V58.3735H27.7992V66.0718C27.7992 68.9015 26.5547 69.863 25.1945 69.863C24.4034 69.863 23.7828 69.7762 23.2426 69.1845C22.6766 68.5317 22.622 67.6571 22.622 66.3548V58.3735H18.5735V66.5509C18.5735 68.4481 18.7439 70.146 19.8469 71.3068C20.8662 72.3809 22.085 72.8632 23.8664 72.8632Z" fill="white"/>
<path d="M120.966 83.134H116.692L121.561 97.2829H126.088L130.954 83.134H126.738L124.957 89.3595C124.616 90.6329 124.249 92.0767 123.825 93.5752C123.342 91.7101 122.889 90.0959 122.693 89.3595L120.966 83.134Z" fill="white"/>
<path d="M137.543 85.5972C138.674 85.5972 139.211 85.7934 139.578 86.3047C139.948 86.8127 139.919 87.4912 139.919 88.144L136.07 88.8514C133.24 89.3595 130.722 90.2374 130.722 93.2665C130.722 96.2956 132.957 97.6237 135.732 97.6237C137.996 97.6237 139.466 96.6043 140.144 95.3856C140.173 96.0673 140.26 96.7748 140.401 97.2828H144.334V97.1703C144.022 96.5754 143.768 95.8101 143.768 94.7361V87.4655C143.768 84.3785 141.504 82.7964 137.826 82.7964C135.703 82.7964 134.118 83.163 133.015 83.9283C131.854 84.7193 131.23 86.0217 131.23 87.861L135.108 88.144C135.108 86.1632 135.986 85.5972 137.543 85.5972ZM139.919 91.7938C139.919 93.945 138.562 94.8197 136.694 94.8197C135.616 94.8197 134.796 94.3405 134.796 93.2376C134.796 92.1346 135.533 91.7101 136.723 91.4529L139.919 90.7455V91.7938Z" fill="white"/>
<path d="M116.271 72.8632C119.921 72.8632 122.297 71.2779 123.12 68.1073L119.271 67.7696C118.988 69.2392 118.082 70.0592 116.271 70.0592C114.149 70.0592 113.017 68.8437 112.988 66.4673H123.346C123.403 63.6954 122.78 61.4863 121.423 60.0167C120.233 58.7433 118.477 58.0359 116.242 58.0359C114.007 58.0359 112.338 58.6854 111.094 59.901C109.705 61.2322 109.084 63.1552 109.084 65.419C109.084 67.7986 109.763 69.6636 111.12 70.9949C112.31 72.1558 114.065 72.8632 116.271 72.8632ZM113.724 61.8271C114.261 61.1197 115.081 60.7788 116.242 60.7788C117.262 60.7788 117.969 61.0329 118.506 61.5988C119.017 62.139 119.242 62.8722 119.326 63.7501H113.017C113.101 62.988 113.329 62.3352 113.724 61.8271Z" fill="white"/>
<path d="M101.875 72.8632C105.611 72.8632 107.988 70.7666 108.441 67.8822L104.592 67.4867C104.225 69.0141 103.377 69.9177 101.875 69.9177C99.5563 69.9177 98.9068 68.4192 98.9068 65.4479C98.9068 63.8626 99.1029 62.6471 99.6689 61.9107C100.122 61.2901 100.83 60.9782 101.875 60.9782C103.714 60.9782 104.309 62.2805 104.592 63.808L108.358 63.1552C107.792 60.1582 105.782 58.0359 101.875 58.0359C97.2346 58.0359 94.6042 61.0907 94.6042 65.4479C94.6042 70.0881 97.2346 72.8632 101.875 72.8632Z" fill="white"/>
</g>
<defs>
<clipPath id="clip0_8094_16284">
<rect width="150" height="45.2473" fill="white" transform="translate(0 52.3765)"/>
</clipPath>
</defs>
</svg>
