<?xml version="1.0" standalone="no"?>
<!DOCTYPE svg PUBLIC "-//W3C//DTD SVG 1.1//EN" "http://www.w3.org/Graphics/SVG/1.1/DTD/svg11.dtd" >
<svg xmlns="http://www.w3.org/2000/svg" width="100%" height="100%">
<metadata>
Created by FontXChange 20110222 at Mon Jul 27 08:02:38 2015
 By Matt
Copyright 2013 Adobe Systems Incorporated. All rights reserved.
</metadata>
<defs>
<font id="." horiz-adv-x="1196" >
  <font-face 
    font-family="."
    font-weight="400"
    font-stretch="normal"
    units-per-em="2048"
    panose-1="0 0 0 0 0 0 0 0 0 0"
    ascent="1536"
    descent="-512"
    x-height="1064"
    cap-height="1540"
    bbox="-180 -580 2172 2104"
    underline-thickness="102"
    underline-position="-102"
    unicode-range="U+000D-FB02"
  />
<missing-glyph horiz-adv-x="748" 
d="M68 0v1365h544v-1365h-544zM136 68h408v1229h-408v-1229z" />
    <glyph glyph-name=".notdef" horiz-adv-x="748" 
d="M68 0v1365h544v-1365h-544zM136 68h408v1229h-408v-1229z" />
    <glyph glyph-name="glyph1" horiz-adv-x="0" 
 />
    <glyph glyph-name="glyph1" horiz-adv-x="0" 
 />
    <glyph glyph-name="uni000D" unicode="&#xd;" horiz-adv-x="364" 
 />
    <glyph glyph-name="space" unicode=" " horiz-adv-x="511" 
 />
    <glyph glyph-name="exclam" unicode="!" horiz-adv-x="515" 
d="M175 75q0 43 27 69.5t69 26.5q43 0 68.5 -26.5t25.5 -69.5q0 -42 -26 -67.5t-68 -25.5q-39 0 -67.5 25.5t-28.5 67.5zM192 351v1189h145v-1189h-145z" />
    <glyph glyph-name="quotedbl" unicode="&#x22;" horiz-adv-x="555" 
d="M63 1131v406h116v-406h-116zM336 1131v406h116v-406h-116z" />
    <glyph glyph-name="numbersign" unicode="#" horiz-adv-x="1248" 
d="M86 505v107h267l42 309h-252v107h268l69 511h117l-69 -511h295l68 511h119l-67 -511h272v-107h-289l-42 -309h274v-107h-289l-68 -503h-117l67 503h-295l-66 -503h-119l66 503h-251zM471 612h295l42 309h-295z" />
    <glyph glyph-name="dollar" unicode="$" horiz-adv-x="1356" 
d="M111 429h139q13 -83 54.5 -143t102.5 -100t135.5 -59t153.5 -19q82 0 157 20t131 62t88 107.5t29 155.5q-2 69 -28.5 118.5t-77 83.5t-123 55.5t-166.5 34.5q-64 9 -128.5 21t-123.5 31.5t-110.5 47t-89.5 67.5t-59.5 94t-21.5 126q0 113 45.5 194t120 132.5t170.5 75.5
t198 24q59 0 118.5 -9.5t114 -29t102 -50t82.5 -73.5t55 -98.5t20 -124.5h-134q-7 74 -39.5 123.5t-82 79.5t-111 42.5t-125.5 12.5q-44 0 -90.5 -5.5t-90.5 -19t-82.5 -35.5t-67.5 -54.5t-45.5 -76.5t-15.5 -101q1 -67 33.5 -112t86.5 -75t124.5 -48.5t148.5 -31.5
q121 -21 219.5 -51.5t169 -79.5t109 -121.5t38.5 -177.5q0 -123 -42 -210t-116.5 -142.5t-176.5 -81.5t-221 -26q-112 0 -212.5 25t-178 79t-127 139t-59.5 204zM642 -183v1907h122v-1907h-122z" />
    <glyph glyph-name="percent" unicode="%" horiz-adv-x="1863" 
d="M101 1148q0 87 26.5 162.5t77 132t122 88.5t161.5 32q88 0 158.5 -34t119.5 -91t75.5 -132.5t26.5 -159.5q0 -87 -26 -165.5t-75.5 -138t-121 -94.5t-163.5 -35q-94 0 -165.5 35.5t-119.5 95t-72 138.5t-24 166zM237 1144q0 -57 13 -115t42.5 -105.5t76 -77.5t113.5 -30
q69 0 117 28.5t78 75t43.5 105t13.5 119.5q0 59 -13.5 115.5t-43 101t-77 71.5t-115.5 27t-115 -27t-76.5 -71.5t-43 -101t-13.5 -115.5zM336 1l1080 1538h141l-1080 -1538h-141zM1048 423q0 86 27 161.5t77 131.5t121.5 88.5t161.5 32.5q88 0 158.5 -34t120 -91
t75.5 -132.5t26 -158.5q0 -87 -25.5 -166t-75 -138.5t-121.5 -94.5t-165 -35t-164 35.5t-119 95.5t-72.5 139t-24.5 166zM1184 419q0 -57 13.5 -115.5t42.5 -106t75.5 -77.5t112.5 -30q70 0 118 28.5t78 75t43.5 105.5t13.5 120q0 60 -13.5 116.5t-43.5 100.5t-77.5 70.5
t-114.5 26.5t-114 -27t-77 -71.5t-43.5 -101t-13.5 -114.5z" />
    <glyph glyph-name="ampersand" unicode="&#x26;" horiz-adv-x="1648" 
d="M221 449q6 90 46 158t99.5 120.5t131.5 94t142 79.5q-33 40 -69 79t-66.5 80.5t-50 88t-19.5 102.5q0 66 26.5 122t72.5 97t107.5 64t132.5 23q69 0 132 -20t111 -58.5t76 -95.5t28 -132t-24 -132t-64 -102t-92.5 -81.5t-109.5 -70.5l346 -420q18 39 28 80.5t14.5 84.5
t5.5 86.5t1 86.5h130q0 -112 -21.5 -222.5t-72.5 -212.5l294 -348h-166l-197 242q-40 -61 -95.5 -109.5t-120.5 -82t-136.5 -51t-143.5 -17.5q-105 0 -195 32.5t-155 93t-99 147t-27 194.5zM369 451q-6 -76 16.5 -140t67.5 -110t108.5 -72t140.5 -26q61 0 120.5 15
t113.5 43.5t100.5 68t82.5 89.5l-401 487q-58 -31 -117.5 -62t-109 -70.5t-83 -93t-39.5 -129.5zM571 1251q0 -42 18.5 -82t46.5 -76.5t60 -70t59 -63.5q43 28 83.5 55t72.5 60t51.5 75.5t19.5 101.5q0 45 -16 82t-44.5 62.5t-66.5 39.5t-81 14t-80 -14.5t-64.5 -40.5
t-43 -62.5t-15.5 -80.5z" />
    <glyph glyph-name="quotesingle" unicode="'" horiz-adv-x="286" 
d="M75 1131v406h136v-406h-136z" />
    <glyph glyph-name="parenleft" unicode="(" horiz-adv-x="636" 
d="M141 644q0 153 36.5 300t101.5 283.5t155.5 260t198.5 227.5v-152q-85 -104 -150.5 -209.5t-110.5 -218t-68 -234t-23 -257.5q0 -149 21 -269t64 -226t109 -207t156 -212v-155q-112 105 -202.5 227t-154.5 257.5t-98.5 282.5t-34.5 302z" />
    <glyph glyph-name="parenright" unicode=")" horiz-adv-x="636" 
d="M56 -272q85 104 150.5 209.5t110.5 218t68 234t23 256.5q0 150 -21 269.5t-64 225.5t-109 207t-155 213v154q112 -105 202 -227t154 -257.5t98.5 -282.5t34.5 -302q0 -152 -36 -299.5t-101 -284t-155.5 -259.5t-199.5 -228v153z" />
    <glyph glyph-name="asterisk" unicode="*" horiz-adv-x="872" 
d="M75 1152v117l313 -21l-183 256l106 58l138 -278l136 278l103 -57l-178 -257l312 21v-117l-310 23l175 -264l-105 -53l-133 280l-138 -285l-102 58l177 263z" />
    <glyph glyph-name="plus" unicode="+" horiz-adv-x="1008" 
d="M85 553v126h892v-126h-892zM468 170v892h126v-892h-126z" />
    <glyph glyph-name="comma" unicode="," horiz-adv-x="298" 
d="M56 -183l78 338h161l-121 -338h-118z" />
    <glyph glyph-name="hyphen" unicode="-" horiz-adv-x="712" 
d="M85 575v127h596v-127h-596z" />
    <glyph glyph-name="period" unicode="." horiz-adv-x="249" 
d="M56 78q0 42 27 67.5t67 25.5t68 -25.5t28 -67.5q0 -43 -26.5 -69.5t-69.5 -26.5t-68.5 26.5t-25.5 69.5z" />
    <glyph glyph-name="slash" unicode="/" horiz-adv-x="790" 
d="M56 0l592 1539h109l-592 -1539h-109z" />
    <glyph glyph-name="zero" unicode="0" horiz-adv-x="1279" 
d="M139 762q0 82 9 173t32 179.5t61.5 169t98.5 141.5t143 97t194 36q112 0 193.5 -36t138 -97t92 -141.5t55 -168.5t26.5 -179.5t7 -173.5q0 -79 -10 -167t-34 -175t-62.5 -166.5t-95.5 -140.5t-133.5 -97t-176.5 -36q-110 0 -193 33.5t-142.5 91t-98.5 134.5t-62.5 164
t-32.5 179t-9 180zM286 764q0 -59 5.5 -131t21 -145.5t42.5 -143t70.5 -124t105.5 -87.5t146 -34q77 -1 134.5 31.5t98.5 87t67.5 124.5t42 144t21.5 145t6 128q0 61 -4 135.5t-17.5 150t-38 147t-65.5 126.5t-101 88.5t-144 33.5q-85 0 -147 -33.5t-105 -88.5t-70.5 -126
t-42.5 -146.5t-20.5 -148.5t-5.5 -133z" />
    <glyph glyph-name="one" unicode="1" horiz-adv-x="875" 
d="M136 1152v146l377 242h126v-1540h-145v1374z" />
    <glyph glyph-name="two" unicode="2" horiz-adv-x="1208" 
d="M136 0v153q40 38 97.5 87t123.5 105t136.5 118t138.5 126.5t129 131t106.5 131t72.5 126t27 117.5q0 69 -24.5 132t-68 110t-103.5 75t-132 28q-74 0 -137 -27.5t-109 -74.5t-71.5 -110t-25.5 -133h-142q4 105 40.5 190.5t100 146t151 93.5t194.5 33q105 0 190 -33.5
t145.5 -94t93 -146t32.5 -189.5q0 -85 -41.5 -173t-108 -176t-151 -173t-170.5 -163.5t-166.5 -148.5t-138.5 -127h796v-134h-985z" />
    <glyph glyph-name="three" unicode="3" horiz-adv-x="1240" 
d="M136 420q5 -2 8.5 -2.5t3.5 6.5q35 -1 71 -3.5t71 -2.5q0 -72 29 -129.5t78 -97t112 -60.5t132 -21q71 0 136.5 22t115.5 63.5t80 101t30 134.5t-25.5 131t-69 94t-101.5 59t-123 26q-8 1 -28.5 1h-43.5t-43.5 -0.5t-29.5 -0.5l-3 119l15.5 -1t39 -1t51 1.5t53.5 4.5
q57 7 108 28t89 56t60.5 83.5t22.5 110.5q0 70 -27 123t-73 88.5t-106.5 53.5t-127.5 18q-71 0 -131 -20.5t-104.5 -59.5t-69.5 -96.5t-25 -132.5h-150q-2 106 38 188.5t107 138t153.5 84.5t178.5 29q88 0 173 -26t152 -76t108 -122.5t41 -166.5q0 -135 -59 -227.5
t-194 -133.5q153 -37 223.5 -132t70.5 -248q0 -107 -42.5 -189.5t-113.5 -138.5t-163.5 -85t-192.5 -29q-98 0 -189 29.5t-161.5 85.5t-112.5 137.5t-42 185.5z" />
    <glyph glyph-name="four" unicode="4" horiz-adv-x="1256" 
d="M107 480v114l667 945h129v-942h322v-117h-322v-480h-131v480h-665zM264 597h508v726z" />
    <glyph glyph-name="five" unicode="5" horiz-adv-x="1219" 
d="M86 455h137q1 -82 31.5 -148t82.5 -112t122.5 -71t151.5 -25q85 0 155 31t119 85.5t76 129.5t27 163q0 81 -27.5 156t-79 132t-124.5 90.5t-164 32.5q-42 0 -90 -9.5t-94.5 -31.5t-88.5 -58t-72 -88h-118l147 806h792v-133h-686l-97 -494q68 67 149.5 96.5t190.5 29.5
q112 0 204.5 -41.5t158.5 -113.5t102 -169t36 -208q0 -116 -42 -212.5t-113.5 -166t-166 -108t-199.5 -38.5q-110 0 -205 30.5t-165 90.5t-110 149t-40 205z" />
    <glyph glyph-name="six" unicode="6" horiz-adv-x="1251" 
d="M125 711q0 86 9.5 183t33 192.5t63 182.5t100 152.5t144.5 103.5t195 35q93 -2 171 -21.5t138 -63t100 -114t58 -175.5h-142q-15 133 -93 199t-231 61q-85 -3 -148.5 -37.5t-108.5 -90t-74 -126.5t-45.5 -147t-23.5 -152.5t-8 -141.5q23 60 65 105t96 75t116 45t125 16
q112 1 204.5 -39t157.5 -109t101 -161t36 -194q0 -113 -34 -206.5t-99 -160.5t-159 -103.5t-213 -36.5q-112 0 -195 31t-142 84.5t-97.5 125t-60.5 152.5t-30.5 167t-8.5 169zM282 497q0 -81 26.5 -152t76 -123.5t121 -82.5t160.5 -30q93 0 161 30.5t112 83.5t65.5 124.5
t21.5 152.5q0 75 -25 144t-72 122t-114 85t-151 32q-80 0 -149.5 -33t-121.5 -87t-81.5 -123.5t-29.5 -142.5z" />
    <glyph glyph-name="seven" unicode="7" horiz-adv-x="1108" 
d="M62 1405v133h993v-129l-640 -1409h-160l646 1405h-839z" />
    <glyph glyph-name="eight" unicode="8" horiz-adv-x="1301" 
d="M164 430q0 72 23 134t64 112.5t96.5 88t120.5 60.5q-68 25 -114 63.5t-74.5 85t-41 97t-12.5 99.5q0 97 41 170t107.5 121t151 72t171.5 24t170.5 -24t148.5 -72t104.5 -121t39.5 -170q0 -63 -13.5 -115.5t-43.5 -95.5t-77.5 -75.5t-115.5 -55.5q64 -21 121 -53.5
t100 -80.5t68 -113t25 -151q0 -120 -40 -205t-111 -139t-167.5 -79.5t-208.5 -25.5t-209 26.5t-169 81.5t-113.5 140t-41.5 201zM314 430q0 -78 27 -140t77.5 -105.5t121 -66.5t157.5 -23q90 0 161.5 23t121 66t75.5 105.5t26 140.5q0 79 -29.5 141t-82 105t-124 66
t-154.5 23q-73 0 -141 -19.5t-120.5 -60.5t-84 -104.5t-31.5 -150.5zM373 1170q0 -73 23 -127t66 -89.5t102.5 -53t133.5 -17.5q72 0 130.5 16.5t100.5 52t64.5 89.5t22.5 129q0 70 -26 121t-70 85t-102 50.5t-121 16.5q-64 0 -122.5 -16.5t-103.5 -50.5t-71.5 -85
t-26.5 -121z" />
    <glyph glyph-name="nine" unicode="9" horiz-adv-x="1253" 
d="M125 1064q0 113 34 206.5t99 160t159 103.5t213 37q112 0 195 -31t142 -84.5t97.5 -125t60.5 -152.5t30.5 -167t8.5 -169q0 -86 -9.5 -183t-33 -192.5t-63 -182.5t-100 -152.5t-144.5 -103.5t-195 -35q-93 2 -171 21.5t-138 63t-100 114t-58 175.5h142q15 -133 93 -199
t231 -61q85 2 148.5 36.5t108.5 90t74 127t45.5 148t23.5 152.5t8 141q-23 -60 -65 -105t-96 -75t-116 -45t-125 -16q-113 -2 -205 38.5t-157 110t-101 161.5t-36 193zM263 1053q0 -75 25 -144t72 -122t114 -85t151 -32q80 0 149.5 33t121.5 87t81.5 123.5t29.5 142.5
q0 81 -26.5 152t-76 123.5t-121 82.5t-160.5 30q-93 0 -161 -30.5t-112 -83.5t-65.5 -124.5t-21.5 -152.5z" />
    <glyph glyph-name="colon" unicode=":" horiz-adv-x="306" 
d="M85 78q0 42 26 67.5t68 25.5q39 0 67.5 -25.5t28.5 -67.5q0 -43 -27 -69.5t-69 -26.5q-43 0 -68.5 26.5t-25.5 69.5zM85 997q0 42 26 67t68 25q39 0 67.5 -26t28.5 -66q0 -43 -27 -69.5t-69 -26.5q-43 0 -68.5 26.5t-25.5 69.5z" />
    <glyph glyph-name="semicolon" unicode=";" horiz-adv-x="354" 
d="M85 -183l78 338h160l-121 -338h-117zM120 997q0 42 26 67t68 25q39 0 67.5 -26t28.5 -66q0 -43 -26.5 -69.5t-69.5 -26.5t-68.5 26.5t-25.5 69.5z" />
    <glyph glyph-name="less" unicode="&#x3c;" horiz-adv-x="1176" 
d="M56 472v128l1117 512v-138l-958 -437l958 -439v-136z" />
    <glyph glyph-name="equal" unicode="=" horiz-adv-x="1036" 
d="M85 338v126h920v-126h-920zM85 775v127h920v-127h-920z" />
    <glyph glyph-name="greater" unicode="&#x3e;" horiz-adv-x="1176" 
d="M56 -38v136l959 439l-959 437v138l1117 -512v-128z" />
    <glyph glyph-name="question" unicode="?" horiz-adv-x="822" 
d="M68 1164q1 83 26 154t71.5 122.5t114 80.5t154.5 29q72 0 136.5 -22.5t114 -63t79.5 -98t33 -126.5q3 -78 -10.5 -135.5t-38.5 -101.5t-57 -77.5t-66.5 -64t-67.5 -61.5t-59 -69t-42 -87t-16 -115v-155h-132v128q0 87 16 149.5t42 108t59 78.5t68 61t68 54.5t59 60.5
t42 78.5t16 108.5q0 52 -19 95.5t-52 74.5t-78 48.5t-97 17.5q-61 0 -104.5 -22t-72 -59.5t-42.5 -87t-15 -104.5h-130zM292 101q0 35 23.5 58t58.5 23t60 -23t25 -58q0 -37 -24 -61t-61 -24q-38 0 -60 23.5t-22 61.5z" />
    <glyph glyph-name="at" unicode="@" horiz-adv-x="1854" 
d="M140 594q0 123 32.5 232t91 201.5t140 166t179.5 125t209.5 79t230.5 27.5q147 0 281.5 -47.5t237.5 -135t164 -212.5t61 -280q0 -62 -12.5 -128.5t-37 -129.5t-61.5 -119.5t-85.5 -99t-108.5 -67.5t-131 -25q-36 0 -69.5 9t-59.5 27.5t-41.5 47.5t-15.5 69q0 43 18 81
q-17 -56 -47.5 -107t-73 -90t-96 -62.5t-114.5 -23.5q-83 0 -145.5 32t-104.5 86t-63 124t-21 147q0 69 16 137.5t46.5 131t73.5 116.5t98 93.5t120.5 62t139.5 22.5q109 0 180 -51.5t92 -162.5l48 148h119q-12 -39 -29.5 -91.5l-37.5 -112.5t-39 -122.5t-35 -121.5
t-25.5 -110t-9.5 -87q0 -54 30.5 -83t84.5 -29q50 0 92 25.5t76 67.5t59.5 95.5t42.5 109t25.5 108t8.5 92.5q0 90 -24.5 168.5t-68 143t-104 114.5t-132.5 84.5t-153 52.5t-166 18q-164 0 -307.5 -55t-250.5 -155t-168.5 -238.5t-61.5 -306.5q0 -107 26.5 -203.5t74.5 -179
t116 -148.5t152 -112.5t181 -71.5t203 -25q90 0 172 15.5t158.5 45t150 70.5t145.5 92l51 -61q-70 -60 -149.5 -106.5t-165.5 -78.5t-177 -48.5t-183 -16.5q-185 0 -341 60.5t-270 171t-178 264.5t-64 341zM646 546q0 -45 10.5 -96.5t34.5 -94.5t62 -71.5t93 -28.5
q52 0 99 23t86 61.5t70 88.5t53 103.5t33.5 107t11.5 98.5q0 47 -12.5 88t-37.5 71t-63 47t-88 17q-81 0 -146.5 -36.5t-111 -95.5t-70 -133t-24.5 -149z" />
    <glyph glyph-name="A" unicode="A" horiz-adv-x="1353" 
d="M51 0l598 1538h123l583 -1538h-161l-167 470h-643l-176 -470h-157zM429 606h553l-271 730z" />
    <glyph glyph-name="B" unicode="B" horiz-adv-x="1298" 
d="M204 0v1540h510q110 0 190.5 -30t133 -82.5t78 -124.5t25.5 -156q0 -131 -56 -207.5t-162 -116.5q68 -13 126 -49.5t100 -89t66 -116.5t24 -132q0 -89 -28 -168t-80.5 -138.5t-128 -94.5t-171.5 -35h-627zM349 130h411q70 0 130.5 21t104 60.5t68.5 95.5t25 126
q0 75 -27.5 133t-74.5 97t-111 59.5t-137 20.5h-389v-613zM349 877h314q69 0 130.5 15t107.5 47.5t73 84t27 123.5t-22 122.5t-62.5 82t-98.5 46t-129 14.5h-340v-535z" />
    <glyph glyph-name="C" unicode="C" horiz-adv-x="1471" 
d="M136 757q0 107 19 208t57.5 190.5t96.5 163.5t136 127.5t176 83t217 29.5q108 0 197.5 -35.5t161.5 -97t125.5 -146t88.5 -181.5h-157q-27 68 -66.5 128.5t-91 105.5t-116 71t-141.5 26q-97 0 -175 -26t-138.5 -72t-104.5 -109t-73 -138t-42.5 -158t-13.5 -168
q0 -81 13.5 -160t42 -150.5t72 -132.5t103 -105.5t135 -69.5t169.5 -25q156 0 260 75.5t165 216.5h153q-40 -96 -94.5 -174.5t-125.5 -134.5t-159.5 -86.5t-196.5 -30.5q-115 0 -211.5 28t-173.5 79t-135 122.5t-96 157.5t-57.5 184.5t-19.5 203.5z" />
    <glyph glyph-name="D" unicode="D" horiz-adv-x="1468" 
d="M205 0v1540h383q186 0 334.5 -53t251.5 -154.5t158 -247.5t55 -332q0 -109 -25 -207.5t-71.5 -182.5t-113 -151t-149.5 -114t-180.5 -72.5t-206.5 -25.5h-436zM350 134h284q140 0 251.5 48t189 131.5t118.5 196.5t41 243q0 151 -40 271.5t-119 205.5t-197 130.5
t-275 45.5h-253v-1272z" />
    <glyph glyph-name="E" unicode="E" 
d="M203 0v1540h962v-134h-817v-548h713v-134h-713v-590h817v-134h-962z" />
    <glyph glyph-name="F" unicode="F" 
d="M203 0v1540h962v-134h-817v-563h713v-134h-710v-709h-148z" />
    <glyph glyph-name="G" unicode="G" horiz-adv-x="1578" 
d="M136 767q0 95 16.5 191t51.5 183.5t89.5 163.5t130 132.5t173 88.5t218.5 32q218 0 359 -107t212 -315h-159q-57 141 -158.5 213.5t-254.5 72.5q-140 0 -239 -53t-162.5 -143t-93 -209t-29.5 -250q0 -79 12.5 -157t39.5 -149.5t68.5 -133.5t99.5 -108.5t133.5 -74.5
t169.5 -32q7 -1 14 -1h14q79 0 145 24q117 42 186 155t77 299v100h-382v136h522v-825h-122v234q-17 -59 -59.5 -105t-102.5 -78.5t-134.5 -50t-155.5 -18.5h-7q-108 0 -201 29q-117 37 -205.5 112.5t-147.5 176.5t-88.5 221t-29.5 246z" />
    <glyph glyph-name="H" unicode="H" horiz-adv-x="1458" 
d="M203 0v1539h145v-705h816v705h145v-1539h-145v700h-816v-700h-145z" />
    <glyph glyph-name="I" unicode="I" horiz-adv-x="470" 
d="M175 0v1540h145v-1540h-145z" />
    <glyph glyph-name="J" unicode="J" horiz-adv-x="1063" 
d="M34 406h137q0 -72 20 -127.5t59 -93t95 -56.5t127 -19q84 0 140.5 24.5t91 69t49.5 107.5t15 140l-2 1089h145v-1089q0 -104 -25.5 -190t-78 -148t-132 -96.5t-188.5 -34.5q-107 0 -191.5 24t-142.5 75.5t-88.5 132t-30.5 192.5z" />
    <glyph glyph-name="K" unicode="K" horiz-adv-x="1223" 
d="M205 0v1540h145v-686l612 686h188l-667 -740l774 -800h-188l-722 729v-729h-142z" />
    <glyph glyph-name="L" unicode="L" horiz-adv-x="1190" 
d="M203 0v1540h145v-1406h817v-134h-962z" />
    <glyph glyph-name="M" unicode="M" horiz-adv-x="2031" 
d="M199 0v1540h200l625 -1332l606 1331h208v-1539h-145v1350l-595 -1308h-156l-598 1274v-1316h-145z" />
    <glyph glyph-name="N" unicode="N" horiz-adv-x="1615" 
d="M202 0v1539h183l936 -1288v1289h145v-1540h-141l-978 1363v-1363h-145z" />
    <glyph glyph-name="O" unicode="O" horiz-adv-x="1669" 
d="M183 767q0 100 17 197t53 185t91 162.5t130 129t171 85.5t215 31q118 0 214 -30t171 -84t129.5 -128t90 -161.5t52.5 -186t17 -200.5q0 -100 -17.5 -197.5t-53.5 -184.5t-91 -161t-130 -128t-170.5 -84t-211.5 -30t-211.5 30t-170.5 84t-130.5 128t-92 161t-54.5 184
t-18 198zM335 767q0 -84 12.5 -166t39.5 -155t69 -134.5t100 -105.5q60 -45 134 -68q69 -22 155 -22h15q138 4 236.5 57t162 141.5t93.5 205t30 247.5q0 85 -12 167t-38.5 154.5t-67.5 134t-99 105.5t-134 69t-171 25t-171 -25t-134.5 -69.5t-100 -105.5t-68 -134
t-39 -154.5t-12.5 -166.5z" />
    <glyph glyph-name="P" unicode="P" horiz-adv-x="1230" 
d="M202 0v1540h532q115 0 201.5 -34.5t144.5 -94.5t87.5 -141t31.5 -174v-14q1 -92 -37 -170q-30 -61 -77.5 -109.5t-107.5 -82t-129.5 -51.5t-143.5 -18l-357 1v-652h-145zM347 786h356q74 0 138 21.5t111 62t74 99t27 132.5q0 71 -21.5 128t-62.5 96.5t-101 60.5t-137 21
l-384 -2v-619z" />
    <glyph glyph-name="Q" unicode="Q" horiz-adv-x="1674" 
d="M183 767q0 100 17 197t53 185t91 162.5t130 129t171 85.5t215 31q118 0 214 -30t171 -84t129.5 -128t90 -161.5t52.5 -186t17 -200.5q0 -100 -17.5 -197.5t-53.5 -184.5t-91 -161t-130 -128t-170.5 -84t-211.5 -30t-211.5 30t-170.5 84t-130.5 128t-92 161t-54.5 184
t-18 198zM335 767q0 -106 20 -206.5t63 -185t110 -146.5t162 -91q69 -22 155 -22h15q138 4 236.5 57t162 141.5t93.5 205t30 247.5q0 85 -12 167t-38.5 154.5t-67.5 134t-99 105.5t-134 69t-171 25t-171 -25t-134.5 -69.5t-100 -105.5t-68 -134t-39 -154.5t-12.5 -166.5z
M926 394l91 99l581 -408l-93 -101z" />
    <glyph glyph-name="R" unicode="R" horiz-adv-x="1281" 
d="M204 0v1540h521q93 0 176.5 -27t146.5 -78t100.5 -125t39.5 -168v-7q0 -85 -24 -155q-38 -109 -122.5 -180.5t-201.5 -101.5l467 -698h-168l-455 684h-335v-684h-145zM349 818h343q73 0 137 19.5t111.5 58.5t74.5 96.5t27 133.5t-26 129t-70.5 86t-103 48.5t-123.5 16.5
l-370 -2v-586z" />
    <glyph glyph-name="S" unicode="S" horiz-adv-x="1356" 
d="M111 429h139q13 -83 54.5 -143t102.5 -100t135.5 -59t153.5 -19q63 0 120.5 11t106 34.5t87 59t62.5 85.5q29 61 29 140v15q-2 69 -28.5 118.5t-77 83.5t-123 55.5t-166.5 34.5q-64 9 -128.5 21t-123.5 31.5t-110.5 47t-89.5 67.5t-59.5 94t-21.5 126q0 113 45.5 194
t120 132.5t170.5 75.5t198 24q59 0 118.5 -9.5t114 -29t102 -50t82.5 -73.5t55 -98.5t20 -124.5h-134q-7 74 -39.5 123.5t-82 79.5t-111 42.5t-125.5 12.5q-44 0 -90.5 -5.5t-90.5 -19t-82.5 -35.5t-67.5 -55q-29 -30 -46 -76q-15 -37 -15 -84v-11v-6q1 -67 33.5 -112
t86.5 -75t124.5 -48.5t148.5 -31.5q121 -21 219.5 -51.5t169 -79.5t109 -121.5t38.5 -177.5q0 -123 -42 -210t-116.5 -142.5t-176.5 -81.5t-221 -26q-112 0 -212.5 25t-178 79t-127 139t-59.5 204z" />
    <glyph glyph-name="T" unicode="T" horiz-adv-x="1155" 
d="M19 1409v131h1129v-134h-493v-1406h-145v1409h-491z" />
    <glyph glyph-name="U" unicode="U" horiz-adv-x="1606" 
d="M218 679v861h146l-2 -841q0 -119 21.5 -225t74.5 -186t142.5 -127t224.5 -47q109 0 186 31.5t128.5 82t82 114t46 128.5t19.5 124.5t4 101.5q0 97 1 204.5t2.5 217.5t3.5 217.5t3 204.5h141v-841q0 -154 -34.5 -285t-109 -227t-192 -150.5t-283.5 -54.5q-165 0 -280 51
t-187.5 143.5t-105 220.5t-32.5 282z" />
    <glyph glyph-name="V" unicode="V" horiz-adv-x="1284" 
d="M62 1540h154l462 -1321l455 1321h146l-533 -1540h-132z" />
    <glyph glyph-name="W" unicode="W" horiz-adv-x="2178" 
d="M59 1540h147l410 -1320l427 1320h143l446 -1320l395 1320h145l-474 -1540h-134l-452 1328l-429 -1328h-135q-67 204 -132 405.5t-129 403.5q-64 203 -120.5 384.5t-107.5 346.5z" />
    <glyph glyph-name="X" unicode="X" horiz-adv-x="1240" 
d="M8 0l550 791l-513 749h168l439 -634l443 634h166l-529 -746l540 -794h-161l-466 675l-474 -675h-163z" />
    <glyph glyph-name="Y" unicode="Y" horiz-adv-x="1103" 
d="M59 1540h157l390 -695l338 695h156l-424 -840v-700h-146v700z" />
    <glyph glyph-name="Z" unicode="Z" horiz-adv-x="1190" 
d="M45 -1v141l932 1255h-901v145h1076v-145l-924 -1251h966v-145h-1149z" />
    <glyph glyph-name="bracketleft" unicode="[" horiz-adv-x="703" 
d="M203 -445v1983h351v-107h-212v-1770h212v-106h-351z" />
    <glyph glyph-name="backslash" unicode="\" horiz-adv-x="790" 
d="M88 1539h109l591 -1539h-109z" />
    <glyph glyph-name="bracketright" unicode="]" horiz-adv-x="703" 
d="M203 -339h212v1772h-212v106h351v-1985h-351v107z" />
    <glyph glyph-name="asciicircum" unicode="^" horiz-adv-x="950" 
d="M56 701l380 838h128l383 -844h-138l-308 686l-308 -680h-137z" />
    <glyph glyph-name="underscore" unicode="_" horiz-adv-x="1493" 
d="M56 -353h1434v-126h-1434v126z" />
    <glyph glyph-name="grave" unicode="`" horiz-adv-x="431" 
d="M56 1544h173l199 -320h-94z" />
    <glyph glyph-name="a" unicode="a" horiz-adv-x="1054" 
d="M111 282q0 90 34.5 152t91.5 101.5t131 61t152.5 31.5t155.5 11t141 2q0 63 -9 121t-34.5 103t-72 72t-121.5 27q-47 0 -93 -6t-85 -24t-67 -50.5t-38 -85.5l-150 -2q12 85 52 140t98.5 87t130.5 44.5t147 12.5q106 0 179 -32.5t117 -90.5t63.5 -139t19.5 -178
q0 -162 -2 -320t-3 -320h-130v163q-66 -96 -164 -138.5t-211 -42.5q-69 0 -130 19t-106 57t-71 94t-26 130zM254 301q0 -47 16 -85t44.5 -65.5t67 -42.5t84.5 -15q81 0 146 28t110.5 77t70.5 116t25 145l-1 58l-114 3q-39 0 -87 -1.5t-98 -8t-97.5 -20t-84.5 -38
t-59.5 -61.5t-22.5 -90z" />
    <glyph glyph-name="b" unicode="b" 
d="M170 0v1541h140v-620q31 46 71.5 78t87 51t98 27.5t105.5 8.5q113 0 200.5 -44t147 -118t90.5 -170t31 -201q0 -70 -14 -139.5t-41 -133t-67.5 -118t-93.5 -94.5t-118 -63t-142 -23q-112 0 -204 42.5t-151 141.5v-166h-140zM309 553q0 -83 18 -164.5t57.5 -146
t103 -104.5t154.5 -40q61 0 111 19t89 52t68.5 77t48.5 94.5t28.5 105t9.5 107.5q0 79 -20.5 154t-62.5 133.5t-106 94t-152 35.5q-93 0 -159 -33.5t-108 -90.5t-61 -132.5t-19 -160.5z" />
    <glyph glyph-name="c" unicode="c" horiz-adv-x="1098" 
d="M110 529q0 111 33 212t95.5 177.5t153.5 122t207 45.5q92 0 166 -27.5t129.5 -77.5t92 -121.5t54.5 -158.5h-158q-13 59 -35 108t-56 84.5t-81.5 55t-111.5 19.5q-88 0 -153 -39t-107.5 -102t-63.5 -141.5t-21 -156.5q0 -75 21 -151.5t63.5 -138t107 -100.5t151.5 -39
q56 0 99.5 15t76.5 43.5t57 69.5t40 92h154q-24 -77 -62.5 -139.5t-91.5 -106.5t-121 -68t-150 -24q-125 0 -217 42.5t-152.5 116t-90 173.5t-29.5 215z" />
    <glyph glyph-name="d" unicode="d" horiz-adv-x="1227" 
d="M110 544q0 105 30 203t89 173t146.5 120.5t201.5 45.5q54 0 106 -8t99 -27.5t88 -51.5t71 -79v621h141v-1541h-141v166q-30 -50 -70.5 -84.5t-89 -57t-102.5 -32.5t-109 -10q-116 0 -202 49t-143.5 128.5t-86 180t-28.5 204.5zM254 550q0 -79 18 -159.5t58.5 -146
t105 -107t157.5 -41.5q89 0 155 40.5t110 104.5t66 143.5t22 157.5q0 84 -20.5 161.5t-63 136.5t-109.5 94.5t-160 35.5q-89 0 -153 -36t-105 -95t-61 -134.5t-20 -154.5z" />
    <glyph glyph-name="e" unicode="e" horiz-adv-x="1109" 
d="M115 538q0 114 32.5 213.5t95 174t152.5 117.5t205 43q120 0 207 -50t143 -132q28 -42 48.5 -87.5t33.5 -96.5q23 -92 23 -184v-8v-15l-796 -1q2 -72 24.5 -145.5t65.5 -132.5t105.5 -96.5t145.5 -37.5q111 0 177.5 56t98.5 159h149q-24 -78 -62.5 -139.5t-91.5 -104.5
t-121 -66t-150 -23q-125 0 -216.5 47t-151 124.5t-88.5 177.5t-29 207zM262 634h643q-4 69 -24 129.5t-57 106t-92.5 72t-131.5 26.5q-77 0 -137 -30t-102.5 -78t-67.5 -107.5t-31 -118.5z" />
    <glyph glyph-name="f" unicode="f" horiz-adv-x="602" 
d="M68 941v123h159l-2 156q0 82 12 147t45 109.5t90.5 68t149.5 23.5h66v-126q-40 0 -79.5 -2.5t-70.5 -16t-50.5 -42t-19.5 -80.5v-237h180v-123h-180v-941h-141v941h-159z" />
    <glyph glyph-name="g" unicode="g" 
d="M108 550q0 108 29.5 205t88 169.5t146 115.5t203.5 43q52 0 104.5 -9t100 -28.5t88.5 -51.5t71 -78v148h141v-1075q0 -127 -33.5 -216.5t-92 -146.5t-139.5 -83t-175 -26q-83 0 -164 18.5t-145.5 60t-105.5 107.5t-45 161l140 -3q10 -63 40.5 -106.5t74.5 -70.5t98 -39.5
t112 -12.5q64 0 118 20t93 63t61 110.5t22 163.5v178q-28 -50 -66.5 -85.5t-84.5 -58t-98.5 -32.5t-107.5 -10q-80 0 -146 22t-119 61t-92 93t-65 117t-39 133.5t-13 142.5zM254 548q0 -53 9 -107t28 -105t47.5 -96t67.5 -78t88.5 -52.5t110.5 -19.5q88 0 151.5 43.5
t104 111t59.5 148t19 155.5q0 78 -21 154t-63.5 136t-107 97.5t-151.5 37.5q-89 0 -153.5 -36.5t-106.5 -96.5t-62 -136.5t-20 -155.5z" />
    <glyph glyph-name="h" unicode="h" horiz-adv-x="1155" 
d="M170 0v1540h141l-3 -637q28 44 67.5 78t86 57.5t98 35.5t103.5 12q108 0 183.5 -38.5t123 -104t69 -152.5t21.5 -183l2 -608h-140l-2 606q0 66 -14.5 130t-46.5 113.5t-85 80t-129 30.5q-83 0 -145 -33.5t-103.5 -89t-63 -126t-22.5 -145.5l-7 -566h-134z" />
    <glyph glyph-name="i" unicode="i" horiz-adv-x="504" 
d="M170 1432q0 42 26.5 67t66.5 25t68 -26t28 -66q0 -43 -26.5 -69.5t-69.5 -26.5t-68 26.5t-25 69.5zM198 0v1064h140v-1064h-140z" />
    <glyph glyph-name="j" unicode="j" horiz-adv-x="469" 
d="M0 -323q33 0 66.5 -1.5t60.5 5.5t44 28t17 66v1289h140v-1287q0 -124 -61 -177t-180 -53h-87v130zM165 1432q0 39 27 65.5t67 26.5q39 0 67 -26.5t28 -65.5q0 -42 -26 -69t-69 -27t-68.5 27t-25.5 69z" />
    <glyph glyph-name="k" unicode="k" horiz-adv-x="978" 
d="M170 0v1541h142l-5 -897q129 103 250.5 210.5t248.5 213.5h199l-576 -479q146 -146 283 -293t279 -296h-172l-507 519v-519h-142z" />
    <glyph glyph-name="l" unicode="l" horiz-adv-x="455" 
d="M170 0v1541h140v-1541h-140z" />
    <glyph glyph-name="m" unicode="m" horiz-adv-x="1832" 
d="M170 0v1064h142l-2 -165q26 43 63 77t81 58t93 36.5t99 12.5q126 0 212 -59t128 -179q24 55 62 99t86 75t104 47.5t116 16.5q99 0 171.5 -36.5t120 -98.5t70.5 -143.5t23 -172.5v-632h-140v606q0 65 -12.5 128t-42.5 112.5t-81 80t-127 30.5q-75 0 -132 -32.5t-96 -84.5
t-59 -118.5t-20 -133.5v-588h-139l-1 606q0 64 -12.5 127t-42.5 113t-80.5 80.5t-126.5 30.5q-78 0 -137 -35t-99 -90.5t-60.5 -125.5t-20.5 -139v-567h-140z" />
    <glyph glyph-name="n" unicode="n" horiz-adv-x="1155" 
d="M170 0v1064h141l-3 -165q28 45 67.5 79t86 57.5t98 35.5t103.5 12q106 0 181.5 -38.5t123.5 -103.5t70 -151t22 -182l2 -608h-140l-2 606q0 66 -14.5 129.5t-46.5 112.5t-85 79t-129 30q-77 0 -138.5 -30.5t-104 -81.5t-66 -117.5t-24.5 -138.5l-5 -589h-137z" />
    <glyph glyph-name="o" unicode="o" horiz-adv-x="1169" 
d="M110 529q0 114 30 215t90.5 177t152 120.5t213.5 44.5q117 0 208 -45.5t153 -122t94.5 -177.5t32.5 -212q0 -113 -30.5 -213t-92 -174t-153 -117t-212.5 -43q-120 0 -211 43t-152 117.5t-92 174t-31 212.5zM254 529q0 -80 21.5 -156.5t64.5 -137.5t107 -98t149 -37
q91 0 156.5 37t107 98t61 137.5t19.5 156.5t-20 158.5t-62 141t-107 101t-155 38.5q-92 0 -157 -38.5t-106 -101t-60 -141t-19 -158.5z" />
    <glyph glyph-name="p" unicode="p" horiz-adv-x="1192" 
d="M170 -513v1577h136v-150q30 48 70.5 80.5t87.5 52t99 28t105 8.5q113 0 200.5 -45.5t147 -120.5t90.5 -173t31 -203t-31 -205.5t-91.5 -180t-149.5 -128t-204 -48.5q-57 0 -108 9.5t-96 30.5t-83 55.5t-68 84.5v-672h-136zM302 548q0 -52 8 -106t25 -104.5t43.5 -95
t64 -78t86 -52.5t109.5 -19q91 0 158 41t111 106t65 146.5t21 161.5q0 79 -20 154.5t-62 134t-106.5 94t-152.5 35.5q-92 0 -158 -34.5t-109 -92t-63 -133.5t-20 -158z" />
    <glyph glyph-name="q" unicode="q" horiz-adv-x="1191" 
d="M108 541q0 105 30 203t89.5 173t146.5 120.5t201 45.5q54 0 106 -8.5t99 -28.5t87 -52t72 -80v148h137v-1575h-137v673q-63 -99 -152.5 -140t-204.5 -41t-203.5 48.5t-148.5 128t-91 180t-31 205.5zM252 548q0 -81 20.5 -162t63.5 -146t109.5 -106t159.5 -41q87 0 151 43
t106 109.5t62 147t20 155.5q0 81 -22 156.5t-66 133.5t-110 93t-155 35t-153 -35.5t-105 -94t-61 -134t-20 -154.5z" />
    <glyph glyph-name="r" unicode="r" horiz-adv-x="634" 
d="M170 0v1066h141l-1 -164q30 51 64.5 82t74.5 48.5t86.5 24.5t101.5 10v-132q-81 0 -142.5 -25.5t-103 -71t-62.5 -110t-21 -142.5l2 -586h-140z" />
    <glyph glyph-name="s" unicode="s" horiz-adv-x="1007" 
d="M104 281h148q11 -49 40 -82.5t68.5 -54.5t85.5 -30t91 -9q47 0 96.5 9.5t90 32.5t66.5 61t26 95q0 61 -29.5 98t-77.5 59t-109.5 33.5t-126 23t-126 26.5t-109.5 44.5t-77.5 77.5t-29.5 124q0 85 33.5 142t88 90.5t124.5 47.5t144 14q78 0 144 -17.5t117 -54t86 -94
t51 -136.5h-148q-23 102 -82.5 144.5t-160.5 42.5q-43 0 -88.5 -6t-83 -24t-61.5 -51t-24 -87q0 -53 29.5 -84.5t77.5 -51t110 -31t126 -24t126 -30t110 -49t77.5 -81t29.5 -125.5q0 -93 -34.5 -157.5t-92 -105t-133.5 -59t-158 -18.5q-70 0 -142.5 17.5t-133.5 54.5
t-104 92.5t-55 132.5z" />
    <glyph glyph-name="t" unicode="t" horiz-adv-x="638" 
d="M72 941v123h144v325h140v-325h183v-123h-183v-727q0 -48 19 -70t49 -29q25 -5 49 -5h15q17 1 34 1.5t34 0.5v-112h-76q-56 0 -104 10.5t-83.5 35t-56 66t-20.5 104.5v725h-144z" />
    <glyph glyph-name="u" unicode="u" horiz-adv-x="1155" 
d="M147 1064h140l2 -605q0 -68 13.5 -131.5t45.5 -112.5t85 -78.5t131 -29.5t139 30t104 81t66 117.5t24 140.5l3 588h140v-1064h-142l3 165q-28 -44 -67.5 -78.5t-86 -57.5t-98 -35t-103.5 -12q-107 0 -182 38t-123 103t-70 151t-22 183z" />
    <glyph glyph-name="v" unicode="v" horiz-adv-x="1014" 
d="M25 1064h142l367 -878l341 878h139l-421 -1064h-122z" />
    <glyph glyph-name="w" unicode="w" horiz-adv-x="1677" 
d="M25 1064h151l296 -866l306 866h140l304 -881q78 223 157.5 440.5t154.5 440.5h143q-92 -269 -195.5 -533.5t-201.5 -530.5h-137q-69 221 -143.5 435.5t-152.5 432.5l-320 -868h-124z" />
    <glyph glyph-name="x" unicode="x" horiz-adv-x="986" 
d="M25 0l398 548l-394 516h160l314 -409l324 409h159l-404 -516l393 -548h-160l-315 440l-315 -440h-160z" />
    <glyph glyph-name="y" unicode="y" horiz-adv-x="1003" 
d="M25 1064h151q88 -223 173 -443.5t179 -441.5l341 885h154l-604 -1517h-151l189 460q-111 266 -220 527t-212 530z" />
    <glyph glyph-name="z" unicode="z" horiz-adv-x="979" 
d="M119 1v116l632 831h-632v117h784v-116l-628 -831h628v-117h-784z" />
    <glyph glyph-name="braceleft" unicode="{" horiz-adv-x="794" 
d="M203 619v136q51 2 83 30.5t49.5 73t24.5 100t7.5 110.5t-1.5 104.5t-2 83.5q0 46 1.5 97.5t9 101.5t23 95.5t44 79.5t71.5 54.5t106 20.5l24 -1l1 -123q-50 -2 -80 -27t-46.5 -64.5t-21.5 -88.5t-5 -98.5t3 -95.5t3 -79q0 -62 -5.5 -126t-23.5 -123t-53 -109t-94 -85
q58 -36 93.5 -83.5t54.5 -102.5t24.5 -115.5t4.5 -122.5t-4.5 -123.5t-3.5 -118.5q0 -42 5 -82.5t21 -72t46.5 -51.5t81.5 -22l-1 -126q-84 0 -137.5 30.5t-84.5 81.5t-44 116.5t-16 135t-0.5 138.5t2.5 126q0 29 -0.5 64t-5 71t-14 69.5t-27 60t-45.5 43t-68 17.5z" />
    <glyph glyph-name="bar" unicode="|" horiz-adv-x="492" 
d="M203 -580v2119h139v-2119h-139z" />
    <glyph glyph-name="braceright" unicode="}" horiz-adv-x="500" 
d="M56 -208q55 2 87.5 29t48.5 69t19.5 94.5t1 106t-7 103t-4.5 85.5q0 61 7 119.5t27 111t54.5 97.5t90.5 79q-54 32 -87.5 76t-53 96.5t-27 111t-9 117.5t0.5 117t2 111q0 42 -3 88.5t-17.5 85.5t-44.5 65t-85 28l2 123l23 1q75 0 123 -30t76.5 -79t40.5 -111.5
t15.5 -128.5t1.5 -129.5t-2 -114.5v-67t4 -77.5t13 -77.5t27 -68t46.5 -48.5t70.5 -19.5v-136q-50 -2 -81 -30t-48.5 -72t-24.5 -98.5t-7.5 -109t1.5 -103.5t2 -82q0 -53 -1.5 -108t-10 -105.5t-26 -95t-48.5 -78t-78.5 -52.5t-116.5 -19z" />
    <glyph glyph-name="asciitilde" unicode="~" horiz-adv-x="1279" 
d="M85 400q8 66 28 120.5t55 92.5t86.5 59t122.5 21q54 0 105 -13t100.5 -33t98 -43t97.5 -43t100 -33t106 -13q42 0 75.5 20t58 51t40.5 69t23 74h33.5t33.5 2q0 -62 -17 -119t-51.5 -100.5t-85.5 -69.5t-118 -26q-81 0 -156 25t-149 55t-149 55t-154 25q-38 0 -70 -15
t-57 -39.5t-41 -57t-21 -67.5z" />
    <glyph glyph-name="uni00A0" unicode="&#xa0;" horiz-adv-x="364" 
 />
    <glyph glyph-name="exclamdown" unicode="&#xa1;" horiz-adv-x="249" 
d="M56 974q0 42 27 67.5t67 25.5t68 -25.5t28 -67.5q0 -43 -26.5 -69.5t-69.5 -26.5t-68.5 26.5t-25.5 69.5zM85 -571v1268h144v-1268h-144z" />
    <glyph glyph-name="cent" unicode="&#xa2;" horiz-adv-x="993" 
d="M111 529q0 111 33 212t95.5 177.5t153.5 122t207 45.5q92 0 166 -27.5t129.5 -77.5t92 -121.5t54.5 -158.5h-158q-13 59 -35 108t-56 84.5t-81.5 55t-111.5 19.5q-88 0 -153 -39t-107.5 -102t-63.5 -141.5t-21 -156.5q0 -75 21 -151.5t63.5 -138t107 -100.5t151.5 -39
q56 0 99.5 15t76.5 43.5t57 69.5t40 92h154q-24 -77 -62.5 -139.5t-91.5 -106.5t-121 -68t-150 -24q-125 0 -217 42.5t-152.5 116t-90 173.5t-29.5 215zM247 -137l512 1344h109l-512 -1344h-109z" />
    <glyph glyph-name="sterling" unicode="&#xa3;" horiz-adv-x="1314" 
d="M136 0v125h159v634h-159v128h160q1 88 4 171.5t16.5 157.5t41 136.5t78 108t127 70.5t187.5 25q206 0 310.5 -106.5t103.5 -311.5h-137q0 72 -20.5 127t-59.5 92.5t-95 57t-127 19.5q-80 0 -134 -29t-88 -78t-48.5 -113t-14.5 -134v-193h326v-127h-326v-635h697v-125
h-1001z" />
    <glyph glyph-name="yen" unicode="&#xa5;" horiz-adv-x="1185" 
d="M59 1540h157l390 -695l338 695h156l-424 -840v-700h-146v700zM127 603v127h920v-127h-920zM129 305v127h920v-127h-920z" />
    <glyph glyph-name="section" unicode="&#xa7;" horiz-adv-x="1875" 
 />
    <glyph glyph-name="dieresis" unicode="&#xa8;" horiz-adv-x="659" 
d="M56 1539q0 42 27 67.5t67 25.5t68 -25.5t28 -67.5q0 -43 -26.5 -69.5t-69.5 -26.5t-68.5 26.5t-25.5 69.5zM467 1539q0 42 26.5 67.5t66.5 25.5t68.5 -25.5t28.5 -67.5q0 -43 -27 -69.5t-70 -26.5q-42 0 -67.5 26.5t-25.5 69.5z" />
    <glyph glyph-name="copyright" unicode="&#xa9;" horiz-adv-x="1881" 
d="M141 800q0 112 30.5 215t85.5 192.5t131.5 162t168 124.5t195.5 80t215 28q115 0 220.5 -30t197.5 -84.5t167 -130.5t128.5 -168.5t83 -198.5t29.5 -220q0 -115 -30 -221.5t-84 -198.5t-130.5 -168t-169 -130t-199 -83.5t-221.5 -29.5q-113 0 -217.5 33t-195.5 92
t-165.5 140t-128 176.5t-82.5 202.5t-29 217zM236 770q0 -98 27 -191t75.5 -176t116 -153t148.5 -120.5t173.5 -79t190.5 -28.5q103 0 198 27t177 75.5t149 117t114.5 151.5t73.5 178.5t26 198.5t-25.5 199t-73 179.5t-114 153t-148.5 119t-177.5 77t-199.5 27.5
q-102 0 -196.5 -28t-175.5 -78.5t-147.5 -120.5t-113.5 -153.5t-72.5 -179t-25.5 -195.5zM563 765q0 96 26 187t78.5 161.5t131.5 113t185 42.5q66 0 119.5 -19t96.5 -54t74.5 -83.5t53.5 -106.5h-94q-17 41 -39.5 75t-52.5 58.5t-67.5 38t-83.5 13.5q-87 0 -150.5 -36
t-104 -94.5t-60 -132.5t-19.5 -151q0 -49 8 -99t25 -96.5t43 -87.5t61.5 -72t81 -48.5t101.5 -17.5q96 0 157.5 44.5t98.5 129.5h91q-23 -57 -56 -104t-76 -80.5t-96 -52t-117 -18.5q-104 0 -181.5 41.5t-130 109.5t-78.5 156.5t-26 182.5z" />
    <glyph glyph-name="guillemotleft" unicode="&#xab;" horiz-adv-x="1126" 
d="M56 472v128l625 512v-138l-466 -437l466 -439v-136zM498 472v128l625 512v-138l-466 -437l466 -439v-136z" />
    <glyph glyph-name="logicalnot" unicode="&#xac;" horiz-adv-x="1370" 
d="M56 544v126h1311v-516h-127v390h-1184z" />
    <glyph glyph-name="uni00AD" unicode="&#xad;" horiz-adv-x="712" 
d="M85 575v127h596v-127h-596z" />
    <glyph glyph-name="registered" unicode="&#xae;" horiz-adv-x="971" 
d="M59 1125q0 91 37.5 170.5t100.5 138.5t145 93t171 34q94 0 177 -36.5t144.5 -99t97.5 -145.5t36 -177q0 -93 -36 -176t-97.5 -145.5t-144.5 -99t-177 -36.5q-95 0 -178 40t-144.5 106.5t-96.5 153t-35 179.5zM112 1103q0 -80 32 -154t87 -131t128 -91.5t154 -34.5
q85 0 159.5 32.5t129.5 88.5t86.5 130.5t31.5 159.5q0 84 -31.5 159.5t-86.5 132.5t-129.5 90t-159.5 33t-158 -34t-127 -91t-85 -132.5t-31 -157.5zM349 834v539h180q31 0 58 -11t46.5 -30.5t31 -46t11.5 -57.5q0 -27 -8.5 -51.5t-24 -45t-37 -36t-46.5 -23.5l155 -238h-55
l-150 234h-112v-234h-49zM398 1112h113q51 0 83.5 28.5t32.5 82.5q0 52 -27.5 80.5t-79.5 28.5h-122v-220z" />
    <glyph glyph-name="degree" unicode="&#xb0;" horiz-adv-x="605" 
d="M56 1364q0 57 21.5 106.5t59 86t87 58t106.5 21.5q56 0 105.5 -21.5t86.5 -58.5t58.5 -86.5t21.5 -105.5q0 -57 -21.5 -106.5t-58 -87t-86 -59t-106.5 -21.5t-106.5 21.5t-87 59t-59 87t-21.5 106.5zM151 1364q0 -36 14.5 -68.5t39 -57t57 -39t68.5 -14.5q37 0 69.5 14.5
t56.5 39t38 57t14 68.5q0 37 -14 69.5t-38 56.5t-56.5 38t-69.5 14q-36 0 -68.5 -14t-57 -38t-39 -56.5t-14.5 -69.5z" />
    <glyph glyph-name="plusminus" unicode="&#xb1;" horiz-adv-x="952" 
d="M56 553v126h893v-126h-893zM59 -62v126h889v-126h-889zM440 170v892h126v-892h-126z" />
    <glyph glyph-name="acute" unicode="&#xb4;" horiz-adv-x="406" 
d="M55 1247l181 292h166l-244 -292h-103z" />
    <glyph glyph-name="uni00B5" unicode="&#xb5;" horiz-adv-x="952" 
 />
    <glyph glyph-name="paragraph" unicode="&#xb6;" horiz-adv-x="1178" 
d="M56 1087q0 93 36 175.5t97.5 144t143.5 97t175 35.5h667v-1539h-135v1421h-394v-1421h-135v635q-94 0 -176.5 35.5t-144.5 97t-98 144t-36 175.5z" />
    <glyph glyph-name="periodcentered" unicode="&#xb7;" horiz-adv-x="249" 
d="M56 580q0 42 27 67t67 25t68 -26t28 -66q0 -43 -26.5 -69.5t-69.5 -26.5t-68.5 26.5t-25.5 69.5z" />
    <glyph glyph-name="guillemotright" unicode="&#xbb;" horiz-adv-x="1126" 
d="M56 -38v137l467 438l-467 438v137l625 -511v-128zM498 -38v137l467 438l-467 438v137l625 -511v-128z" />
    <glyph glyph-name="questiondown" unicode="&#xbf;" horiz-adv-x="822" 
d="M56 -134q0 63 16 111t42 87t59 71t67.5 63t67.5 63t59 71.5t42 88t16 112.5v173h154v-146q0 -91 -15.5 -155.5t-40.5 -111t-57 -79t-66 -60t-66 -53.5t-57 -59t-40.5 -77t-15.5 -107q0 -50 16 -91.5t45 -71t70.5 -45.5t91.5 -16q59 0 101.5 23t69.5 61t39.5 87t12.5 102
h152q0 -87 -24 -162t-71.5 -130t-118 -86t-163.5 -31q-85 0 -156 24.5t-122 71.5t-79.5 115.5t-28.5 156.5zM406 968q0 43 26.5 69.5t69.5 26.5t68.5 -26.5t25.5 -69.5q0 -42 -27 -67t-67 -25t-68 26t-28 66z" />
    <glyph glyph-name="Agrave" unicode="&#xc0;" horiz-adv-x="1364" 
d="M51 0l598 1538h123l583 -1538h-161l-167 470h-643l-176 -470h-157zM429 606h553l-271 730zM466 2080h172l199 -321h-93z" />
    <glyph glyph-name="Aacute" unicode="&#xc1;" horiz-adv-x="1364" 
d="M51 0l598 1538h123l583 -1538h-161l-167 470h-643l-176 -470h-157zM429 606h553l-271 730zM579 1773l180 292h166l-244 -292h-102z" />
    <glyph glyph-name="Acircumflex" unicode="&#xc2;" horiz-adv-x="1364" 
d="M51 0l598 1538h123l583 -1538h-161l-167 470h-643l-176 -470h-157zM297 1743l181 291h166l-244 -291h-103zM429 606h553l-271 730zM723 2034h166l181 -291h-103z" />
    <glyph glyph-name="Atilde" unicode="&#xc3;" horiz-adv-x="1364" 
d="M51 0l598 1538h123l583 -1538h-161l-167 470h-643l-176 -470h-157zM372 1775q0 38 14 73t38.5 61.5t57.5 42.5t72 16t77 -14.5t76.5 -31.5t78 -31.5t81.5 -14.5q22 0 39 10t29 26t20 35.5t13 39.5q32 -5 64 -3q-3 -36 -14 -73.5t-31 -68.5t-51 -51t-73 -20q-41 0 -80 14
t-78 30.5t-78 30.5t-79 14q-21 0 -38 -8.5t-29.5 -22t-20.5 -31.5t-11 -37h-76zM429 606h553l-271 730z" />
    <glyph glyph-name="Adieresis" unicode="&#xc4;" horiz-adv-x="1364" 
d="M51 0l598 1538h123l583 -1538h-161l-167 470h-643l-176 -470h-157zM417 1877q0 42 26 67.5t68 25.5q39 0 67.5 -25.5t28.5 -67.5q0 -43 -26.5 -69.5t-69.5 -26.5t-68.5 26.5t-25.5 69.5zM429 606h553l-271 730zM827 1877q0 42 26 67.5t68 25.5q39 0 67.5 -25.5
t28.5 -67.5q0 -43 -26.5 -69.5t-69.5 -26.5t-68.5 26.5t-25.5 69.5z" />
    <glyph glyph-name="Aring" unicode="&#xc5;" horiz-adv-x="1364" 
d="M51 0l581 1494q-49 12 -90.5 38.5t-71.5 64t-47 84.5t-17 100q0 61 23 115t63 94t93.5 63t115.5 23q61 0 115 -23t94 -63t63 -94t23 -115q0 -50 -15.5 -95t-43.5 -82t-66.5 -64.5t-83.5 -41.5l568 -1498h-161l-167 470h-643l-176 -470h-157zM429 606h553l-271 730z
M504 1785q0 -41 15.5 -76.5t41.5 -61.5t61.5 -41.5t76.5 -15.5q40 0 76 15.5t62.5 41.5t42 61.5t15.5 76.5q0 40 -15.5 76t-42 62.5t-62.5 42t-76 15.5q-41 0 -76.5 -15.5t-61.5 -42t-41.5 -62.5t-15.5 -76z" />
    <glyph glyph-name="AE" unicode="&#xc6;" horiz-adv-x="1688" 
 />
    <glyph glyph-name="Ccedilla" unicode="&#xc7;" horiz-adv-x="1471" 
d="M136 757q0 107 19 208t57.5 190.5t96.5 163.5t136 127.5t176 83t217 29.5q108 0 197.5 -35.5t161.5 -97t125.5 -146t88.5 -181.5h-157q-27 68 -66.5 128.5t-91 105.5t-116 71t-141.5 26q-97 0 -175 -26t-138.5 -72t-104.5 -109t-73 -138t-42.5 -158t-13.5 -168
q0 -81 13.5 -160t42 -150.5t72 -132.5t103 -105.5t135 -69.5t169.5 -25q156 0 260 75.5t165 216.5h153q-40 -96 -94.5 -174.5t-125.5 -134.5t-159.5 -86.5t-196.5 -30.5q-115 0 -211.5 28t-173.5 79t-135 122.5t-96 157.5t-57.5 184.5t-19.5 203.5zM644 -318l16 30t15 30v1
q17 -24 45 -34.5t57 -10.5q17 0 35.5 4.5t33.5 13.5t24.5 23.5t9.5 34.5q0 33 -18 48.5t-50 15.5q-21 0 -41.5 -5t-40.5 -13l-27 38l91 212l109 -16l-65 -144q11 2 22 5t23 3q24 0 45 -10t37 -26.5t25 -38t9 -45.5q0 -43 -14 -76.5t-39 -57t-59.5 -35.5t-76.5 -12
q-46 0 -90 15t-76 50z" />
    <glyph glyph-name="Egrave" unicode="&#xc8;" 
d="M203 0v1540h962v-134h-817v-548h713v-134h-713v-590h817v-134h-962zM411 2080h173l199 -321h-94z" />
    <glyph glyph-name="Eacute" unicode="&#xc9;" 
d="M203 0v1540h962v-134h-817v-548h713v-134h-713v-590h817v-134h-962zM623 1761l180 291h167l-245 -291h-102z" />
    <glyph glyph-name="Ecircumflex" unicode="&#xca;" 
d="M203 0v1540h962v-134h-817v-548h713v-134h-713v-590h817v-134h-962zM263 1797l181 291h166l-244 -291h-103zM697 2104h173l199 -321h-94z" />
    <glyph glyph-name="Edieresis" unicode="&#xcb;" 
d="M203 0v1540h962v-134h-817v-548h713v-134h-713v-590h817v-134h-962zM423 1902q0 42 26.5 67t66.5 25t68 -26t28 -66q0 -43 -26.5 -69.5t-69.5 -26.5t-68 26.5t-25 69.5zM833 1902q0 42 26 67t68 25q39 0 67.5 -26t28.5 -66q0 -43 -26.5 -69.5t-69.5 -26.5t-68.5 26.5
t-25.5 69.5z" />
    <glyph glyph-name="Igrave" unicode="&#xcc;" horiz-adv-x="612" 
d="M90 2080h173l199 -321h-94zM202 0v1540h145v-1540h-145z" />
    <glyph glyph-name="Iacute" unicode="&#xcd;" horiz-adv-x="553" 
d="M202 0v1540h145v-1540h-145zM203 1773l181 292h166l-244 -292h-103z" />
    <glyph glyph-name="Icircumflex" unicode="&#xce;" horiz-adv-x="481" 
d="M-180 1787l181 291h166l-244 -291h-103zM165 0v1540h145v-1540h-145zM254 2094h173l199 -321h-94z" />
    <glyph glyph-name="Idieresis" unicode="&#xcf;" horiz-adv-x="546" 
d="M0 1889q0 42 26 67.5t68 25.5q39 0 67.5 -25.5t28.5 -67.5q0 -43 -26.5 -69.5t-69.5 -26.5t-68.5 26.5t-25.5 69.5zM202 0v1540h145v-1540h-145zM410 1889q0 42 26 67.5t68 25.5q40 0 68 -25.5t28 -67.5q0 -43 -26.5 -69.5t-69.5 -26.5t-68.5 26.5t-25.5 69.5z" />
    <glyph glyph-name="Ntilde" unicode="&#xd1;" horiz-adv-x="1615" 
d="M202 0v1539h183l936 -1288v1289h145v-1540h-141l-978 1363v-1363h-145zM519 1763q0 37 14 72t38.5 62t57.5 43t72 16q40 0 78 -14.5t76.5 -32t77.5 -32t81 -14.5q21 0 38.5 10t30 26t21 36t11.5 39l32 -2t32 0q-2 -36 -13 -73.5t-32 -69t-52 -51.5t-72 -20
q-42 0 -81.5 14t-78.5 31t-77.5 31t-77.5 14q-20 0 -37 -8.5t-30 -23t-21 -32.5t-11 -36h-76z" />
    <glyph glyph-name="Ograve" unicode="&#xd2;" horiz-adv-x="1669" 
d="M183 767q0 100 17 197t53 185t91 162.5t130 129t171 85.5t215 31q118 0 214 -30t171 -84t129.5 -128t90 -161.5t52.5 -186t17 -200.5q0 -100 -17.5 -197.5t-53.5 -184.5t-91 -161t-130 -128t-170.5 -84t-211.5 -30t-211.5 30t-170.5 84t-130.5 128t-92 161t-54.5 184
t-18 198zM335 767q0 -85 12.5 -166.5t39.5 -154.5t69 -134.5t100.5 -105.5t134 -68t169.5 -22q138 4 236.5 57t162 141.5t93.5 205t30 247.5q0 85 -12 167t-38.5 154.5t-67.5 134t-99 105.5t-134 69t-171 25t-171 -25t-134.5 -69.5t-100 -105.5t-68 -134t-39 -154.5
t-12.5 -166.5zM653 2094h173l199 -321h-94z" />
    <glyph glyph-name="Oacute" unicode="&#xd3;" horiz-adv-x="1669" 
d="M183 767q0 100 17 197t53 185t91 162.5t130 129t171 85.5t215 31q118 0 214 -30t171 -84t129.5 -128t90 -161.5t52.5 -186t17 -200.5q0 -100 -17.5 -197.5t-53.5 -184.5t-91 -161t-130 -128t-170.5 -84t-211.5 -30t-211.5 30t-170.5 84t-130.5 128t-92 161t-54.5 184
t-18 198zM335 767q0 -85 12.5 -166.5t39.5 -154.5t69 -134.5t100.5 -105.5t134 -68t169.5 -22q138 4 236.5 57t162 141.5t93.5 205t30 247.5q0 85 -12 167t-38.5 154.5t-67.5 134t-99 105.5t-134 69t-171 25t-171 -25t-134.5 -69.5t-100 -105.5t-68 -134t-39 -154.5
t-12.5 -166.5zM659 1780l181 291h166l-244 -291h-103z" />
    <glyph glyph-name="Ocircumflex" unicode="&#xd4;" horiz-adv-x="1669" 
d="M183 767q0 100 17 197t53 185t91 162.5t130 129t171 85.5t215 31q118 0 214 -30t171 -84t129.5 -128t90 -161.5t52.5 -186t17 -200.5q0 -100 -17.5 -197.5t-53.5 -184.5t-91 -161t-130 -128t-170.5 -84t-211.5 -30t-211.5 30t-170.5 84t-130.5 128t-92 161t-54.5 184
t-18 198zM335 767q0 -85 12.5 -166.5t39.5 -154.5t69 -134.5t100.5 -105.5t134 -68t169.5 -22q138 4 236.5 57t162 141.5t93.5 205t30 247.5q0 85 -12 167t-38.5 154.5t-67.5 134t-99 105.5t-134 69t-171 25t-171 -25t-134.5 -69.5t-100 -105.5t-68 -134t-39 -154.5
t-12.5 -166.5zM486 1790l181 291h166l-244 -291h-103zM920 2097h173l199 -321h-94z" />
    <glyph glyph-name="Otilde" unicode="&#xd5;" horiz-adv-x="1669" 
d="M183 767q0 100 17 197t53 185t91 162.5t130 129t171 85.5t215 31q118 0 214 -30t171 -84t129.5 -128t90 -161.5t52.5 -186t17 -200.5q0 -100 -17.5 -197.5t-53.5 -184.5t-91 -161t-130 -128t-170.5 -84t-211.5 -30t-211.5 30t-170.5 84t-130.5 128t-92 161t-54.5 184
t-18 198zM335 767q0 -85 12.5 -166.5t39.5 -154.5t69 -134.5t100.5 -105.5t134 -68t169.5 -22q138 4 236.5 57t162 141.5t93.5 205t30 247.5q0 85 -12 167t-38.5 154.5t-67.5 134t-99 105.5t-134 69t-171 25t-171 -25t-134.5 -69.5t-100 -105.5t-68 -134t-39 -154.5
t-12.5 -166.5zM536 1763q0 37 14 72t38 62t57.5 43t72.5 16t77 -14.5t76.5 -32t78 -32t81.5 -14.5q22 0 39 10t29 26t20 36t13 39l32 -2t32 0q-3 -36 -14 -73.5t-31 -69t-51 -51.5t-73 -20t-81 14t-77.5 31t-77.5 31t-79 14q-43 0 -68 -30.5t-32 -69.5h-75z" />
    <glyph glyph-name="Odieresis" unicode="&#xd6;" horiz-adv-x="1669" 
d="M183 767q0 100 17 197t53 185t91 162.5t130 129t171 85.5t215 31q118 0 214 -30t171 -84t129.5 -128t90 -161.5t52.5 -186t17 -200.5q0 -100 -17.5 -197.5t-53.5 -184.5t-91 -161t-130 -128t-170.5 -84t-211.5 -30t-211.5 30t-170.5 84t-130.5 128t-92 161t-54.5 184
t-18 198zM335 767q0 -85 12.5 -166.5t39.5 -154.5t69 -134.5t100.5 -105.5t134 -68t169.5 -22q138 4 236.5 57t162 141.5t93.5 205t30 247.5q0 85 -12 167t-38.5 154.5t-67.5 134t-99 105.5t-134 69t-171 25t-171 -25t-134.5 -69.5t-100 -105.5t-68 -134t-39 -154.5
t-12.5 -166.5zM563 1870q0 42 26 67.5t68 25.5q39 0 67.5 -25.5t28.5 -67.5q0 -43 -27 -69.5t-69 -26.5q-43 0 -68.5 26.5t-25.5 69.5zM973 1870q0 42 26 67.5t68 25.5q39 0 67.5 -25.5t28.5 -67.5q0 -43 -26.5 -69.5t-69.5 -26.5t-68.5 26.5t-25.5 69.5z" />
    <glyph glyph-name="Oslash" unicode="&#xd8;" horiz-adv-x="1296" 
d="M139 762q0 82 9 173t32 179.5t61.5 169t98.5 141.5t143 97t194 36q112 0 193.5 -36t138 -97t92 -141.5t55 -168.5t26.5 -179.5t7 -173.5q0 -79 -10 -167t-34 -175t-62.5 -166.5t-95.5 -140.5t-133.5 -97t-176.5 -36q-110 0 -193 33.5t-142.5 91t-98.5 134.5t-62.5 164
t-32.5 179t-9 180zM286 764q0 -59 5.5 -131t21 -145.5t42.5 -143t70.5 -124t105.5 -87.5t146 -34q77 -1 134.5 31.5t98.5 87t67.5 124.5t42 144t21.5 145t6 128q0 61 -4 135.5t-17.5 150t-38 147t-65.5 126.5t-101 88.5t-144 33.5q-85 0 -147 -33.5t-105 -88.5t-70.5 -126
t-42.5 -146.5t-20.5 -148.5t-5.5 -133zM297 0l623 1622h108l-622 -1622h-109z" />
    <glyph glyph-name="Ugrave" unicode="&#xd9;" horiz-adv-x="1606" 
d="M218 679v861h146l-2 -841q0 -119 21.5 -225t74.5 -186t142.5 -127t224.5 -47q109 0 186 31.5t128.5 82t82 114t46 128.5t19.5 124.5t4 101.5q0 97 1 204.5t2.5 217.5t3.5 217.5t3 204.5h142v-841q0 -154 -34.5 -285t-109.5 -227t-192.5 -150.5t-283.5 -54.5
q-165 0 -280 51t-187.5 143.5t-105 220.5t-32.5 282zM572 2080h173l199 -321h-94z" />
    <glyph glyph-name="Uacute" unicode="&#xda;" horiz-adv-x="1606" 
d="M218 679v861h146l-2 -841q0 -119 21.5 -225t74.5 -186t142.5 -127t224.5 -47q109 0 186 31.5t128.5 82t82 114t46 128.5t19.5 124.5t4 101.5q0 97 1 204.5t2.5 217.5t3.5 217.5t3 204.5h142v-841q0 -154 -34.5 -285t-109.5 -227t-192.5 -150.5t-283.5 -54.5
q-165 0 -280 51t-187.5 143.5t-105 220.5t-32.5 282zM642 1780l181 291h166l-244 -291h-103z" />
    <glyph glyph-name="Ucircumflex" unicode="&#xdb;" horiz-adv-x="1606" 
d="M218 679v861h146l-2 -841q0 -119 21.5 -225t74.5 -186t142.5 -127t224.5 -47q109 0 186 31.5t128.5 82t82 114t46 128.5t19.5 124.5t4 101.5q0 97 1 204.5t2.5 217.5t3.5 217.5t3 204.5h142v-841q0 -154 -34.5 -285t-109.5 -227t-192.5 -150.5t-283.5 -54.5
q-165 0 -280 51t-187.5 143.5t-105 220.5t-32.5 282zM410 1787l181 291h166l-244 -291h-103zM844 2094h173l199 -321h-94z" />
    <glyph glyph-name="Udieresis" unicode="&#xdc;" horiz-adv-x="1606" 
d="M218 679v861h146l-2 -841q0 -119 21.5 -225t74.5 -186t142.5 -127t224.5 -47q109 0 186 31.5t128.5 82t82 114t46 128.5t19.5 124.5t4 101.5q0 97 1 204.5t2.5 217.5t3.5 217.5t3 204.5h142v-841q0 -154 -34.5 -285t-109.5 -227t-192.5 -150.5t-283.5 -54.5
q-165 0 -280 51t-187.5 143.5t-105 220.5t-32.5 282zM514 1858q0 42 26 67t68 25q39 0 67.5 -26t28.5 -66q0 -43 -26.5 -69.5t-69.5 -26.5t-68.5 26.5t-25.5 69.5zM924 1858q0 42 26 67t68 25q40 0 68 -26t28 -66q0 -43 -26.5 -69.5t-69.5 -26.5t-68.5 26.5t-25.5 69.5z" />
    <glyph glyph-name="agrave" unicode="&#xe0;" horiz-adv-x="1047" 
d="M111 282q0 90 34.5 152t91.5 101.5t131 61t152.5 31.5t155.5 11.5t141 1.5q0 63 -9 121t-34.5 103t-72 72t-121.5 27q-47 0 -93 -6t-85 -24t-67 -50.5t-38 -85.5l-150 -2q12 85 52 140t98.5 87t130.5 44.5t147 12.5q106 0 179 -32.5t117 -90.5t63.5 -139t19.5 -178
q0 -162 -2 -320t-3 -320h-130v163q-66 -96 -164 -138.5t-211 -42.5q-69 0 -130 19t-106 57t-71 94t-26 130zM254 301q0 -47 16 -85t44.5 -65.5t67 -42.5t84.5 -15q81 0 146 28t110.5 77t70.5 116t25 145l-1 58l-114 3q-39 0 -87 -1.5t-98 -8t-97.5 -20t-84.5 -38
t-59.5 -61.5t-22.5 -90zM353 1574h172l199 -321h-93z" />
    <glyph glyph-name="aacute" unicode="&#xe1;" horiz-adv-x="1047" 
d="M111 282q0 90 34.5 152t91.5 101.5t131 61t152.5 31.5t155.5 11.5t141 1.5q0 63 -9 121t-34.5 103t-72 72t-121.5 27q-47 0 -93 -6t-85 -24t-67 -50.5t-38 -85.5l-150 -2q12 85 52 140t98.5 87t130.5 44.5t147 12.5q106 0 179 -32.5t117 -90.5t63.5 -139t19.5 -178
q0 -162 -2 -320t-3 -320h-130v163q-66 -96 -164 -138.5t-211 -42.5q-69 0 -130 19t-106 57t-71 94t-26 130zM254 301q0 -47 16 -85t44.5 -65.5t67 -42.5t84.5 -15q81 0 146 28t110.5 77t70.5 116t25 145l-1 58l-114 3q-39 0 -87 -1.5t-98 -8t-97.5 -20t-84.5 -38
t-59.5 -61.5t-22.5 -90zM403 1277l181 291h166l-244 -291h-103z" />
    <glyph glyph-name="acircumflex" unicode="&#xe2;" horiz-adv-x="1047" 
d="M111 282q0 90 34.5 152t91.5 101.5t131 61t152.5 31.5t155.5 11.5t141 1.5q0 63 -9 121t-34.5 103t-72 72t-121.5 27q-47 0 -93 -6t-85 -24t-67 -50.5t-38 -85.5l-150 -2q12 85 52 140t98.5 87t130.5 44.5t147 12.5q106 0 179 -32.5t117 -90.5t63.5 -139t19.5 -178
q0 -162 -2 -320t-3 -320h-130v163q-66 -96 -164 -138.5t-211 -42.5q-69 0 -130 19t-106 57t-71 94t-26 130zM215 1214l296 357h114l303 -357h-125l-235 249l-230 -249h-123zM254 301q0 -47 16 -85t44.5 -65.5t67 -42.5t84.5 -15q81 0 146 28t110.5 77t70.5 116t25 145l-1 58
l-114 3q-39 0 -87 -1.5t-98 -8t-97.5 -20t-84.5 -38t-59.5 -61.5t-22.5 -90z" />
    <glyph glyph-name="atilde" unicode="&#xe3;" horiz-adv-x="1026" 
d="M111 282q0 90 34.5 152t91.5 101.5t131 61t152.5 31.5t155.5 11.5t141 1.5q0 63 -9 121t-34.5 103t-72 72t-121.5 27q-47 0 -93 -6t-85 -24t-67 -50.5t-38 -85.5l-150 -2q12 85 52 140t98.5 87t130.5 44.5t147 12.5q106 0 179 -32.5t117 -90.5t63.5 -139t19.5 -178
q0 -162 -2 -320t-3 -320h-130v163q-66 -96 -164 -138.5t-211 -42.5q-69 0 -130 19t-106 57t-71 94t-26 130zM196 1316q0 38 14 73t38.5 62t58 43t71.5 16q40 0 77.5 -14.5t76 -32t77.5 -32t82 -14.5q23 0 39.5 10t28.5 26t20 35.5t14 39.5q15 -1 31 -2.5t32 0.5
q-2 -36 -13 -74t-32 -69t-51.5 -51t-71.5 -20q-42 0 -81 14t-78 30.5t-78 30.5t-79 14q-21 0 -38 -8.5t-29.5 -22t-20.5 -31.5t-11 -37h-76zM254 301q0 -47 16 -85t44.5 -65.5t67 -42.5t84.5 -15q81 0 146 28t110.5 77t70.5 116t25 145l-1 58l-114 3q-39 0 -87 -1.5t-98 -8
t-97.5 -20t-84.5 -38t-59.5 -61.5t-22.5 -90z" />
    <glyph glyph-name="adieresis" unicode="&#xe4;" horiz-adv-x="1047" 
d="M111 282q0 90 34.5 152t91.5 101.5t131 61t152.5 31.5t155.5 11.5t141 1.5q0 63 -9 121t-34.5 103t-72 72t-121.5 27q-47 0 -93 -6t-85 -24t-67 -50.5t-38 -85.5l-150 -2q12 85 52 140t98.5 87t130.5 44.5t147 12.5q106 0 179 -32.5t117 -90.5t63.5 -139t19.5 -178
q0 -162 -2 -320t-3 -320h-130v163q-66 -96 -164 -138.5t-211 -42.5q-69 0 -130 19t-106 57t-71 94t-26 130zM242 1428q0 42 26 67.5t68 25.5q39 0 67.5 -25.5t28.5 -67.5q0 -43 -26.5 -69.5t-69.5 -26.5t-68.5 26.5t-25.5 69.5zM254 301q0 -47 16 -85t44.5 -65.5t67 -42.5
t84.5 -15q81 0 146 28t110.5 77t70.5 116t25 145l-1 58l-114 3q-39 0 -87 -1.5t-98 -8t-97.5 -20t-84.5 -38t-59.5 -61.5t-22.5 -90zM652 1428q0 42 26 67.5t68 25.5q39 0 67.5 -25.5t28.5 -67.5q0 -43 -26.5 -69.5t-69.5 -26.5t-68.5 26.5t-25.5 69.5z" />
    <glyph glyph-name="aring" unicode="&#xe5;" horiz-adv-x="1047" 
d="M111 282q0 90 34.5 152t91.5 101.5t131 61t152.5 31.5t155.5 11.5t141 1.5q0 63 -9 121t-34.5 103t-72 72t-121.5 27q-47 0 -93 -6t-85 -24t-67 -50.5t-38 -85.5l-150 -2q12 85 52 140t98.5 87t130.5 44.5t147 12.5q106 0 179 -32.5t117 -90.5t63.5 -139t19.5 -178
q0 -162 -2 -320t-3 -320h-130v163q-66 -96 -164 -138.5t-211 -42.5q-69 0 -130 19t-106 57t-71 94t-26 130zM254 301q0 -47 16 -85t44.5 -65.5t67 -42.5t84.5 -15q81 0 146 28t110.5 77t70.5 116t25 145l-1 58l-114 3q-39 0 -87 -1.5t-98 -8t-97.5 -20t-84.5 -38
t-59.5 -61.5t-22.5 -90zM324 1526q0 45 17.5 85t48 70t71 47.5t85.5 17.5t85 -17.5t70 -47.5t47.5 -70t17.5 -85q0 -46 -17.5 -86.5t-47.5 -70.5t-70 -47.5t-85 -17.5t-85.5 17.5t-71 47.5t-48 70.5t-17.5 86.5zM401 1526q0 -29 11.5 -55.5t31.5 -46.5t46.5 -31.5
t55.5 -11.5t55 11.5t46 31.5t31.5 46.5t11.5 55.5q0 28 -11.5 54.5t-31.5 46t-46 31.5t-55 12t-55.5 -12t-46.5 -31.5t-31.5 -46t-11.5 -54.5z" />
    <glyph glyph-name="ae" unicode="&#xe6;" horiz-adv-x="1688" 
d="M111 282q0 90 34.5 152t91.5 101.5t131 61t152.5 31.5t155.5 11.5t141 1.5q0 63 -9 121t-34.5 103t-72 72t-121.5 27q-47 0 -93 -6t-85 -24t-67 -50.5t-38 -85.5l-150 -2q12 85 52 140t98.5 87t130.5 44.5t147 12.5q137 0 218.5 -53t119.5 -145q63 94 160.5 149t229.5 55
q120 0 207 -50t142.5 -131.5t81.5 -184t24 -207.5l-796 -1q2 -72 24.5 -145.5t65.5 -132.5t105.5 -96.5t145.5 -37.5q111 0 177.5 56t98.5 159h149q-24 -78 -62.5 -139.5t-91.5 -104.5t-121 -66t-150 -23q-118 0 -205.5 41.5t-147.5 111.5q-1 -34 -1 -67.5v-67.5h-130v163
q-66 -96 -164 -138.5t-211 -42.5q-69 0 -130 19t-106 57t-71 94t-26 130zM254 301q0 -47 16 -85t44.5 -65.5t67 -42.5t84.5 -15q81 0 146 28t110.5 77t70.5 116t25 145l-1 58l-114 3q-39 0 -87 -1.5t-98 -8t-97.5 -20t-84.5 -38t-59.5 -61.5t-22.5 -90zM965 634h643
q-4 69 -24 129.5t-57 106t-92.5 72t-131.5 26.5q-77 0 -137 -30t-102.5 -78t-67.5 -107.5t-31 -118.5z" />
    <glyph glyph-name="ccedilla" unicode="&#xe7;" horiz-adv-x="1099" 
d="M111 529q0 111 33 212t95.5 177.5t153.5 122t207 45.5q92 0 166 -27.5t129.5 -77.5t92 -121.5t54.5 -158.5h-158q-13 59 -35 108t-56 84.5t-81.5 55t-111.5 19.5q-88 0 -153 -39t-107.5 -102t-63.5 -141.5t-21 -156.5q0 -75 21 -151.5t63.5 -138t107 -100.5t151.5 -39
q56 0 99.5 15t76.5 43.5t57 69.5t40 92h154q-24 -77 -62.5 -139.5t-91.5 -106.5t-121 -68t-150 -24q-125 0 -217 42.5t-152.5 116t-90 173.5t-29.5 215zM382 -322q8 15 16 29.5t14 30.5v1q17 -25 45.5 -35t57.5 -10q17 0 35 4.5t33 13.5t25 23t10 34q0 33 -18 49t-50 16
q-21 0 -41.5 -5t-40.5 -13l-27 37l91 213l109 -16l-65 -145q10 2 21.5 5t22.5 3q25 0 46 -9.5t37 -26t25 -38.5t9 -46q0 -42 -14 -76t-39 -57t-59.5 -35.5t-76.5 -12.5q-46 0 -90 15.5t-76 50.5z" />
    <glyph glyph-name="egrave" unicode="&#xe8;" horiz-adv-x="1107" 
d="M115 538q0 114 32.5 213.5t95 174t152.5 117.5t205 43q120 0 207 -50t142.5 -131.5t81.5 -184t24 -207.5l-796 -1q2 -72 24.5 -145.5t65.5 -132.5t105.5 -96.5t145.5 -37.5q111 0 177.5 56t98.5 159h149q-24 -78 -62.5 -139.5t-91.5 -104.5t-121 -66t-150 -23
q-125 0 -216.5 47t-151 124.5t-88.5 177.5t-29 207zM262 634h643q-4 69 -24 129.5t-57 106t-92.5 72t-131.5 26.5q-77 0 -137 -30t-102.5 -78t-67.5 -107.5t-31 -118.5zM374 1574h173l199 -321h-94z" />
    <glyph glyph-name="eacute" unicode="&#xe9;" horiz-adv-x="1107" 
d="M115 538q0 114 32.5 213.5t95 174t152.5 117.5t205 43q120 0 207 -50t142.5 -131.5t81.5 -184t24 -207.5l-796 -1q2 -72 24.5 -145.5t65.5 -132.5t105.5 -96.5t145.5 -37.5q111 0 177.5 56t98.5 159h149q-24 -78 -62.5 -139.5t-91.5 -104.5t-121 -66t-150 -23
q-125 0 -216.5 47t-151 124.5t-88.5 177.5t-29 207zM262 634h643q-4 69 -24 129.5t-57 106t-92.5 72t-131.5 26.5q-77 0 -137 -30t-102.5 -78t-67.5 -107.5t-31 -118.5zM432 1277l180 291h167l-245 -291h-102z" />
    <glyph glyph-name="ecircumflex" unicode="&#xea;" horiz-adv-x="1107" 
d="M115 538q0 114 32.5 213.5t95 174t152.5 117.5t205 43q120 0 207 -50t142.5 -131.5t81.5 -184t24 -207.5l-796 -1q2 -72 24.5 -145.5t65.5 -132.5t105.5 -96.5t145.5 -37.5q111 0 177.5 56t98.5 159h149q-24 -78 -62.5 -139.5t-91.5 -104.5t-121 -66t-150 -23
q-125 0 -216.5 47t-151 124.5t-88.5 177.5t-29 207zM228 1214l296 357h114l303 -357h-124l-235 249l-231 -249h-123zM262 634h643q-4 69 -24 129.5t-57 106t-92.5 72t-131.5 26.5q-77 0 -137 -30t-102.5 -78t-67.5 -107.5t-31 -118.5z" />
    <glyph glyph-name="edieresis" unicode="&#xeb;" horiz-adv-x="1107" 
d="M115 538q0 114 32.5 213.5t95 174t152.5 117.5t205 43q120 0 207 -50t142.5 -131.5t81.5 -184t24 -207.5l-796 -1q2 -72 24.5 -145.5t65.5 -132.5t105.5 -96.5t145.5 -37.5q111 0 177.5 56t98.5 159h149q-24 -78 -62.5 -139.5t-91.5 -104.5t-121 -66t-150 -23
q-125 0 -216.5 47t-151 124.5t-88.5 177.5t-29 207zM262 634h643q-4 69 -24 129.5t-57 106t-92.5 72t-131.5 26.5q-77 0 -137 -30t-102.5 -78t-67.5 -107.5t-31 -118.5zM311 1422q0 42 26 67t68 25q39 0 67.5 -26t28.5 -66q0 -43 -27 -70t-69 -27q-43 0 -68.5 27t-25.5 70z
M721 1422q0 42 26 67t68 25q39 0 67.5 -26t28.5 -66q0 -43 -26.5 -70t-69.5 -27t-68.5 27t-25.5 70z" />
    <glyph glyph-name="igrave" unicode="&#xec;" horiz-adv-x="589" 
d="M136 1574h172l199 -321h-93zM298 0v1064h140v-1064h-140z" />
    <glyph glyph-name="iacute" unicode="&#xed;" horiz-adv-x="564" 
d="M136 1277l180 291h167l-245 -291h-102zM229 0v1064h141v-1064h-141z" />
    <glyph glyph-name="icircumflex" unicode="&#xee;" horiz-adv-x="704" 
d="M23 1214l296 357h114l303 -357h-125l-235 249l-230 -249h-123zM327 0v1064h140v-1064h-140z" />
    <glyph glyph-name="idieresis" unicode="&#xef;" horiz-adv-x="885" 
d="M170 1539q0 42 26.5 67.5t66.5 25.5t68 -25.5t28 -67.5q0 -43 -26.5 -69.5t-69.5 -26.5t-68 26.5t-25 69.5zM399 0v1064h140v-1064h-140zM580 1539q0 42 26.5 67.5t66.5 25.5t68.5 -25.5t28.5 -67.5q0 -43 -27 -69.5t-70 -26.5q-42 0 -67.5 26.5t-25.5 69.5z" />
    <glyph glyph-name="ntilde" unicode="&#xf1;" horiz-adv-x="1155" 
d="M170 0v1064h141l-3 -165q28 45 67.5 79t86 57.5t98 35.5t103.5 12q106 0 181.5 -38.5t123.5 -103.5t70 -151t22 -182l2 -608h-140l-2 606q0 66 -14.5 129.5t-46.5 112.5t-85 79t-129 30q-77 0 -138.5 -30.5t-104 -81.5t-66 -117.5t-24.5 -138.5l-5 -589h-137zM310 1316
q0 38 14 73t38 62t57.5 43t72.5 16t77 -14.5t76.5 -32t78 -32t81.5 -14.5q22 0 39 10t29 26t20 35.5t13 39.5q16 -1 32 -2.5t32 0.5q-3 -36 -14 -74t-31 -69t-51 -51t-73 -20t-81 14t-77.5 30.5t-77.5 30.5t-79 14q-21 0 -38 -8.5t-30 -22t-21 -31.5t-11 -37h-75z" />
    <glyph glyph-name="ograve" unicode="&#xf2;" horiz-adv-x="1149" 
d="M114 529q0 114 30 215t90.5 177t152 120.5t213.5 44.5q117 0 208 -45.5t153 -122t94.5 -177.5t32.5 -212q0 -113 -30.5 -213t-92 -174t-153 -117t-212.5 -43q-120 0 -211 43t-152 117.5t-92 174t-31 212.5zM258 529q0 -80 21.5 -156.5t64.5 -137.5t107 -98t149 -37
q91 0 156.5 37t107 98t61 137.5t19.5 156.5t-20 158.5t-62 141t-107 101t-155 38.5q-92 0 -157 -38.5t-106 -101t-60 -141t-19 -158.5zM400 1574h173l199 -321h-94z" />
    <glyph glyph-name="oacute" unicode="&#xf3;" horiz-adv-x="1149" 
d="M114 529q0 114 30 215t90.5 177t152 120.5t213.5 44.5q117 0 208 -45.5t153 -122t94.5 -177.5t32.5 -212q0 -113 -30.5 -213t-92 -174t-153 -117t-212.5 -43q-120 0 -211 43t-152 117.5t-92 174t-31 212.5zM258 529q0 -80 21.5 -156.5t64.5 -137.5t107 -98t149 -37
q91 0 156.5 37t107 98t61 137.5t19.5 156.5t-20 158.5t-62 141t-107 101t-155 38.5q-92 0 -157 -38.5t-106 -101t-60 -141t-19 -158.5zM438 1277l181 291h166l-244 -291h-103z" />
    <glyph glyph-name="ocircumflex" unicode="&#xf4;" horiz-adv-x="1149" 
d="M114 529q0 114 30 215t90.5 177t152 120.5t213.5 44.5q117 0 208 -45.5t153 -122t94.5 -177.5t32.5 -212q0 -113 -30.5 -213t-92 -174t-153 -117t-212.5 -43q-120 0 -211 43t-152 117.5t-92 174t-31 212.5zM247 1214l297 357h114l302 -357h-124l-235 249l-230 -249h-124z
M258 529q0 -80 21.5 -156.5t64.5 -137.5t107 -98t149 -37q91 0 156.5 37t107 98t61 137.5t19.5 156.5t-20 158.5t-62 141t-107 101t-155 38.5q-92 0 -157 -38.5t-106 -101t-60 -141t-19 -158.5z" />
    <glyph glyph-name="otilde" unicode="&#xf5;" horiz-adv-x="1149" 
d="M114 529q0 114 30 215t90.5 177t152 120.5t213.5 44.5q117 0 208 -45.5t153 -122t94.5 -177.5t32.5 -212q0 -113 -30.5 -213t-92 -174t-153 -117t-212.5 -43q-120 0 -211 43t-152 117.5t-92 174t-31 212.5zM258 529q0 -80 21.5 -156.5t64.5 -137.5t107 -98t149 -37
q91 0 156.5 37t107 98t61 137.5t19.5 156.5t-20 158.5t-62 141t-107 101t-155 38.5q-92 0 -157 -38.5t-106 -101t-60 -141t-19 -158.5zM267 1316q0 38 14 73t38.5 62t57.5 43t72 16t77 -14.5t76.5 -32t78 -32t81.5 -14.5q22 0 39 10t29 26t20 35.5t13 39.5q16 -1 32 -2.5
t32 0.5q-3 -36 -14 -74t-31 -69t-51 -51t-73 -20t-81 14t-77.5 30.5t-77.5 30.5t-79 14q-21 0 -38 -8.5t-29.5 -22t-20.5 -31.5t-11 -37h-76z" />
    <glyph glyph-name="odieresis" unicode="&#xf6;" horiz-adv-x="1149" 
d="M114 529q0 114 30 215t90.5 177t152 120.5t213.5 44.5q117 0 208 -45.5t153 -122t94.5 -177.5t32.5 -212q0 -113 -30.5 -213t-92 -174t-153 -117t-212.5 -43q-120 0 -211 43t-152 117.5t-92 174t-31 212.5zM258 529q0 -80 21.5 -156.5t64.5 -137.5t107 -98t149 -37
q91 0 156.5 37t107 98t61 137.5t19.5 156.5t-20 158.5t-62 141t-107 101t-155 38.5q-92 0 -157 -38.5t-106 -101t-60 -141t-19 -158.5zM310 1409q0 42 26.5 67.5t66.5 25.5t68 -25.5t28 -67.5q0 -43 -26.5 -69.5t-69.5 -26.5t-68 26.5t-25 69.5zM720 1409q0 42 26 67.5
t68 25.5q39 0 67.5 -25.5t28.5 -67.5q0 -43 -26.5 -69.5t-69.5 -26.5t-68.5 26.5t-25.5 69.5z" />
    <glyph glyph-name="divide" unicode="&#xf7;" horiz-adv-x="1029" 
d="M56 499v127h970v-127h-970zM442 197q0 42 26 67t68 25q39 0 67.5 -26t28.5 -66q0 -43 -26.5 -69.5t-69.5 -26.5t-68.5 26.5t-25.5 69.5zM442 923q0 42 26 67.5t68 25.5q39 0 67.5 -25.5t28.5 -67.5q0 -43 -26.5 -69.5t-69.5 -26.5t-68.5 26.5t-25.5 69.5z" />
    <glyph glyph-name="oslash" unicode="&#xf8;" horiz-adv-x="1176" 
d="M114 529q0 114 30 215t90.5 177t152 120.5t213.5 44.5q117 0 208 -45.5t153 -122t94.5 -177.5t32.5 -212q0 -113 -30.5 -213t-92 -174t-153 -117t-212.5 -43q-120 0 -211 43t-152 117.5t-92 174t-31 212.5zM258 529q0 -80 21.5 -156.5t64.5 -137.5t107 -98t149 -37
q91 0 156.5 37t107 98t61 137.5t19.5 156.5t-20 158.5t-62 141t-107 101t-155 38.5q-92 0 -157 -38.5t-106 -101t-60 -141t-19 -158.5zM295 -71l487 1201h109l-487 -1201h-109z" />
    <glyph glyph-name="ugrave" unicode="&#xf9;" horiz-adv-x="1178" 
d="M147 1064h140l2 -605q0 -68 13.5 -131.5t45.5 -112.5t85 -78.5t131 -29.5t139 30t104 81t66 117.5t24 140.5l3 588h140v-1064h-142l3 165q-28 -44 -67.5 -78.5t-86 -57.5t-98 -35t-103.5 -12q-107 0 -182 38t-123 103t-70 151t-22 183zM393 1574h173l199 -321h-94z" />
    <glyph glyph-name="uacute" unicode="&#xfa;" horiz-adv-x="1178" 
d="M147 1064h140l2 -605q0 -68 13.5 -131.5t45.5 -112.5t85 -78.5t131 -29.5t139 30t104 81t66 117.5t24 140.5l3 588h140v-1064h-142l3 165q-28 -44 -67.5 -78.5t-86 -57.5t-98 -35t-103.5 -12q-107 0 -182 38t-123 103t-70 151t-22 183zM436 1277l181 291h166l-244 -291
h-103z" />
    <glyph glyph-name="ucircumflex" unicode="&#xfb;" horiz-adv-x="1178" 
d="M147 1064h140l2 -605q0 -68 13.5 -131.5t45.5 -112.5t85 -78.5t131 -29.5t139 30t104 81t66 117.5t24 140.5l3 588h140v-1064h-142l3 165q-28 -44 -67.5 -78.5t-86 -57.5t-98 -35t-103.5 -12q-107 0 -182 38t-123 103t-70 151t-22 183zM252 1214l296 357h114l303 -357
h-124l-235 249l-231 -249h-123z" />
    <glyph glyph-name="udieresis" unicode="&#xfc;" horiz-adv-x="1178" 
d="M147 1064h140l2 -605q0 -68 13.5 -131.5t45.5 -112.5t85 -78.5t131 -29.5t139 30t104 81t66 117.5t24 140.5l3 588h140v-1064h-142l3 165q-28 -44 -67.5 -78.5t-86 -57.5t-98 -35t-103.5 -12q-107 0 -182 38t-123 103t-70 151t-22 183zM314 1539q0 42 26 67.5t68 25.5
q39 0 67.5 -25.5t28.5 -67.5q0 -43 -26.5 -69.5t-69.5 -26.5t-68.5 26.5t-25.5 69.5zM724 1539q0 42 26 67.5t68 25.5q40 0 68 -25.5t28 -67.5q0 -43 -26.5 -69.5t-69.5 -26.5t-68.5 26.5t-25.5 69.5z" />
    <glyph glyph-name="ydieresis" unicode="&#xff;" horiz-adv-x="1057" 
d="M34 1064h151q88 -223 173 -443.5t179 -441.5l341 885h154l-604 -1517h-151l189 460q-111 266 -220 527t-212 530zM287 1480q0 42 26 67.5t68 25.5q39 0 67.5 -25.5t28.5 -67.5q0 -43 -26.5 -69.5t-69.5 -26.5t-68.5 26.5t-25.5 69.5zM697 1480q0 42 26 67.5t68 25.5
q40 0 68 -25.5t28 -67.5q0 -43 -26.5 -69.5t-69.5 -26.5t-68.5 26.5t-25.5 69.5z" />
    <glyph glyph-name="OE" unicode="&#x152;" horiz-adv-x="1875" 
 />
    <glyph glyph-name="oe" unicode="&#x153;" horiz-adv-x="1836" 
 />
    <glyph glyph-name="Ydieresis" unicode="&#x178;" horiz-adv-x="1099" 
d="M59 1540h157l390 -695l338 695h156l-424 -840v-700h-146v700zM320 1877q0 42 26 67.5t68 25.5q39 0 67.5 -25.5t28.5 -67.5q0 -43 -26.5 -69.5t-69.5 -26.5t-68.5 26.5t-25.5 69.5zM730 1877q0 42 26 67.5t68 25.5q39 0 67.5 -25.5t28.5 -67.5q0 -43 -26.5 -69.5
t-69.5 -26.5t-68.5 26.5t-25.5 69.5z" />
    <glyph glyph-name="circumflex" unicode="&#x2c6;" horiz-adv-x="772" 
d="M56 1214l297 357h114l303 -357h-125l-235 249l-230 -249h-124z" />
    <glyph glyph-name="tilde" unicode="&#x2dc;" horiz-adv-x="719" 
d="M56 1316q0 38 14 73t38.5 62t58 43t71.5 16q40 0 78.5 -14.5t77 -32t77.5 -32t80 -14.5q22 0 39.5 10t30.5 26t21 35.5t11 39.5q16 -1 32 -2.5t31 0.5q-1 -36 -12 -74t-32 -69t-52 -51t-72 -20q-42 0 -81.5 14t-78.5 30.5t-77.5 30.5t-77.5 14q-21 0 -37.5 -8.5
t-29 -22.5t-21 -32t-12.5 -36h-75z" />
    <glyph glyph-name="uni2000" unicode="&#x2000;" horiz-adv-x="1052" 
 />
    <glyph glyph-name="uni2001" unicode="&#x2001;" horiz-adv-x="2104" 
 />
    <glyph glyph-name="uni2002" unicode="&#x2002;" horiz-adv-x="1052" 
 />
    <glyph glyph-name="uni2003" unicode="&#x2003;" horiz-adv-x="2104" 
 />
    <glyph glyph-name="uni2004" unicode="&#x2004;" horiz-adv-x="701" 
 />
    <glyph glyph-name="uni2005" unicode="&#x2005;" horiz-adv-x="526" 
 />
    <glyph glyph-name="uni2006" unicode="&#x2006;" horiz-adv-x="350" 
 />
    <glyph glyph-name="uni2007" unicode="&#x2007;" horiz-adv-x="350" 
 />
    <glyph glyph-name="uni2008" unicode="&#x2008;" horiz-adv-x="263" 
 />
    <glyph glyph-name="uni2009" unicode="&#x2009;" horiz-adv-x="420" 
 />
    <glyph glyph-name="uni200A" unicode="&#x200a;" horiz-adv-x="116" 
 />
    <glyph glyph-name="uni2010" unicode="&#x2010;" horiz-adv-x="712" 
d="M85 575v127h596v-127h-596z" />
    <glyph glyph-name="uni2011" unicode="&#x2011;" horiz-adv-x="712" 
d="M85 575v127h596v-127h-596z" />
    <glyph glyph-name="figuredash" unicode="&#x2012;" horiz-adv-x="712" 
d="M85 575v127h596v-127h-596z" />
    <glyph glyph-name="endash" unicode="&#x2013;" horiz-adv-x="952" 
d="M56 544v126h893v-126h-893z" />
    <glyph glyph-name="emdash" unicode="&#x2014;" horiz-adv-x="1592" 
d="M56 544v126h1533v-126h-1533z" />
    <glyph glyph-name="quoteleft" unicode="&#x2018;" horiz-adv-x="282" 
d="M75 1131v406h136v-406h-136z" />
    <glyph glyph-name="quoteright" unicode="&#x2019;" horiz-adv-x="282" 
d="M75 1131v406h136v-406h-136z" />
    <glyph glyph-name="quotesinglbase" unicode="&#x201a;" horiz-adv-x="1875" 
 />
    <glyph glyph-name="quotedblleft" unicode="&#x201c;" horiz-adv-x="451" 
d="M65 1131v406h136v-406h-136zM271 1131v406h136v-406h-136z" />
    <glyph glyph-name="quotedblright" unicode="&#x201d;" horiz-adv-x="454" 
d="M65 1131v406h136v-406h-136zM271 1131v406h136v-406h-136z" />
    <glyph glyph-name="bullet" unicode="&#x2022;" horiz-adv-x="456" 
d="M56 695q0 41 16 77t43 63t63 42.5t77 15.5t77 -15.5t63 -42.5t42.5 -63t15.5 -77t-15.5 -77t-42.5 -63t-63 -43t-77 -16t-77 16t-63 43t-43 63t-16 77z" />
    <glyph glyph-name="ellipsis" unicode="&#x2026;" horiz-adv-x="816" 
d="M56 78q0 42 27 67.5t67 25.5t68 -25.5t28 -67.5q0 -43 -26.5 -69.5t-69.5 -26.5t-68.5 26.5t-25.5 69.5zM338 78q0 42 26 67.5t68 25.5q39 0 67.5 -25.5t28.5 -67.5q0 -43 -26.5 -69.5t-69.5 -26.5t-68.5 26.5t-25.5 69.5zM624 78q0 42 26 67.5t68 25.5q39 0 67.5 -25.5
t28.5 -67.5q0 -43 -27 -69.5t-69 -26.5q-43 0 -68.5 26.5t-25.5 69.5z" />
    <glyph glyph-name="uni202F" unicode="&#x202f;" horiz-adv-x="420" 
 />
    <glyph glyph-name="guilsinglleft" unicode="&#x2039;" horiz-adv-x="684" 
d="M56 472v128l625 512v-138l-466 -437l466 -439v-136z" />
    <glyph glyph-name="guilsinglright" unicode="&#x203a;" horiz-adv-x="684" 
d="M56 -38v137l467 438l-467 438v137l625 -511v-128z" />
    <glyph glyph-name="uni205F" unicode="&#x205f;" horiz-adv-x="526" 
 />
    <glyph glyph-name="trademark" unicode="&#x2122;" horiz-adv-x="1472" 
d="M56 1477v61h561v-62h-257v-715h-67v716h-237zM663 762v777h94l310 -678l300 678h102v-777h-71v714l-296 -694h-75l-297 650v-670h-67z" />
    <glyph glyph-name="uni25FC" unicode="&#x25fc;" horiz-adv-x="1065" 
d="M0 0v1065h1065v-1065h-1065z" />
    <glyph glyph-name="uniFB02" unicode="&#xfb02;" horiz-adv-x="830" 
 />
    </font>
</defs>
</svg>
