<?xml version="1.0" standalone="no"?>
<!DOCTYPE svg PUBLIC "-//W3C//DTD SVG 1.1//EN" "http://www.w3.org/Graphics/SVG/1.1/DTD/svg11.dtd" >
<svg xmlns="http://www.w3.org/2000/svg" width="100%" height="100%">
<metadata>
Created by FontXChange 20110222 at Tue Apr  1 14:25:09 2014
 By Matt
(c)2012 Kai Bernau and Susana Carvalho with Christian Schwartz under exclusive license to Schwartzco Inc./Commercial Type. All rights reserved.
</metadata>
<defs>
<font id="Atlas-Grotesk-Web-Regular-Italic" horiz-adv-x="600" >
  <font-face 
    font-family="Atlas"
    font-weight="400"
    font-style="italic"
    font-stretch="normal"
    units-per-em="1000"
    panose-1="0 0 0 0 0 0 0 0 0 0"
    ascent="812"
    descent="-188"
    x-height="527"
    cap-height="765"
    bbox="-237 -212 1209 1174"
    underline-thickness="50"
    underline-position="-50"
    slope="-11"
    unicode-range="U+000D-FB02"
  />
<missing-glyph horiz-adv-x="500" 
 />
    <glyph glyph-name="f_f" unicode="ff" horiz-adv-x="680" 
d="M150 0h-88l89 458h-90l14 69h89l24 122q14 75 61.5 105.5t113.5 30.5q16 0 32 -1.5t27 -4.5l-14 -74q-9 2 -20.5 3.5t-28.5 1.5q-35 0 -56.5 -16.5t-30.5 -60.5l-20 -106h242l25 128q14 75 61.5 105.5t113.5 30.5q16 0 32 -1.5t27 -4.5l-14 -74q-9 2 -20.5 3.5t-28.5 1.5
q-35 0 -56.5 -16.5t-30.5 -60.5l-22 -112h121l-13 -69h-121l-88 -458h-88l89 458h-243z" />
    <glyph glyph-name="fi" unicode="fi" horiz-adv-x="631" 
d="M541 744h93l-19 -97h-93zM501 527h89l-102 -527h-89zM150 0h-88l89 458h-90l14 69h89l25 128q14 75 61.5 105.5t113.5 30.5q16 0 32 -1.5t27 -4.5l-14 -74q-9 2 -20.5 3.5t-28.5 1.5q-35 0 -56.5 -16.5t-30.5 -60.5l-22 -112h121l-13 -69h-121z" />
    <glyph glyph-name="fl" unicode="fl" horiz-adv-x="630" 
d="M552 788h89l-153 -788h-89zM150 0h-88l89 458h-90l14 69h89l25 128q14 75 61.5 105.5t113.5 30.5q16 0 32 -1.5t27 -4.5l-14 -74q-9 2 -20.5 3.5t-28.5 1.5q-35 0 -56.5 -16.5t-30.5 -60.5l-22 -112h121l-13 -69h-121z" />
    <glyph glyph-name=".notdef" horiz-adv-x="500" 
 />
    <glyph glyph-name=".null" horiz-adv-x="0" 
 />
    <glyph glyph-name="nonmarkingreturn" unicode="&#xd;" horiz-adv-x="267" 
 />
    <glyph glyph-name="NULL" horiz-adv-x="0" 
 />
    <glyph glyph-name="NULL" horiz-adv-x="0" 
 />
    <glyph glyph-name="space" unicode=" " horiz-adv-x="267" 
 />
    <glyph glyph-name="exclam" unicode="!" horiz-adv-x="255" 
d="M186 788h100l-123 -551h-75zM25 0l22 118h116l-22 -118h-116z" />
    <glyph glyph-name="quotedbl" unicode="&#x22;" horiz-adv-x="346" 
d="M292 765h98l-62 -221h-61zM132 765h98l-62 -221h-60z" />
    <glyph glyph-name="numbersign" unicode="#" horiz-adv-x="654" 
d="M401 373l49 142h-125l-48 -142h124zM176 297h-108l15 76h119l48 142h-110l14 76h121l59 174h75l-59 -174h124l59 174h76l-60 -174h112l-14 -76h-123l-47 -142h112l-15 -76h-124l-65 -198h-76l66 198h-125l-65 -198h-75z" />
    <glyph glyph-name="dollar" unicode="$" horiz-adv-x="614" 
d="M354 678q-28 -2 -52.5 -11.5t-43 -25t-29 -38t-10.5 -51.5q0 -45 24.5 -70t64.5 -40zM305 66q30 3 58 14t50 29t35.5 43.5t13.5 59.5q0 47 -26.5 75t-83.5 48l-52 -269h5zM200 -116l22 111q-42 6 -78 21.5t-61.5 43t-38.5 67.5t-10 95h91q-2 -71 26 -108t85 -46l56 288
l-20 7q-72 23 -107 69.5t-35 107.5q0 47 18 85t49.5 65t75.5 42.5t95 17.5l15 78h65l-16 -82q40 -6 72.5 -22t55.5 -42t34.5 -63t8.5 -86h-88q4 53 -20.5 91t-76.5 50l-49 -253l20 -7q89 -32 126.5 -76.5t37.5 -118.5q0 -51 -20.5 -92t-56 -70.5t-84.5 -46t-106 -18.5
l-21 -108h-65z" />
    <glyph glyph-name="percent" unicode="%" horiz-adv-x="812" 
d="M735 781h93l-696 -821h-92zM79 520q0 38 10.5 77.5t33 71t58.5 51.5t88 20q39 0 67 -11t46.5 -30.5t27 -45t8.5 -53.5q0 -39 -10 -78t-32.5 -71t-59 -52t-88.5 -20q-39 0 -67 11t-46 30t-27 45t-9 55zM229 443q34 0 55 17.5t33 42t16.5 52t4.5 47.5q0 14 -3.5 28t-12 25
t-22 17.5t-34.5 6.5q-30 0 -51 -16t-34 -40t-18.5 -51.5t-5.5 -51.5q0 -15 3.5 -28.5t12 -24.5t22 -17.5t34.5 -6.5zM587 -7q-39 0 -67 11t-46.5 30t-27.5 45t-9 55q0 38 10.5 77.5t33.5 71t59 51.5t88 20q39 0 67 -11t46.5 -30.5t27 -45t8.5 -53.5q0 -39 -10 -78t-32.5 -71
t-59 -52t-88.5 -20zM588 57q34 0 55 17.5t33 42t16.5 52t4.5 47.5q0 14 -3.5 28t-12 25t-22 17.5t-34.5 6.5q-32 0 -52.5 -16t-33.5 -40t-18 -51.5t-5 -51.5q0 -15 3.5 -28.5t12 -24.5t22 -17.5t34.5 -6.5z" />
    <glyph glyph-name="ampersand" unicode="&#x26;" horiz-adv-x="689" 
d="M275 597q0 -38 12 -71.5t29 -66.5q30 15 57.5 31.5t49 36t34.5 43t13 53.5q0 42 -22 69t-62 27q-47 0 -79 -33t-32 -89zM262 360q-75 -38 -105 -81t-30 -94q0 -57 34 -93t92 -36q48 0 87 16t71 44q-12 17 -24 37t-25 43l-93 167zM621 -2q-57 0 -95 15t-70 46
q-41 -34 -92 -54.5t-115 -20.5q-44 0 -82.5 13t-67 37.5t-45 61t-16.5 84.5q0 42 14.5 77t41 65t63.5 55t81 47q-20 37 -34 74.5t-14 91.5q0 43 15.5 79t42 61.5t62.5 40t78 14.5q36 0 66.5 -11t53 -31.5t35 -50t12.5 -66.5q0 -42 -17.5 -74.5t-46.5 -59t-66.5 -49.5
t-77.5 -45l91 -161q9 -16 16.5 -29.5t15.5 -24.5q30 44 50 95.5t31 103.5h81q-15 -61 -43 -130.5t-74 -129.5q24 -24 54 -34.5t79 -12.5l-15 -77h-12z" />
    <glyph glyph-name="quotesingle" unicode="'" horiz-adv-x="186" 
d="M132 765h98l-62 -221h-60z" />
    <glyph glyph-name="parenleft" unicode="(" horiz-adv-x="326" 
d="M163 -130q-12 31 -24.5 64.5t-22.5 72.5t-16 85t-6 102q0 81 17 159.5t48.5 153t74.5 145t96 136.5h73q-51 -70 -91.5 -141t-69.5 -145.5t-45.5 -155t-17.5 -168.5q-1 -51 3 -94t11.5 -80.5t17 -70t19.5 -63.5h-67z" />
    <glyph glyph-name="parenright" unicode=")" horiz-adv-x="326" 
d="M194 788q12 -31 24.5 -64.5t22.5 -72.5t16 -85.5t6 -101.5q0 -81 -17 -159.5t-48.5 -153t-75 -145t-95.5 -136.5h-73q51 70 91.5 141t69.5 145.5t45 154.5t18 169q1 51 -3 94t-11.5 80.5t-17 70t-19.5 63.5h67z" />
    <glyph glyph-name="asterisk" unicode="*" horiz-adv-x="432" 
d="M272 560l-104 -144l-62 55l130 114l1 2l-142 32l43 79l123 -71l2 2l8 159h86l-54 -156l2 -2l148 72l14 -83l-154 -32l-1 -2l85 -114l-75 -51l-48 140h-2z" />
    <glyph glyph-name="plus" unicode="+" horiz-adv-x="608" 
d="M319 127h-86l38 192h-182l14 77h183l37 191h86l-37 -191h182l-14 -77h-183z" />
    <glyph glyph-name="comma" unicode="," horiz-adv-x="224" 
d="M48 123h115l-131 -240h-63z" />
    <glyph glyph-name="hyphen" unicode="-" horiz-adv-x="389" 
d="M83 368h274l-16 -81h-274z" />
    <glyph glyph-name="period" unicode="." horiz-adv-x="233" 
d="M32 122h119l-23 -122h-119z" />
    <glyph glyph-name="slash" unicode="/" horiz-adv-x="563" 
d="M543 788h87l-618 -918h-92z" />
    <glyph glyph-name="zero" unicode="0" horiz-adv-x="657" 
d="M80 240q0 45 7 100.5t22.5 112.5t40 110.5t60 95.5t83 67.5t108.5 25.5q60 0 102.5 -20.5t69 -57t38.5 -86t11 -107.5q-1 -47 -8.5 -102t-23.5 -110t-40.5 -106.5t-60 -91t-82 -63.5t-106.5 -24q-57 0 -98.5 18.5t-68.5 52.5t-40.5 81t-13.5 104zM302 58q39 0 70.5 20.5
t57 54.5t44 78t30.5 91.5t18 95t6 87.5q0 31 -4.5 65t-18.5 62.5t-39.5 46.5t-67.5 18t-74.5 -23t-57.5 -61t-42.5 -85.5t-28.5 -96.5t-16 -94.5t-5 -79.5q0 -27 4.5 -58.5t18 -58t38.5 -44.5t67 -18z" />
    <glyph glyph-name="one" unicode="1" horiz-adv-x="415" 
d="M259 546h-148l12 64h25q72 0 111 36q21 17 34 40t21 58h72l-144 -744h-89z" />
    <glyph glyph-name="two" unicode="2" horiz-adv-x="602" 
d="M119 514q10 62 33.5 107t57.5 74t77.5 43t92.5 14q40 0 76.5 -11.5t65 -34t45 -57t16.5 -79.5q0 -48 -17 -88.5t-45 -76.5t-65.5 -69t-78.5 -66l-235 -189v-1h359l-15 -80h-482l13 69l299 250q30 25 61 52t56 56.5t40.5 63.5t15.5 74q0 51 -29 81.5t-84 30.5
q-30 0 -57 -8t-49 -26.5t-37.5 -50t-22.5 -78.5h-91z" />
    <glyph glyph-name="three" unicode="3" horiz-adv-x="614" 
d="M289 336l16 82h35q71 2 112.5 38t41.5 105q0 57 -35 86t-89 29q-61 0 -104.5 -34t-54.5 -113h-90q4 50 25 91t54 70.5t77.5 45.5t95.5 16q48 0 86.5 -13t66.5 -37t43 -58t15 -77q0 -38 -11.5 -69t-31.5 -55t-47 -41t-58 -27v-2q22 -6 41.5 -19.5t34.5 -33.5t23.5 -46.5
t8.5 -60.5q0 -51 -20.5 -93t-55.5 -72t-82 -46.5t-100 -16.5q-116 0 -178.5 59t-55.5 164h89q1 -71 37.5 -108.5t112.5 -37.5q38 0 68.5 11.5t51.5 32t32.5 48.5t11.5 60q0 54 -30 88t-91 34h-45z" />
    <glyph glyph-name="four" unicode="4" horiz-adv-x="613" 
d="M383 257l73 375h-2q-6 -11 -15 -23q-8 -11 -19 -24.5t-25 -30.5l-258 -297h246zM453 182l-35 -182h-85l35 182h-340l13 70l425 489h96l-94 -483h96l-15 -76h-96z" />
    <glyph glyph-name="five" unicode="5" horiz-adv-x="610" 
d="M451 277q0 63 -29 98.5t-92 35.5q-50 0 -86 -17.5t-59 -47.5h-78l105 395h372l-16 -78h-298l-61 -234h2q20 22 57.5 40.5t83.5 18.5t82 -15t60.5 -41.5t37.5 -63t13 -78.5q0 -64 -20 -119.5t-56.5 -97t-88 -65t-115.5 -23.5q-51 0 -92.5 14.5t-70 41.5t-42.5 65.5
t-11 86.5h90q-2 -68 33 -100t96 -32q45 0 79 18.5t57 49t35 69t12 79.5z" />
    <glyph glyph-name="six" unicode="6" horiz-adv-x="628" 
d="M533 581q-4 50 -30 75.5t-78 25.5q-48 0 -87 -25t-69.5 -66.5t-52 -96t-34.5 -112.5h4q30 45 76.5 69.5t103.5 24.5q45 0 81.5 -14.5t63 -40.5t41 -63t14.5 -82q0 -62 -20.5 -115.5t-56.5 -92.5t-85.5 -61t-108.5 -22t-101 20t-68.5 53t-39 76.5t-12.5 91.5
q0 54 9.5 113.5t28.5 118t48 112t69 94t90.5 64.5t111.5 24q91 0 138.5 -44.5t48.5 -126.5h-85zM298 61q42 0 74.5 17.5t54.5 45.5t33.5 64t11.5 74q0 66 -36.5 101.5t-96.5 35.5q-41 0 -73.5 -16.5t-55 -43.5t-34.5 -62t-12 -72q0 -66 35.5 -105t98.5 -39z" />
    <glyph glyph-name="seven" unicode="7" horiz-adv-x="534" 
d="M472 660h-356l16 81h463l-12 -59l-425 -682h-97z" />
    <glyph glyph-name="eight" unicode="8" horiz-adv-x="614" 
d="M377 752q45 0 84 -13.5t68 -38t45.5 -59.5t16.5 -78q0 -35 -11.5 -66.5t-32 -57t-47.5 -44t-58 -26.5v-2q19 -6 38.5 -19t34.5 -31.5t24.5 -44t9.5 -57.5q0 -55 -22 -98t-58.5 -72.5t-85 -45t-101.5 -15.5t-96.5 13t-74.5 38t-48 61t-17 82q0 39 13 72.5t36.5 59.5
t55 44.5t68.5 27.5v2q-36 16 -61.5 54.5t-25.5 91.5q0 49 20 90t54 70t78.5 45.5t92.5 16.5zM374 680q-36 0 -64 -12t-47.5 -33t-29.5 -49.5t-10 -61.5q0 -56 36 -85.5t90 -29.5q34 0 61.5 11.5t47.5 31.5t31 48.5t11 62.5q0 27 -10 49t-27.5 37t-40.5 23t-48 8zM285 56
q82 0 127 44.5t45 114.5q0 32 -12.5 55.5t-33.5 38.5t-48 22.5t-55 7.5q-40 0 -71.5 -12t-53.5 -33t-33.5 -50.5t-11.5 -63.5q0 -32 11.5 -55.5t31.5 -38.5t47 -22.5t57 -7.5z" />
    <glyph glyph-name="nine" unicode="9" horiz-adv-x="628" 
d="M380 676q-42 0 -74 -16t-54 -42.5t-33 -61t-11 -70.5q0 -66 32 -101.5t95 -35.5q43 0 76 15.5t56 41t35 59t12 70.5q0 66 -35.5 103.5t-98.5 37.5zM265 -15q-45 0 -83 11.5t-65 34.5t-41 57t-12 79h85q0 -31 9.5 -52.5t25 -34.5t36.5 -19t45 -6q53 0 92 26t67.5 69.5
t47 99.5t30.5 117h-4q-30 -45 -77.5 -69.5t-102.5 -24.5q-45 0 -82.5 14.5t-64.5 40.5t-41.5 63t-14.5 82q0 61 20.5 112t57 88t85.5 58t106 21q61 0 103.5 -20.5t68 -54t37 -75.5t11.5 -84q0 -53 -7 -112.5t-23.5 -119t-42.5 -114t-63.5 -96t-88 -66.5t-114.5 -25z" />
    <glyph glyph-name="colon" unicode=":" horiz-adv-x="255" 
d="M126 527h121l-24 -123h-121zM24 0l23 123h121l-23 -123h-121z" />
    <glyph glyph-name="semicolon" unicode=";" horiz-adv-x="255" 
d="M124 527h121l-24 -123h-121zM-29 -117l78 240h115l-131 -240h-62z" />
    <glyph glyph-name="less" unicode="&#x3c;" horiz-adv-x="570" 
d="M44 306l12 58l502 222l-15 -90l-386 -167l318 -172l-16 -80z" />
    <glyph glyph-name="equal" unicode="=" horiz-adv-x="647" 
d="M139 486h454l-15 -76h-454zM89 229l15 76h454l-15 -76h-454z" />
    <glyph glyph-name="greater" unicode="&#x3e;" horiz-adv-x="570" 
d="M558 360l-12 -58l-502 -222l15 91l386 167l-318 172l16 79z" />
    <glyph glyph-name="question" unicode="?" horiz-adv-x="549" 
d="M238 227l12 64q5 25 11 42t17.5 30.5t29 27t45.5 32.5l50 35q38 26 61 59t23 86q0 54 -32.5 86.5t-90.5 32.5q-78 0 -117 -46t-48 -137h-87q3 63 23 111t53.5 81t79 49.5t100.5 16.5q51 0 90 -14.5t65.5 -40t40 -59t13.5 -72.5q0 -45 -12.5 -79.5t-32.5 -60.5t-44 -46.5
t-48 -36.5l-44 -31q-18 -13 -29 -20.5t-18 -15t-10.5 -17.5t-7.5 -28l-10 -49h-83zM205 118h115l-22 -118h-115z" />
    <glyph glyph-name="at" unicode="@" horiz-adv-x="1001" 
d="M719 59q-57 0 -90.5 21t-40.5 67h-3q-25 -41 -63 -66t-92 -25q-37 0 -65.5 12.5t-48 34.5t-30.5 53t-12 68q-2 50 13 101t44 92.5t72.5 67.5t99.5 26q51 0 82 -23.5t42 -60.5h2l13 68h75l-53 -267q-11 -51 5.5 -79.5t62.5 -28.5q22 0 46.5 11.5t45.5 38.5t35 72t14 113
q0 69 -24 128t-68 102t-107.5 67.5t-141.5 24.5q-82 0 -156 -33.5t-130 -91.5t-89 -137.5t-33 -170.5q0 -83 25 -150.5t70.5 -115.5t110 -74t144.5 -26q82 0 149 24.5t112 59.5l36 -50q-52 -42 -126.5 -69.5t-180.5 -27.5q-95 0 -172.5 31t-133 87t-86 135.5t-30.5 175.5
q0 106 39.5 197t106.5 157.5t156 104t188 37.5q93 0 170 -27.5t132.5 -77t86 -119t30.5 -153.5q0 -86 -22.5 -144.5t-57 -94t-75.5 -50.5t-77 -15zM449 121q25 0 47.5 10t41 28t31.5 42.5t19 53.5l9 43q5 24 3.5 50t-11.5 47t-30 35t-52 14q-38 0 -66 -20.5t-46 -52t-27 -71
t-9 -76.5q0 -43 21.5 -73t68.5 -30z" />
    <glyph glyph-name="A" unicode="A" horiz-adv-x="722" 
d="M434 675q-2 -3 -15.5 -33t-38.5 -78l-135 -262h248l-42 262q-9 49 -12 80q-2 17 -3 31h-2zM505 229h-297l-118 -229h-94l401 765h106l132 -765h-93z" />
    <glyph glyph-name="B" unicode="B" horiz-adv-x="698" 
d="M52 0l148 765h254q98 0 154.5 -45t56.5 -126t-40.5 -126t-110.5 -62v-2q60 -13 92 -57.5t32 -106.5q0 -63 -24 -108.5t-64.5 -74.5t-94.5 -43t-114 -14h-289zM399 443q37 0 69 7t55.5 23.5t36.5 44.5t13 70q0 53 -33.5 78t-91.5 25h-171l-48 -248h170zM342 73
q41 0 77.5 8.5t64.5 29t44 53.5t16 81q0 63 -41.5 92.5t-116.5 29.5h-172l-57 -294h185z" />
    <glyph glyph-name="C" unicode="C" horiz-adv-x="755" 
d="M648 537q-6 82 -53 123t-119 41q-57 0 -101.5 -19t-78 -50.5t-56.5 -73t-37 -87.5t-20.5 -93.5t-6.5 -89.5q0 -44 10 -85t33.5 -73t62.5 -51.5t96 -19.5q47 0 84 14t64.5 38.5t46 57t27.5 70.5h92q-14 -60 -43 -107t-70 -80t-93.5 -50.5t-113.5 -17.5q-71 0 -125 22.5
t-90.5 64t-55 100.5t-18.5 133q0 79 23.5 162.5t73 152.5t125.5 113t180 44q52 0 97.5 -15t79 -45t54 -74.5t23.5 -104.5h-91z" />
    <glyph glyph-name="D" unicode="D" horiz-adv-x="755" 
d="M199 765h216q67 0 123.5 -17t97 -53.5t63 -93t22.5 -134.5q0 -92 -23.5 -176.5t-74.5 -149t-131 -103t-192 -38.5h-248zM319 79q70 0 120 22t84 57.5t54.5 79t31.5 86.5t14.5 81t3.5 61q0 61 -15.5 103t-44.5 68t-69.5 37.5t-89.5 11.5h-133l-118 -607h162z" />
    <glyph glyph-name="E" unicode="E" horiz-adv-x="659" 
d="M200 765h472l-16 -82h-381l-50 -257h353l-16 -80h-352l-51 -264h390l-16 -82h-481z" />
    <glyph glyph-name="F" unicode="F" 
d="M143 0h-91l148 765h446l-16 -82h-355l-54 -278h326l-15 -80h-326z" />
    <glyph glyph-name="G" unicode="G" horiz-adv-x="806" 
d="M652 562q-2 65 -44 102.5t-117 37.5q-65 0 -113.5 -21t-83.5 -56t-58 -79.5t-36.5 -90.5t-19 -91t-5.5 -80q0 -42 10 -82.5t33.5 -72t61.5 -51t94 -19.5t100 18.5t76 50.5t53 74.5t30 91.5l2 12h-217l17 80h306l-75 -386h-79l24 124h-3q-31 -65 -94.5 -102t-148.5 -37
q-75 0 -128.5 24.5t-88.5 66t-51.5 95t-16.5 110.5q0 51 9.5 107.5t29.5 111.5t53 105t79 88t107.5 60.5t139.5 22.5q111 0 176.5 -54t68.5 -160h-91z" />
    <glyph glyph-name="H" unicode="H" horiz-adv-x="769" 
d="M140 0h-90l147 765h91l-65 -338h385l65 338h91l-148 -765h-91l67 346h-385z" />
    <glyph glyph-name="I" unicode="I" horiz-adv-x="296" 
d="M202 765h91l-148 -765h-91z" />
    <glyph glyph-name="J" unicode="J" horiz-adv-x="416" 
d="M-26 -3l15 79h58q45 0 75 8.5t49.5 26t30.5 43t17 59.5l108 552h91l-109 -562q-9 -47 -25.5 -85t-47 -65t-77.5 -41.5t-116 -14.5h-69z" />
    <glyph glyph-name="K" unicode="K" horiz-adv-x="700" 
d="M143 0h-91l148 765h91l-78 -401l421 401h115l-346 -326l221 -439h-101l-189 377l-144 -132z" />
    <glyph glyph-name="L" unicode="L" horiz-adv-x="589" 
d="M200 765h91l-132 -683h372l-16 -82h-463z" />
    <glyph glyph-name="M" unicode="M" horiz-adv-x="917" 
d="M199 765h135l75 -525q3 -20 5.5 -42.5t4.5 -41.5q3 -22 5 -44h2l22 44q10 19 21.5 41.5t22.5 42.5l280 525h140l-148 -765h-93l128 658h-4q-9 -20 -20 -39q-9 -17 -19.5 -37t-19.5 -37l-291 -545h-85l-76 545q-3 17 -5.5 37t-4.5 37q-3 19 -4 39h-3l-128 -658h-87z" />
    <glyph glyph-name="N" unicode="N" horiz-adv-x="779" 
d="M200 765h112l223 -580q12 -35 18 -54q4 -11 5 -21h3l127 655h86l-148 -765h-111l-223 579q-8 19 -12.5 33t-7.5 23q-4 11 -5 18h-2l-126 -653h-87z" />
    <glyph glyph-name="O" unicode="O" horiz-adv-x="802" 
d="M81 287q0 105 30 194.5t83 155t125.5 102.5t158.5 37q70 0 124 -23t90.5 -64t55.5 -97.5t19 -122.5q0 -86 -25 -172.5t-74.5 -156t-122.5 -113t-170 -43.5q-71 0 -125.5 23.5t-92 64.5t-57 96t-19.5 119zM673 473q0 43 -10.5 84t-34 73.5t-61.5 52t-94 19.5t-99.5 -19.5
t-76.5 -52t-56.5 -75.5t-38 -89.5t-21 -93.5t-6.5 -88q0 -42 10.5 -82.5t34.5 -72t63 -51t95 -19.5q54 0 97 20t76 53.5t56 76.5t37.5 89t21.5 91.5t7 83.5z" />
    <glyph glyph-name="P" unicode="P" horiz-adv-x="625" 
d="M199 292l-56 -292h-91l148 765h198q52 0 95.5 -12.5t74.5 -38t48.5 -64.5t17.5 -91q0 -66 -22 -116t-61 -83.5t-93 -50.5t-117 -17h-142zM346 367q43 0 79 11.5t61.5 35t40 59t14.5 83.5q0 70 -39.5 102t-114.5 32h-110l-63 -323h132z" />
    <glyph glyph-name="Q" unicode="Q" horiz-adv-x="802" 
d="M372 -14q-71 0 -125 23.5t-91 64t-56 95.5t-19 118q0 105 30 194.5t83 155t125.5 102.5t158.5 37q70 0 124 -23t90.5 -64t55.5 -97.5t19 -122.5q0 -68 -14.5 -130t-39.5 -115.5t-59.5 -96t-74.5 -70.5v-5q59 -4 96.5 -27.5t68.5 -69.5l-76 -53q-19 27 -36 45t-35.5 28.5
t-39.5 15t-48 4.5q-18 0 -32 -1.5t-29 -3t-33 -3t-43 -1.5zM380 59q56 0 99.5 20t76 53.5t55 76.5t36.5 89t20 91.5t6 83.5q0 43 -10.5 84t-34 73.5t-61.5 52t-94 19.5t-99.5 -19.5t-76.5 -52t-56.5 -75.5t-38 -89.5t-21 -93.5t-6.5 -88q0 -42 10.5 -82.5t34.5 -72t63.5 -51
t96.5 -19.5z" />
    <glyph glyph-name="R" unicode="R" horiz-adv-x="678" 
d="M400 401q78 0 120 44t42 125q0 58 -33 88.5t-99 30.5h-155l-56 -288h181zM142 0h-90l147 765h241q98 0 155 -46q61 -50 61 -148q0 -83 -45 -146.5t-139 -86.5v-3l122 -335h-96l-115 325h-177z" />
    <glyph glyph-name="S" unicode="S" horiz-adv-x="666" 
d="M145 225q-2 -87 44 -125t129 -38q34 0 67 9t58.5 28t41.5 47.5t16 67.5q0 45 -26 72t-84 49l-90 33q-83 29 -120.5 75.5t-37.5 108.5q0 53 20.5 94.5t56 70.5t83 44t102.5 15q54 0 98 -14t74.5 -41.5t45.5 -70t12 -100.5h-91q4 66 -31.5 109t-112.5 43q-32 0 -62 -8.5
t-52.5 -25.5t-36 -43t-13.5 -60q0 -42 26 -69t78 -46l86 -31q45 -16 77 -34.5t52.5 -42t29.5 -53t9 -67.5q0 -54 -21 -98t-58 -75t-88.5 -47.5t-111.5 -16.5q-56 0 -105 13t-85.5 41.5t-56.5 74.5t-17 111h94z" />
    <glyph glyph-name="T" unicode="T" horiz-adv-x="624" 
d="M308 0h-92l133 685h-253l16 80h595l-16 -80h-250z" />
    <glyph glyph-name="U" unicode="U" horiz-adv-x="744" 
d="M188 765h91l-83 -430q-6 -30 -10.5 -60t-5.5 -57.5t2.5 -51t14.5 -41.5q20 -34 58 -49t89 -15q52 0 92.5 14t72.5 47q17 18 27 38t16.5 42.5t10.5 48t10 53.5l89 461h91l-101 -523q-26 -133 -103 -195t-208 -62q-64 0 -116.5 15.5t-86.5 51t-46 94.5t5 146z" />
    <glyph glyph-name="V" unicode="V" horiz-adv-x="716" 
d="M137 765h96l71 -552q8 -68 9 -98q1 -18 1 -32h2q5 12 13 30q7 15 17 36.5t26 50.5l308 565h95l-422 -765h-107z" />
    <glyph glyph-name="W" unicode="W" horiz-adv-x="1038" 
d="M184 0l-56 765h89l32 -529q3 -68 3 -103q0 -20 -1 -35h2q5 15 12 34q6 17 15 39t23 51l254 543h104l35 -529q2 -34 2.5 -60t0.5 -43q0 -20 -1 -35h2l12 33q6 16 15 39t23 52l251 543h92l-363 -765h-100l-37 527q-2 34 -3 59.5t-1 43.5q0 20 1 36h-2q-5 -15 -12 -34
q-6 -17 -15.5 -39.5t-23.5 -51.5l-254 -541h-99z" />
    <glyph glyph-name="X" unicode="X" horiz-adv-x="719" 
d="M330 402l-163 363h101l129 -296h2l247 296h99l-306 -369l181 -396h-104l-143 328h-2l-272 -328h-99z" />
    <glyph glyph-name="Y" unicode="Y" horiz-adv-x="640" 
d="M286 334l-177 431h102l134 -352h2l280 352h100l-352 -438l-63 -327h-91z" />
    <glyph glyph-name="Z" unicode="Z" horiz-adv-x="637" 
d="M160 765h521l-14 -70l-537 -614h426l-15 -81h-545l13 70l537 614h-402z" />
    <glyph glyph-name="bracketleft" unicode="[" horiz-adv-x="346" 
d="M200 788h213l-13 -67h-132l-153 -784h132l-13 -67h-213z" />
    <glyph glyph-name="backslash" unicode="\" horiz-adv-x="524" 
d="M113 788h75l275 -918h-80z" />
    <glyph glyph-name="bracketright" unicode="]" horiz-adv-x="370" 
d="M177 -130h-213l13 67h132l153 784h-132l13 67h213z" />
    <glyph glyph-name="asciicircum" unicode="^" horiz-adv-x="362" 
d="M413 506h-76l-71 191h-1l-149 -191h-79l209 282h72z" />
    <glyph glyph-name="underscore" unicode="_" horiz-adv-x="404" 
d="M-63 -121h391l-13 -69h-391z" />
    <glyph glyph-name="grave" unicode="`" horiz-adv-x="223" 
d="M175 626h-65l-102 162h97z" />
    <glyph glyph-name="a" unicode="a" horiz-adv-x="540" 
d="M201 64q23 0 48.5 10.5t48 32t40 53.5t26.5 75l3 15q-42 0 -81.5 -1t-75.5 -8q-43 -8 -70.5 -32t-27.5 -63q0 -38 22.5 -60t66.5 -22zM90 383q4 37 21 66t44 49t63 30.5t80 10.5q52 0 89 -15.5t58.5 -43t27.5 -66.5t-4 -86l-38 -196q-7 -35 3 -50t35 -13l-13 -73h-9
q-52 0 -75 24t-22 64h-3q-12 -19 -27.5 -35.5t-35.5 -29t-45 -20t-57 -7.5q-33 0 -62 9t-51 28t-35 47t-13 66q0 37 12.5 64.5t36 47.5t56 32.5t72.5 19.5q41 8 88.5 8.5t93.5 0.5l4 24q11 62 -12.5 96.5t-81.5 34.5q-44 0 -74.5 -20t-35.5 -67h-90z" />
    <glyph glyph-name="b" unicode="b" horiz-adv-x="598" 
d="M194 788h89l-68 -348h1q26 44 69 72t103 28q45 0 76.5 -15t51.5 -42t29.5 -64t9.5 -80q0 -36 -6 -76t-19 -79t-33.5 -75t-48.5 -63t-65 -43t-82 -16q-52 0 -96 25.5t-60 81.5h-2l-17 -94h-85zM296 57q52 0 85.5 33t52.5 78.5t26 93.5t7 78q0 56 -24.5 92.5t-79.5 36.5
q-35 0 -64.5 -13.5t-52 -36.5t-38 -53t-21.5 -62l-12 -59q-7 -34 -6 -67.5t14.5 -60.5t40.5 -43.5t72 -16.5z" />
    <glyph glyph-name="c" unicode="c" horiz-adv-x="525" 
d="M415 368q2 44 -22.5 74t-77.5 30q-48 0 -83 -26t-57 -66t-32.5 -87t-10.5 -90q0 -28 6 -54.5t20.5 -47t37.5 -33t57 -12.5q33 0 57.5 11t40.5 28t24.5 37.5t11.5 39.5h86q-9 -44 -29.5 -78.5t-50 -58t-66.5 -36t-78 -12.5q-52 0 -90.5 16t-64 44.5t-38 68.5t-12.5 87
q0 57 17 117t51.5 109t87 80t123.5 31q83 0 128.5 -43.5t46.5 -128.5h-83z" />
    <glyph glyph-name="d" unicode="d" horiz-adv-x="598" 
d="M315 469q-50 0 -85 -28.5t-56.5 -71t-31.5 -92t-10 -92.5q0 -25 5 -48t17.5 -40.5t32.5 -28t50 -10.5q36 0 65.5 13.5t52 36.5t37.5 53t21 63l11 56q7 33 7 67t-11 61t-36.5 44t-68.5 17zM456 0h-84l16 85h-2q-26 -41 -67 -69.5t-96 -28.5q-46 0 -79.5 14.5t-55.5 40.5
t-33 62.5t-11 81.5q0 60 16 123t49 114.5t82.5 84t116.5 32.5q116 0 145 -97h1l66 345h89z" />
    <glyph glyph-name="e" unicode="e" horiz-adv-x="539" 
d="M410 315q5 31 2.5 59.5t-15 50.5t-35 35t-58.5 13q-33 0 -59 -13.5t-46 -36t-33.5 -52.5t-22.5 -62h266zM459 138q-20 -72 -76.5 -111.5t-141.5 -39.5q-50 0 -87.5 16.5t-62.5 45t-37 66.5t-12 81q0 63 17 124.5t50.5 110t84.5 79t119 30.5q60 0 99 -23t59.5 -60
t24.5 -84t-5 -96l-8 -38h-352q-1 -11 -1.5 -21.5t-0.5 -21.5q0 -27 6 -52t20 -44.5t37.5 -31.5t58.5 -12q31 0 52.5 7.5t35.5 19.5t21.5 26.5t12.5 28.5h86z" />
    <glyph glyph-name="f" unicode="f" horiz-adv-x="350" 
d="M150 0h-88l89 458h-90l14 69h89l25 128q14 75 61.5 105.5t113.5 30.5q16 0 32 -1.5t27 -4.5l-14 -74q-9 2 -20.5 3.5t-28.5 1.5q-35 0 -56.5 -16.5t-30.5 -60.5l-22 -112h121l-13 -69h-121z" />
    <glyph glyph-name="g" unicode="g" horiz-adv-x="596" 
d="M424 288q7 34 7 66.5t-12 58t-37.5 41t-68.5 15.5q-49 0 -84 -28t-57 -70.5t-32 -92.5t-10 -94q0 -24 5 -45.5t17.5 -37.5t33 -25.5t51.5 -9.5q35 0 64.5 14t52 37t38 53t21.5 62zM99 -50q2 -38 29.5 -59.5t79.5 -21.5q69 0 109 42t56 125l11 54h-2q-26 -38 -66.5 -65.5
t-100.5 -27.5q-87 0 -130 51t-43 136q0 60 16.5 123.5t49.5 115t83.5 84.5t119.5 33q54 0 91 -24.5t53 -72.5h1l17 84h83l-99 -507q-22 -112 -86 -165.5t-171 -53.5q-35 0 -68 8.5t-59.5 26.5t-42.5 46t-16 68h85z" />
    <glyph glyph-name="h" unicode="h" horiz-adv-x="595" 
d="M430 311q8 38 8.5 70t-13.5 53q-9 14 -26.5 22.5t-45.5 8.5q-67 0 -109.5 -48t-58.5 -132l-55 -285h-89l153 788h89l-68 -346h2q26 42 68.5 70t99.5 28q83 0 119.5 -54.5t15.5 -161.5l-62 -324h-88z" />
    <glyph glyph-name="i" unicode="i" horiz-adv-x="273" 
d="M183 744h93l-19 -97h-93zM143 527h89l-102 -527h-89z" />
    <glyph glyph-name="j" unicode="j" horiz-adv-x="273" 
d="M183 744h93l-19 -97h-93zM-46 -199q-23 0 -38 3.5t-26 7.5l15 73q9 -3 20.5 -5t25.5 -2q32 0 51.5 15t27.5 53l113 581h89l-115 -591q-7 -37 -22 -62.5t-36 -41.5t-48 -23.5t-57 -7.5z" />
    <glyph glyph-name="k" unicode="k" horiz-adv-x="550" 
d="M130 0h-89l153 788h89l-100 -514l260 253h107l-221 -207l142 -320h-98l-111 257l-101 -97z" />
    <glyph glyph-name="l" unicode="l" horiz-adv-x="272" 
d="M194 788h89l-153 -788h-89z" />
    <glyph glyph-name="m" unicode="m" horiz-adv-x="908" 
d="M743 311q8 40 8 69q0 38 -18 61.5t-65 23.5q-63 0 -105 -48t-58 -132l-55 -285h-88l60 311q8 38 8 68q0 37 -18 61.5t-65 24.5q-63 0 -104.5 -48t-57.5 -132l-55 -285h-89l102 527h85l-18 -89h2q26 44 69.5 73t97.5 29q53 0 88 -30t44 -85h2q37 60 84 87.5t102 27.5
q81 0 118 -55t16 -161l-62 -324h-88z" />
    <glyph glyph-name="n" unicode="n" horiz-adv-x="595" 
d="M429 311q8 38 8 68q0 38 -17.5 62t-66.5 24q-67 0 -109.5 -48t-58.5 -132l-55 -285h-89l102 527h85l-18 -89h2q26 44 71 73t102 29q83 0 119.5 -54.5t15.5 -161.5l-62 -324h-89z" />
    <glyph glyph-name="o" unicode="o" horiz-adv-x="555" 
d="M245 -13q-54 0 -92 16.5t-63 44.5t-36.5 66t-11.5 82q0 58 16 119.5t49 111t83.5 81.5t119.5 32q54 0 92.5 -16.5t63 -44.5t36 -66t11.5 -81q0 -59 -16 -120t-49 -111t-83.5 -82t-119.5 -32zM425 338q0 25 -5 49t-18 43t-36 31t-58 12q-50 0 -84 -28.5t-55 -71t-30 -92
t-9 -91.5q0 -25 5 -49.5t18.5 -43.5t36.5 -30.5t58 -11.5q36 0 63 14.5t46.5 38t32.5 53.5t21 61.5t11 61.5t3 54z" />
    <glyph glyph-name="p" unicode="p" horiz-adv-x="598" 
d="M298 57q47 0 79.5 29t52.5 71.5t28.5 92t8.5 90.5q0 24 -4.5 47.5t-16.5 41.5t-32 29t-51 11q-35 0 -64.5 -13.5t-52 -36.5t-38 -53t-21.5 -62l-12 -56q-7 -34 -6 -68t14.5 -61.5t41.5 -44.5t73 -17zM143 527h87l-18 -88h1q26 44 69 72.5t103 28.5q46 0 78 -15t52.5 -42
t30 -64t9.5 -80q0 -55 -14 -116.5t-44.5 -114t-79 -87t-117.5 -34.5q-51 0 -93.5 25t-58.5 76h-1l-54 -276h-89z" />
    <glyph glyph-name="q" unicode="q" horiz-adv-x="598" 
d="M419 -188h-89l52 268h-2q-25 -38 -64.5 -65.5t-98.5 -27.5q-44 0 -76 15t-54 41t-32.5 62.5t-10.5 80.5q0 60 16 123t49 114.5t82.5 84t116.5 32.5q116 0 145 -95h2l16 82h87zM235 58q36 0 66 13.5t52.5 36.5t38 53t21.5 63l11 56q7 33 7 67t-11 61t-36.5 44t-68.5 17
q-50 0 -85 -28.5t-56.5 -71t-31.5 -92t-10 -92.5q0 -25 5.5 -48t17.5 -40.5t31.5 -28t48.5 -10.5z" />
    <glyph glyph-name="r" unicode="r" horiz-adv-x="384" 
d="M143 527h85l-20 -99h3q10 20 27 39.5t39 35t49.5 25t60.5 9.5h5l-17 -94h-9q-75 0 -120.5 -40.5t-60.5 -115.5l-55 -287h-89z" />
    <glyph glyph-name="s" unicode="s" horiz-adv-x="493" 
d="M366 388q2 42 -25.5 63.5t-72.5 21.5q-18 0 -36.5 -4.5t-34 -15t-25.5 -26.5t-10 -38q0 -29 15 -46t48 -26l61 -16q42 -11 69.5 -25t44 -32t23 -39.5t6.5 -47.5q0 -41 -15 -72.5t-42.5 -53t-66 -33t-84.5 -11.5q-38 0 -74.5 9.5t-64.5 30t-44.5 53t-13.5 79.5h85
q-4 -49 27.5 -77t88.5 -28q22 0 43.5 5t38 16.5t26.5 28.5t10 41q0 26 -17 45.5t-66 32.5l-61 16q-63 17 -93.5 50.5t-30.5 88.5q0 40 16 70.5t43 50.5t62.5 30.5t74.5 10.5q37 0 70.5 -8.5t59 -27t39.5 -47.5t11 -69h-85z" />
    <glyph glyph-name="t" unicode="t" horiz-adv-x="356" 
d="M282 680l-30 -153h125l-14 -69h-125l-59 -302q-10 -52 3 -71t57 -19q8 0 16.5 0.5t16.5 1.5q9 1 17 3l-15 -73q-10 -2 -20 -3q-8 -2 -18.5 -2.5t-19.5 -0.5q-35 0 -62 8.5t-44 26.5t-22.5 46.5t2.5 69.5l61 315h-90l13 66h11q26 0 43.5 4t29.5 17t20 36t16 61l8 38h80z
" />
    <glyph glyph-name="u" unicode="u" horiz-adv-x="592" 
d="M166 216q-4 -19 -6.5 -37t-2.5 -34q-1 -37 16 -60.5t65 -23.5q69 0 111.5 51.5t59.5 142.5l53 272h89l-103 -527h-84l18 90h-2q-26 -44 -67.5 -73.5t-98.5 -29.5q-86 0 -123 55t-16 162l62 323h89z" />
    <glyph glyph-name="v" unicode="v" horiz-adv-x="502" 
d="M76 527h88l48 -332q2 -17 4 -32.5t4 -29.5q2 -16 3 -30h2q7 14 14 30q6 13 14 29l16 32l173 333h88l-279 -527h-93z" />
    <glyph glyph-name="w" unicode="w" horiz-adv-x="784" 
d="M74 527h89l21 -345q1 -11 1 -25t1 -25q0 -14 1 -27h2q7 13 13 27q5 12 11.5 25.5t12.5 25.5l171 344h90l37 -345q1 -11 2 -25t2 -26l2 -28h2l12 28q5 12 11 26t11 26l158 344h87l-252 -527h-93l-37 353q-2 12 -2.5 25t-1.5 24q-1 12 -2 25h-1q-6 -13 -11 -25
q-5 -11 -11 -24l-12 -26l-172 -352h-93z" />
    <glyph glyph-name="x" unicode="x" horiz-adv-x="497" 
d="M197 280l-112 247h96l81 -189h2l149 189h100l-211 -256l126 -271h-100l-90 214h-2l-168 -214h-100z" />
    <glyph glyph-name="y" unicode="y" horiz-adv-x="510" 
d="M84 527h88l48 -330q2 -17 4 -32t4 -26q2 -13 2 -24h3q6 11 12 24q5 11 12.5 25.5t15.5 31.5l166 331h90l-300 -571q-23 -44 -43 -73.5t-43 -47.5t-50.5 -26t-65.5 -8q-21 0 -38 3.5t-25 5.5l15 73q11 -3 21 -5t23 -2q44 1 71.5 21.5t54.5 74.5l17 32z" />
    <glyph glyph-name="z" unicode="z" horiz-adv-x="511" 
d="M120 527h386l-15 -81l-369 -371h302l-14 -75h-406l15 81l367 372h-281z" />
    <glyph glyph-name="braceleft" unicode="{" horiz-adv-x="368" 
d="M57 301l15 74h24q43 0 62 15t27 58l40 211q15 77 67 109t154 24l-12 -62q-36 2 -60 -3t-39 -17.5t-23.5 -32.5t-13.5 -48l-37 -191q-4 -19 -9 -35.5t-14.5 -29t-26 -21t-43.5 -12.5l-1 -4q23 -7 35.5 -19.5t17 -28.5t3 -35t-5.5 -39l-36 -179q-6 -32 -3.5 -51.5
t14.5 -30.5t33.5 -16t53.5 -9l-13 -62q-96 3 -138.5 41t-24.5 128l37 185q9 45 -6 63t-53 18h-24z" />
    <glyph glyph-name="bar" unicode="|" horiz-adv-x="276" 
d="M205 788h71l-179 -918h-71z" />
    <glyph glyph-name="braceright" unicode="}" horiz-adv-x="386" 
d="M345 358l-15 -74h-24q-43 0 -62 -15t-27 -58l-40 -211q-15 -77 -67 -109t-154 -24l12 62q36 -2 60 3t39 17.5t23.5 32.5t13.5 48l32 167q4 20 10 41t17 38t28 29t43 14l1 4q-23 7 -35.5 19.5t-17 28.5t-3 35t5.5 39l36 179q6 32 3.5 51.5t-14.5 30.5t-34 16t-53 9l13 62
q96 -3 138.5 -42t23.5 -134l-36 -178q-9 -45 6 -63t53 -18h24z" />
    <glyph glyph-name="asciitilde" unicode="~" horiz-adv-x="395" 
d="M16 292q12 61 44 98t89 37q24 0 42 -9.5t32.5 -20.5t26.5 -20.5t25 -9.5q17 0 31 14.5t23 47.5h69q-13 -65 -48 -100t-84 -35q-24 0 -42 9t-32.5 20.5t-27.5 20.5t-27 9q-16 0 -30 -14t-23 -47h-68z" />
    <glyph glyph-name="Euro" unicode="&#x20ac;" horiz-adv-x="593" 
d="M551 207q-13 -49 -38 -90t-60 -70.5t-79 -46t-94 -16.5q-47 0 -87 15.5t-69 48t-44.5 83t-13.5 120.5h-85l14 71h76q2 11 4 22.5t4 23.5q2 11 4.5 22.5t5.5 22.5h-78l14 71h84q46 138 124 203t186 65q45 0 83 -16.5t63.5 -46.5t37 -71t4.5 -90h-87q7 74 -23 112t-93 38
q-75 0 -123.5 -49t-80.5 -145h228l-14 -71h-234q-3 -11 -5.5 -22t-4.5 -23t-4 -23.5t-4 -22.5h236l-14 -71h-229q-4 -102 33 -147t106 -45q31 0 58.5 12t50 32.5t38 47.5t23.5 56h87z" />
    <glyph glyph-name="quotesinglbase" unicode="&#x201a;" horiz-adv-x="224" 
d="M52 108h109l-119 -221h-63z" />
    <glyph glyph-name="florin" unicode="&#x192;" horiz-adv-x="375" 
d="M80 -189h-86l144 556h-104l13 69h109l55 213q18 75 66.5 105.5t114.5 30.5q16 0 32 -1.5t27 -4.5l-18 -74q-9 2 -20 3.5t-28 1.5q-35 0 -57.5 -16.5t-33.5 -60.5l-51 -197h129l-13 -69h-134z" />
    <glyph glyph-name="quotedblbase" unicode="&#x201e;" horiz-adv-x="387" 
d="M215 108h108l-119 -221h-63zM52 108h109l-119 -221h-63z" />
    <glyph glyph-name="ellipsis" unicode="&#x2026;" horiz-adv-x="699" 
d="M498 122h119l-23 -122h-119zM265 122h119l-23 -122h-119zM32 122h119l-23 -122h-119z" />
    <glyph glyph-name="dagger" unicode="&#x2020;" horiz-adv-x="291" 
d="M186 290h-70l59 307h-91l12 66h92l20 102h70l-20 -102h91l-12 -66h-92z" />
    <glyph glyph-name="daggerdbl" unicode="&#x2021;" horiz-adv-x="292" 
d="M186 290h-70l20 102h-92l13 66h92l26 139h-91l12 66h92l20 102h70l-20 -102h92l-12 -66h-93l-26 -139h92l-13 -66h-92z" />
    <glyph glyph-name="circumflex" unicode="&#x2c6;" horiz-adv-x="362" 
d="M396 626h-78l-43 102l-79 -102h-82l123 162h93z" />
    <glyph glyph-name="perthousand" unicode="&#x2030;" horiz-adv-x="1211" 
d="M732 781h93l-696 -821h-92zM79 520q0 38 10.5 77.5t33 71t58.5 51.5t88 20q39 0 67 -11t46.5 -30.5t27 -45t8.5 -53.5q0 -39 -10 -78t-32.5 -71t-59 -52t-88.5 -20q-39 0 -67 11t-46 30t-27 45t-9 55zM229 443q34 0 55 17.5t33 42t16.5 52t4.5 47.5q0 14 -3.5 28t-12 25
t-22 17.5t-34.5 6.5q-32 0 -52.5 -16t-33.5 -40t-18 -51.5t-5 -51.5q0 -15 3.5 -28.5t12 -24.5t22 -17.5t34.5 -6.5zM983 -7q-39 0 -67 11t-46 30t-27 45t-9 55q0 38 10.5 77.5t33 71t58.5 51.5t88 20q39 0 67 -11t46.5 -30.5t27 -45t8.5 -53.5q0 -39 -10 -78t-32.5 -71
t-59 -52t-88.5 -20zM587 -7q-39 0 -67 11t-46 30t-27 45t-9 55q0 38 10.5 77.5t33 71t58.5 51.5t88 20q39 0 67 -11t46.5 -30.5t27 -45t8.5 -53.5q0 -39 -10 -78t-32.5 -71t-59 -52t-88.5 -20zM984 57q34 0 55 17.5t33 42t16.5 52t4.5 47.5q0 14 -3.5 28t-12 25t-22 17.5
t-34.5 6.5q-32 0 -52.5 -16t-33.5 -40t-18 -51.5t-5 -51.5q0 -15 3.5 -28.5t12 -24.5t22 -17.5t34.5 -6.5zM588 57q34 0 55 17.5t33 42t16.5 52t4.5 47.5q0 14 -3.5 28t-12 25t-22 17.5t-34.5 6.5q-32 0 -52.5 -16t-33.5 -40t-18 -51.5t-5 -51.5q0 -15 3.5 -28.5t12 -24.5
t22 -17.5t34.5 -6.5z" />
    <glyph glyph-name="Scaron" unicode="&#x160;" horiz-adv-x="666" 
d="M145 225q-2 -87 44 -125t129 -38q34 0 67 9t58.5 28t41.5 47.5t16 67.5q0 45 -26 72t-84 49l-90 33q-83 29 -120.5 75.5t-37.5 108.5q0 53 20.5 94.5t56 70.5t83 44t102.5 15q54 0 98 -14t74.5 -41.5t45.5 -70t12 -100.5h-91q4 66 -31.5 109t-112.5 43q-32 0 -62 -8.5
t-52.5 -25.5t-36 -43t-13.5 -60q0 -42 26 -69t78 -46l86 -31q45 -16 77 -34.5t52.5 -42t29.5 -53t9 -67.5q0 -54 -21 -98t-58 -75t-88.5 -47.5t-111.5 -16.5q-56 0 -105 13t-85.5 41.5t-56.5 74.5t-17 111h94zM297 960h80l52 -76h1l79 76h86l-125 -133h-92z" />
    <glyph glyph-name="guilsinglleft" unicode="&#x2039;" horiz-adv-x="332" 
d="M303 464l-151 -206l64 -201h-82l-70 209l152 198h87z" />
    <glyph glyph-name="OE" unicode="&#x152;" horiz-adv-x="1196" 
d="M377 59q52 0 97 19.5t80 55.5t60 85.5t37 109.5l19 92q9 45 5.5 94.5t-25.5 91t-65 68.5t-112 27q-56 0 -99.5 -19.5t-76.5 -52t-56.5 -75.5t-38 -89t-21 -93t-6.5 -88q0 -43 10.5 -83.5t34.5 -72t62.5 -51t94.5 -19.5zM606 102q-36 -51 -97 -84.5t-135 -33.5
q-72 0 -127 24t-92 65t-55.5 95.5t-18.5 116.5q0 106 30 196.5t83 155.5t125.5 102t158.5 37q46 0 83 -10.5t66 -29t49.5 -43.5t32.5 -54h3l25 126h472l-16 -82h-381l-50 -257h353l-16 -80h-352l-51 -264h390l-16 -82h-481l20 102h-3z" />
    <glyph glyph-name="Zcaron" unicode="&#x17d;" horiz-adv-x="637" 
d="M160 765h521l-14 -70l-537 -614h426l-15 -81h-545l13 70l537 614h-402zM301 960h80l52 -76h1l79 76h86l-125 -133h-92z" />
    <glyph glyph-name="quoteleft" unicode="&#x2018;" horiz-adv-x="224" 
d="M196 545h-108l120 220h62z" />
    <glyph glyph-name="quoteright" unicode="&#x2019;" horiz-adv-x="224" 
d="M180 765h109l-120 -221h-63z" />
    <glyph glyph-name="quotedblleft" unicode="&#x201c;" horiz-adv-x="387" 
d="M359 545h-109l120 220h63zM196 545h-108l120 220h62z" />
    <glyph glyph-name="quotedblright" unicode="&#x201d;" horiz-adv-x="396" 
d="M343 765h108l-120 -221h-63zM180 765h109l-120 -221h-63z" />
    <glyph glyph-name="bullet" unicode="&#x2022;" horiz-adv-x="442" 
d="M217 199q-47 0 -76.5 29.5t-29.5 79.5q0 24 8.5 44t23 34.5t34 22.5t41.5 8q48 0 77.5 -30.5t29.5 -78.5q0 -50 -31.5 -79.5t-76.5 -29.5z" />
    <glyph glyph-name="endash" unicode="&#x2013;" horiz-adv-x="528" 
d="M81 363h415l-14 -71h-415z" />
    <glyph glyph-name="emdash" unicode="&#x2014;" horiz-adv-x="878" 
d="M81 363h765l-14 -71h-765z" />
    <glyph glyph-name="tilde" unicode="&#x2dc;" horiz-adv-x="365" 
d="M76 624q3 28 11 53t22 43t35 28.5t52 10.5q21 0 39.5 -9.5t34.5 -21t30 -21t28 -9.5q38 0 45 63h64q-3 -29 -11 -53.5t-22 -42.5t-35 -28.5t-52 -10.5q-21 0 -39.5 9.5t-34.5 21t-30.5 21t-27.5 9.5q-38 0 -45 -63h-64z" />
    <glyph glyph-name="trademark" unicode="&#x2122;" horiz-adv-x="641" 
d="M383 459h-52l59 306h84l24 -178q2 -11 2 -19v-14v-13h3q1 6 4 13q4 12 15 33l96 178h89l-59 -306h-57l46 236h-4q-4 -8 -8 -18q-4 -8 -9 -19.5t-12 -24.5l-93 -174h-48l-26 173q-2 13 -3 25t-1 20v18h-4zM129 459l50 257h-92l9 49h242l-9 -49h-94l-49 -257h-57z" />
    <glyph glyph-name="scaron" unicode="&#x161;" horiz-adv-x="493" 
d="M366 388q2 42 -25.5 63.5t-72.5 21.5q-18 0 -36.5 -4.5t-34 -15t-25.5 -26.5t-10 -38q0 -29 15 -46t48 -26l61 -16q42 -11 69.5 -25t44 -32t23 -39.5t6.5 -47.5q0 -41 -15 -72.5t-42.5 -53t-66 -33t-84.5 -11.5q-38 0 -74.5 9.5t-64.5 30t-44.5 53t-13.5 79.5h85
q-4 -49 27.5 -77t88.5 -28q22 0 43.5 5t38 16.5t26.5 28.5t10 41q0 26 -17 45.5t-66 32.5l-61 16q-63 17 -93.5 50.5t-30.5 88.5q0 40 16 70.5t43 50.5t62.5 30.5t74.5 10.5q37 0 70.5 -8.5t59 -27t39.5 -47.5t11 -69h-85zM183 788h78l43 -102l79 102h82l-123 -162h-93z" />
    <glyph glyph-name="guilsinglright" unicode="&#x203a;" horiz-adv-x="332" 
d="M33 57l151 206l-64 201h82l70 -209l-152 -198h-87z" />
    <glyph glyph-name="oe" unicode="&#x153;" horiz-adv-x="914" 
d="M785 315q5 31 3 59.5t-13 50.5t-33 35t-58 13q-33 0 -59 -13.5t-46.5 -36.5t-35 -52.5t-23.5 -61.5h264zM425 338q0 25 -5 49t-18 43t-36 31t-58 12q-50 0 -84 -28.5t-55 -71t-30 -92t-9 -91.5q0 -25 5 -49.5t18.5 -43.5t36.5 -30.5t58 -11.5q36 0 63 14.5t46.5 38
t32.5 53.5t21 61.5t11 61.5t3 54zM834 138q-20 -72 -76.5 -111.5t-141.5 -39.5q-72 0 -114 32t-60 83q-29 -51 -77 -83t-120 -32q-54 0 -92 16.5t-63 44.5t-36.5 66t-11.5 82q0 58 16 119.5t49 111t83.5 81.5t119.5 32q81 0 121 -34.5t54 -90.5q33 54 84 89.5t123 35.5
q60 0 98.5 -23t58.5 -60t23 -84t-6 -96l-8 -38h-352q-1 -11 -1.5 -21.5t-0.5 -21.5q0 -27 6 -52.5t20 -45.5t37.5 -32t58.5 -12q31 0 52.5 8t35.5 20t21.5 27t12.5 29h86z" />
    <glyph glyph-name="zcaron" unicode="&#x17e;" horiz-adv-x="511" 
d="M120 527h386l-15 -81l-369 -371h302l-14 -75h-406l15 81l367 372h-281zM215 788h78l43 -102l79 102h82l-123 -162h-93z" />
    <glyph glyph-name="Ydieresis" unicode="&#x178;" horiz-adv-x="640" 
d="M286 334l-177 431h102l134 -352h2l280 352h100l-352 -438l-63 -327h-91zM507 921h90l-19 -99h-90zM295 921h90l-19 -99h-90z" />
    <glyph glyph-name="uni00A0" unicode="&#xa0;" horiz-adv-x="205" 
 />
    <glyph glyph-name="exclamdown" unicode="&#xa1;" horiz-adv-x="258" 
d="M113.012 -118.952h-99.9941l122.992 550.967h74.9961zM274.002 669l-21.999 -117.993h-115.993l21.999 117.993h115.993z" />
    <glyph glyph-name="cent" unicode="&#xa2;" horiz-adv-x="525" 
d="M473 172q-9 -43 -29 -77t-48.5 -57.5t-64 -36.5t-75.5 -14l-20 -103h-71l21 110q-72 18 -107 74t-35 135q0 54 15 110.5t46 104t77.5 80.5t109.5 40l19 97h71l-19 -98q64 -10 99 -52.5t36 -116.5h-83q2 35 -14.5 62.5t-51.5 37.5l-79 -411q29 3 50 14.5t35 28t21.5 35.5
t10.5 37h86zM278 468q-38 -10 -65.5 -38.5t-45.5 -66t-26.5 -79.5t-8.5 -81q0 -44 15 -81.5t53 -54.5z" />
    <glyph glyph-name="sterling" unicode="&#xa3;" horiz-adv-x="611" 
d="M526 0h-483l13 69l41 29q33 24 55.5 44.5t34.5 44t14.5 54t-4.5 75.5h-103l14 71h77l-8 51q-11 66 1 123.5t44 100t83.5 66.5t120.5 24q56 0 98 -16.5t67.5 -46t34.5 -70.5t-1 -90h-90q11 69 -15.5 109t-98.5 40q-46 0 -77.5 -17.5t-50 -47.5t-24 -69t0.5 -82l10 -75h216
l-14 -71h-193q3 -37 0 -67.5t-14 -57t-31 -49.5t-50 -45l-21 -15v-2h368z" />
    <glyph glyph-name="currency" unicode="&#xa4;" horiz-adv-x="631" 
d="M203 347q0 -52 30.5 -86t80.5 -34q51 0 81.5 34t30.5 86t-30.5 86.5t-81.5 34.5q-50 0 -80.5 -34.5t-30.5 -86.5zM135 347q0 27 7 51.5t19 44.5l-79 79l57 57l78 -79q44 27 97 27q29 0 54 -7.5t46 -21.5l82 84l55 -55l-84 -83q27 -44 27 -97q0 -28 -7 -52.5t-20 -44.5
l81 -80l-57 -57l-80 81q-43 -26 -97 -26t-97 26l-81 -82l-55 55l82 81q-28 44 -28 99z" />
    <glyph glyph-name="yen" unicode="&#xa5;" horiz-adv-x="586" 
d="M227 180h-193l14 69h192l18 93h-194l13 69h169l-136 330h97l110 -295h2l227 295h104l-263 -330h167l-13 -69h-197l-18 -93h199l-14 -69h-198l-35 -180h-86z" />
    <glyph glyph-name="brokenbar" unicode="&#xa6;" horiz-adv-x="276" 
d="M198 387h-71l78 401h71zM26 -130l85 438h71l-85 -438h-71z" />
    <glyph glyph-name="section" unicode="&#xa7;" horiz-adv-x="573" 
d="M249 445q-19 -2 -36.5 -8t-31 -16.5t-21.5 -25.5t-8 -35q0 -28 12.5 -46t43.5 -38l108 -68l28 -19q19 2 36 7.5t30 16t21 26t8 37.5q0 24 -11.5 43.5t-43.5 39.5l-107 67q-16 9 -28 19zM67 347q0 59 34.5 96.5t98.5 52.5v1q-13 17 -20 39t-7 48q0 39 14.5 70t41 52.5
t62.5 33.5t79 12q37 0 69.5 -10.5t56 -30.5t36.5 -51t10 -71h-85q2 42 -20 69t-77 27q-20 0 -38 -5.5t-32.5 -17t-23 -30t-8.5 -43.5q0 -28 12 -45.5t38 -34.5l105 -66q55 -34 83.5 -68.5t28.5 -86.5q0 -120 -132 -150v-1q25 -34 25 -81q0 -38 -15.5 -69t-43 -53.5t-66 -35
t-84.5 -12.5q-41 0 -75.5 10t-59 31.5t-37.5 55t-10 80.5h85q-4 -49 20.5 -79.5t85.5 -30.5q22 0 42.5 6t36 17.5t25 28.5t9.5 40q0 29 -10.5 46.5t-35.5 33.5l-105 66q-27 17 -48.5 33t-35.5 34t-21.5 39.5t-7.5 49.5z" />
    <glyph glyph-name="dieresis" unicode="&#xa8;" horiz-adv-x="362" 
d="M326 745h90l-19 -99h-90zM134 745h90l-19 -99h-90z" />
    <glyph glyph-name="copyright" unicode="&#xa9;" horiz-adv-x="914" 
d="M75 380q0 84 30 156.5t82.5 126t124.5 84t157 30.5t157 -30.5t125 -84t83 -126t30 -156.5t-30 -156.5t-83 -125.5t-125 -83.5t-157 -30.5t-157 30.5t-124.5 83.5t-82.5 125.5t-30 156.5zM469 41q71 0 131.5 26t104.5 71.5t69 107.5t25 134t-25 134t-69 108t-104.5 72
t-131.5 26t-131 -26t-104 -72t-69 -108t-25 -134t25 -134t69 -107.5t104 -71.5t131 -26zM572 464q1 35 -18 54.5t-61 19.5q-40 0 -68 -19t-46 -48.5t-26 -64.5t-8 -68q0 -21 4.5 -41t15.5 -35t29 -24t46 -9q25 0 44.5 8t33 20t22 27t10.5 30h68q-14 -69 -63 -106t-116 -37
q-42 0 -73.5 12.5t-51.5 34.5t-30 52.5t-10 67.5q0 44 13.5 90t41.5 83.5t70 61.5t98 24q70 0 106 -33.5t35 -99.5h-66z" />
    <glyph glyph-name="ordfeminine" unicode="&#xaa;" horiz-adv-x="461" 
d="M227 374q18 0 38 7t38.5 23t33 41.5t21.5 62.5l2 11q-68 -1 -109 -7.5t-61 -23.5q-26 -22 -26 -59q0 -28 14.5 -41.5t48.5 -13.5zM142 623q11 60 57 94t113 34q82 0 119 -40t21 -120l-32 -165q-5 -24 0.5 -35t27.5 -11l-12 -64h-11q-50 0 -69 17.5t-17 55.5h-1
q-22 -35 -59 -56t-76 -21q-63 0 -93 30t-30 74q0 16 3.5 32.5t12 32.5t23 30.5t36.5 26.5q33 17 85.5 25t130.5 9l4 21q11 54 -7.5 76.5t-64.5 22.5q-38 0 -59 -20t-26 -49h-76z" />
    <glyph glyph-name="guillemotleft" unicode="&#xab;" horiz-adv-x="533" 
d="M505 464l-151 -206l64 -201h-82l-70 209l152 198h87zM303 464l-151 -206l64 -201h-82l-70 209l152 198h87z" />
    <glyph glyph-name="logicalnot" unicode="&#xac;" horiz-adv-x="613" 
d="M105 397h454l-53 -270h-86l37 191h-368z" />
    <glyph glyph-name="registered" unicode="&#xae;" horiz-adv-x="483" 
d="M78 557q2 46 20.5 86t49 69.5t70.5 46.5t87 17t86 -17t66.5 -46.5t41.5 -69.5t12 -86q-3 -46 -21.5 -86t-49 -69t-71 -46t-87.5 -17t-85.5 17t-65.5 46t-41.5 69t-11.5 86zM284 377q37 0 69.5 13.5t57 37.5t39.5 57t17 72t-9.5 72t-33.5 57t-53 38t-68 14t-69.5 -14
t-56.5 -38t-38.5 -57t-16.5 -72t9 -72t32.5 -57t52.5 -37.5t68 -13.5zM306 578q16 0 28 9t12 29q0 27 -34 27h-34l-12 -65h40zM241 452h-46l44 225h82q35 0 53 -17.5t17 -41.5q0 -54 -58 -69l31 -97h-47l-27 90h-31z" />
    <glyph glyph-name="macron" unicode="&#xaf;" horiz-adv-x="289" 
d="M80 719h286l-14 -73h-286z" />
    <glyph glyph-name="degree" unicode="&#xb0;" horiz-adv-x="460" 
d="M128 594q0 35 12 65t34 52t52 34.5t65 12.5q36 0 66 -12.5t51.5 -34.5t34 -52t12.5 -65t-12.5 -65t-34 -51.5t-51.5 -34t-66 -12.5q-35 0 -65 12.5t-52 34t-34 51.5t-12 65zM291 485q46 0 74 30.5t28 78.5t-28 79t-74 31q-45 0 -73 -31t-28 -79t28 -78.5t73 -30.5z" />
    <glyph glyph-name="plusminus" unicode="&#xb1;" horiz-adv-x="637" 
d="M348 157h-86l37 192h-182l15 77h182l37 191h86l-37 -191h183l-15 -77h-183zM64 77h451l-14 -77h-451z" />
    <glyph glyph-name="twosuperior" unicode="&#xb2;" horiz-adv-x="391" 
d="M119 676q2 35 15.5 62t36 45.5t52 28t64.5 9.5q57 0 95 -26.5t38 -82.5q0 -27 -9.5 -49.5t-26.5 -43t-40 -40t-49 -39.5l-123 -93v-1h206l-12 -61h-317l9 48l184 146q23 18 41.5 33t32 29t21 29.5t7.5 35.5q0 26 -16.5 41.5t-47.5 15.5q-17 0 -32 -4t-27.5 -13.5
t-21 -26.5t-11.5 -43h-69z" />
    <glyph glyph-name="threesuperior" unicode="&#xb3;" horiz-adv-x="401" 
d="M214 576l12 55h48q35 0 59 20t24 55q0 28 -19 43t-50 15q-32 0 -57.5 -17t-30.5 -57h-70q4 56 46.5 93.5t116.5 37.5q60 0 98.5 -27t38.5 -82q0 -43 -27.5 -71t-66.5 -39v-2q30 -8 49.5 -29.5t19.5 -59.5q0 -32 -13.5 -57t-37 -42t-55 -26.5t-68.5 -9.5q-35 0 -63 9
t-47.5 25.5t-28.5 41t-7 56.5h71q0 -35 20 -54.5t62 -19.5q44 0 68.5 22.5t24.5 55.5q0 28 -16 46t-53 18h-48z" />
    <glyph glyph-name="acute" unicode="&#xb4;" horiz-adv-x="362" 
d="M270 788h101l-117 -162h-65z" />
    <glyph glyph-name="paragraph" unicode="&#xb6;" horiz-adv-x="520" 
d="M543 765l-148 -765h-78l148 765h78zM237 401q-35 1 -64.5 13t-50.5 33t-33 51t-12 66q0 46 17 83t47 63t71 40.5t88 14.5h86l-148 -765h-78z" />
    <glyph glyph-name="periodcentered" unicode="&#xb7;" horiz-adv-x="356" 
d="M129 375h119l-23 -122h-119z" />
    <glyph glyph-name="cedilla" unicode="&#xb8;" horiz-adv-x="473" 
d="M240 22l-53 -85h2q7 4 14.5 5t19.5 1q27 0 43.5 -19t16.5 -48q0 -38 -26.5 -63t-72.5 -25q-32 0 -56 15.5t-24 50.5h56q4 -22 28 -22q37 0 37 38q0 14 -7 23.5t-20 9.5q-11 0 -17.5 -3t-11.5 -8h-58l80 130h49z" />
    <glyph glyph-name="onesuperior" unicode="&#xb9;" horiz-adv-x="273" 
d="M196 686h-90l11 56h13q43 0 69 18q23 19 33 56h64l-90 -431h-73z" />
    <glyph glyph-name="ordmasculine" unicode="&#xba;" horiz-adv-x="412" 
d="M225 310q-45 0 -77 13t-52.5 35.5t-30 53t-9.5 64.5q0 47 13.5 96t41 89t69.5 65.5t99 25.5q45 0 77.5 -13t52.5 -35.5t29.5 -53t9.5 -64.5q0 -47 -13 -96t-40.5 -89t-69.5 -65.5t-100 -25.5zM369 590q0 18 -4 36.5t-14.5 33t-28.5 23.5t-45 9q-39 0 -65.5 -22t-43 -54.5
t-23.5 -70.5t-7 -71q0 -19 4 -37.5t14.5 -33t28.5 -23.5t45 -9q42 0 69 24t42.5 58t21.5 71.5t6 65.5z" />
    <glyph glyph-name="guillemotright" unicode="&#xbb;" horiz-adv-x="533" 
d="M33 57l151 206l-64 201h82l70 -209l-152 -198h-87zM235 57l151 206l-64 201h82l70 -209l-152 -198h-87z" />
    <glyph glyph-name="onequarter" unicode="&#xbc;" horiz-adv-x="812" 
d="M186 635h-90l11 56h13q43 0 69 18q23 19 33 56h64l-90 -431h-73zM630 157l45 212h-2q-4 -10 -12 -22q-7 -11 -17.5 -25.5t-27.5 -31.5l-127 -133h141zM686 101l-21 -100h-69l21 100h-216l10 54l259 276h85l-57 -271h58l-12 -59h-58zM703 781h82l-694 -821h-82z" />
    <glyph glyph-name="onehalf" unicode="&#xbd;" horiz-adv-x="866" 
d="M186 635h-90l11 56h13q43 0 69 18q23 19 33 56h64l-90 -431h-73zM520 292q2 35 15.5 62t36 45.5t52 28t64.5 9.5q57 0 95 -26.5t38 -82.5q0 -27 -9.5 -49.5t-26.5 -43t-40 -40t-49 -39.5l-123 -93v-1h206l-12 -61h-317l9 48l184 146q23 18 41.5 33t32 29t21 29.5
t7.5 35.5q0 26 -16.5 41.5t-47.5 15.5q-17 0 -32 -4t-27.5 -13.5t-21 -26.5t-11.5 -43h-69zM703 781h82l-694 -821h-82z" />
    <glyph glyph-name="threequarters" unicode="&#xbe;" horiz-adv-x="897" 
d="M204 525l12 55h48q35 0 59 20t24 55q0 28 -19 43t-50 15q-32 0 -57.5 -17t-30.5 -57h-70q4 56 46.5 93.5t116.5 37.5q60 0 98.5 -27t38.5 -82q0 -43 -27.5 -71t-66.5 -39v-2q30 -8 49.5 -29.5t19.5 -59.5q0 -32 -13.5 -57t-37 -42t-55 -26.5t-68.5 -9.5q-35 0 -63 9
t-47.5 25.5t-28.5 41t-7 56.5h71q0 -35 20 -54.5t62 -19.5q44 0 68.5 22.5t24.5 55.5q0 28 -16 46t-53 18h-48zM715 157l45 212h-2q-4 -10 -12 -22q-7 -11 -17.5 -25.5t-27.5 -31.5l-127 -133h141zM771 101l-21 -100h-69l21 100h-216l10 54l259 276h85l-57 -271h58l-12 -59
h-58zM807 781h82l-694 -821h-82z" />
    <glyph glyph-name="questiondown" unicode="&#xbf;" horiz-adv-x="549" 
d="M334.015 442.014l-11.999 -63.9961q-5 -24.998 -11 -41.9971q-5.99902 -16.999 -17.499 -30.498q-11.499 -13.499 -28.998 -26.999q-17.499 -13.499 -45.4971 -32.498l-49.9971 -34.9971q-37.9971 -25.999 -60.9961 -58.9971t-22.999 -85.9941
q0 -53.9971 32.498 -86.4951t90.4951 -32.498q77.9951 0 116.992 45.9971q38.998 45.9971 47.9971 136.992h86.9951q-3 -62.9961 -22.999 -110.993q-19.998 -47.9971 -53.4961 -80.9951t-78.9951 -49.4971t-100.494 -16.499q-50.9971 0 -89.9941 14.499
q-38.998 14.499 -65.4961 39.9971q-26.499 25.499 -39.998 58.9971t-13.499 72.4951q0 44.9971 12.499 79.4951t32.498 60.4961q19.999 25.999 43.9971 46.498q23.999 20.498 47.998 36.4971l43.9971 30.998q17.999 13 28.998 20.499q10.999 7.5 17.999 14.999
q6.99902 7.5 10.499 17.499t7.5 27.998l9.99902 48.9971h82.9951zM367.013 551.007h-114.993l21.999 117.993h114.992z" />
    <glyph glyph-name="Agrave" unicode="&#xc0;" horiz-adv-x="722" 
d="M434 675q-2 -3 -15.5 -33t-38.5 -78l-135 -262h248l-42 262q-9 49 -12 80q-2 17 -3 31h-2zM505 229h-297l-118 -229h-94l401 765h106l132 -765h-93zM504 827h-66l-70 133h91z" />
    <glyph glyph-name="Aacute" unicode="&#xc1;" horiz-adv-x="722" 
d="M434 675q-2 -3 -15.5 -33t-38.5 -78l-135 -262h248l-42 262q-9 49 -12 80q-2 17 -3 31h-2zM505 229h-297l-118 -229h-94l401 765h106l132 -765h-93zM509 960h101l-117 -133h-67z" />
    <glyph glyph-name="Acircumflex" unicode="&#xc2;" horiz-adv-x="722" 
d="M434 675q-2 -3 -15.5 -33t-38.5 -78l-135 -262h248l-42 262q-9 49 -12 80q-2 17 -3 31h-2zM505 229h-297l-118 -229h-94l401 765h106l132 -765h-93zM593 827h-75l-50 76h-1l-77 -76h-79l113 133h92z" />
    <glyph glyph-name="Atilde" unicode="&#xc3;" horiz-adv-x="722" 
d="M434 675q-2 -3 -15.5 -33t-38.5 -78l-135 -262h248l-42 262q-9 49 -12 80q-2 17 -3 31h-2zM505 229h-297l-118 -229h-94l401 765h106l132 -765h-93zM290 827q5 26 15 50.5t26 43t38 30t52 11.5q24 0 42 -9.5t32 -21t26 -21t25 -9.5q22 0 34 15.5t22 47.5h68
q-5 -26 -15 -50.5t-25.5 -43.5t-37.5 -30t-52 -11q-24 0 -41.5 9.5t-32 20.5t-27 20.5t-26.5 9.5q-37 0 -56 -62h-67z" />
    <glyph glyph-name="Adieresis" unicode="&#xc4;" horiz-adv-x="722" 
d="M434 675q-2 -3 -15.5 -33t-38.5 -78l-135 -262h248l-42 262q-9 49 -12 80q-2 17 -3 31h-2zM505 229h-297l-118 -229h-94l401 765h106l132 -765h-93zM544 921h90l-19 -99h-90zM332 921h90l-19 -99h-90z" />
    <glyph glyph-name="Aring" unicode="&#xc5;" horiz-adv-x="722" 
d="M434 675q-2 -3 -15.5 -33t-38.5 -78l-135 -262h248l-42 262q-9 49 -12 80q-2 17 -3 31h-2zM505 229h-297l-118 -229h-94l401 765h106l132 -765h-93zM458 808q-49 2 -75.5 29t-26.5 71q0 51 31 82.5t82 31.5q52 0 79 -28t27 -72q0 -54 -32 -84t-85 -30zM470 976
q-26 0 -41 -18t-15 -49q0 -23 12.5 -39t35.5 -16q26 0 41 18t15 49q0 24 -12.5 39t-35.5 16z" />
    <glyph glyph-name="AE" unicode="&#xc6;" horiz-adv-x="1002" 
d="M527 683h-81q-15 -31 -31.5 -63.5t-30.5 -55.5l-155 -262h224zM439 229h-253l-135 -229h-94l446 765h612l-16 -82h-381l-50 -257h353l-16 -80h-352l-51 -264h390l-16 -82h-481z" />
    <glyph glyph-name="Ccedilla" unicode="&#xc7;" horiz-adv-x="755" 
d="M328 -212q-32 0 -56 15.5t-24 50.5h56q4 -22 28 -22q37 0 37 38q0 14 -7 23.5t-20 9.5q-11 0 -17.5 -3t-11.5 -8h-58l59 96q-114 17 -172.5 100.5t-58.5 215.5q0 79 23.5 162.5t73 152.5t125.5 113t180 44q52 0 97.5 -15t79 -45t54 -74.5t23.5 -104.5h-91q-6 82 -53 123
t-119 41q-57 0 -101.5 -19t-78 -50.5t-56.5 -73t-37 -87.5t-20.5 -93.5t-6.5 -89.5q0 -44 10 -85t33.5 -73t62.5 -51.5t96 -19.5q47 0 84 14t64.5 38.5t46 57t27.5 70.5h92q-14 -60 -43 -107t-70 -80t-93.5 -50.5t-113.5 -17.5h-12l-29 -47h2q7 4 14.5 5t19.5 1
q27 0 43.5 -19t16.5 -48q0 -38 -26.5 -63t-72.5 -25z" />
    <glyph glyph-name="Egrave" unicode="&#xc8;" horiz-adv-x="659" 
d="M200 765h472l-16 -82h-381l-50 -257h353l-16 -80h-352l-51 -264h390l-16 -82h-481zM492 827h-66l-70 133h91z" />
    <glyph glyph-name="Eacute" unicode="&#xc9;" horiz-adv-x="659" 
d="M200 765h472l-16 -82h-381l-50 -257h353l-16 -80h-352l-51 -264h390l-16 -82h-481zM496 960h101l-117 -133h-67z" />
    <glyph glyph-name="Ecircumflex" unicode="&#xca;" horiz-adv-x="659" 
d="M200 765h472l-16 -82h-381l-50 -257h353l-16 -80h-352l-51 -264h390l-16 -82h-481zM593 827h-75l-50 76h-1l-77 -76h-79l113 133h92z" />
    <glyph glyph-name="Edieresis" unicode="&#xcb;" horiz-adv-x="659" 
d="M200 765h472l-16 -82h-381l-50 -257h353l-16 -80h-352l-51 -264h390l-16 -82h-481zM532 921h90l-19 -99h-90zM320 921h90l-19 -99h-90z" />
    <glyph glyph-name="Igrave" unicode="&#xcc;" horiz-adv-x="296" 
d="M202 765h91l-148 -765h-91zM299 827h-66l-70 133h91z" />
    <glyph glyph-name="Iacute" unicode="&#xcd;" horiz-adv-x="296" 
d="M202 765h91l-148 -765h-91zM303 960h101l-117 -133h-67z" />
    <glyph glyph-name="Icircumflex" unicode="&#xce;" horiz-adv-x="296" 
d="M202 765h91l-148 -765h-91zM400 827h-75l-50 76h-1l-77 -76h-79l113 133h92z" />
    <glyph glyph-name="Idieresis" unicode="&#xcf;" horiz-adv-x="296" 
d="M202 765h91l-148 -765h-91zM339 921h90l-19 -99h-90zM127 921h90l-19 -99h-90z" />
    <glyph glyph-name="Eth" unicode="&#xd0;" horiz-adv-x="773" 
d="M70 0l67 348h-84l15 78h84l65 339h216q67 0 123.5 -17t97 -53.5t63 -93t22.5 -134.5q0 -92 -23.5 -176.5t-74.5 -149t-131 -103t-192 -38.5h-248zM337 79q70 0 120 22t84 57.5t54.5 79t31.5 86.5t14.5 81t3.5 61q0 61 -15.5 103t-44.5 68t-69.5 37.5t-89.5 11.5h-133
l-51 -260h213l-15 -78h-213l-52 -269h162z" />
    <glyph glyph-name="Ntilde" unicode="&#xd1;" horiz-adv-x="779" 
d="M200 765h112l223 -580q12 -35 18 -54q4 -11 5 -21h3l127 655h86l-148 -765h-111l-223 579q-8 19 -12.5 33t-7.5 23q-4 11 -5 18h-2l-126 -653h-87zM324 827q5 26 15 50.5t26 43t38 30t52 11.5q24 0 42 -9.5t32 -21t26 -21t25 -9.5q22 0 34 15.5t22 47.5h68
q-5 -26 -15 -50.5t-25.5 -43.5t-37.5 -30t-52 -11q-24 0 -41.5 9.5t-32 20.5t-27 20.5t-26.5 9.5q-37 0 -56 -62h-67z" />
    <glyph glyph-name="Ograve" unicode="&#xd2;" horiz-adv-x="802" 
d="M81 287q0 105 30 194.5t83 155t125.5 102.5t158.5 37q70 0 124 -23t90.5 -64t55.5 -97.5t19 -122.5q0 -86 -25 -172.5t-74.5 -156t-122.5 -113t-170 -43.5q-71 0 -125.5 23.5t-92 64.5t-57 96t-19.5 119zM673 473q0 43 -10.5 84t-34 73.5t-61.5 52t-94 19.5t-99.5 -19.5
t-76.5 -52t-56.5 -75.5t-38 -89.5t-21 -93.5t-6.5 -88q0 -42 10.5 -82.5t34.5 -72t63 -51t95 -19.5q54 0 97 20t76 53.5t56 76.5t37.5 89t21.5 91.5t7 83.5zM550 827h-66l-70 133h91z" />
    <glyph glyph-name="Oacute" unicode="&#xd3;" horiz-adv-x="802" 
d="M81 287q0 105 30 194.5t83 155t125.5 102.5t158.5 37q70 0 124 -23t90.5 -64t55.5 -97.5t19 -122.5q0 -86 -25 -172.5t-74.5 -156t-122.5 -113t-170 -43.5q-71 0 -125.5 23.5t-92 64.5t-57 96t-19.5 119zM673 473q0 43 -10.5 84t-34 73.5t-61.5 52t-94 19.5t-99.5 -19.5
t-76.5 -52t-56.5 -75.5t-38 -89.5t-21 -93.5t-6.5 -88q0 -42 10.5 -82.5t34.5 -72t63 -51t95 -19.5q54 0 97 20t76 53.5t56 76.5t37.5 89t21.5 91.5t7 83.5zM555 960h101l-117 -133h-67z" />
    <glyph glyph-name="Ocircumflex" unicode="&#xd4;" horiz-adv-x="802" 
d="M81 287q0 105 30 194.5t83 155t125.5 102.5t158.5 37q70 0 124 -23t90.5 -64t55.5 -97.5t19 -122.5q0 -86 -25 -172.5t-74.5 -156t-122.5 -113t-170 -43.5q-71 0 -125.5 23.5t-92 64.5t-57 96t-19.5 119zM673 473q0 43 -10.5 84t-34 73.5t-61.5 52t-94 19.5t-99.5 -19.5
t-76.5 -52t-56.5 -75.5t-38 -89.5t-21 -93.5t-6.5 -88q0 -42 10.5 -82.5t34.5 -72t63 -51t95 -19.5q54 0 97 20t76 53.5t56 76.5t37.5 89t21.5 91.5t7 83.5zM652 827h-75l-50 76h-1l-77 -76h-79l113 133h92z" />
    <glyph glyph-name="Otilde" unicode="&#xd5;" horiz-adv-x="802" 
d="M81 287q0 105 30 194.5t83 155t125.5 102.5t158.5 37q70 0 124 -23t90.5 -64t55.5 -97.5t19 -122.5q0 -86 -25 -172.5t-74.5 -156t-122.5 -113t-170 -43.5q-71 0 -125.5 23.5t-92 64.5t-57 96t-19.5 119zM673 473q0 43 -10.5 84t-34 73.5t-61.5 52t-94 19.5t-99.5 -19.5
t-76.5 -52t-56.5 -75.5t-38 -89.5t-21 -93.5t-6.5 -88q0 -42 10.5 -82.5t34.5 -72t63 -51t95 -19.5q54 0 97 20t76 53.5t56 76.5t37.5 89t21.5 91.5t7 83.5zM330 827q5 26 15 50.5t26 43t38 30t52 11.5q24 0 42 -9.5t32 -21t26 -21t25 -9.5q22 0 34 15.5t22 47.5h68
q-5 -26 -15 -50.5t-25.5 -43.5t-37.5 -30t-52 -11q-24 0 -41.5 9.5t-32 20.5t-27 20.5t-26.5 9.5q-37 0 -56 -62h-67z" />
    <glyph glyph-name="Odieresis" unicode="&#xd6;" horiz-adv-x="802" 
d="M81 287q0 105 30 194.5t83 155t125.5 102.5t158.5 37q70 0 124 -23t90.5 -64t55.5 -97.5t19 -122.5q0 -86 -25 -172.5t-74.5 -156t-122.5 -113t-170 -43.5q-71 0 -125.5 23.5t-92 64.5t-57 96t-19.5 119zM673 473q0 43 -10.5 84t-34 73.5t-61.5 52t-94 19.5t-99.5 -19.5
t-76.5 -52t-56.5 -75.5t-38 -89.5t-21 -93.5t-6.5 -88q0 -42 10.5 -82.5t34.5 -72t63 -51t95 -19.5q54 0 97 20t76 53.5t56 76.5t37.5 89t21.5 91.5t7 83.5zM590 921h90l-19 -99h-90zM378 921h90l-19 -99h-90z" />
    <glyph glyph-name="multiply" unicode="&#xd7;" horiz-adv-x="640" 
d="M92 185l194 165l-131 164l62 53l128 -166l195 172l50 -60l-199 -168l134 -170l-62 -53l-129 171l-196 -169z" />
    <glyph glyph-name="Oslash" unicode="&#xd8;" horiz-adv-x="802" 
d="M473 702q-56 0 -99.5 -19.5t-76.5 -52t-56.5 -75.5t-38 -89.5t-21 -93.5t-6.5 -88q0 -26 2.5 -49.5t8.5 -44.5l436 458q-23 25 -59 39.5t-90 14.5zM378 59q54 0 97 20t76 53.5t56 76.5t37.5 89t21.5 91.5t7 83.5q0 30 -3.5 59t-12.5 55l-440 -462q23 -31 62 -48.5
t99 -17.5zM767 469q0 -86 -25 -172.5t-74.5 -156t-122.5 -113t-170 -43.5q-69 0 -122 22t-91 61l-89 -93h-92l140 148q-40 72 -40 165q0 105 30 194.5t83 155t125.5 102.5t158.5 37q63 0 112.5 -18.5t85.5 -52.5l79 83h93l-129 -135q48 -75 48 -184z" />
    <glyph glyph-name="Ugrave" unicode="&#xd9;" horiz-adv-x="744" 
d="M188 765h91l-83 -430q-6 -30 -10.5 -60t-5.5 -57.5t2.5 -51t14.5 -41.5q20 -34 58 -49t89 -15q52 0 92.5 14t72.5 47q17 18 27 38t16.5 42.5t10.5 48t10 53.5l89 461h91l-101 -523q-26 -133 -103 -195t-208 -62q-64 0 -116.5 15.5t-86.5 51t-46 94.5t5 146zM511 827h-66
l-70 133h91z" />
    <glyph glyph-name="Uacute" unicode="&#xda;" horiz-adv-x="744" 
d="M188 765h91l-83 -430q-6 -30 -10.5 -60t-5.5 -57.5t2.5 -51t14.5 -41.5q20 -34 58 -49t89 -15q52 0 92.5 14t72.5 47q17 18 27 38t16.5 42.5t10.5 48t10 53.5l89 461h91l-101 -523q-26 -133 -103 -195t-208 -62q-64 0 -116.5 15.5t-86.5 51t-46 94.5t5 146zM516 960h101
l-117 -133h-67z" />
    <glyph glyph-name="Ucircumflex" unicode="&#xdb;" horiz-adv-x="744" 
d="M188 765h91l-83 -430q-6 -30 -10.5 -60t-5.5 -57.5t2.5 -51t14.5 -41.5q20 -34 58 -49t89 -15q52 0 92.5 14t72.5 47q17 18 27 38t16.5 42.5t10.5 48t10 53.5l89 461h91l-101 -523q-26 -133 -103 -195t-208 -62q-64 0 -116.5 15.5t-86.5 51t-46 94.5t5 146zM613 827h-75
l-50 76h-1l-77 -76h-79l113 133h92z" />
    <glyph glyph-name="Udieresis" unicode="&#xdc;" horiz-adv-x="744" 
d="M188 765h91l-83 -430q-6 -30 -10.5 -60t-5.5 -57.5t2.5 -51t14.5 -41.5q20 -34 58 -49t89 -15q52 0 92.5 14t72.5 47q17 18 27 38t16.5 42.5t10.5 48t10 53.5l89 461h91l-101 -523q-26 -133 -103 -195t-208 -62q-64 0 -116.5 15.5t-86.5 51t-46 94.5t5 146zM551 921h90
l-19 -99h-90zM339 921h90l-19 -99h-90z" />
    <glyph glyph-name="Yacute" unicode="&#xdd;" horiz-adv-x="640" 
d="M286 334l-177 431h102l134 -352h2l280 352h100l-352 -438l-63 -327h-91zM472 960h101l-117 -133h-67z" />
    <glyph glyph-name="Thorn" unicode="&#xde;" horiz-adv-x="613" 
d="M175 166l-32 -166h-91l148 765h92l-28 -146h115q50 0 92 -12t72 -36t47 -61t17 -86q0 -62 -21.5 -110t-59 -81t-89.5 -50t-113 -17h-149zM335 240q40 1 73 12.5t57 34t37 55.5t13 78q0 65 -37 95t-110 30h-119l-59 -305h145z" />
    <glyph glyph-name="germandbls" unicode="&#xdf;" horiz-adv-x="595" 
d="M143 571q11 57 33 97.5t52.5 66.5t68 38t78.5 12q43 0 77 -13t57.5 -36.5t35.5 -56t12 -70.5q0 -75 -37.5 -123t-100.5 -69v-2q50 -14 84 -57t34 -111q0 -50 -17.5 -95t-52 -78.5t-86.5 -53.5t-121 -20h-53l15 78h43q40 0 73.5 11t57.5 31.5t37.5 51t13.5 69.5
q0 58 -34 97.5t-100 39.5h-16l13 74h15q36 0 63 11.5t45 31.5t27 47.5t9 59.5q0 54 -29 82t-76 28q-51 0 -86 -35t-49 -110l-109 -567h-88z" />
    <glyph glyph-name="agrave" unicode="&#xe0;" horiz-adv-x="540" 
d="M201 64q23 0 48.5 10.5t48 32t40 53.5t26.5 75l3 15q-42 0 -81.5 -1t-75.5 -8q-43 -8 -70.5 -32t-27.5 -63q0 -38 22.5 -60t66.5 -22zM90 383q4 37 21 66t44 49t63 30.5t80 10.5q52 0 89 -15.5t58.5 -43t27.5 -66.5t-4 -86l-38 -196q-7 -35 3 -50t35 -13l-13 -73h-9
q-52 0 -75 24t-22 64h-3q-12 -19 -27.5 -35.5t-35.5 -29t-45 -20t-57 -7.5q-33 0 -62 9t-51 28t-35 47t-13 66q0 37 12.5 64.5t36 47.5t56 32.5t72.5 19.5q41 8 88.5 8.5t93.5 0.5l4 24q11 62 -12.5 96.5t-81.5 34.5q-44 0 -74.5 -20t-35.5 -67h-90zM360 626h-65l-102 162
h97z" />
    <glyph glyph-name="aacute" unicode="&#xe1;" horiz-adv-x="540" 
d="M201 64q23 0 48.5 10.5t48 32t40 53.5t26.5 75l3 15q-42 0 -81.5 -1t-75.5 -8q-43 -8 -70.5 -32t-27.5 -63q0 -38 22.5 -60t66.5 -22zM90 383q4 37 21 66t44 49t63 30.5t80 10.5q52 0 89 -15.5t58.5 -43t27.5 -66.5t-4 -86l-38 -196q-7 -35 3 -50t35 -13l-13 -73h-9
q-52 0 -75 24t-22 64h-3q-12 -19 -27.5 -35.5t-35.5 -29t-45 -20t-57 -7.5q-33 0 -62 9t-51 28t-35 47t-13 66q0 37 12.5 64.5t36 47.5t56 32.5t72.5 19.5q41 8 88.5 8.5t93.5 0.5l4 24q11 62 -12.5 96.5t-81.5 34.5q-44 0 -74.5 -20t-35.5 -67h-90zM369 788h101l-117 -162
h-65z" />
    <glyph glyph-name="acircumflex" unicode="&#xe2;" horiz-adv-x="540" 
d="M201 64q23 0 48.5 10.5t48 32t40 53.5t26.5 75l3 15q-42 0 -81.5 -1t-75.5 -8q-43 -8 -70.5 -32t-27.5 -63q0 -38 22.5 -60t66.5 -22zM90 383q4 37 21 66t44 49t63 30.5t80 10.5q52 0 89 -15.5t58.5 -43t27.5 -66.5t-4 -86l-38 -196q-7 -35 3 -50t35 -13l-13 -73h-9
q-52 0 -75 24t-22 64h-3q-12 -19 -27.5 -35.5t-35.5 -29t-45 -20t-57 -7.5q-33 0 -62 9t-51 28t-35 47t-13 66q0 37 12.5 64.5t36 47.5t56 32.5t72.5 19.5q41 8 88.5 8.5t93.5 0.5l4 24q11 62 -12.5 96.5t-81.5 34.5q-44 0 -74.5 -20t-35.5 -67h-90zM465 626h-78l-43 102
l-79 -102h-82l123 162h93z" />
    <glyph glyph-name="atilde" unicode="&#xe3;" horiz-adv-x="540" 
d="M201 64q23 0 48.5 10.5t48 32t40 53.5t26.5 75l3 15q-42 0 -81.5 -1t-75.5 -8q-43 -8 -70.5 -32t-27.5 -63q0 -38 22.5 -60t66.5 -22zM90 383q4 37 21 66t44 49t63 30.5t80 10.5q52 0 89 -15.5t58.5 -43t27.5 -66.5t-4 -86l-38 -196q-7 -35 3 -50t35 -13l-13 -73h-9
q-52 0 -75 24t-22 64h-3q-12 -19 -27.5 -35.5t-35.5 -29t-45 -20t-57 -7.5q-33 0 -62 9t-51 28t-35 47t-13 66q0 37 12.5 64.5t36 47.5t56 32.5t72.5 19.5q41 8 88.5 8.5t93.5 0.5l4 24q11 62 -12.5 96.5t-81.5 34.5q-44 0 -74.5 -20t-35.5 -67h-90zM156 624q3 28 11 53
t22 43t35 28.5t52 10.5q21 0 39.5 -9.5t34.5 -21t30 -21t28 -9.5q38 0 45 63h64q-3 -29 -11 -53.5t-22 -42.5t-35 -28.5t-52 -10.5q-21 0 -39.5 9.5t-34.5 21t-30.5 21t-27.5 9.5q-38 0 -45 -63h-64z" />
    <glyph glyph-name="adieresis" unicode="&#xe4;" horiz-adv-x="540" 
d="M201 64q23 0 48.5 10.5t48 32t40 53.5t26.5 75l3 15q-42 0 -81.5 -1t-75.5 -8q-43 -8 -70.5 -32t-27.5 -63q0 -38 22.5 -60t66.5 -22zM90 383q4 37 21 66t44 49t63 30.5t80 10.5q52 0 89 -15.5t58.5 -43t27.5 -66.5t-4 -86l-38 -196q-7 -35 3 -50t35 -13l-13 -73h-9
q-52 0 -75 24t-22 64h-3q-12 -19 -27.5 -35.5t-35.5 -29t-45 -20t-57 -7.5q-33 0 -62 9t-51 28t-35 47t-13 66q0 37 12.5 64.5t36 47.5t56 32.5t72.5 19.5q41 8 88.5 8.5t93.5 0.5l4 24q11 62 -12.5 96.5t-81.5 34.5q-44 0 -74.5 -20t-35.5 -67h-90zM397 745h90l-19 -99h-90
zM205 745h90l-19 -99h-90z" />
    <glyph glyph-name="aring" unicode="&#xe5;" horiz-adv-x="540" 
d="M201 64q23 0 48.5 10.5t48 32t40 53.5t26.5 75l3 15q-42 0 -81.5 -1t-75.5 -8q-43 -8 -70.5 -32t-27.5 -63q0 -38 22.5 -60t66.5 -22zM90 383q4 37 21 66t44 49t63 30.5t80 10.5q52 0 89 -15.5t58.5 -43t27.5 -66.5t-4 -86l-38 -196q-7 -35 3 -50t35 -13l-13 -73h-9
q-52 0 -75 24t-22 64h-3q-12 -19 -27.5 -35.5t-35.5 -29t-45 -20t-57 -7.5q-33 0 -62 9t-51 28t-35 47t-13 66q0 37 12.5 64.5t36 47.5t56 32.5t72.5 19.5q41 8 88.5 8.5t93.5 0.5l4 24q11 62 -12.5 96.5t-81.5 34.5q-44 0 -74.5 -20t-35.5 -67h-90zM336 624q-49 2 -75.5 29
t-26.5 71q0 51 31 82.5t82 31.5q52 0 79 -28t27 -72q0 -54 -32 -84t-85 -30zM348 792q-26 0 -41 -18t-15 -49q0 -23 12.5 -39t35.5 -16q26 0 41 18t15 49q0 24 -12.5 39t-35.5 16z" />
    <glyph glyph-name="ae" unicode="&#xe6;" horiz-adv-x="865" 
d="M736 315q5 31 3 59.5t-13 50.5t-33 35t-58 13q-33 0 -59 -13.5t-46.5 -36.5t-35 -52.5t-23.5 -61.5h264zM200 63q24 0 49.5 9.5t47.5 30.5t40 53.5t27 78.5l3 15q-42 0 -81.5 -1t-75.5 -8q-43 -8 -70.5 -30.5t-27.5 -64.5q0 -38 21.5 -60.5t66.5 -22.5zM785 138
q-20 -72 -76.5 -111.5t-141.5 -39.5q-72 0 -117.5 32t-65.5 84h-3q-19 -24 -39 -44t-44.5 -34.5t-54.5 -23t-68 -8.5q-31 0 -59 9t-49 27t-33.5 45.5t-12.5 64.5q0 39 12.5 67t36 48t56 32.5t72.5 19.5q41 8 88.5 8.5t93.5 0.5l4 24q11 62 -12.5 96.5t-82.5 34.5
q-44 0 -74.5 -20t-35.5 -67h-90q4 37 21 66t44 49t63 30.5t80 10.5q63 0 102 -27.5t56 -69.5h1q33 44 81.5 71t105.5 27q60 0 98.5 -23t58.5 -60t23 -84t-6 -96l-8 -38h-352q-1 -11 -1.5 -21.5t-0.5 -21.5q0 -27 6 -52.5t20 -45.5t37.5 -32t58.5 -12q31 0 52.5 8t35.5 20
t21.5 27t12.5 29h86z" />
    <glyph glyph-name="ccedilla" unicode="&#xe7;" horiz-adv-x="525" 
d="M200 -212q-32 0 -56 15.5t-24 50.5h56q4 -22 28 -22q37 0 37 38q0 14 -7 23.5t-20 9.5q-11 0 -17.5 -3t-11.5 -8h-58l62 101q-37 9 -64 28t-45 46t-27 61.5t-9 74.5q0 57 17 117t51.5 109t87 80t123.5 31q83 0 128.5 -43.5t46.5 -128.5h-83q2 44 -22.5 74t-77.5 30
q-48 0 -83 -26t-57 -66t-32.5 -87t-10.5 -90q0 -28 6 -54.5t20.5 -47t37.5 -33t57 -12.5q33 0 57.5 11t40.5 28t24.5 37.5t11.5 39.5h86q-9 -44 -29.5 -78.5t-50 -58t-66.5 -36t-78 -12.5h-15l-31 -50h2q7 4 14.5 5t19.5 1q27 0 43.5 -19t16.5 -48q0 -38 -26.5 -63
t-72.5 -25z" />
    <glyph glyph-name="egrave" unicode="&#xe8;" horiz-adv-x="539" 
d="M410 315q5 31 2.5 59.5t-15 50.5t-35 35t-58.5 13q-33 0 -59 -13.5t-46 -36t-33.5 -52.5t-22.5 -62h266zM459 138q-20 -72 -76.5 -111.5t-141.5 -39.5q-50 0 -87.5 16.5t-62.5 45t-37 66.5t-12 81q0 63 17 124.5t50.5 110t84.5 79t119 30.5q60 0 99 -23t59.5 -60
t24.5 -84t-5 -96l-8 -38h-352q-1 -11 -1.5 -21.5t-0.5 -21.5q0 -27 6 -52t20 -44.5t37.5 -31.5t58.5 -12q31 0 52.5 7.5t35.5 19.5t21.5 26.5t12.5 28.5h86zM377 626h-65l-102 162h97z" />
    <glyph glyph-name="eacute" unicode="&#xe9;" horiz-adv-x="539" 
d="M410 315q5 31 2.5 59.5t-15 50.5t-35 35t-58.5 13q-33 0 -59 -13.5t-46 -36t-33.5 -52.5t-22.5 -62h266zM459 138q-20 -72 -76.5 -111.5t-141.5 -39.5q-50 0 -87.5 16.5t-62.5 45t-37 66.5t-12 81q0 63 17 124.5t50.5 110t84.5 79t119 30.5q60 0 99 -23t59.5 -60
t24.5 -84t-5 -96l-8 -38h-352q-1 -11 -1.5 -21.5t-0.5 -21.5q0 -27 6 -52t20 -44.5t37.5 -31.5t58.5 -12q31 0 52.5 7.5t35.5 19.5t21.5 26.5t12.5 28.5h86zM385 788h101l-117 -162h-65z" />
    <glyph glyph-name="ecircumflex" unicode="&#xea;" horiz-adv-x="539" 
d="M410 315q5 31 2.5 59.5t-15 50.5t-35 35t-58.5 13q-33 0 -59 -13.5t-46 -36t-33.5 -52.5t-22.5 -62h266zM459 138q-20 -72 -76.5 -111.5t-141.5 -39.5q-50 0 -87.5 16.5t-62.5 45t-37 66.5t-12 81q0 63 17 124.5t50.5 110t84.5 79t119 30.5q60 0 99 -23t59.5 -60
t24.5 -84t-5 -96l-8 -38h-352q-1 -11 -1.5 -21.5t-0.5 -21.5q0 -27 6 -52t20 -44.5t37.5 -31.5t58.5 -12q31 0 52.5 7.5t35.5 19.5t21.5 26.5t12.5 28.5h86zM481 626h-78l-43 102l-79 -102h-82l123 162h93z" />
    <glyph glyph-name="edieresis" unicode="&#xeb;" horiz-adv-x="539" 
d="M410 315q5 31 2.5 59.5t-15 50.5t-35 35t-58.5 13q-33 0 -59 -13.5t-46 -36t-33.5 -52.5t-22.5 -62h266zM459 138q-20 -72 -76.5 -111.5t-141.5 -39.5q-50 0 -87.5 16.5t-62.5 45t-37 66.5t-12 81q0 63 17 124.5t50.5 110t84.5 79t119 30.5q60 0 99 -23t59.5 -60
t24.5 -84t-5 -96l-8 -38h-352q-1 -11 -1.5 -21.5t-0.5 -21.5q0 -27 6 -52t20 -44.5t37.5 -31.5t58.5 -12q31 0 52.5 7.5t35.5 19.5t21.5 26.5t12.5 28.5h86zM414 745h90l-19 -99h-90zM222 745h90l-19 -99h-90z" />
    <glyph glyph-name="igrave" unicode="&#xec;" horiz-adv-x="273" 
d="M143 527h89l-102 -527h-89zM243 626h-65l-102 162h97z" />
    <glyph glyph-name="iacute" unicode="&#xed;" horiz-adv-x="273" 
d="M143 527h89l-102 -527h-89zM252 788h101l-117 -162h-65z" />
    <glyph glyph-name="icircumflex" unicode="&#xee;" horiz-adv-x="273" 
d="M335 626h-73l-36 102l-69 -102h-82l113 162h93zM143 527h89l-102 -527h-89z" />
    <glyph glyph-name="idieresis" unicode="&#xef;" horiz-adv-x="273" 
d="M275 745h81l-20 -99h-81zM104 745h81l-20 -99h-81zM143 527h89l-102 -527h-89z" />
    <glyph glyph-name="eth" unicode="&#xf0;" horiz-adv-x="559" 
d="M245 -13q-54 0 -92.5 16t-63 44t-36 66.5t-11.5 82.5q0 58 16 119t49 111t83.5 81.5t119.5 31.5q45 0 69.5 -11.5t40.5 -33.5h2q-12 45 -31 81t-45 68l-152 -52l-16 50l127 44q-22 20 -48 39.5t-57 39.5l76 30q29 -17 56 -37t53 -45l117 40l18 -50l-97 -33
q42 -53 67.5 -122.5t25.5 -162.5q0 -94 -19.5 -167.5t-55.5 -124.5t-86 -78t-110 -27zM425 338q0 66 -27.5 100.5t-87.5 34.5q-51 0 -85.5 -28.5t-55.5 -71t-30 -92t-9 -91.5q0 -66 30 -100.5t88 -34.5q53 0 87 30t54 73.5t28 92.5t8 87z" />
    <glyph glyph-name="ntilde" unicode="&#xf1;" horiz-adv-x="595" 
d="M429 311q8 38 8 68q0 38 -17.5 62t-66.5 24q-67 0 -109.5 -48t-58.5 -132l-55 -285h-89l102 527h85l-18 -89h2q26 44 71 73t102 29q83 0 119.5 -54.5t15.5 -161.5l-62 -324h-89zM201 624q3 28 11 53t22 43t35 28.5t52 10.5q21 0 39.5 -9.5t34.5 -21t30 -21t28 -9.5
q38 0 45 63h64q-3 -29 -11 -53.5t-22 -42.5t-35 -28.5t-52 -10.5q-21 0 -39.5 9.5t-34.5 21t-30.5 21t-27.5 9.5q-38 0 -45 -63h-64z" />
    <glyph glyph-name="ograve" unicode="&#xf2;" horiz-adv-x="555" 
d="M245 -13q-54 0 -92 16.5t-63 44.5t-36.5 66t-11.5 82q0 58 16 119.5t49 111t83.5 81.5t119.5 32q54 0 92.5 -16.5t63 -44.5t36 -66t11.5 -81q0 -59 -16 -120t-49 -111t-83.5 -82t-119.5 -32zM425 338q0 25 -5 49t-18 43t-36 31t-58 12q-50 0 -84 -28.5t-55 -71t-30 -92
t-9 -91.5q0 -25 5 -49.5t18.5 -43.5t36.5 -30.5t58 -11.5q36 0 63 14.5t46.5 38t32.5 53.5t21 61.5t11 61.5t3 54zM384 626h-65l-102 162h97z" />
    <glyph glyph-name="oacute" unicode="&#xf3;" horiz-adv-x="555" 
d="M245 -13q-54 0 -92 16.5t-63 44.5t-36.5 66t-11.5 82q0 58 16 119.5t49 111t83.5 81.5t119.5 32q54 0 92.5 -16.5t63 -44.5t36 -66t11.5 -81q0 -59 -16 -120t-49 -111t-83.5 -82t-119.5 -32zM425 338q0 25 -5 49t-18 43t-36 31t-58 12q-50 0 -84 -28.5t-55 -71t-30 -92
t-9 -91.5q0 -25 5 -49.5t18.5 -43.5t36.5 -30.5t58 -11.5q36 0 63 14.5t46.5 38t32.5 53.5t21 61.5t11 61.5t3 54zM392 788h101l-117 -162h-65z" />
    <glyph glyph-name="ocircumflex" unicode="&#xf4;" horiz-adv-x="555" 
d="M245 -13q-54 0 -92 16.5t-63 44.5t-36.5 66t-11.5 82q0 58 16 119.5t49 111t83.5 81.5t119.5 32q54 0 92.5 -16.5t63 -44.5t36 -66t11.5 -81q0 -59 -16 -120t-49 -111t-83.5 -82t-119.5 -32zM425 338q0 25 -5 49t-18 43t-36 31t-58 12q-50 0 -84 -28.5t-55 -71t-30 -92
t-9 -91.5q0 -25 5 -49.5t18.5 -43.5t36.5 -30.5t58 -11.5q36 0 63 14.5t46.5 38t32.5 53.5t21 61.5t11 61.5t3 54zM488 626h-78l-43 102l-79 -102h-82l123 162h93z" />
    <glyph glyph-name="otilde" unicode="&#xf5;" horiz-adv-x="555" 
d="M245 -13q-54 0 -92 16.5t-63 44.5t-36.5 66t-11.5 82q0 58 16 119.5t49 111t83.5 81.5t119.5 32q54 0 92.5 -16.5t63 -44.5t36 -66t11.5 -81q0 -59 -16 -120t-49 -111t-83.5 -82t-119.5 -32zM425 338q0 25 -5 49t-18 43t-36 31t-58 12q-50 0 -84 -28.5t-55 -71t-30 -92
t-9 -91.5q0 -25 5 -49.5t18.5 -43.5t36.5 -30.5t58 -11.5q36 0 63 14.5t46.5 38t32.5 53.5t21 61.5t11 61.5t3 54zM179 624q3 28 11 53t22 43t35 28.5t52 10.5q21 0 39.5 -9.5t34.5 -21t30 -21t28 -9.5q38 0 45 63h64q-3 -29 -11 -53.5t-22 -42.5t-35 -28.5t-52 -10.5
q-21 0 -39.5 9.5t-34.5 21t-30.5 21t-27.5 9.5q-38 0 -45 -63h-64z" />
    <glyph glyph-name="odieresis" unicode="&#xf6;" horiz-adv-x="555" 
d="M245 -13q-54 0 -92 16.5t-63 44.5t-36.5 66t-11.5 82q0 58 16 119.5t49 111t83.5 81.5t119.5 32q54 0 92.5 -16.5t63 -44.5t36 -66t11.5 -81q0 -59 -16 -120t-49 -111t-83.5 -82t-119.5 -32zM425 338q0 25 -5 49t-18 43t-36 31t-58 12q-50 0 -84 -28.5t-55 -71t-30 -92
t-9 -91.5q0 -25 5 -49.5t18.5 -43.5t36.5 -30.5t58 -11.5q36 0 63 14.5t46.5 38t32.5 53.5t21 61.5t11 61.5t3 54zM421 745h90l-19 -99h-90zM229 745h90l-19 -99h-90z" />
    <glyph glyph-name="divide" unicode="&#xf7;" horiz-adv-x="613" 
d="M322 595h93l-19 -97h-93zM105 397h454l-16 -79h-454zM230 120l19 97h93l-19 -97h-93z" />
    <glyph glyph-name="oslash" unicode="&#xf8;" horiz-adv-x="555" 
d="M308 473q-50 0 -84 -28.5t-55 -71t-30 -92t-9 -91.5q0 -24 3 -43l271 284q-14 20 -37 31t-59 11zM248 55q36 0 63 14.5t46.5 38t32.5 53.5t21 61.5t11 61.5t3 54q0 9 -0.5 18t-1.5 17l-270 -283q14 -17 36.5 -26t58.5 -9zM513 332q0 -59 -16 -120t-49 -111t-83.5 -82
t-119.5 -32q-48 0 -83.5 13t-60.5 36l-60 -63h-74l101 106q-14 26 -20 55.5t-6 61.5q0 58 16 119.5t49 111t83.5 81.5t119.5 32q51 0 87 -14t61 -38l59 62h75l-102 -107q12 -24 17.5 -52t5.5 -59z" />
    <glyph glyph-name="ugrave" unicode="&#xf9;" horiz-adv-x="592" 
d="M166 216q-4 -19 -6.5 -37t-2.5 -34q-1 -37 16 -60.5t65 -23.5q69 0 111.5 51.5t59.5 142.5l53 272h89l-103 -527h-84l18 90h-2q-26 -44 -67.5 -73.5t-98.5 -29.5q-86 0 -123 55t-16 162l62 323h89zM399 626h-65l-102 162h97z" />
    <glyph glyph-name="uacute" unicode="&#xfa;" horiz-adv-x="592" 
d="M166 216q-4 -19 -6.5 -37t-2.5 -34q-1 -37 16 -60.5t65 -23.5q69 0 111.5 51.5t59.5 142.5l53 272h89l-103 -527h-84l18 90h-2q-26 -44 -67.5 -73.5t-98.5 -29.5q-86 0 -123 55t-16 162l62 323h89zM407 788h101l-117 -162h-65z" />
    <glyph glyph-name="ucircumflex" unicode="&#xfb;" horiz-adv-x="592" 
d="M166 216q-4 -19 -6.5 -37t-2.5 -34q-1 -37 16 -60.5t65 -23.5q69 0 111.5 51.5t59.5 142.5l53 272h89l-103 -527h-84l18 90h-2q-26 -44 -67.5 -73.5t-98.5 -29.5q-86 0 -123 55t-16 162l62 323h89zM503 626h-78l-43 102l-79 -102h-82l123 162h93z" />
    <glyph glyph-name="udieresis" unicode="&#xfc;" horiz-adv-x="592" 
d="M166 216q-4 -19 -6.5 -37t-2.5 -34q-1 -37 16 -60.5t65 -23.5q69 0 111.5 51.5t59.5 142.5l53 272h89l-103 -527h-84l18 90h-2q-26 -44 -67.5 -73.5t-98.5 -29.5q-86 0 -123 55t-16 162l62 323h89zM436 745h90l-19 -99h-90zM244 745h90l-19 -99h-90z" />
    <glyph glyph-name="yacute" unicode="&#xfd;" horiz-adv-x="510" 
d="M84 527h88l48 -330q2 -17 4 -32t4 -26q2 -13 2 -24h3q6 11 12 24q5 11 12.5 25.5t15.5 31.5l166 331h90l-300 -571q-23 -44 -43 -73.5t-43 -47.5t-50.5 -26t-65.5 -8q-21 0 -38 3.5t-25 5.5l15 73q11 -3 21 -5t23 -2q44 1 71.5 21.5t54.5 74.5l17 32zM377 788h101
l-117 -162h-65z" />
    <glyph glyph-name="thorn" unicode="&#xfe;" horiz-adv-x="598" 
d="M298 57q47 0 79.5 29t52.5 71.5t28.5 92t8.5 90.5q0 24 -4.5 47.5t-16.5 41.5t-32 29t-51 11q-35 0 -64.5 -13.5t-52 -36.5t-38 -53t-21.5 -62l-12 -56q-7 -34 -6 -68t14.5 -61.5t41.5 -44.5t73 -17zM194 788h89l-68 -348h1q26 44 68 72t102 28q45 0 77 -15t52.5 -42
t30 -64t9.5 -80q0 -55 -14 -116.5t-44.5 -114t-79 -87t-117.5 -34.5q-51 0 -93.5 25t-58.5 76h-1l-54 -276h-89z" />
    <glyph glyph-name="ydieresis" unicode="&#xff;" horiz-adv-x="510" 
d="M84 527h88l48 -330q2 -17 4 -32t4 -26q2 -13 2 -24h3q6 11 12 24q5 11 12.5 25.5t15.5 31.5l166 331h90l-300 -571q-23 -44 -43 -73.5t-43 -47.5t-50.5 -26t-65.5 -8q-21 0 -38 3.5t-25 5.5l15 73q11 -3 21 -5t23 -2q44 1 71.5 21.5t54.5 74.5l17 32zM406 745h90l-19 -99
h-90zM214 745h90l-19 -99h-90z" />
    <glyph glyph-name="Amacron" unicode="&#x100;" horiz-adv-x="722" 
d="M434 675q-2 -3 -15.5 -33t-38.5 -78l-135 -262h248l-42 262q-9 49 -12 80q-2 17 -3 31h-2zM505 229h-297l-118 -229h-94l401 765h106l132 -765h-93zM342 925h286l-15 -73h-286z" />
    <glyph glyph-name="amacron" unicode="&#x101;" horiz-adv-x="540" 
d="M201 64q23 0 48.5 10.5t48 32t40 53.5t26.5 75l3 15q-42 0 -81.5 -1t-75.5 -8q-43 -8 -70.5 -32t-27.5 -63q0 -38 22.5 -60t66.5 -22zM90 383q4 37 21 66t44 49t63 30.5t80 10.5q52 0 89 -15.5t58.5 -43t27.5 -66.5t-4 -86l-38 -196q-7 -35 3 -50t35 -13l-13 -73h-9
q-52 0 -75 24t-22 64h-3q-12 -19 -27.5 -35.5t-35.5 -29t-45 -20t-57 -7.5q-33 0 -62 9t-51 28t-35 47t-13 66q0 37 12.5 64.5t36 47.5t56 32.5t72.5 19.5q41 8 88.5 8.5t93.5 0.5l4 24q11 62 -12.5 96.5t-81.5 34.5q-44 0 -74.5 -20t-35.5 -67h-90zM199 719h286l-14 -73
h-286z" />
    <glyph glyph-name="Abreve" unicode="&#x102;" horiz-adv-x="722" 
d="M434 675q-2 -3 -15.5 -33t-38.5 -78l-135 -262h248l-42 262q-9 49 -12 80q-2 17 -3 31h-2zM505 229h-297l-118 -229h-94l401 765h106l132 -765h-93zM405 958q-2 -37 15 -55.5t49 -18.5t58 18t39 56h68q-20 -75 -66 -107.5t-105 -32.5q-29 0 -53 8t-41.5 25t-25.5 43.5
t-3 63.5h65z" />
    <glyph glyph-name="abreve" unicode="&#x103;" horiz-adv-x="540" 
d="M201 64q23 0 48.5 10.5t48 32t40 53.5t26.5 75l3 15q-42 0 -81.5 -1t-75.5 -8q-43 -8 -70.5 -32t-27.5 -63q0 -38 22.5 -60t66.5 -22zM90 383q4 37 21 66t44 49t63 30.5t80 10.5q52 0 89 -15.5t58.5 -43t27.5 -66.5t-4 -86l-38 -196q-7 -35 3 -50t35 -13l-13 -73h-9
q-52 0 -75 24t-22 64h-3q-12 -19 -27.5 -35.5t-35.5 -29t-45 -20t-57 -7.5q-33 0 -62 9t-51 28t-35 47t-13 66q0 37 12.5 64.5t36 47.5t56 32.5t72.5 19.5q41 8 88.5 8.5t93.5 0.5l4 24q11 62 -12.5 96.5t-81.5 34.5q-44 0 -74.5 -20t-35.5 -67h-90zM336 629q-32 0 -58.5 9
t-43.5 28.5t-23.5 49.5t1.5 72h65q-9 -46 9 -69.5t54 -23.5q38 0 64 23t36 70h67q-8 -42 -25 -72t-39.5 -49.5t-49.5 -28.5t-57 -9z" />
    <glyph glyph-name="Aogonek" unicode="&#x104;" horiz-adv-x="722" 
d="M579 -188q-52 0 -83 18.5t-31 56.5t27 67t70 46h-20l-37 229h-297l-118 -229h-94l401 765h106l132 -765q-32 -19 -57.5 -41.5t-25.5 -50.5q0 -18 15.5 -26t41.5 -8l-12 -62h-18zM434 675q-2 -3 -15.5 -33t-38.5 -78l-135 -262h248l-42 262q-9 49 -12 80q-2 17 -3 31h-2z
" />
    <glyph glyph-name="aogonek" unicode="&#x105;" horiz-adv-x="540" 
d="M398 4q-31 13 -39.5 35t-8.5 45h-3q-12 -19 -27.5 -35.5t-35.5 -29t-45 -20t-57 -7.5t-61.5 9t-51.5 28t-35 47t-13 66q0 37 12.5 65t36 47.5t56 32t72.5 19.5q41 8 88.5 8.5t93.5 0.5l4 24q11 62 -12.5 96.5t-81.5 34.5q-44 0 -74.5 -20t-35.5 -67h-90q4 37 21 66t44 49
t63 30.5t80 10.5q52 0 88.5 -15.5t58 -43.5t27.5 -67t-3 -85l-38 -196q-7 -36 2.5 -50.5t35.5 -12.5l-12 -69q-42 -24 -62.5 -44t-20.5 -48q0 -18 15.5 -26t41.5 -8l-12 -62h-18q-52 0 -83 18.5t-31 60.5q0 21 9.5 37.5t25.5 30t35.5 24t40.5 17.5v4zM201 64q23 0 48.5 10.5
t48 32t40 53.5t26.5 75l3 15q-42 0 -81.5 -1t-75.5 -8q-43 -8 -70.5 -32t-27.5 -63q0 -38 22.5 -60t66.5 -22z" />
    <glyph glyph-name="Cacute" unicode="&#x106;" horiz-adv-x="755" 
d="M648 537q-6 82 -53 123t-119 41q-57 0 -101.5 -19t-78 -50.5t-56.5 -73t-37 -87.5t-20.5 -93.5t-6.5 -89.5q0 -44 10 -85t33.5 -73t62.5 -51.5t96 -19.5q47 0 84 14t64.5 38.5t46 57t27.5 70.5h92q-14 -60 -43 -107t-70 -80t-93.5 -50.5t-113.5 -17.5q-71 0 -125 22.5
t-90.5 64t-55 100.5t-18.5 133q0 79 23.5 162.5t73 152.5t125.5 113t180 44q52 0 97.5 -15t79 -45t54 -74.5t23.5 -104.5h-91zM542 960h101l-117 -133h-67z" />
    <glyph glyph-name="cacute" unicode="&#x107;" horiz-adv-x="525" 
d="M415 368q2 44 -22.5 74t-77.5 30q-48 0 -83 -26t-57 -66t-32.5 -87t-10.5 -90q0 -28 6 -54.5t20.5 -47t37.5 -33t57 -12.5q33 0 57.5 11t40.5 28t24.5 37.5t11.5 39.5h86q-9 -44 -29.5 -78.5t-50 -58t-66.5 -36t-78 -12.5q-52 0 -90.5 16t-64 44.5t-38 68.5t-12.5 87
q0 57 17 117t51.5 109t87 80t123.5 31q83 0 128.5 -43.5t46.5 -128.5h-83zM390 788h101l-117 -162h-65z" />
    <glyph glyph-name="Ccircumflex" unicode="&#x108;" horiz-adv-x="755" 
d="M648 537q-6 82 -53 123t-119 41q-57 0 -101.5 -19t-78 -50.5t-56.5 -73t-37 -87.5t-20.5 -93.5t-6.5 -89.5q0 -44 10 -85t33.5 -73t62.5 -51.5t96 -19.5q47 0 84 14t64.5 38.5t46 57t27.5 70.5h92q-14 -60 -43 -107t-70 -80t-93.5 -50.5t-113.5 -17.5q-71 0 -125 22.5
t-90.5 64t-55 100.5t-18.5 133q0 79 23.5 162.5t73 152.5t125.5 113t180 44q52 0 97.5 -15t79 -45t54 -74.5t23.5 -104.5h-91zM636 827h-75l-50 76h-1l-77 -76h-79l113 133h92z" />
    <glyph glyph-name="ccircumflex" unicode="&#x109;" horiz-adv-x="525" 
d="M415 368q2 44 -22.5 74t-77.5 30q-48 0 -83 -26t-57 -66t-32.5 -87t-10.5 -90q0 -28 6 -54.5t20.5 -47t37.5 -33t57 -12.5q33 0 57.5 11t40.5 28t24.5 37.5t11.5 39.5h86q-9 -44 -29.5 -78.5t-50 -58t-66.5 -36t-78 -12.5q-52 0 -90.5 16t-64 44.5t-38 68.5t-12.5 87
q0 57 17 117t51.5 109t87 80t123.5 31q83 0 128.5 -43.5t46.5 -128.5h-83zM486 626h-78l-43 102l-79 -102h-82l123 162h93z" />
    <glyph glyph-name="Cdotaccent" unicode="&#x10a;" horiz-adv-x="755" 
d="M648 537q-6 82 -53 123t-119 41q-57 0 -101.5 -19t-78 -50.5t-56.5 -73t-37 -87.5t-20.5 -93.5t-6.5 -89.5q0 -44 10 -85t33.5 -73t62.5 -51.5t96 -19.5q47 0 84 14t64.5 38.5t46 57t27.5 70.5h92q-14 -60 -43 -107t-70 -80t-93.5 -50.5t-113.5 -17.5q-71 0 -125 22.5
t-90.5 64t-55 100.5t-18.5 133q0 79 23.5 162.5t73 152.5t125.5 113t180 44q52 0 97.5 -15t79 -45t54 -74.5t23.5 -104.5h-91zM482 936h93l-19 -99h-93z" />
    <glyph glyph-name="cdotaccent" unicode="&#x10b;" horiz-adv-x="525" 
d="M415 368q2 44 -22.5 74t-77.5 30q-48 0 -83 -26t-57 -66t-32.5 -87t-10.5 -90q0 -28 6 -54.5t20.5 -47t37.5 -33t57 -12.5q33 0 57.5 11t40.5 28t24.5 37.5t11.5 39.5h86q-9 -44 -29.5 -78.5t-50 -58t-66.5 -36t-78 -12.5q-52 0 -90.5 16t-64 44.5t-38 68.5t-12.5 87
q0 57 17 117t51.5 109t87 80t123.5 31q83 0 128.5 -43.5t46.5 -128.5h-83zM322 745h93l-19 -99h-93z" />
    <glyph glyph-name="Ccaron" unicode="&#x10c;" horiz-adv-x="755" 
d="M648 537q-6 82 -53 123t-119 41q-57 0 -101.5 -19t-78 -50.5t-56.5 -73t-37 -87.5t-20.5 -93.5t-6.5 -89.5q0 -44 10 -85t33.5 -73t62.5 -51.5t96 -19.5q47 0 84 14t64.5 38.5t46 57t27.5 70.5h92q-14 -60 -43 -107t-70 -80t-93.5 -50.5t-113.5 -17.5q-71 0 -125 22.5
t-90.5 64t-55 100.5t-18.5 133q0 79 23.5 162.5t73 152.5t125.5 113t180 44q52 0 97.5 -15t79 -45t54 -74.5t23.5 -104.5h-91zM368 960h80l52 -76h1l79 76h86l-125 -133h-92z" />
    <glyph glyph-name="ccaron" unicode="&#x10d;" horiz-adv-x="525" 
d="M415 368q2 44 -22.5 74t-77.5 30q-48 0 -83 -26t-57 -66t-32.5 -87t-10.5 -90q0 -28 6 -54.5t20.5 -47t37.5 -33t57 -12.5q33 0 57.5 11t40.5 28t24.5 37.5t11.5 39.5h86q-9 -44 -29.5 -78.5t-50 -58t-66.5 -36t-78 -12.5q-52 0 -90.5 16t-64 44.5t-38 68.5t-12.5 87
q0 57 17 117t51.5 109t87 80t123.5 31q83 0 128.5 -43.5t46.5 -128.5h-83zM235 788h78l43 -102l79 102h82l-123 -162h-93z" />
    <glyph glyph-name="Dcaron" unicode="&#x10e;" horiz-adv-x="755" 
d="M199 765h216q67 0 123.5 -17t97 -53.5t63 -93t22.5 -134.5q0 -92 -23.5 -176.5t-74.5 -149t-131 -103t-192 -38.5h-248zM319 79q70 0 120 22t84 57.5t54.5 79t31.5 86.5t14.5 81t3.5 61q0 61 -15.5 103t-44.5 68t-69.5 37.5t-89.5 11.5h-133l-118 -607h162zM314 960h80
l52 -76h1l79 76h86l-125 -133h-92z" />
    <glyph glyph-name="dcaron" unicode="&#x10f;" horiz-adv-x="598" 
d="M315 469q-50 0 -85 -28.5t-56.5 -71t-31.5 -92t-10 -92.5q0 -25 5 -48t17.5 -40.5t32.5 -28t50 -10.5q36 0 65.5 13.5t52 36.5t37.5 53t21 63l11 56q7 33 7 67t-11 61t-36.5 44t-68.5 17zM456 0h-84l16 85h-2q-26 -41 -67 -69.5t-96 -28.5q-46 0 -79.5 14.5t-55.5 40.5
t-33 62.5t-11 81.5q0 60 16 123t49 114.5t82.5 84t116.5 32.5q116 0 145 -97h1l66 345h89zM683 788h84l-77 -162h-55z" />
    <glyph glyph-name="Dcroat" unicode="&#x110;" horiz-adv-x="773" 
d="M70 0l67 348h-84l15 78h84l65 339h216q67 0 123.5 -17t97 -53.5t63 -93t22.5 -134.5q0 -92 -23.5 -176.5t-74.5 -149t-131 -103t-192 -38.5h-248zM337 79q70 0 120 22t84 57.5t54.5 79t31.5 86.5t14.5 81t3.5 61q0 61 -15.5 103t-44.5 68t-69.5 37.5t-89.5 11.5h-133
l-51 -260h213l-15 -78h-213l-52 -269h162z" />
    <glyph glyph-name="dcroat" unicode="&#x111;" horiz-adv-x="598" 
d="M315 469q-50 0 -85 -28.5t-56.5 -71t-31.5 -92t-10 -92.5q0 -25 5 -48t17.5 -40.5t32.5 -28t50 -10.5q36 0 65.5 13.5t52 36.5t37.5 53t21 63l11 56q7 33 7 67t-11 61t-36.5 44t-68.5 17zM386 85q-26 -41 -67 -69.5t-96 -28.5q-46 0 -79.5 14.5t-55.5 40.5t-33 62.5
t-11 81.5q0 60 16 123t49 114.5t82.5 84t116.5 32.5q116 0 145 -97h1l35 181h-155l12 63h155l19 101h89l-20 -101h75l-12 -63h-75l-121 -624h-84l16 85h-2z" />
    <glyph glyph-name="Emacron" unicode="&#x112;" horiz-adv-x="659" 
d="M200 765h472l-16 -82h-381l-50 -257h353l-16 -80h-352l-51 -264h390l-16 -82h-481zM329 925h286l-15 -73h-286z" />
    <glyph glyph-name="emacron" unicode="&#x113;" horiz-adv-x="539" 
d="M410 315q5 31 2.5 59.5t-15 50.5t-35 35t-58.5 13q-33 0 -59 -13.5t-46 -36t-33.5 -52.5t-22.5 -62h266zM459 138q-20 -72 -76.5 -111.5t-141.5 -39.5q-50 0 -87.5 16.5t-62.5 45t-37 66.5t-12 81q0 63 17 124.5t50.5 110t84.5 79t119 30.5q60 0 99 -23t59.5 -60
t24.5 -84t-5 -96l-8 -38h-352q-1 -11 -1.5 -21.5t-0.5 -21.5q0 -27 6 -52t20 -44.5t37.5 -31.5t58.5 -12q31 0 52.5 7.5t35.5 19.5t21.5 26.5t12.5 28.5h86zM215 719h286l-14 -73h-286z" />
    <glyph glyph-name="Ebreve" unicode="&#x114;" horiz-adv-x="659" 
d="M200 765h472l-16 -82h-381l-50 -257h353l-16 -80h-352l-51 -264h390l-16 -82h-481zM390 970q-2 -37 15 -55.5t49 -18.5t58 18t39 56h68q-20 -75 -66 -107.5t-105 -32.5q-29 0 -53 8t-41.5 25t-25.5 43.5t-3 63.5h65z" />
    <glyph glyph-name="ebreve" unicode="&#x115;" horiz-adv-x="539" 
d="M410 315q5 31 2.5 59.5t-15 50.5t-35 35t-58.5 13q-33 0 -59 -13.5t-46 -36t-33.5 -52.5t-22.5 -62h266zM459 138q-20 -72 -76.5 -111.5t-141.5 -39.5q-50 0 -87.5 16.5t-62.5 45t-37 66.5t-12 81q0 63 17 124.5t50.5 110t84.5 79t119 30.5q60 0 99 -23t59.5 -60
t24.5 -84t-5 -96l-8 -38h-352q-1 -11 -1.5 -21.5t-0.5 -21.5q0 -27 6 -52t20 -44.5t37.5 -31.5t58.5 -12q31 0 52.5 7.5t35.5 19.5t21.5 26.5t12.5 28.5h86zM353 629q-32 0 -58.5 9t-43.5 28.5t-23.5 49.5t1.5 72h65q-9 -46 9 -69.5t54 -23.5q38 0 64 23t36 70h67
q-8 -42 -25 -72t-39.5 -49.5t-49.5 -28.5t-57 -9z" />
    <glyph glyph-name="Edotaccent" unicode="&#x116;" horiz-adv-x="659" 
d="M200 765h472l-16 -82h-381l-50 -257h353l-16 -80h-352l-51 -264h390l-16 -82h-481zM427 936h93l-19 -99h-93z" />
    <glyph glyph-name="edotaccent" unicode="&#x117;" horiz-adv-x="539" 
d="M410 315q5 31 2.5 59.5t-15 50.5t-35 35t-58.5 13q-33 0 -59 -13.5t-46 -36t-33.5 -52.5t-22.5 -62h266zM459 138q-20 -72 -76.5 -111.5t-141.5 -39.5q-50 0 -87.5 16.5t-62.5 45t-37 66.5t-12 81q0 63 17 124.5t50.5 110t84.5 79t119 30.5q60 0 99 -23t59.5 -60
t24.5 -84t-5 -96l-8 -38h-352q-1 -11 -1.5 -21.5t-0.5 -21.5q0 -27 6 -52t20 -44.5t37.5 -31.5t58.5 -12q31 0 52.5 7.5t35.5 19.5t21.5 26.5t12.5 28.5h86zM317 745h93l-19 -99h-93z" />
    <glyph glyph-name="Eogonek" unicode="&#x118;" horiz-adv-x="659" 
d="M495 -188h-18q-52 0 -83 18.5t-31 56.5q0 40 30 69.5t69 43.5h-410l148 765h472l-16 -82h-381l-50 -257h353l-16 -80h-352l-51 -264h390l-16 -82q-32 -19 -57.5 -41.5t-25.5 -50.5q0 -18 15.5 -26t41.5 -8z" />
    <glyph glyph-name="eogonek" unicode="&#x119;" horiz-adv-x="539" 
d="M410 315q5 32 3 60.5t-13.5 50.5t-35 34.5t-60.5 12.5q-33 0 -59 -13.5t-46 -36t-33.5 -52.5t-22.5 -62h266zM326 -188h-18q-52 0 -83 18.5t-31 56.5q0 35 24.5 61.5t58.5 42.5v2q-25 -5 -44 -5q-40 0 -74.5 13.5t-60.5 40t-41 65.5t-15 89q0 63 17 124.5t51 110.5
t84.5 79t118.5 30q62 0 101 -23t59.5 -60t23.5 -84t-6 -96l-8 -38h-352q-1 -11 -1.5 -21.5t-0.5 -21.5q0 -27 6 -52t20 -44.5t37.5 -31.5t58.5 -12q31 0 52.5 7.5t35.5 19.5t21.5 26.5t12.5 28.5h86q-11 -37 -34 -70.5t-75 -62.5q-32 -18 -51.5 -43t-19.5 -50
q0 -21 16.5 -29.5t42.5 -8.5z" />
    <glyph glyph-name="Ecaron" unicode="&#x11a;" horiz-adv-x="659" 
d="M200 765h472l-16 -82h-381l-50 -257h353l-16 -80h-352l-51 -264h390l-16 -82h-481zM329 960h80l52 -76h1l79 76h86l-125 -133h-92z" />
    <glyph glyph-name="ecaron" unicode="&#x11b;" horiz-adv-x="539" 
d="M410 315q5 31 2.5 59.5t-15 50.5t-35 35t-58.5 13q-33 0 -59 -13.5t-46 -36t-33.5 -52.5t-22.5 -62h266zM459 138q-20 -72 -76.5 -111.5t-141.5 -39.5q-50 0 -87.5 16.5t-62.5 45t-37 66.5t-12 81q0 63 17 124.5t50.5 110t84.5 79t119 30.5q60 0 99 -23t59.5 -60
t24.5 -84t-5 -96l-8 -38h-352q-1 -11 -1.5 -21.5t-0.5 -21.5q0 -27 6 -52t20 -44.5t37.5 -31.5t58.5 -12q31 0 52.5 7.5t35.5 19.5t21.5 26.5t12.5 28.5h86zM230 788h78l43 -102l79 102h82l-123 -162h-93z" />
    <glyph glyph-name="Gcircumflex" unicode="&#x11c;" horiz-adv-x="806" 
d="M652 562q-2 65 -44 102.5t-117 37.5q-65 0 -113.5 -21t-83.5 -56t-58 -79.5t-36.5 -90.5t-19 -91t-5.5 -80q0 -42 10 -82.5t33.5 -72t61.5 -51t94 -19.5t100 18.5t76 50.5t53 74.5t30 91.5l2 12h-217l17 80h306l-75 -386h-79l24 124h-3q-31 -65 -94.5 -102t-148.5 -37
q-75 0 -128.5 24.5t-88.5 66t-51.5 95t-16.5 110.5q0 51 9.5 107.5t29.5 111.5t53 105t79 88t107.5 60.5t139.5 22.5q111 0 176.5 -54t68.5 -160h-91zM655 827h-75l-50 76h-1l-77 -76h-79l113 133h92z" />
    <glyph glyph-name="gcircumflex" unicode="&#x11d;" horiz-adv-x="596" 
d="M424 288q7 34 7 66.5t-12 58t-37.5 41t-68.5 15.5q-49 0 -84 -28t-57 -70.5t-32 -92.5t-10 -94q0 -24 5 -45.5t17.5 -37.5t33 -25.5t51.5 -9.5q35 0 64.5 14t52 37t38 53t21.5 62zM99 -50q2 -38 29.5 -59.5t79.5 -21.5q69 0 109 42t56 125l11 54h-2q-26 -38 -66.5 -65.5
t-100.5 -27.5q-87 0 -130 51t-43 136q0 60 16.5 123.5t49.5 115t83.5 84.5t119.5 33q54 0 91 -24.5t53 -72.5h1l17 84h83l-99 -507q-22 -112 -86 -165.5t-171 -53.5q-35 0 -68 8.5t-59.5 26.5t-42.5 46t-16 68h85zM491 626h-78l-43 102l-79 -102h-82l123 162h93z" />
    <glyph glyph-name="Gbreve" unicode="&#x11e;" horiz-adv-x="806" 
d="M652 562q-2 65 -44 102.5t-117 37.5q-65 0 -113.5 -21t-83.5 -56t-58 -79.5t-36.5 -90.5t-19 -91t-5.5 -80q0 -42 10 -82.5t33.5 -72t61.5 -51t94 -19.5t100 18.5t76 50.5t53 74.5t30 91.5l2 12h-217l17 80h306l-75 -386h-79l24 124h-3q-31 -65 -94.5 -102t-148.5 -37
q-75 0 -128.5 24.5t-88.5 66t-51.5 95t-16.5 110.5q0 51 9.5 107.5t29.5 111.5t53 105t79 88t107.5 60.5t139.5 22.5q111 0 176.5 -54t68.5 -160h-91zM452 970q-2 -37 15 -55.5t49 -18.5t58 18t39 56h68q-20 -75 -66 -107.5t-105 -32.5q-29 0 -53 8t-41.5 25t-25.5 43.5
t-3 63.5h65z" />
    <glyph glyph-name="gbreve" unicode="&#x11f;" horiz-adv-x="596" 
d="M424 288q7 34 7 66.5t-12 58t-37.5 41t-68.5 15.5q-49 0 -84 -28t-57 -70.5t-32 -92.5t-10 -94q0 -24 5 -45.5t17.5 -37.5t33 -25.5t51.5 -9.5q35 0 64.5 14t52 37t38 53t21.5 62zM99 -50q2 -38 29.5 -59.5t79.5 -21.5q69 0 109 42t56 125l11 54h-2q-26 -38 -66.5 -65.5
t-100.5 -27.5q-87 0 -130 51t-43 136q0 60 16.5 123.5t49.5 115t83.5 84.5t119.5 33q54 0 91 -24.5t53 -72.5h1l17 84h83l-99 -507q-22 -112 -86 -165.5t-171 -53.5q-35 0 -68 8.5t-59.5 26.5t-42.5 46t-16 68h85zM363 629q-32 0 -58.5 9t-43.5 28.5t-23.5 49.5t1.5 72h65
q-9 -46 9 -69.5t54 -23.5q38 0 64 23t36 70h67q-8 -42 -25 -72t-39.5 -49.5t-49.5 -28.5t-57 -9z" />
    <glyph glyph-name="Gdotaccent" unicode="&#x120;" horiz-adv-x="806" 
d="M652 562q-2 65 -44 102.5t-117 37.5q-65 0 -113.5 -21t-83.5 -56t-58 -79.5t-36.5 -90.5t-19 -91t-5.5 -80q0 -42 10 -82.5t33.5 -72t61.5 -51t94 -19.5t100 18.5t76 50.5t53 74.5t30 91.5l2 12h-217l17 80h306l-75 -386h-79l24 124h-3q-31 -65 -94.5 -102t-148.5 -37
q-75 0 -128.5 24.5t-88.5 66t-51.5 95t-16.5 110.5q0 51 9.5 107.5t29.5 111.5t53 105t79 88t107.5 60.5t139.5 22.5q111 0 176.5 -54t68.5 -160h-91zM488 936h93l-19 -99h-93z" />
    <glyph glyph-name="gdotaccent" unicode="&#x121;" horiz-adv-x="596" 
d="M424 288q7 34 7 66.5t-12 58t-37.5 41t-68.5 15.5q-49 0 -84 -28t-57 -70.5t-32 -92.5t-10 -94q0 -24 5 -45.5t17.5 -37.5t33 -25.5t51.5 -9.5q35 0 64.5 14t52 37t38 53t21.5 62zM99 -50q2 -38 29.5 -59.5t79.5 -21.5q69 0 109 42t56 125l11 54h-2q-26 -38 -66.5 -65.5
t-100.5 -27.5q-87 0 -130 51t-43 136q0 60 16.5 123.5t49.5 115t83.5 84.5t119.5 33q54 0 91 -24.5t53 -72.5h1l17 84h83l-99 -507q-22 -112 -86 -165.5t-171 -53.5q-35 0 -68 8.5t-59.5 26.5t-42.5 46t-16 68h85zM327 745h93l-19 -99h-93z" />
    <glyph glyph-name="Gcommaaccent" unicode="&#x122;" horiz-adv-x="806" 
d="M652 562q-2 65 -44 102.5t-117 37.5q-65 0 -113.5 -21t-83.5 -56t-58 -79.5t-36.5 -90.5t-19 -91t-5.5 -80q0 -42 10 -82.5t33.5 -72t61.5 -51t94 -19.5t100 18.5t76 50.5t53 74.5t30 91.5l2 12h-217l17 80h306l-75 -386h-79l24 124h-3q-31 -65 -94.5 -102t-148.5 -37
q-75 0 -128.5 24.5t-88.5 66t-51.5 95t-16.5 110.5q0 51 9.5 107.5t29.5 111.5t53 105t79 88t107.5 60.5t139.5 22.5q111 0 176.5 -54t68.5 -160h-91zM295 -69h95l-88 -137h-56z" />
    <glyph glyph-name="gcommaaccent" unicode="&#x123;" horiz-adv-x="596" 
d="M424 288q7 34 7 66.5t-12 58t-37.5 41t-68.5 15.5q-49 0 -84 -28t-57 -70.5t-32 -92.5t-10 -94q0 -24 5 -45.5t17.5 -37.5t33 -25.5t51.5 -9.5q35 0 64.5 14t52 37t38 53t21.5 62zM99 -50q2 -38 29.5 -59.5t79.5 -21.5q69 0 109 42t56 125l11 54h-2q-26 -38 -66.5 -65.5
t-100.5 -27.5q-87 0 -130 51t-43 136q0 60 16.5 123.5t49.5 115t83.5 84.5t119.5 33q54 0 91 -24.5t53 -72.5h1l17 84h83l-99 -507q-22 -112 -86 -165.5t-171 -53.5q-35 0 -68 8.5t-59.5 26.5t-42.5 46t-16 68h85zM392 634h-95l88 137h56z" />
    <glyph glyph-name="Hcircumflex" unicode="&#x124;" horiz-adv-x="769" 
d="M144 0h-90l147 765h91l-65 -338h385l65 338h91l-148 -765h-91l67 346h-385zM626 827h-75l-50 76h-1l-77 -76h-79l113 133h92z" />
    <glyph glyph-name="hcircumflex" unicode="&#x125;" horiz-adv-x="595" 
d="M430 311q8 38 8.5 70t-13.5 53q-9 14 -26.5 22.5t-45.5 8.5q-67 0 -109.5 -48t-58.5 -132l-55 -285h-89l153 788h89l-68 -346h2q26 42 68.5 70t99.5 28q83 0 119.5 -54.5t15.5 -161.5l-62 -324h-88zM554 827h-75l-50 76h-1l-77 -76h-79l113 133h92z" />
    <glyph glyph-name="Hbar" unicode="&#x126;" horiz-adv-x="769" 
d="M612 427l28 143h-385l-28 -143h385zM144 0h-90l110 570h-94l13 67h93l25 128h91l-25 -128h385l25 128h91l-25 -128h87l-13 -67h-87l-110 -570h-91l67 346h-385z" />
    <glyph glyph-name="hbar" unicode="&#x127;" horiz-adv-x="595" 
d="M130 0h-89l121 624h-72l12 63h72l20 101h89l-20 -101h157l-12 -63h-157l-36 -182h2q26 42 68.5 70t99.5 28q83 0 119.5 -54.5t15.5 -161.5l-62 -324h-88l60 311q8 38 8.5 70t-13.5 53q-9 14 -26.5 22.5t-45.5 8.5q-67 0 -109.5 -48t-58.5 -132z" />
    <glyph glyph-name="Itilde" unicode="&#x128;" horiz-adv-x="296" 
d="M202 765h91l-148 -765h-91zM84 827q5 26 15 50.5t26 43t38 30t52 11.5q24 0 42 -9.5t32 -21t26 -21t25 -9.5q22 0 34 15.5t22 47.5h68q-5 -26 -15 -50.5t-25.5 -43.5t-37.5 -30t-52 -11q-24 0 -41.5 9.5t-32 20.5t-27 20.5t-26.5 9.5q-37 0 -56 -62h-67z" />
    <glyph glyph-name="itilde" unicode="&#x129;" horiz-adv-x="273" 
d="M60 624q5 28 13.5 53t22 43t33 28.5t45.5 10.5q18 0 33 -9.5t28 -21t24.5 -21t23.5 -9.5q34 0 44 63h55q-5 -29 -13 -53.5t-20.5 -42.5t-31 -28.5t-44.5 -10.5q-19 0 -34.5 9.5t-29.5 21t-26 21t-24 9.5q-32 0 -44 -63h-55zM143 527h89l-102 -527h-89z" />
    <glyph glyph-name="Imacron" unicode="&#x12a;" horiz-adv-x="296" 
d="M202 765h91l-148 -765h-91zM136 925h286l-15 -73h-286z" />
    <glyph glyph-name="imacron" unicode="&#x12b;" horiz-adv-x="273" 
d="M103 719h243l-15 -73h-244zM143 527h89l-102 -527h-89z" />
    <glyph glyph-name="Ibreve" unicode="&#x12c;" horiz-adv-x="296" 
d="M202 765h91l-148 -765h-91zM210 970q-2 -37 15 -55.5t49 -18.5t58 18t39 56h68q-20 -75 -66 -107.5t-105 -32.5q-29 0 -53 8t-41.5 25t-25.5 43.5t-3 63.5h65z" />
    <glyph glyph-name="ibreve" unicode="&#x12d;" horiz-adv-x="273" 
d="M214 629q-29 0 -52 9t-37 28.5t-17.5 49.5t7.5 72h58q-12 -46 3 -69.5t47 -23.5q71 0 97 93h60q-22 -85 -64 -122t-102 -37zM143 527h89l-102 -527h-89z" />
    <glyph glyph-name="Iogonek" unicode="&#x12e;" horiz-adv-x="296" 
d="M202 765h91l-148 -765q-32 -19 -57.5 -41.5t-25.5 -50.5q0 -18 15.5 -26t41.5 -8l-12 -62h-18q-52 0 -83 18.5t-31 56.5q0 37 26 66t70 47h-17z" />
    <glyph glyph-name="iogonek" unicode="&#x12f;" horiz-adv-x="273" 
d="M183 744h93l-19 -97h-93zM143 527h89l-102 -527q-32 -19 -57.5 -41.5t-25.5 -50.5q0 -18 15.5 -26t41.5 -8l-12 -62h-18q-52 0 -83 18.5t-31 56.5q0 37 26.5 66.5t70.5 46.5h-16z" />
    <glyph glyph-name="Idotaccent" unicode="&#x130;" horiz-adv-x="296" 
d="M202 765h91l-148 -765h-91zM234 936h93l-19 -99h-93z" />
    <glyph glyph-name="dotlessi" unicode="&#x131;" horiz-adv-x="273" 
d="M143 527h89l-102 -527h-89z" />
    <glyph glyph-name="IJ" unicode="&#x132;" horiz-adv-x="657" 
d="M202 765h91l-148 -765h-91zM250 -3l15 79h23q45 0 75 8.5t49.5 26t30.5 43t17 59.5l108 552h91l-109 -562q-9 -47 -25.5 -85t-47 -65t-77.5 -41.5t-116 -14.5h-34z" />
    <glyph glyph-name="ij" unicode="&#x133;" horiz-adv-x="546" 
d="M183 744h93l-19 -97h-93zM143 527h89l-102 -527h-89zM456 744h93l-19 -97h-93zM227 -199q-23 0 -38 3.5t-26 7.5l15 73q9 -3 20.5 -5t25.5 -2q32 0 51.5 15t27.5 53l113 581h89l-115 -591q-7 -37 -22 -62.5t-36 -41.5t-48 -23.5t-57 -7.5z" />
    <glyph glyph-name="Jcircumflex" unicode="&#x134;" horiz-adv-x="416" 
d="M-30 -3l15 79h58q45 0 75 8.5t49.5 26t30.5 43t17 59.5l108 552h91l-109 -562q-9 -47 -25.5 -85t-47 -65t-77.5 -41.5t-116 -14.5h-69zM521 827h-75l-50 76h-1l-77 -76h-79l113 133h92z" />
    <glyph glyph-name="jcircumflex" unicode="&#x135;" horiz-adv-x="273" 
d="M335 626h-73l-36 102l-69 -102h-82l113 162h93zM-95 -115q9 -3 20.5 -5t25.5 -2q32 0 51.5 15t27.5 53l113 581h89l-115 -591q-7 -37 -22 -62.5t-36 -41.5t-48 -23.5t-57 -7.5q-23 0 -38 3.5t-26 7.5z" />
    <glyph glyph-name="Kcommaaccent" unicode="&#x136;" horiz-adv-x="700" 
d="M143 0h-91l148 765h91l-78 -401l421 401h115l-346 -326l221 -439h-101l-189 377l-144 -132zM255 -69h95l-88 -137h-56z" />
    <glyph glyph-name="kcommaaccent" unicode="&#x137;" horiz-adv-x="550" 
d="M130 0h-89l153 788h89l-100 -514l260 253h107l-221 -207l142 -320h-98l-111 257l-101 -97zM185 -69h95l-88 -137h-56z" />
    <glyph glyph-name="kgreenlandic" unicode="&#x138;" horiz-adv-x="550" 
d="M130 0h-89l101 527h89l-49 -254l261 254h107l-221 -207l142 -320h-98l-111 257l-101 -98z" />
    <glyph glyph-name="Lacute" unicode="&#x139;" horiz-adv-x="589" 
d="M200 765h91l-132 -683h372l-16 -82h-463zM303 960h101l-117 -133h-67z" />
    <glyph glyph-name="lacute" unicode="&#x13a;" horiz-adv-x="272" 
d="M194 788h89l-153 -788h-89zM290 960h101l-117 -133h-67z" />
    <glyph glyph-name="Lcommaaccent" unicode="&#x13b;" horiz-adv-x="589" 
d="M200 765h91l-132 -683h372l-16 -82h-463zM226 -69h95l-88 -137h-56z" />
    <glyph glyph-name="lcommaaccent" unicode="&#x13c;" horiz-adv-x="272" 
d="M194 788h89l-153 -788h-89zM29 -69h95l-88 -137h-56z" />
    <glyph glyph-name="Lcaron" unicode="&#x13d;" horiz-adv-x="589" 
d="M431 788h94l-94 -195h-65zM200 765h91l-132 -683h372l-16 -82h-463z" />
    <glyph glyph-name="lcaron" unicode="&#x13e;" horiz-adv-x="272" 
d="M194 788h89l-153 -788h-89zM357 788h84l-77 -162h-55z" />
    <glyph glyph-name="Ldot" unicode="&#x13f;" horiz-adv-x="589" 
d="M200 765h91l-132 -683h372l-16 -82h-463zM406.732 447.485h112.297l-21.7051 -115.001h-112.296z" />
    <glyph glyph-name="ldot" unicode="&#x140;" horiz-adv-x="328" 
d="M194 788h89l-153 -788h-89zM257.104 425.522h99.7236l-19.2744 -101.999h-99.7236z" />
    <glyph glyph-name="Lslash" unicode="&#x141;" horiz-adv-x="591" 
d="M110 289l-85 -31l17 87l85 31l75 389h91l-68 -353l260 95l-17 -87l-260 -95l-47 -243h372l-16 -82h-463z" />
    <glyph glyph-name="lslash" unicode="&#x142;" horiz-adv-x="279" 
d="M42 0l63 324l-93 -57l17 87l93 57l73 377h88l-61 -316l95 58l-18 -87l-94 -58l-75 -385h-88z" />
    <glyph glyph-name="Nacute" unicode="&#x143;" horiz-adv-x="779" 
d="M200 765h112l223 -580q12 -35 18 -54q4 -11 5 -21h3l127 655h86l-148 -765h-111l-223 579q-8 19 -12.5 33t-7.5 23q-4 11 -5 18h-2l-126 -653h-87zM543 960h101l-117 -133h-67z" />
    <glyph glyph-name="nacute" unicode="&#x144;" horiz-adv-x="595" 
d="M429 311q8 38 8 68q0 38 -17.5 62t-66.5 24q-67 0 -109.5 -48t-58.5 -132l-55 -285h-89l102 527h85l-18 -89h2q26 44 71 73t102 29q83 0 119.5 -54.5t15.5 -161.5l-62 -324h-89zM414 788h101l-117 -162h-65z" />
    <glyph glyph-name="Ncommaaccent" unicode="&#x145;" horiz-adv-x="779" 
d="M200 765h112l223 -580q12 -35 18 -54q4 -11 5 -21h3l127 655h86l-148 -765h-111l-223 579q-8 19 -12.5 33t-7.5 23q-4 11 -5 18h-2l-126 -653h-87zM281 -69h95l-88 -137h-56z" />
    <glyph glyph-name="ncommaaccent" unicode="&#x146;" horiz-adv-x="595" 
d="M429 311q8 38 8 68q0 38 -17.5 62t-66.5 24q-67 0 -109.5 -48t-58.5 -132l-55 -285h-89l102 527h85l-18 -89h2q26 44 71 73t102 29q83 0 119.5 -54.5t15.5 -161.5l-62 -324h-89zM190 -69h95l-88 -137h-56z" />
    <glyph glyph-name="Ncaron" unicode="&#x147;" horiz-adv-x="779" 
d="M200 765h112l223 -580q12 -35 18 -54q4 -11 5 -21h3l127 655h86l-148 -765h-111l-223 579q-8 19 -12.5 33t-7.5 23q-4 11 -5 18h-2l-126 -653h-87zM376 960h80l52 -76h1l79 76h86l-125 -133h-92z" />
    <glyph glyph-name="ncaron" unicode="&#x148;" horiz-adv-x="595" 
d="M429 311q8 38 8 68q0 38 -17.5 62t-66.5 24q-67 0 -109.5 -48t-58.5 -132l-55 -285h-89l102 527h85l-18 -89h2q26 44 71 73t102 29q83 0 119.5 -54.5t15.5 -161.5l-62 -324h-89zM248 788h78l43 -102l79 102h82l-123 -162h-93z" />
    <glyph glyph-name="napostrophe" unicode="&#x149;" horiz-adv-x="595" 
d="M429 311q8 38 8 68q0 38 -17.5 62t-66.5 24q-67 0 -109.5 -48t-58.5 -132l-55 -285h-89l102 527h85l-18 -89h2q26 44 71 73t102 29q83 0 119.5 -54.5t15.5 -161.5l-62 -324h-89zM159 788h95l-88 -137h-56z" />
    <glyph glyph-name="Eng" unicode="&#x14a;" horiz-adv-x="779" 
d="M299 -188l15 79h53q38 0 64.5 5.5t45 16t30 26t19.5 35.5l-234 605q-8 19 -12.5 33t-7.5 23q-4 11 -5 18h-2l-126 -653h-87l148 765h112l223 -580q12 -35 18 -54q4 -11 5 -21h3l127 655h86l-140 -721l-5 -26q-9 -47 -25.5 -85t-47 -65t-77.5 -41.5t-116 -14.5h-64z" />
    <glyph glyph-name="eng" unicode="&#x14b;" horiz-adv-x="595" 
d="M283 -199q-23 0 -38 3.5t-26 7.5l15 73q9 -3 20.5 -5t25.5 -2q32 0 51 15t27 53l11 54l60 311q8 38 8 68q0 38 -17.5 62t-66.5 24q-67 0 -109.5 -48t-58.5 -132l-55 -285h-89l102 527h85l-18 -89h2q26 44 71 73t102 29q83 0 119.5 -54.5t15.5 -161.5l-62 -324l-12 -64
q-7 -37 -22 -62.5t-36 -41.5t-48 -23.5t-57 -7.5z" />
    <glyph glyph-name="Omacron" unicode="&#x14c;" horiz-adv-x="802" 
d="M81 287q0 105 30 194.5t83 155t125.5 102.5t158.5 37q70 0 124 -23t90.5 -64t55.5 -97.5t19 -122.5q0 -86 -25 -172.5t-74.5 -156t-122.5 -113t-170 -43.5q-71 0 -125.5 23.5t-92 64.5t-57 96t-19.5 119zM673 473q0 43 -10.5 84t-34 73.5t-61.5 52t-94 19.5t-99.5 -19.5
t-76.5 -52t-56.5 -75.5t-38 -89.5t-21 -93.5t-6.5 -88q0 -42 10.5 -82.5t34.5 -72t63 -51t95 -19.5q54 0 97 20t76 53.5t56 76.5t37.5 89t21.5 91.5t7 83.5zM388 925h286l-15 -73h-286z" />
    <glyph glyph-name="omacron" unicode="&#x14d;" horiz-adv-x="555" 
d="M245 -13q-54 0 -92 16.5t-63 44.5t-36.5 66t-11.5 82q0 58 16 119.5t49 111t83.5 81.5t119.5 32q54 0 92.5 -16.5t63 -44.5t36 -66t11.5 -81q0 -59 -16 -120t-49 -111t-83.5 -82t-119.5 -32zM425 338q0 25 -5 49t-18 43t-36 31t-58 12q-50 0 -84 -28.5t-55 -71t-30 -92
t-9 -91.5q0 -25 5 -49.5t18.5 -43.5t36.5 -30.5t58 -11.5q36 0 63 14.5t46.5 38t32.5 53.5t21 61.5t11 61.5t3 54zM222 719h286l-14 -73h-286z" />
    <glyph glyph-name="Obreve" unicode="&#x14e;" horiz-adv-x="802" 
d="M81 287q0 105 30 194.5t83 155t125.5 102.5t158.5 37q70 0 124 -23t90.5 -64t55.5 -97.5t19 -122.5q0 -86 -25 -172.5t-74.5 -156t-122.5 -113t-170 -43.5q-71 0 -125.5 23.5t-92 64.5t-57 96t-19.5 119zM673 473q0 43 -10.5 84t-34 73.5t-61.5 52t-94 19.5t-99.5 -19.5
t-76.5 -52t-56.5 -75.5t-38 -89.5t-21 -93.5t-6.5 -88q0 -42 10.5 -82.5t34.5 -72t63 -51t95 -19.5q54 0 97 20t76 53.5t56 76.5t37.5 89t21.5 91.5t7 83.5zM462 970q-2 -37 15 -55.5t49 -18.5t58 18t39 56h68q-20 -75 -66 -107.5t-105 -32.5q-29 0 -53 8t-41.5 25
t-25.5 43.5t-3 63.5h65z" />
    <glyph glyph-name="obreve" unicode="&#x14f;" horiz-adv-x="555" 
d="M245 -13q-54 0 -92 16.5t-63 44.5t-36.5 66t-11.5 82q0 58 16 119.5t49 111t83.5 81.5t119.5 32q54 0 92.5 -16.5t63 -44.5t36 -66t11.5 -81q0 -59 -16 -120t-49 -111t-83.5 -82t-119.5 -32zM425 338q0 25 -5 49t-18 43t-36 31t-58 12q-50 0 -84 -28.5t-55 -71t-30 -92
t-9 -91.5q0 -25 5 -49.5t18.5 -43.5t36.5 -30.5t58 -11.5q36 0 63 14.5t46.5 38t32.5 53.5t21 61.5t11 61.5t3 54zM360 629q-32 0 -58.5 9t-43.5 28.5t-23.5 49.5t1.5 72h65q-9 -46 9 -69.5t54 -23.5q38 0 64 23t36 70h67q-8 -42 -25 -72t-39.5 -49.5t-49.5 -28.5t-57 -9z
" />
    <glyph glyph-name="Ohungarumlaut" unicode="&#x150;" horiz-adv-x="802" 
d="M81 287q0 105 30 194.5t83 155t125.5 102.5t158.5 37q70 0 124 -23t90.5 -64t55.5 -97.5t19 -122.5q0 -86 -25 -172.5t-74.5 -156t-122.5 -113t-170 -43.5q-71 0 -125.5 23.5t-92 64.5t-57 96t-19.5 119zM673 473q0 43 -10.5 84t-34 73.5t-61.5 52t-94 19.5t-99.5 -19.5
t-76.5 -52t-56.5 -75.5t-38 -89.5t-21 -93.5t-6.5 -88q0 -42 10.5 -82.5t34.5 -72t63 -51t95 -19.5q54 0 97 20t76 53.5t56 76.5t37.5 89t21.5 91.5t7 83.5zM603 970h89l-90 -133h-56zM466 970h89l-91 -133h-55z" />
    <glyph glyph-name="ohungarumlaut" unicode="&#x151;" horiz-adv-x="555" 
d="M245 -13q-54 0 -92 16.5t-63 44.5t-36.5 66t-11.5 82q0 58 16 119.5t49 111t83.5 81.5t119.5 32q54 0 92.5 -16.5t63 -44.5t36 -66t11.5 -81q0 -59 -16 -120t-49 -111t-83.5 -82t-119.5 -32zM425 338q0 25 -5 49t-18 43t-36 31t-58 12q-50 0 -84 -28.5t-55 -71t-30 -92
t-9 -91.5q0 -25 5 -49.5t18.5 -43.5t36.5 -30.5t58 -11.5q36 0 63 14.5t46.5 38t32.5 53.5t21 61.5t11 61.5t3 54zM451 788h89l-117 -162h-56zM314 788h89l-117 -162h-56z" />
    <glyph glyph-name="Racute" unicode="&#x154;" horiz-adv-x="678" 
d="M400 401q78 0 120 44t42 125q0 58 -33 88.5t-99 30.5h-155l-56 -288h181zM142 0h-90l147 765h241q98 0 155 -46q61 -50 61 -148q0 -83 -45 -146.5t-139 -86.5v-3l122 -335h-96l-115 325h-177zM476 960h101l-117 -133h-67z" />
    <glyph glyph-name="racute" unicode="&#x155;" horiz-adv-x="384" 
d="M143 527h85l-20 -99h3q10 20 27 39.5t39 35t49.5 25t60.5 9.5h5l-17 -94h-9q-75 0 -120.5 -40.5t-60.5 -115.5l-55 -287h-89zM330 788h101l-117 -162h-65z" />
    <glyph glyph-name="Rcommaaccent" unicode="&#x156;" horiz-adv-x="678" 
d="M400 401q78 0 120 44t42 125q0 58 -33 88.5t-99 30.5h-155l-56 -288h181zM142 0h-90l147 765h241q98 0 155 -46q61 -50 61 -148q0 -83 -45 -146.5t-139 -86.5v-3l122 -335h-96l-115 325h-177zM266 -69h95l-88 -137h-56z" />
    <glyph glyph-name="rcommaaccent" unicode="&#x157;" horiz-adv-x="384" 
d="M143 527h85l-20 -99h3q10 20 27 39.5t39 35t49.5 25t60.5 9.5h5l-17 -94h-9q-75 0 -120.5 -40.5t-60.5 -115.5l-55 -287h-89zM27 -69h95l-88 -137h-56z" />
    <glyph glyph-name="Rcaron" unicode="&#x158;" horiz-adv-x="678" 
d="M400 401q78 0 120 44t42 125q0 58 -33 88.5t-99 30.5h-155l-56 -288h181zM142 0h-90l147 765h241q98 0 155 -46q61 -50 61 -148q0 -83 -45 -146.5t-139 -86.5v-3l122 -335h-96l-115 325h-177zM293 960h80l52 -76h1l79 76h86l-125 -133h-92z" />
    <glyph glyph-name="rcaron" unicode="&#x159;" horiz-adv-x="384" 
d="M143 527h85l-20 -99h3q10 20 27 39.5t39 35t49.5 25t60.5 9.5h5l-17 -94h-9q-75 0 -120.5 -40.5t-60.5 -115.5l-55 -287h-89zM175 788h78l43 -102l79 102h82l-123 -162h-93z" />
    <glyph glyph-name="Sacute" unicode="&#x15a;" horiz-adv-x="666" 
d="M145 225q-2 -87 44 -125t129 -38q34 0 67 9t58.5 28t41.5 47.5t16 67.5q0 45 -26 72t-84 49l-90 33q-83 29 -120.5 75.5t-37.5 108.5q0 53 20.5 94.5t56 70.5t83 44t102.5 15q54 0 98 -14t74.5 -41.5t45.5 -70t12 -100.5h-91q4 66 -31.5 109t-112.5 43q-32 0 -62 -8.5
t-52.5 -25.5t-36 -43t-13.5 -60q0 -42 26 -69t78 -46l86 -31q45 -16 77 -34.5t52.5 -42t29.5 -53t9 -67.5q0 -54 -21 -98t-58 -75t-88.5 -47.5t-111.5 -16.5q-56 0 -105 13t-85.5 41.5t-56.5 74.5t-17 111h94zM474 960h101l-117 -133h-67z" />
    <glyph glyph-name="sacute" unicode="&#x15b;" horiz-adv-x="493" 
d="M366 388q2 42 -25.5 63.5t-72.5 21.5q-18 0 -36.5 -4.5t-34 -15t-25.5 -26.5t-10 -38q0 -29 15 -46t48 -26l61 -16q42 -11 69.5 -25t44 -32t23 -39.5t6.5 -47.5q0 -41 -15 -72.5t-42.5 -53t-66 -33t-84.5 -11.5q-38 0 -74.5 9.5t-64.5 30t-44.5 53t-13.5 79.5h85
q-4 -49 27.5 -77t88.5 -28q22 0 43.5 5t38 16.5t26.5 28.5t10 41q0 26 -17 45.5t-66 32.5l-61 16q-63 17 -93.5 50.5t-30.5 88.5q0 40 16 70.5t43 50.5t62.5 30.5t74.5 10.5q37 0 70.5 -8.5t59 -27t39.5 -47.5t11 -69h-85zM349 788h101l-117 -162h-65z" />
    <glyph glyph-name="Scircumflex" unicode="&#x15c;" horiz-adv-x="666" 
d="M145 225q-2 -87 44 -125t129 -38q34 0 67 9t58.5 28t41.5 47.5t16 67.5q0 45 -26 72t-84 49l-90 33q-83 29 -120.5 75.5t-37.5 108.5q0 53 20.5 94.5t56 70.5t83 44t102.5 15q54 0 98 -14t74.5 -41.5t45.5 -70t12 -100.5h-91q4 66 -31.5 109t-112.5 43q-32 0 -62 -8.5
t-52.5 -25.5t-36 -43t-13.5 -60q0 -42 26 -69t78 -46l86 -31q45 -16 77 -34.5t52.5 -42t29.5 -53t9 -67.5q0 -54 -21 -98t-58 -75t-88.5 -47.5t-111.5 -16.5q-56 0 -105 13t-85.5 41.5t-56.5 74.5t-17 111h94zM561 827h-75l-50 76h-1l-77 -76h-79l113 133h92z" />
    <glyph glyph-name="scircumflex" unicode="&#x15d;" horiz-adv-x="493" 
d="M366 388q2 42 -25.5 63.5t-72.5 21.5q-18 0 -36.5 -4.5t-34 -15t-25.5 -26.5t-10 -38q0 -29 15 -46t48 -26l61 -16q42 -11 69.5 -25t44 -32t23 -39.5t6.5 -47.5q0 -41 -15 -72.5t-42.5 -53t-66 -33t-84.5 -11.5q-38 0 -74.5 9.5t-64.5 30t-44.5 53t-13.5 79.5h85
q-4 -49 27.5 -77t88.5 -28q22 0 43.5 5t38 16.5t26.5 28.5t10 41q0 26 -17 45.5t-66 32.5l-61 16q-63 17 -93.5 50.5t-30.5 88.5q0 40 16 70.5t43 50.5t62.5 30.5t74.5 10.5q37 0 70.5 -8.5t59 -27t39.5 -47.5t11 -69h-85zM445 626h-78l-43 102l-79 -102h-82l123 162h93z
" />
    <glyph glyph-name="Scedilla" unicode="&#x15e;" horiz-adv-x="666" 
d="M258 -212q-32 0 -56 15.5t-24 50.5h56q4 -22 28 -22q37 0 37 38q0 14 -7 23.5t-20 9.5q-11 0 -17.5 -3t-11.5 -8h-58l61 98q-44 7 -81 24t-63 45.5t-40 69.5t-11 96h94q-2 -87 44 -125t129 -38q34 0 67 9t58.5 28t41.5 47.5t16 67.5q0 45 -26 72t-84 49l-90 33
q-83 29 -120.5 75.5t-37.5 108.5q0 53 20.5 94.5t56 70.5t83 44t102.5 15q54 0 98 -14t74.5 -41.5t45.5 -70t12 -100.5h-91q4 66 -31.5 109t-112.5 43q-32 0 -62 -8.5t-52.5 -25.5t-36 -43t-13.5 -60q0 -42 26 -69t78 -46l86 -31q45 -16 77 -34.5t52.5 -42t29.5 -53t9 -67.5
q0 -54 -21 -98t-58 -75t-88.5 -47.5t-111.5 -16.5h-12t-12 1l-30 -49h2q7 4 14.5 5t19.5 1q27 0 43.5 -19t16.5 -48q0 -38 -26.5 -63t-72.5 -25z" />
    <glyph glyph-name="scedilla" unicode="&#x15f;" horiz-adv-x="493" 
d="M179 -212q-32 0 -56 15.5t-24 50.5h56q4 -22 28 -22q37 0 37 38q0 14 -7 23.5t-20 9.5q-11 0 -17.5 -3t-11.5 -8h-58l61 100q-30 5 -57 17.5t-47 32.5t-30.5 49t-8.5 68h85q-4 -49 27.5 -77t88.5 -28q22 0 43.5 5t38 16.5t26.5 28.5t10 41q0 26 -17 45.5t-66 32.5l-61 16
q-63 17 -93.5 50.5t-30.5 88.5q0 40 16 70.5t43 50.5t62.5 30.5t74.5 10.5q37 0 70.5 -8.5t59 -27t39.5 -47.5t11 -69h-85q2 42 -25.5 63.5t-72.5 21.5q-18 0 -36.5 -4.5t-34 -15t-25.5 -26.5t-10 -38q0 -29 15 -46t48 -26l61 -16q42 -11 69.5 -25t44 -32t23 -39.5
t6.5 -47.5q0 -41 -15 -72.5t-42.5 -53t-66 -33t-84.5 -11.5h-8l-31 -50h2q7 4 14.5 5t19.5 1q27 0 43.5 -19t16.5 -48q0 -38 -26.5 -63t-72.5 -25z" />
    <glyph glyph-name="Tcommaaccent" unicode="&#x162;" horiz-adv-x="624" 
d="M308 0h-92l133 685h-253l16 80h595l-16 -80h-250zM205 -69h95l-88 -137h-56z" />
    <glyph glyph-name="tcommaaccent" unicode="&#x163;" horiz-adv-x="356" 
d="M282 680l-30 -153h125l-14 -69h-125l-59 -302q-10 -52 3 -71t57 -19q8 0 16.5 0.5t16.5 1.5q9 1 17 3l-15 -73q-10 -2 -20 -3q-8 -2 -18.5 -2.5t-19.5 -0.5q-35 0 -62 8.5t-44 26.5t-22.5 46.5t2.5 69.5l61 315h-90l13 66h11q26 0 43.5 4t29.5 17t20 36t16 61l8 38h80z
M107 -69h95l-88 -137h-56z" />
    <glyph glyph-name="Tcaron" unicode="&#x164;" horiz-adv-x="624" 
d="M308 0h-92l133 685h-253l16 80h595l-16 -80h-250zM300 960h80l52 -76h1l79 76h86l-125 -133h-92z" />
    <glyph glyph-name="tcaron" unicode="&#x165;" horiz-adv-x="356" 
d="M282 680l-30 -153h125l-14 -69h-125l-59 -302q-10 -52 3 -71t57 -19q8 0 16.5 0.5t16.5 1.5q9 1 17 3l-15 -73q-10 -2 -20 -3q-8 -2 -18.5 -2.5t-19.5 -0.5q-35 0 -62 8.5t-44 26.5t-22.5 46.5t2.5 69.5l61 315h-90l13 66h11q26 0 43.5 4t29.5 17t20 36t16 61l8 38h80z
M398 788h84l-77 -162h-55z" />
    <glyph glyph-name="Tbar" unicode="&#x166;" horiz-adv-x="624" 
d="M308 0h-92l83 426h-192l13 67h192l37 192h-253l16 80h595l-16 -80h-250l-37 -192h195l-13 -67h-195z" />
    <glyph glyph-name="tbar" unicode="&#x167;" horiz-adv-x="356" 
d="M274 -2q-10 -2 -20 -3q-8 -2 -18.5 -2.5t-19.5 -0.5q-35 0 -62 8.5t-44 26.5t-22.5 46.5t2.5 69.5l21 108h-94l13 69h94l27 138h-90l13 66h11q26 0 43.5 4t29.5 17t20 36t16 61l8 38h80l-30 -153h125l-14 -69h-125l-27 -138h127l-13 -69h-127l-19 -95q-10 -52 3 -71
t57 -19q8 0 16.5 0.5t16.5 1.5q9 1 17 3z" />
    <glyph glyph-name="Utilde" unicode="&#x168;" horiz-adv-x="744" 
d="M188 765h91l-83 -430q-6 -30 -10.5 -60t-5.5 -57.5t2.5 -51t14.5 -41.5q20 -34 58 -49t89 -15q52 0 92.5 14t72.5 47q17 18 27 38t16.5 42.5t10.5 48t10 53.5l89 461h91l-101 -523q-26 -133 -103 -195t-208 -62q-64 0 -116.5 15.5t-86.5 51t-46 94.5t5 146zM297 827
q5 26 15 50.5t26 43t38 30t52 11.5q24 0 42 -9.5t32 -21t26 -21t25 -9.5q22 0 34 15.5t22 47.5h68q-5 -26 -15 -50.5t-25.5 -43.5t-37.5 -30t-52 -11q-24 0 -41.5 9.5t-32 20.5t-27 20.5t-26.5 9.5q-37 0 -56 -62h-67z" />
    <glyph glyph-name="utilde" unicode="&#x169;" horiz-adv-x="592" 
d="M166 216q-4 -19 -6.5 -37t-2.5 -34q-1 -37 16 -60.5t65 -23.5q69 0 111.5 51.5t59.5 142.5l53 272h89l-103 -527h-84l18 90h-2q-26 -44 -67.5 -73.5t-98.5 -29.5q-86 0 -123 55t-16 162l62 323h89zM194 624q3 28 11 53t22 43t35 28.5t52 10.5q21 0 39.5 -9.5t34.5 -21
t30 -21t28 -9.5q38 0 45 63h64q-3 -29 -11 -53.5t-22 -42.5t-35 -28.5t-52 -10.5q-21 0 -39.5 9.5t-34.5 21t-30.5 21t-27.5 9.5q-38 0 -45 -63h-64z" />
    <glyph glyph-name="Umacron" unicode="&#x16a;" horiz-adv-x="744" 
d="M188 765h91l-83 -430q-6 -30 -10.5 -60t-5.5 -57.5t2.5 -51t14.5 -41.5q20 -34 58 -49t89 -15q52 0 92.5 14t72.5 47q17 18 27 38t16.5 42.5t10.5 48t10 53.5l89 461h91l-101 -523q-26 -133 -103 -195t-208 -62q-64 0 -116.5 15.5t-86.5 51t-46 94.5t5 146zM349 925h286
l-15 -73h-286z" />
    <glyph glyph-name="umacron" unicode="&#x16b;" horiz-adv-x="592" 
d="M166 216q-4 -19 -6.5 -37t-2.5 -34q-1 -37 16 -60.5t65 -23.5q69 0 111.5 51.5t59.5 142.5l53 272h89l-103 -527h-84l18 90h-2q-26 -44 -67.5 -73.5t-98.5 -29.5q-86 0 -123 55t-16 162l62 323h89zM237 719h286l-14 -73h-286z" />
    <glyph glyph-name="Ubreve" unicode="&#x16c;" horiz-adv-x="744" 
d="M188 765h91l-83 -430q-6 -30 -10.5 -60t-5.5 -57.5t2.5 -51t14.5 -41.5q20 -34 58 -49t89 -15q52 0 92.5 14t72.5 47q17 18 27 38t16.5 42.5t10.5 48t10 53.5l89 461h91l-101 -523q-26 -133 -103 -195t-208 -62q-64 0 -116.5 15.5t-86.5 51t-46 94.5t5 146zM423 970
q-2 -37 15 -55.5t49 -18.5t58 18t39 56h68q-20 -75 -66 -107.5t-105 -32.5q-29 0 -53 8t-41.5 25t-25.5 43.5t-3 63.5h65z" />
    <glyph glyph-name="ubreve" unicode="&#x16d;" horiz-adv-x="592" 
d="M166 216q-4 -19 -6.5 -37t-2.5 -34q-1 -37 16 -60.5t65 -23.5q69 0 111.5 51.5t59.5 142.5l53 272h89l-103 -527h-84l18 90h-2q-26 -44 -67.5 -73.5t-98.5 -29.5q-86 0 -123 55t-16 162l62 323h89zM375 629q-32 0 -58.5 9t-43.5 28.5t-23.5 49.5t1.5 72h65
q-9 -46 9 -69.5t54 -23.5q38 0 64 23t36 70h67q-8 -42 -25 -72t-39.5 -49.5t-49.5 -28.5t-57 -9z" />
    <glyph glyph-name="Uring" unicode="&#x16e;" horiz-adv-x="744" 
d="M188 765h91l-83 -430q-6 -30 -10.5 -60t-5.5 -57.5t2.5 -51t14.5 -41.5q20 -34 58 -49t89 -15q52 0 92.5 14t72.5 47q17 18 27 38t16.5 42.5t10.5 48t10 53.5l89 461h91l-101 -523q-26 -133 -103 -195t-208 -62q-64 0 -116.5 15.5t-86.5 51t-46 94.5t5 146zM482 808
q-49 2 -75.5 29t-26.5 71q0 51 31 82.5t82 31.5q52 0 79 -28t27 -72q0 -54 -32 -84t-85 -30zM494 976q-26 0 -41 -18t-15 -49q0 -23 12.5 -39t35.5 -16q26 0 41 18t15 49q0 24 -12.5 39t-35.5 16z" />
    <glyph glyph-name="uring" unicode="&#x16f;" horiz-adv-x="592" 
d="M166 216q-4 -19 -6.5 -37t-2.5 -34q-1 -37 16 -60.5t65 -23.5q69 0 111.5 51.5t59.5 142.5l53 272h89l-103 -527h-84l18 90h-2q-26 -44 -67.5 -73.5t-98.5 -29.5q-86 0 -123 55t-16 162l62 323h89zM375 624q-49 2 -75.5 29t-26.5 71q0 51 31 82.5t82 31.5q52 0 79 -28
t27 -72q0 -54 -32 -84t-85 -30zM387 792q-26 0 -41 -18t-15 -49q0 -23 12.5 -39t35.5 -16q26 0 41 18t15 49q0 24 -12.5 39t-35.5 16z" />
    <glyph glyph-name="Uhungarumlaut" unicode="&#x170;" horiz-adv-x="744" 
d="M188 765h91l-83 -430q-6 -30 -10.5 -60t-5.5 -57.5t2.5 -51t14.5 -41.5q20 -34 58 -49t89 -15q52 0 92.5 14t72.5 47q17 18 27 38t16.5 42.5t10.5 48t10 53.5l89 461h91l-101 -523q-26 -133 -103 -195t-208 -62q-64 0 -116.5 15.5t-86.5 51t-46 94.5t5 146zM564 970h89
l-90 -133h-56zM427 970h89l-91 -133h-55z" />
    <glyph glyph-name="uhungarumlaut" unicode="&#x171;" horiz-adv-x="592" 
d="M166 216q-4 -19 -6.5 -37t-2.5 -34q-1 -37 16 -60.5t65 -23.5q69 0 111.5 51.5t59.5 142.5l53 272h89l-103 -527h-84l18 90h-2q-26 -44 -67.5 -73.5t-98.5 -29.5q-86 0 -123 55t-16 162l62 323h89zM466 788h89l-117 -162h-56zM329 788h89l-117 -162h-56z" />
    <glyph glyph-name="Uogonek" unicode="&#x172;" horiz-adv-x="744" 
d="M296 -13q-45 4 -88.5 20t-73.5 50.5t-42 91.5t5 143l91 473h91l-83 -430q-6 -30 -10.5 -60t-5.5 -57.5t2.5 -51t14.5 -41.5q20 -34 58 -49t89 -15q52 0 92.5 14t72.5 47q17 18 27 38t16.5 42.5t10.5 48t10 53.5l89 461h91l-101 -523q-14 -71 -38.5 -116t-57.5 -72.5
t-72.5 -42t-84.5 -23.5q-42 -8 -62.5 -29.5t-20.5 -46.5q0 -21 15.5 -29.5t41.5 -8.5l-12 -62h-18q-52 0 -83 18.5t-31 56.5q0 30 18.5 55t48.5 43v2z" />
    <glyph glyph-name="uogonek" unicode="&#x173;" horiz-adv-x="592" 
d="M382 90h-2q-26 -44 -67.5 -73.5t-98.5 -29.5q-86 0 -123 55t-16 162l62 323h89l-60 -311q-4 -19 -6.5 -37t-2.5 -34q-1 -37 16 -60.5t65 -23.5q69 0 111.5 51.5t59.5 142.5l53 272h89l-103 -527q-32 -19 -57.5 -41.5t-25.5 -50.5q0 -18 15.5 -26t41.5 -8l-12 -62h-18
q-52 0 -83 18.5t-31 56.5q0 37 26 65.5t69 47.5h-9z" />
    <glyph glyph-name="Wcircumflex" unicode="&#x174;" horiz-adv-x="1038" 
d="M184 0l-56 765h89l32 -529q3 -68 3 -103q0 -20 -1 -35h2q5 15 12 34q6 17 15 39t23 51l254 543h104l35 -529q2 -34 2.5 -60t0.5 -43q0 -20 -1 -35h2l12 33q6 16 15 39t23 52l251 543h92l-363 -765h-100l-37 527q-2 34 -3 59.5t-1 43.5q0 20 1 36h-2q-5 -15 -12 -34
q-6 -17 -15.5 -39.5t-23.5 -51.5l-254 -541h-99zM761 827h-75l-50 76h-1l-77 -76h-79l113 133h92z" />
    <glyph glyph-name="wcircumflex" unicode="&#x175;" horiz-adv-x="784" 
d="M74 527h89l21 -345q1 -11 1 -25t1 -25q0 -14 1 -27h2q7 13 13 27q5 12 11.5 25.5t12.5 25.5l171 344h90l37 -345q1 -11 2 -25t2 -26l2 -28h2l12 28q5 12 11 26t11 26l158 344h87l-252 -527h-93l-37 353q-2 12 -2.5 25t-1.5 24q-1 12 -2 25h-1q-6 -13 -11 -25
q-5 -11 -11 -24l-12 -26l-172 -352h-93zM594 626h-78l-43 102l-79 -102h-82l123 162h93z" />
    <glyph glyph-name="Ycircumflex" unicode="&#x176;" horiz-adv-x="640" 
d="M286 334l-177 431h102l134 -352h2l280 352h100l-352 -438l-63 -327h-91zM562 827h-75l-50 76h-1l-77 -76h-79l113 133h92z" />
    <glyph glyph-name="ycircumflex" unicode="&#x177;" horiz-adv-x="510" 
d="M84 527h88l48 -330q2 -17 4 -32t4 -26q2 -13 2 -24h3q6 11 12 24q5 11 12.5 25.5t15.5 31.5l166 331h90l-300 -571q-23 -44 -43 -73.5t-43 -47.5t-50.5 -26t-65.5 -8q-21 0 -38 3.5t-25 5.5l15 73q11 -3 21 -5t23 -2q44 1 71.5 21.5t54.5 74.5l17 32zM473 626h-78
l-43 102l-79 -102h-82l123 162h93z" />
    <glyph glyph-name="Zacute" unicode="&#x179;" horiz-adv-x="637" 
d="M160 765h521l-14 -70l-537 -614h426l-15 -81h-545l13 70l537 614h-402zM468 960h101l-117 -133h-67z" />
    <glyph glyph-name="zacute" unicode="&#x17a;" horiz-adv-x="511" 
d="M120 527h386l-15 -81l-369 -371h302l-14 -75h-406l15 81l367 372h-281zM370 788h101l-117 -162h-65z" />
    <glyph glyph-name="Zdotaccent" unicode="&#x17b;" horiz-adv-x="637" 
d="M160 765h521l-14 -70l-537 -614h426l-15 -81h-545l13 70l537 614h-402zM399 936h93l-19 -99h-93z" />
    <glyph glyph-name="zdotaccent" unicode="&#x17c;" horiz-adv-x="511" 
d="M120 527h386l-15 -81l-369 -371h302l-14 -75h-406l15 81l367 372h-281zM302 745h93l-19 -99h-93z" />
    <glyph glyph-name="Aringacute" unicode="&#x1fa;" horiz-adv-x="722" 
d="M434 675q-2 -3 -15.5 -33t-38.5 -78l-135 -262h248l-42 262q-9 49 -12 80q-2 17 -3 31h-2zM505 229h-297l-118 -229h-94l401 765h106l132 -765h-93zM467 801q-49 2 -75.5 29t-26.5 71q0 51 31 82.5t82 31.5q52 0 79 -28t27 -72q0 -54 -32 -84t-85 -30zM479 969
q-26 0 -41 -18t-15 -49q0 -23 12.5 -39t35.5 -16q26 0 41 18t15 49q0 24 -12.5 39t-35.5 16zM545 1174h101l-117 -133h-67z" />
    <glyph glyph-name="aringacute" unicode="&#x1fb;" horiz-adv-x="540" 
d="M201 64q23 0 48.5 10.5t48 32t40 53.5t26.5 75l3 15q-42 0 -81.5 -1t-75.5 -8q-43 -8 -70.5 -32t-27.5 -63q0 -38 22.5 -60t66.5 -22zM90 383q4 37 21 66t44 49t63 30.5t80 10.5q52 0 89 -15.5t58.5 -43t27.5 -66.5t-4 -86l-38 -196q-7 -35 3 -50t35 -13l-13 -73h-9
q-52 0 -75 24t-22 64h-3q-12 -19 -27.5 -35.5t-35.5 -29t-45 -20t-57 -7.5q-33 0 -62 9t-51 28t-35 47t-13 66q0 37 12.5 64.5t36 47.5t56 32.5t72.5 19.5q41 8 88.5 8.5t93.5 0.5l4 24q11 62 -12.5 96.5t-81.5 34.5q-44 0 -74.5 -20t-35.5 -67h-90zM334 591q-49 2 -75.5 29
t-26.5 71q0 51 31 82.5t82 31.5q52 0 79 -28t27 -72q0 -54 -32 -84t-85 -30zM346 759q-26 0 -41 -18t-15 -49q0 -23 12.5 -39t35.5 -16q26 0 41 18t15 49q0 24 -12.5 39t-35.5 16zM415 974h101l-117 -133h-67z" />
    <glyph glyph-name="AEacute" unicode="&#x1fc;" horiz-adv-x="1002" 
d="M527 683h-81q-15 -31 -31.5 -63.5t-30.5 -55.5l-155 -262h224zM439 229h-253l-135 -229h-94l446 765h612l-16 -82h-381l-50 -257h353l-16 -80h-352l-51 -264h390l-16 -82h-481zM664 960h101l-117 -133h-67z" />
    <glyph glyph-name="aeacute" unicode="&#x1fd;" horiz-adv-x="865" 
d="M737 315q5 31 3 59.5t-13 50.5t-33 35t-58 13q-33 0 -59 -13.5t-46.5 -36.5t-35 -52.5t-23.5 -61.5h264zM201 63q24 0 49.5 9.5t47.5 30.5t40 53.5t27 78.5l3 15q-42 0 -81.5 -1t-75.5 -8q-43 -8 -70.5 -30.5t-27.5 -64.5q0 -38 21.5 -60.5t66.5 -22.5zM786 138
q-20 -72 -76.5 -111.5t-141.5 -39.5q-72 0 -117.5 32t-65.5 84h-3q-19 -24 -39 -44t-44.5 -34.5t-54.5 -23t-68 -8.5q-31 0 -59 9t-49 27t-33.5 45.5t-12.5 64.5q0 39 12.5 67t36 48t56 32.5t72.5 19.5q41 8 88.5 8.5t93.5 0.5l4 24q11 62 -12.5 96.5t-82.5 34.5
q-44 0 -74.5 -20t-35.5 -67h-90q4 37 21 66t44 49t63 30.5t80 10.5q63 0 102 -27.5t56 -69.5h1q33 44 81.5 71t105.5 27q60 0 98.5 -23t58.5 -60t23 -84t-6 -96l-8 -38h-352q-1 -11 -1.5 -21.5t-0.5 -21.5q0 -27 6 -52.5t20 -45.5t37.5 -32t58.5 -12q31 0 52.5 8t35.5 20
t21.5 27t12.5 29h86zM538 788h101l-117 -162h-65z" />
    <glyph glyph-name="Oslashacute" unicode="&#x1fe;" horiz-adv-x="802" 
d="M473 702q-56 0 -99.5 -19.5t-76.5 -52t-56.5 -75.5t-38 -89.5t-21 -93.5t-6.5 -88q0 -26 2.5 -49.5t8.5 -44.5l436 458q-23 25 -59 39.5t-90 14.5zM378 59q54 0 97 20t76 53.5t56 76.5t37.5 89t21.5 91.5t7 83.5q0 30 -3.5 59t-12.5 55l-440 -462q23 -31 62 -48.5
t99 -17.5zM767 469q0 -86 -25 -172.5t-74.5 -156t-122.5 -113t-170 -43.5q-69 0 -122 22t-91 61l-89 -93h-92l140 148q-40 72 -40 165q0 105 30 194.5t83 155t125.5 102.5t158.5 37q63 0 112.5 -18.5t85.5 -52.5l79 83h93l-129 -135q48 -75 48 -184zM545 960h101l-117 -133
h-67z" />
    <glyph glyph-name="oslashacute" unicode="&#x1ff;" horiz-adv-x="555" 
d="M308 473q-50 0 -84 -28.5t-55 -71t-30 -92t-9 -91.5q0 -24 3 -43l271 284q-14 20 -37 31t-59 11zM248 55q36 0 63 14.5t46.5 38t32.5 53.5t21 61.5t11 61.5t3 54q0 9 -0.5 18t-1.5 17l-270 -283q14 -17 36.5 -26t58.5 -9zM513 332q0 -59 -16 -120t-49 -111t-83.5 -82
t-119.5 -32q-48 0 -83.5 13t-60.5 36l-60 -63h-74l101 106q-14 26 -20 55.5t-6 61.5q0 58 16 119.5t49 111t83.5 81.5t119.5 32q51 0 87 -14t61 -38l59 62h75l-102 -107q12 -24 17.5 -52t5.5 -59zM391 788h101l-117 -162h-65z" />
    <glyph glyph-name="Scommaaccent" unicode="&#x218;" horiz-adv-x="666" 
d="M145 225q-2 -87 44 -125t129 -38q34 0 67 9t58.5 28t41.5 47.5t16 67.5q0 45 -26 72t-84 49l-90 33q-83 29 -120.5 75.5t-37.5 108.5q0 53 20.5 94.5t56 70.5t83 44t102.5 15q54 0 98 -14t74.5 -41.5t45.5 -70t12 -100.5h-91q4 66 -31.5 109t-112.5 43q-32 0 -62 -8.5
t-52.5 -25.5t-36 -43t-13.5 -60q0 -42 26 -69t78 -46l86 -31q45 -16 77 -34.5t52.5 -42t29.5 -53t9 -67.5q0 -54 -21 -98t-58 -75t-88.5 -47.5t-111.5 -16.5q-56 0 -105 13t-85.5 41.5t-56.5 74.5t-17 111h94zM253 -69h95l-88 -137h-56z" />
    <glyph glyph-name="scommaaccent" unicode="&#x219;" horiz-adv-x="493" 
d="M366 388q2 42 -25.5 63.5t-72.5 21.5q-18 0 -36.5 -4.5t-34 -15t-25.5 -26.5t-10 -38q0 -29 15 -46t48 -26l61 -16q42 -11 69.5 -25t44 -32t23 -39.5t6.5 -47.5q0 -41 -15 -72.5t-42.5 -53t-66 -33t-84.5 -11.5q-38 0 -74.5 9.5t-64.5 30t-44.5 53t-13.5 79.5h85
q-4 -49 27.5 -77t88.5 -28q22 0 43.5 5t38 16.5t26.5 28.5t10 41q0 26 -17 45.5t-66 32.5l-61 16q-63 17 -93.5 50.5t-30.5 88.5q0 40 16 70.5t43 50.5t62.5 30.5t74.5 10.5q37 0 70.5 -8.5t59 -27t39.5 -47.5t11 -69h-85zM150 -69h95l-88 -137h-56z" />
    <glyph glyph-name="uni021A" unicode="&#x21a;" horiz-adv-x="624" 
d="M308 0h-92l133 685h-253l16 80h595l-16 -80h-250zM205 -69h95l-88 -137h-56z" />
    <glyph glyph-name="uni021B" unicode="&#x21b;" horiz-adv-x="356" 
d="M282 680l-30 -153h125l-14 -69h-125l-59 -302q-10 -52 3 -71t57 -19q8 0 16.5 0.5t16.5 1.5q9 1 17 3l-15 -73q-10 -2 -20 -3q-8 -2 -18.5 -2.5t-19.5 -0.5q-35 0 -62 8.5t-44 26.5t-22.5 46.5t2.5 69.5l61 315h-90l13 66h11q26 0 43.5 4t29.5 17t20 36t16 61l8 38h80z
M107 -69h95l-88 -137h-56z" />
    <glyph glyph-name="uni0237" unicode="&#x237;" horiz-adv-x="273" 
d="M-95 -115q9 -3 20.5 -5t25.5 -2q32 0 51.5 15t27.5 53l113 581h89l-115 -591q-7 -37 -22 -62.5t-36 -41.5t-48 -23.5t-57 -7.5q-23 0 -38 3.5t-26 7.5z" />
    <glyph glyph-name="caron" unicode="&#x2c7;" horiz-adv-x="327" 
d="M116 788h78l43 -102l79 102h82l-123 -162h-93z" />
    <glyph glyph-name="breve" unicode="&#x2d8;" horiz-adv-x="365" 
d="M255 629q-32 0 -58.5 9t-43.5 28.5t-23.5 49.5t1.5 72h65q-9 -46 9 -69.5t54 -23.5q38 0 64 23t36 70h67q-8 -42 -25 -72t-39.5 -49.5t-49.5 -28.5t-57 -9z" />
    <glyph glyph-name="dotaccent" unicode="&#x2d9;" horiz-adv-x="183" 
d="M142 745h93l-19 -99h-93z" />
    <glyph glyph-name="ring" unicode="&#x2da;" horiz-adv-x="372" 
d="M263 624q-49 2 -75.5 29t-26.5 71q0 51 31 82.5t82 31.5q52 0 79 -28t27 -72q0 -54 -32 -84t-85 -30zM275 792q-26 0 -41 -18t-15 -49q0 -23 12.5 -39t35.5 -16q26 0 41 18t15 49q0 24 -12.5 39t-35.5 16z" />
    <glyph glyph-name="ogonek" unicode="&#x2db;" horiz-adv-x="377" 
d="M212 0q-32 -19 -57.5 -41.5t-25.5 -50.5q0 -18 15.5 -26t41.5 -8l-12 -62h-18q-52 0 -83 18.5t-31 56.5q0 40 30 70t72 44z" />
    <glyph glyph-name="hungarumlaut" unicode="&#x2dd;" horiz-adv-x="341" 
d="M315 788h89l-117 -162h-56zM178 788h89l-117 -162h-56z" />
    <glyph glyph-name="Wgrave" unicode="&#x1e80;" horiz-adv-x="1038" 
d="M184 0l-56 765h89l32 -529q3 -68 3 -103q0 -20 -1 -35h2q5 15 12 34q6 17 15 39t23 51l254 543h104l35 -529q2 -34 2.5 -60t0.5 -43q0 -20 -1 -35h2l12 33q6 16 15 39t23 52l251 543h92l-363 -765h-100l-37 527q-2 34 -3 59.5t-1 43.5q0 20 1 36h-2q-5 -15 -12 -34
q-6 -17 -15.5 -39.5t-23.5 -51.5l-254 -541h-99zM659 827h-66l-70 133h91z" />
    <glyph glyph-name="wgrave" unicode="&#x1e81;" horiz-adv-x="784" 
d="M74 527h89l21 -345q1 -11 1 -25t1 -25q0 -14 1 -27h2q7 13 13 27q5 12 11.5 25.5t12.5 25.5l171 344h90l37 -345q1 -11 2 -25t2 -26l2 -28h2l12 28q5 12 11 26t11 26l158 344h87l-252 -527h-93l-37 353q-2 12 -2.5 25t-1.5 24q-1 12 -2 25h-1q-6 -13 -11 -25
q-5 -11 -11 -24l-12 -26l-172 -352h-93zM489 626h-65l-102 162h97z" />
    <glyph glyph-name="Wacute" unicode="&#x1e82;" horiz-adv-x="1038" 
d="M184 0l-56 765h89l32 -529q3 -68 3 -103q0 -20 -1 -35h2q5 15 12 34q6 17 15 39t23 51l254 543h104l35 -529q2 -34 2.5 -60t0.5 -43q0 -20 -1 -35h2l12 33q6 16 15 39t23 52l251 543h92l-363 -765h-100l-37 527q-2 34 -3 59.5t-1 43.5q0 20 1 36h-2q-5 -15 -12 -34
q-6 -17 -15.5 -39.5t-23.5 -51.5l-254 -541h-99zM664 960h101l-117 -133h-67z" />
    <glyph glyph-name="wacute" unicode="&#x1e83;" horiz-adv-x="784" 
d="M74 527h89l21 -345q1 -11 1 -25t1 -25q0 -14 1 -27h2q7 13 13 27q5 12 11.5 25.5t12.5 25.5l171 344h90l37 -345q1 -11 2 -25t2 -26l2 -28h2l12 28q5 12 11 26t11 26l158 344h87l-252 -527h-93l-37 353q-2 12 -2.5 25t-1.5 24q-1 12 -2 25h-1q-6 -13 -11 -25
q-5 -11 -11 -24l-12 -26l-172 -352h-93zM507 788h101l-117 -162h-65z" />
    <glyph glyph-name="Wdieresis" unicode="&#x1e84;" horiz-adv-x="1038" 
d="M184 0l-56 765h89l32 -529q3 -68 3 -103q0 -20 -1 -35h2q5 15 12 34q6 17 15 39t23 51l254 543h104l35 -529q2 -34 2.5 -60t0.5 -43q0 -20 -1 -35h2l12 33q6 16 15 39t23 52l251 543h92l-363 -765h-100l-37 527q-2 34 -3 59.5t-1 43.5q0 20 1 36h-2q-5 -15 -12 -34
q-6 -17 -15.5 -39.5t-23.5 -51.5l-254 -541h-99zM700 921h90l-19 -99h-90zM488 921h90l-19 -99h-90z" />
    <glyph glyph-name="wdieresis" unicode="&#x1e85;" horiz-adv-x="784" 
d="M74 527h89l21 -345q1 -11 1 -25t1 -25q0 -14 1 -27h2q7 13 13 27q5 12 11.5 25.5t12.5 25.5l171 344h90l37 -345q1 -11 2 -25t2 -26l2 -28h2l12 28q5 12 11 26t11 26l158 344h87l-252 -527h-93l-37 353q-2 12 -2.5 25t-1.5 24q-1 12 -2 25h-1q-6 -13 -11 -25
q-5 -11 -11 -24l-12 -26l-172 -352h-93zM536 745h90l-19 -99h-90zM344 745h90l-19 -99h-90z" />
    <glyph glyph-name="Ygrave" unicode="&#x1ef2;" horiz-adv-x="640" 
d="M286 334l-177 431h102l134 -352h2l280 352h100l-352 -438l-63 -327h-91zM467 827h-66l-70 133h91z" />
    <glyph glyph-name="ygrave" unicode="&#x1ef3;" horiz-adv-x="510" 
d="M84 527h88l48 -330q2 -17 4 -32t4 -26q2 -13 2 -24h3q6 11 12 24q5 11 12.5 25.5t15.5 31.5l166 331h90l-300 -571q-23 -44 -43 -73.5t-43 -47.5t-50.5 -26t-65.5 -8q-21 0 -38 3.5t-25 5.5l15 73q11 -3 21 -5t23 -2q44 1 71.5 21.5t54.5 74.5l17 32zM369 626h-65
l-102 162h97z" />
    <glyph glyph-name="uni2009" unicode="&#x2009;" horiz-adv-x="50" 
 />
    <glyph glyph-name="uni2032" unicode="&#x2032;" horiz-adv-x="209" 
d="M146 765h108l-97 -221h-62z" />
    <glyph glyph-name="uni2033" unicode="&#x2033;" horiz-adv-x="371" 
d="M308 765h108l-96 -221h-64zM146 765h108l-97 -221h-62z" />
    <glyph glyph-name="fraction" unicode="&#x2044;" horiz-adv-x="265" 
d="M457 781h82l-694 -821h-82z" />
    <glyph glyph-name="onethird" unicode="&#x2153;" horiz-adv-x="857" 
d="M186 635h-90l11 56h13q43 0 69 18q23 19 33 56h64l-90 -431h-73zM596 192l12 55h48q35 0 59 20t24 55q0 28 -19 43t-50 15q-32 0 -57.5 -17t-30.5 -57h-70q4 56 46.5 93.5t116.5 37.5q60 0 98.5 -27t38.5 -82q0 -43 -27.5 -71t-66.5 -39v-2q30 -8 49.5 -29.5t19.5 -59.5
q0 -32 -13.5 -57t-37 -42t-55 -26.5t-68.5 -9.5q-35 0 -63 9t-47.5 25.5t-28.5 41t-7 56.5h71q0 -35 20 -54.5t62 -19.5q44 0 68.5 22.5t24.5 55.5q0 28 -16 46t-53 18h-48zM681 781h82l-694 -821h-82z" />
    <glyph glyph-name="twothirds" unicode="&#x2154;" horiz-adv-x="950" 
d="M109 625q2 35 15.5 62t36 45.5t52 28t64.5 9.5q57 0 95 -26.5t38 -82.5q0 -27 -9.5 -49.5t-26.5 -43t-40 -40t-49 -39.5l-123 -93v-1h206l-12 -61h-317l9 48l184 146q23 18 41.5 33t32 29t21 29.5t7.5 35.5q0 26 -16.5 41.5t-47.5 15.5q-17 0 -32 -4t-27.5 -13.5
t-21 -26.5t-11.5 -43h-69zM689 192l12 55h48q35 0 59 20t24 55q0 28 -19 43t-50 15q-32 0 -57.5 -17t-30.5 -57h-70q4 56 46.5 93.5t116.5 37.5q60 0 98.5 -27t38.5 -82q0 -43 -27.5 -71t-66.5 -39v-2q30 -8 49.5 -29.5t19.5 -59.5q0 -32 -13.5 -57t-37 -42t-55 -26.5
t-68.5 -9.5q-35 0 -63 9t-47.5 25.5t-28.5 41t-7 56.5h71q0 -35 20 -54.5t62 -19.5q44 0 68.5 22.5t24.5 55.5q0 28 -16 46t-53 18h-48zM798 781h82l-694 -821h-82z" />
    <glyph glyph-name="oneeighth" unicode="&#x215b;" horiz-adv-x="865" 
d="M186 635h-90l11 56h13q43 0 69 18q23 19 33 56h64l-90 -431h-73zM682 437q60 0 99 -28t39 -82q0 -43 -25 -70.5t-63 -38.5v-2q26 -9 45.5 -30.5t19.5 -58.5q0 -31 -12.5 -56t-35.5 -42.5t-55 -27t-71 -9.5q-75 0 -112.5 30t-37.5 84q0 47 29 77t76 41v2q-23 10 -37.5 31
t-14.5 51q0 28 11.5 52t32.5 41t49.5 26.5t62.5 9.5zM680 382q-39 0 -59 -23t-20 -53t18 -45.5t47 -15.5q38 0 58.5 21.5t20.5 56.5q0 29 -19 44t-46 15zM629 46q46 0 69 23.5t23 58.5q0 33 -24.5 48.5t-57.5 15.5q-44 0 -67 -22.5t-23 -60.5q0 -32 23 -47.5t57 -15.5z
M691 781h82l-694 -821h-82z" />
    <glyph glyph-name="threeeighths" unicode="&#x215c;" horiz-adv-x="948" 
d="M204 525l12 55h48q35 0 59 20t24 55q0 28 -19 43t-50 15q-32 0 -57.5 -17t-30.5 -57h-70q4 56 46.5 93.5t116.5 37.5q60 0 98.5 -27t38.5 -82q0 -43 -27.5 -71t-66.5 -39v-2q30 -8 49.5 -29.5t19.5 -59.5q0 -32 -13.5 -57t-37 -42t-55 -26.5t-68.5 -9.5q-35 0 -63 9
t-47.5 25.5t-28.5 41t-7 56.5h71q0 -35 20 -54.5t62 -19.5q44 0 68.5 22.5t24.5 55.5q0 28 -16 46t-53 18h-48zM765 442q60 0 99 -28t39 -82q0 -43 -25 -70.5t-63 -38.5v-2q26 -9 45.5 -30.5t19.5 -58.5q0 -31 -12.5 -56t-35.5 -42.5t-55 -27t-71 -9.5q-75 0 -112.5 30
t-37.5 84q0 47 29 77t76 41v2q-23 10 -37.5 31t-14.5 51q0 28 11.5 52t32.5 41t49.5 26.5t62.5 9.5zM763 387q-39 0 -59 -23t-20 -53t18 -45.5t47 -15.5q38 0 58.5 21.5t20.5 56.5q0 29 -19 44t-46 15zM712 51q46 0 69 23.5t23 58.5q0 33 -24.5 48.5t-57.5 15.5
q-44 0 -67 -22.5t-23 -60.5q0 -32 23 -47.5t57 -15.5zM797 781h82l-694 -821h-82z" />
    <glyph glyph-name="fiveeighths" unicode="&#x215d;" horiz-adv-x="944" 
d="M324 492q0 31 -16 49.5t-54 19.5q-49 0 -80 -36h-65l68 239h249l-13 -62h-189l-35 -120h2q14 14 37.5 25t55.5 11q57 0 87 -33t30 -85q0 -38 -13.5 -70.5t-38 -55.5t-58.5 -36t-74 -13q-74 0 -108.5 32.5t-32.5 93.5h73q-2 -32 20 -49t51 -17q25 0 44.5 9t32.5 24t20 34
t7 40zM761 437q60 0 99 -28t39 -82q0 -43 -25 -70.5t-63 -38.5v-2q26 -9 45.5 -30.5t19.5 -58.5q0 -31 -12.5 -56t-35.5 -42.5t-55 -27t-71 -9.5q-75 0 -112.5 30t-37.5 84q0 47 29 77t76 41v2q-23 10 -37.5 31t-14.5 51q0 28 11.5 52t32.5 41t49.5 26.5t62.5 9.5zM759 382
q-39 0 -59 -23t-20 -53t18 -45.5t47 -15.5q38 0 58.5 21.5t20.5 56.5q0 29 -19 44t-46 15zM708 46q46 0 69 23.5t23 58.5q0 33 -24.5 48.5t-57.5 15.5q-44 0 -67 -22.5t-23 -60.5q0 -32 23 -47.5t57 -15.5zM792 781h82l-694 -821h-82z" />
    <glyph glyph-name="seveneighths" unicode="&#x215e;" horiz-adv-x="873" 
d="M326 701h-214l13 63h302l-10 -45l-260 -385h-80zM690 437q60 0 99 -28t39 -82q0 -43 -25 -70.5t-63 -38.5v-2q26 -9 45.5 -30.5t19.5 -58.5q0 -31 -12.5 -56t-35.5 -42.5t-55 -27t-71 -9.5q-75 0 -112.5 30t-37.5 84q0 47 29 77t76 41v2q-23 10 -37.5 31t-14.5 51
q0 28 11.5 52t32.5 41t49.5 26.5t62.5 9.5zM688 382q-39 0 -59 -23t-20 -53t18 -45.5t47 -15.5q38 0 58.5 21.5t20.5 56.5q0 29 -19 44t-46 15zM637 46q46 0 69 23.5t23 58.5q0 33 -24.5 48.5t-57.5 15.5q-44 0 -67 -22.5t-23 -60.5q0 -32 23 -47.5t57 -15.5zM698 781h82
l-694 -821h-82z" />
    <glyph glyph-name="minus" unicode="&#x2212;" horiz-adv-x="613" 
d="M105 397h454l-16 -79h-454z" />
    <glyph glyph-name="approxequal" unicode="&#x2248;" horiz-adv-x="454" 
d="M55 375q5 26 16 49.5t28.5 41.5t41 28.5t53.5 10.5q25 0 46.5 -9t40 -20.5t36 -20.5t34.5 -9q23 0 36 13t26 48h63q-5 -27 -16.5 -50.5t-29 -41t-39.5 -28t-48 -10.5q-28 0 -50.5 9t-42 20.5t-36.5 20.5t-35 9q-23 0 -36.5 -13t-24.5 -48h-63zM24 213q5 26 16 49.5
t28 41.5t40.5 28.5t53.5 10.5q25 0 46.5 -9t40.5 -20.5t36.5 -20.5t34.5 -9q23 0 36 13t26 48h63q-5 -27 -17 -50.5t-29 -41t-39.5 -28t-48.5 -10.5q-28 0 -50 9t-41.5 20.5t-36.5 20.5t-35 9q-23 0 -36.5 -13t-24.5 -48h-63z" />
    <glyph glyph-name="notequal" unicode="&#x2260;" horiz-adv-x="647" 
d="M206 109h-79l81 120h-119l15 76h156l71 105h-207l15 76h244l81 120h79l-81 -120h131l-15 -76h-168l-71 -105h219l-15 -76h-256z" />
    <glyph glyph-name="lessequal" unicode="&#x2264;" horiz-adv-x="605" 
d="M83 360l12 58l502 222l-15 -90l-386 -167l318 -172l-16 -80zM18 0l16 77h454l-16 -77h-454z" />
    <glyph glyph-name="greaterequal" unicode="&#x2265;" horiz-adv-x="605" 
d="M570 403l-12 -58l-502 -222l15 91l386 167l-318 172l16 79zM33 0l16 77h454l-16 -77h-454z" />
    <glyph glyph-name="uni24C5" unicode="&#x24c5;" horiz-adv-x="907" 
d="M75 380q0 84 30 156.5t82.5 126t124.5 84t157 30.5t157 -30.5t125 -84t83 -126t30 -156.5t-30 -156.5t-83 -125.5t-125 -83.5t-157 -30.5t-157 30.5t-124.5 83.5t-82.5 125.5t-30 156.5zM469 41q71 0 131.5 26t104.5 71.5t69 107.5t25 134t-25 134t-69 108t-104.5 72
t-131.5 26t-131 -26t-104 -72t-69 -108t-25 -134t25 -134t69 -107.5t104 -71.5t131 -26zM389 588h123q30 0 56 -8t45 -23.5t29 -39t9 -53.5q-4 -74 -49 -106.5t-111 -32.5h-83l-28 -146h-68zM491 379q45 0 68 21.5t26 57.5q3 38 -19.5 58t-62.5 20h-55l-31 -157h74z" />
    <glyph glyph-name="exclamdown.uc" horiz-adv-x="234" 
d="M106.012 -22.9521h-99.9941l122.992 550.967h74.9961zM267.002 765l-21.999 -117.993h-115.993l21.999 117.993h115.993z" />
    <glyph glyph-name="hyphen.uc" horiz-adv-x="389" 
d="M92 413h274l-16 -81h-274z" />
    <glyph glyph-name="endash.uc" horiz-adv-x="528" 
d="M90 408h415l-14 -71h-415z" />
    <glyph glyph-name="emdash.uc" horiz-adv-x="878" 
d="M90 408h765l-14 -71h-765z" />
    <glyph glyph-name="guilsinglleft.uc" horiz-adv-x="342" 
d="M314 524l-151 -206l64 -201h-82l-70 209l152 198h87z" />
    <glyph glyph-name="guilsinglright.uc" horiz-adv-x="332" 
d="M33 117l151 206l-64 201h82l70 -209l-152 -198h-87z" />
    <glyph glyph-name="guillemotleft.uc" horiz-adv-x="544" 
d="M516 524l-151 -206l64 -201h-82l-70 209l152 198h87zM314 524l-151 -206l64 -201h-82l-70 209l152 198h87z" />
    <glyph glyph-name="guillemotright.uc" horiz-adv-x="534" 
d="M33 117l151 206l-64 201h82l70 -209l-152 -198h-87zM235 117l151 206l-64 201h82l70 -209l-152 -198h-87z" />
    <glyph glyph-name="parenleft.uc" horiz-adv-x="326" 
d="M163 -100q-12 31 -24.5 64.5t-22.5 72.5t-16 85t-6 102q0 81 17 159.5t48.5 153t74.5 145t96 136.5h73q-51 -70 -91.5 -141t-69.5 -145.5t-45.5 -155t-17.5 -168.5q-1 -51 3 -94t11.5 -80.5t17 -70t19.5 -63.5h-67z" />
    <glyph glyph-name="parenright.uc" horiz-adv-x="326" 
d="M194 818q12 -31 24.5 -64.5t22.5 -72.5t16 -85.5t6 -101.5q0 -81 -17 -159.5t-48.5 -153t-75 -145t-95.5 -136.5h-73q51 70 91.5 141t69.5 145.5t45 154.5t18 169q1 51 -3 94t-11.5 80.5t-17 70t-19.5 63.5h67z" />
    <glyph glyph-name="space_uni0326" horiz-adv-x="369" 
d="M179 -69h95l-88 -137h-56z" />
    <glyph glyph-name="grave.uc" horiz-adv-x="367" 
d="M235 827h-66l-70 133h91z" />
    <glyph glyph-name="bracketleft.uc" horiz-adv-x="357" 
d="M211 818h213l-13 -67h-132l-153 -784h132l-13 -67h-213z" />
    <glyph glyph-name="bracketright.uc" horiz-adv-x="388" 
d="M177 -100h-213l13 67h132l153 784h-132l13 67h213z" />
    <glyph glyph-name="braceleft.uc" horiz-adv-x="348" 
d="M41 331l15 74h24q43 0 62 15t27 58l40 211q15 77 67 109t154 24l-12 -62q-36 2 -60 -3t-39 -17.5t-23.5 -32.5t-13.5 -48l-37 -191q-3 -19 -8 -35.5t-15 -29t-26.5 -21t-43.5 -12.5l-1 -4q23 -7 35.5 -19.5t17 -28.5t3 -35t-5.5 -39l-36 -179q-6 -32 -3.5 -51.5
t14.5 -30.5t33.5 -16t53.5 -9l-13 -62q-96 3 -138.5 41t-24.5 128l37 185q9 45 -6 63t-53 18h-24z" />
    <glyph glyph-name="braceright.uc" horiz-adv-x="386" 
d="M345 387l-15 -74h-24q-43 0 -62 -15t-27 -58l-40 -211q-15 -77 -67 -109t-154 -24l12 62q36 -2 60 3t39 17.5t23.5 32.5t13.5 48l32 167q4 20 10 41t17 38t28 29t43 14l1 4q-23 7 -35.5 19.5t-17 28.5t-3 35t5.5 39l36 179q6 32 3.5 51.5t-14.5 30.5t-34 16t-53 9l13 62
q96 -3 138.5 -42t23.5 -134l-36 -178q-9 -45 6 -63t53 -18h24z" />
    <glyph glyph-name="slash.uc" horiz-adv-x="563" 
d="M529 798h87l-586 -872h-92z" />
    <glyph glyph-name="backslash.uc" horiz-adv-x="524" 
d="M118 798h75l261 -872h-80z" />
    <glyph glyph-name="bar.uc" horiz-adv-x="276" 
d="M200 798h71l-169 -872h-71z" />
    <glyph glyph-name="acute.uc" horiz-adv-x="367" 
d="M167 960h101l-117 -133h-67z" />
    <glyph glyph-name="at.uc" horiz-adv-x="1043" 
d="M761 131q-57 0 -90.5 21t-40.5 67h-3q-25 -41 -63 -66t-92 -25q-37 0 -65.5 12.5t-48 34.5t-30.5 53t-12 68q-2 50 13 101t44 92.5t72.5 67.5t99.5 26q51 0 82 -23.5t42 -60.5h2l13 68h75l-53 -267q-11 -51 5.5 -79.5t62.5 -28.5q22 0 46.5 11.5t45.5 38.5t35 72t14 113
q0 69 -24 128t-68 102t-107.5 67.5t-141.5 24.5q-82 0 -156 -33.5t-130 -91.5t-89 -137.5t-33 -170.5q0 -83 25 -150.5t70.5 -115.5t110 -74t144.5 -26q82 0 149 24.5t112 59.5l36 -50q-52 -42 -126.5 -69.5t-180.5 -27.5q-95 0 -172.5 31t-133 87t-86 135.5t-30.5 175.5
q0 106 39.5 197t106.5 157.5t156 104t188 37.5q93 0 170 -27.5t132.5 -77t86 -119t30.5 -153.5q0 -86 -22.5 -144.5t-57 -94t-75.5 -50.5t-77 -15zM491 193q25 0 47.5 10t41 28t31.5 42.5t19 53.5l9 43q5 24 3.5 50t-11.5 47t-30 35t-52 14q-38 0 -66 -20.5t-46 -52t-27 -71
t-9 -76.5q0 -43 21.5 -73t68.5 -30z" />
    <glyph glyph-name="f.short" horiz-adv-x="350" 
d="M150 0h-88l89 458h-90l14 69h89l25 128q14 75 61.5 105.5t113.5 30.5q16 0 32 -1.5t27 -4.5l-14 -74q-9 2 -20.5 3.5t-28.5 1.5q-35 0 -56.5 -16.5t-30.5 -60.5l-22 -112h121l-13 -69h-121z" />
    <glyph glyph-name="f_f.short" horiz-adv-x="680" 
d="M150 0h-88l89 458h-90l14 69h89l24 122q14 75 61.5 105.5t113.5 30.5q16 0 32 -1.5t27 -4.5l-14 -74q-9 2 -20.5 3.5t-28.5 1.5q-35 0 -56.5 -16.5t-30.5 -60.5l-20 -106h242l25 128q14 75 61.5 105.5t113.5 30.5q16 0 32 -1.5t27 -4.5l-14 -74q-9 2 -20.5 3.5t-28.5 1.5
q-35 0 -56.5 -16.5t-30.5 -60.5l-22 -112h121l-13 -69h-121l-88 -458h-88l89 458h-243z" />
    <glyph glyph-name="macron.uc" horiz-adv-x="369" 
d="M48 925h286l-15 -73h-286z" />
    <glyph glyph-name="circumflex.uc" horiz-adv-x="369" 
d="M313 827h-75l-50 76h-1l-77 -76h-79l113 133h92z" />
    <glyph glyph-name="caron.uc" horiz-adv-x="369" 
d="M47 960h80l52 -76h1l79 76h86l-125 -133h-92z" />
    <glyph glyph-name="breve.uc" horiz-adv-x="369" 
d="M121 970q-2 -37 15 -55.5t49 -18.5t58 18t39 56h68q-20 -75 -66 -107.5t-105 -32.5q-29 0 -53 8t-41.5 25t-25.5 43.5t-3 63.5h65z" />
    <glyph glyph-name="caron.alt" horiz-adv-x="369" 
d="M176 788h84l-77 -162h-55z" />
    <glyph glyph-name="dotaccent.uc" horiz-adv-x="369" 
d="M147 936h93l-19 -99h-93z" />
    <glyph glyph-name="ring.uc" horiz-adv-x="369" 
d="M180 808q-49 2 -75.5 29t-26.5 71q0 51 31 82.5t82 31.5q52 0 79 -28t27 -72q0 -54 -32 -84t-85 -30zM192 976q-26 0 -41 -18t-15 -49q0 -23 12.5 -39t35.5 -16q26 0 41 18t15 49q0 24 -12.5 39t-35.5 16z" />
    <glyph glyph-name="sterling.tab" 
d="M503 0h-483l13 69l41 29q33 24 55.5 44.5t34.5 44t14.5 54t-4.5 75.5h-103l14 71h77l-8 51q-11 66 0 123.5t42.5 100t82.5 66.5t120 24q54 0 95 -16.5t66 -46t33.5 -70.5t-1.5 -90h-88q11 69 -13.5 109t-96.5 40q-46 0 -77 -17.5t-48.5 -47.5t-22.5 -69t1 -82l10 -75h216
l-14 -71h-193q3 -37 0 -67.5t-14 -57t-31 -49.5t-50 -45l-21 -15v-2h368z" />
    <glyph glyph-name="tilde.uc" horiz-adv-x="369" 
d="M-6 827q5 26 15 50.5t26 43t38 30t52 11.5q24 0 42 -9.5t32 -21t26 -21t25 -9.5q22 0 34 15.5t22 47.5h68q-5 -26 -15 -50.5t-25.5 -43.5t-37.5 -30t-52 -11q-24 0 -41.5 9.5t-32 20.5t-27 20.5t-26.5 9.5q-37 0 -56 -62h-67z" />
    <glyph glyph-name="cent.tab" 
d="M513 172q-9 -43 -29 -77t-48.5 -57.5t-64 -36.5t-75.5 -14l-20 -103h-71l21 110q-72 18 -107 74t-35 135q0 54 15 110.5t46 104t77.5 80.5t109.5 40l19 97h71l-19 -98q64 -10 99 -52.5t36 -116.5h-83q2 35 -14.5 62.5t-51.5 37.5l-79 -411q29 3 50 14.5t35 28t21.5 35.5
t10.5 37h86zM318 468q-38 -10 -65.5 -38.5t-45.5 -66t-26.5 -79.5t-8.5 -81q0 -44 15 -81.5t53 -54.5z" />
    <glyph glyph-name="plus.tab" 
d="M328 127h-86l38 192h-182l14 77h183l37 191h86l-37 -191h182l-14 -77h-183z" />
    <glyph glyph-name="minus.tab" 
d="M113 397h454l-16 -79h-454z" />
    <glyph glyph-name="multiply.tab" 
d="M76 185l194 165l-131 164l62 53l128 -166l195 172l50 -60l-199 -168l134 -170l-62 -53l-129 171l-196 -169z" />
    <glyph glyph-name="divide.tab" 
d="M327 595h93l-19 -97h-93zM110 397h454l-16 -79h-454zM235 120l19 97h93l-19 -97h-93z" />
    <glyph glyph-name="equal.tab" 
d="M127 486h454l-15 -76h-454zM77 229l15 76h454l-15 -76h-454z" />
    <glyph glyph-name="less.tab" 
d="M74 306l12 58l502 222l-15 -90l-386 -167l318 -172l-16 -80z" />
    <glyph glyph-name="greater.tab" 
d="M553 360l-12 -58l-502 -222l15 91l386 167l-318 172l16 79z" />
    <glyph glyph-name="florin.tab" 
d="M195 -189h-86l144 556h-104l13 69h109l55 213q18 75 66.5 105.5t114.5 30.5q16 0 32 -1.5t27 -4.5l-18 -74q-9 2 -20 3.5t-28 1.5q-35 0 -57.5 -16.5t-33.5 -60.5l-51 -197h129l-13 -69h-134z" />
    <glyph glyph-name="plusminus.tab" 
d="M329 157h-86l37 192h-182l15 77h182l37 191h86l-37 -191h183l-15 -77h-183zM45 77h451l-14 -77h-451z" />
    <glyph glyph-name="notequal.tab" 
d="M195 109h-79l81 120h-119l15 76h156l71 105h-207l15 76h244l81 120h79l-81 -120h131l-15 -76h-168l-71 -105h219l-15 -76h-256z" />
    <glyph glyph-name="approxequal.tab" 
d="M122 375q5 26 16 49.5t28.5 41.5t41 28.5t53.5 10.5q25 0 46.5 -9t40 -20.5t36 -20.5t34.5 -9q23 0 36 13t26 48h63q-5 -27 -16.5 -50.5t-29 -41t-39.5 -28t-48 -10.5q-28 0 -50.5 9t-42 20.5t-36.5 20.5t-35 9q-23 0 -36.5 -13t-24.5 -48h-63zM91 213q5 26 16 49.5
t28 41.5t40.5 28.5t53.5 10.5q25 0 46.5 -9t40.5 -20.5t36.5 -20.5t34.5 -9q23 0 36 13t26 48h63q-5 -27 -17 -50.5t-29 -41t-39.5 -28t-48.5 -10.5q-28 0 -50 9t-41.5 20.5t-36.5 20.5t-35 9q-23 0 -36.5 -13t-24.5 -48h-63z" />
    <glyph glyph-name="lessequal.tab" 
d="M95 360l12 58l502 222l-15 -90l-386 -167l318 -172l-16 -80zM30 0l16 77h454l-16 -77h-454z" />
    <glyph glyph-name="greaterequal.tab" 
d="M568 403l-12 -58l-502 -222l15 91l386 167l-318 172l16 79zM31 0l16 77h454l-16 -77h-454z" />
    <glyph glyph-name="period.tab" horiz-adv-x="300" 
d="M90 122h119l-23 -122h-119z" />
    <glyph glyph-name="comma.tab" horiz-adv-x="300" 
d="M101 123h115l-131 -240h-63z" />
    <glyph glyph-name="colon.tab" horiz-adv-x="300" 
d="M147 527h121l-24 -123h-121zM45 0l23 123h121l-23 -123h-121z" />
    <glyph glyph-name="semicolon.tab" horiz-adv-x="300" 
d="M154 527h121l-24 -123h-121zM1 -117l78 240h115l-131 -240h-62z" />
    <glyph glyph-name="hungarumlaut.uc" horiz-adv-x="369" 
d="M241 970h89l-90 -133h-56zM104 970h89l-91 -133h-55z" />
    <glyph glyph-name="currency.tab" 
d="M187 347q0 -52 30.5 -86t80.5 -34q51 0 81.5 34t30.5 86t-30.5 86.5t-81.5 34.5q-50 0 -80.5 -34.5t-30.5 -86.5zM119 347q0 27 7 51.5t19 44.5l-79 79l57 57l78 -79q44 27 97 27q29 0 54 -7.5t46 -21.5l82 84l55 -55l-84 -83q27 -44 27 -97q0 -28 -7 -52.5t-20 -44.5
l81 -80l-57 -57l-80 81q-43 -26 -97 -26t-97 26l-81 -82l-55 55l82 81q-28 44 -28 99z" />
    <glyph glyph-name="percent.tab" horiz-adv-x="900" 
d="M778 781h93l-696 -821h-92zM120 515q0 38 12 78t36 72.5t61 53.5t87 21q39 0 67 -11t45.5 -29.5t26 -43t8.5 -51.5q0 -39 -11.5 -79t-35.5 -72.5t-61 -53.5t-88 -21q-39 0 -66.5 10.5t-45.5 29t-26.5 43.5t-8.5 53zM270 443q34 0 55.5 17.5t34 42t17 52t4.5 47.5
q0 14 -3 28t-11 25t-21.5 17.5t-34.5 6.5q-32 0 -53 -16t-34 -40t-18.5 -51.5t-5.5 -51.5q0 -15 3 -28.5t11 -24.5t21.5 -17.5t34.5 -6.5zM626 -7q-39 0 -66.5 10.5t-45.5 29t-26.5 43.5t-8.5 53q0 38 12 78t36 72.5t61 53.5t87 21q39 0 67 -11t45.5 -29.5t26 -43t8.5 -51.5
q0 -39 -11.5 -79t-35.5 -72.5t-61 -53.5t-88 -21zM629 57q34 0 55.5 17.5t34 42t17 52t4.5 47.5q0 14 -3 28t-11 25t-21.5 17.5t-34.5 6.5q-32 0 -53 -16t-34 -40t-18.5 -51.5t-5.5 -51.5q0 -15 3 -28.5t11 -24.5t21.5 -17.5t34.5 -6.5z" />
    <glyph glyph-name="perthousand.tab" horiz-adv-x="1200" 
d="M736 781h93l-696 -821h-92zM102 520q0 36 9.5 74.5t31.5 70t57.5 52.5t86.5 22q65 1 98.5 -37.5t35.5 -102.5q1 -36 -8.5 -74.5t-32 -70.5t-58 -53t-86.5 -21q-66 0 -100 38t-34 102zM240 443q32 0 52 18t31 43.5t15 53t4 47.5q0 29 -15.5 51.5t-45.5 22.5t-49.5 -16.5
t-31 -41.5t-15.5 -53t-4 -52q0 -33 15.5 -53t43.5 -20zM955 -7q-66 0 -100 38t-34 102q0 36 9.5 74.5t31.5 70t57.5 52.5t86.5 22q65 1 98.5 -37.5t35.5 -102.5q1 -36 -8.5 -74.5t-32 -70.5t-58 -53t-86.5 -21zM576 -7q-66 0 -100 38t-34 102q0 36 9.5 74.5t31.5 70
t57.5 52.5t86.5 22q65 1 98.5 -37.5t35.5 -102.5q1 -36 -8.5 -74.5t-32 -70.5t-58 -53t-86.5 -21zM959 56q32 0 52 18t31 43.5t15 53t4 47.5q0 29 -15.5 51.5t-45.5 22.5t-49.5 -16.5t-31 -41.5t-15.5 -53t-4 -52q0 -33 15.5 -53t43.5 -20zM580 56q32 0 52 18t31 43.5t15 53
t4 47.5q0 29 -15.5 51.5t-45.5 22.5t-49.5 -16.5t-31 -41.5t-15.5 -53t-4 -52q0 -33 15.5 -53t43.5 -20z" />
    <glyph glyph-name="idotaccent" horiz-adv-x="273" 
d="M183 744h93l-19 -97h-93zM143 527h89l-102 -527h-89z" />
    <glyph glyph-name="space.tab" horiz-adv-x="300" 
 />
    <glyph glyph-name="questiondown.uc" horiz-adv-x="549" 
d="M371.015 538.014l-11.999 -63.9961q-5 -24.998 -11 -41.9971q-5.99902 -16.999 -17.499 -30.498q-11.499 -13.499 -28.998 -26.999q-17.499 -13.499 -45.4971 -32.498l-49.9971 -34.9971q-37.9971 -25.999 -60.9961 -58.9971t-22.999 -85.9941
q0 -53.9971 32.498 -86.4951t90.4951 -32.498q77.9951 0 116.992 45.9971q38.998 45.9971 47.9971 136.992h86.9951q-3 -62.9961 -22.999 -110.993q-19.998 -47.9971 -53.4961 -80.9951t-78.9951 -49.4971t-100.494 -16.499q-50.9971 0 -89.9941 14.499
q-38.998 14.499 -65.4961 39.9971q-26.499 25.499 -39.998 58.9971t-13.499 72.4951q0 44.9971 12.499 79.4951t32.498 60.4961q19.999 25.999 43.9971 46.498q23.999 20.498 47.998 36.4971l43.9971 30.998q17.999 13 28.998 20.499q10.999 7.5 17.999 14.999
q6.99902 7.5 10.499 17.499t7.5 27.998l9.99902 48.9971h82.9951zM404.013 647.007h-114.993l21.999 117.993h114.992z" />
    <glyph glyph-name="yen.tab" 
d="M240 180h-193l14 69h192l18 93h-194l13 69h169l-136 330h97l110 -295h2l227 295h104l-263 -330h167l-13 -69h-197l-18 -93h199l-14 -69h-198l-35 -180h-86z" />
    <glyph glyph-name="eight.den" horiz-adv-x="411" 
d="M229 437q60 0 99 -28t39 -82q0 -43 -25 -70.5t-63 -38.5v-2q26 -9 45.5 -30.5t19.5 -58.5q0 -31 -12.5 -56t-35.5 -42.5t-55 -27t-71 -9.5q-75 0 -112.5 30t-37.5 84q0 47 29 77t76 41v2q-23 10 -37.5 31t-14.5 51q0 28 11.5 52t32.5 41t49.5 26.5t62.5 9.5zM227 382
q-39 0 -59 -23t-20 -53t18 -45.5t47 -15.5q38 0 58.5 21.5t20.5 56.5q0 29 -19 44t-46 15zM176 46q46 0 69 23.5t23 58.5q0 33 -24.5 48.5t-57.5 15.5q-44 0 -67 -22.5t-23 -60.5q0 -32 23 -47.5t57 -15.5z" />
    <glyph glyph-name="five.den" horiz-adv-x="398" 
d="M261 159q0 31 -16 49.5t-54 19.5q-49 0 -80 -36h-65l68 239h249l-13 -62h-189l-35 -120h2q14 14 37.5 25t55.5 11q57 0 87 -33t30 -85q0 -38 -13.5 -70.5t-38 -55.5t-58.5 -36t-74 -13q-74 0 -108.5 32.5t-32.5 93.5h73q-2 -32 20 -49t51 -17q25 0 44.5 9t32.5 24t20 34
t7 40z" />
    <glyph glyph-name="four.den" horiz-adv-x="408" 
d="M227 157l45 212h-2q-4 -10 -12 -22q-7 -11 -17.5 -25.5t-27.5 -31.5l-127 -133h141zM283 101l-21 -100h-69l21 100h-216l10 54l259 276h85l-57 -271h58l-12 -59h-58z" />
    <glyph glyph-name="nine.den" horiz-adv-x="406" 
d="M208 380q-23 0 -40.5 -9t-29.5 -23t-18.5 -32t-6.5 -36q1 -32 17.5 -52.5t53.5 -20.5q23 0 41 8.5t30 23t18.5 32.5t6.5 37q0 31 -18.5 51.5t-53.5 20.5zM148 -8q-56 1 -92 26.5t-40 83.5h70q3 -23 18.5 -38t46.5 -15q52 0 81.5 44.5t43.5 114.5h-2q-19 -26 -48 -41.5
t-64 -15.5q-53 0 -87 32.5t-34 87.5q0 35 12.5 65.5t35 53t53.5 35t67 12.5q40 0 68 -12t45.5 -33.5t25.5 -50.5t8 -63q0 -27 -4 -58.5t-14 -63.5t-25.5 -61.5t-38.5 -52.5t-54.5 -36.5t-71.5 -13.5z" />
    <glyph glyph-name="one.den" horiz-adv-x="273" 
d="M123 302h-90l11 56h13q43 0 69 18q23 19 33 56h64l-90 -431h-73z" />
    <glyph glyph-name="seven.den" horiz-adv-x="363" 
d="M263 368h-214l13 63h302l-10 -45l-260 -385h-80z" />
    <glyph glyph-name="six.den" horiz-adv-x="415" 
d="M305 327q-2 25 -19 40t-48 15q-47 0 -79 -41t-46 -114h3q15 23 45.5 38t62.5 15q60 0 94.5 -33t34.5 -88q0 -35 -13 -65.5t-36 -53t-54.5 -35.5t-67.5 -13q-40 0 -69 11.5t-47.5 32t-27 49t-8.5 62.5q0 25 4 56t14 63.5t26 63t39.5 54.5t56 38.5t74.5 14.5q35 0 60.5 -9
t42 -24t24 -35t7.5 -42h-73zM181 48q22 0 40 8.5t30.5 22t19 31t6.5 35.5q0 36 -19 57.5t-57 21.5q-41 0 -67.5 -26t-26.5 -72q0 -33 18 -55.5t56 -22.5z" />
    <glyph glyph-name="three.den" horiz-adv-x="401" 
d="M141 192l12 55h48q35 0 59 20t24 55q0 28 -19 43t-50 15q-32 0 -57.5 -17t-30.5 -57h-70q4 56 46.5 93.5t116.5 37.5q60 0 98.5 -27t38.5 -82q0 -43 -27.5 -71t-66.5 -39v-2q30 -8 49.5 -29.5t19.5 -59.5q0 -32 -13.5 -57t-37 -42t-55 -26.5t-68.5 -9.5q-35 0 -63 9
t-47.5 25.5t-28.5 41t-7 56.5h71q0 -35 20 -54.5t62 -19.5q44 0 68.5 22.5t24.5 55.5q0 28 -16 46t-53 18h-48z" />
    <glyph glyph-name="two.den" horiz-adv-x="391" 
d="M46 292q2 35 15.5 62t36 45.5t52 28t64.5 9.5q57 0 95 -26.5t38 -82.5q0 -27 -9.5 -49.5t-26.5 -43t-40 -40t-49 -39.5l-123 -93v-1h206l-12 -61h-317l9 48l184 146q23 18 41.5 33t32 29t21 29.5t7.5 35.5q0 26 -16.5 41.5t-47.5 15.5q-17 0 -32 -4t-27.5 -13.5
t-21 -26.5t-11.5 -43h-69z" />
    <glyph glyph-name="zero.den" horiz-adv-x="439" 
d="M31 147q0 43 11 94t36 94.5t65 72.5t98 29q74 0 111.5 -43t35.5 -117q-1 -46 -12.5 -96.5t-36.5 -92.5t-64.5 -69t-95.5 -27q-73 0 -110.5 40.5t-37.5 114.5zM181 50q33 0 57 24t40 59.5t23.5 76t7.5 74.5q0 18 -3 34.5t-11 30t-22 21.5t-36 8q-34 0 -58 -25t-39.5 -62
t-22.5 -78t-7 -72q0 -16 3 -32.5t11 -29.5t21.5 -21t35.5 -8z" />
    <glyph glyph-name="zero.num" horiz-adv-x="439" 
d="M94 480q0 43 11 94t36 94.5t65 72.5t98 29q74 0 111.5 -43t35.5 -117q-1 -46 -12.5 -96.5t-36.5 -92.5t-64.5 -69t-95.5 -27q-73 0 -110.5 40.5t-37.5 114.5zM244 383q33 0 57 24t40 59.5t23.5 76t7.5 74.5q0 18 -3 34.5t-11 30t-22 21.5t-36 8q-34 0 -58 -25t-39.5 -62
t-22.5 -78t-7 -72q0 -16 3 -32.5t11 -29.5t21.5 -21t35.5 -8z" />
    <glyph glyph-name="one.num" horiz-adv-x="273" 
d="M186 635h-90l11 56h13q43 0 69 18q23 19 33 56h64l-90 -431h-73z" />
    <glyph glyph-name="two.num" horiz-adv-x="391" 
d="M109 625q2 35 15.5 62t36 45.5t52 28t64.5 9.5q57 0 95 -26.5t38 -82.5q0 -27 -9.5 -49.5t-26.5 -43t-40 -40t-49 -39.5l-123 -93v-1h206l-12 -61h-317l9 48l184 146q23 18 41.5 33t32 29t21 29.5t7.5 35.5q0 26 -16.5 41.5t-47.5 15.5q-17 0 -32 -4t-27.5 -13.5
t-21 -26.5t-11.5 -43h-69z" />
    <glyph glyph-name="three.num" horiz-adv-x="401" 
d="M204 525l12 55h48q35 0 59 20t24 55q0 28 -19 43t-50 15q-32 0 -57.5 -17t-30.5 -57h-70q4 56 46.5 93.5t116.5 37.5q60 0 98.5 -27t38.5 -82q0 -43 -27.5 -71t-66.5 -39v-2q30 -8 49.5 -29.5t19.5 -59.5q0 -32 -13.5 -57t-37 -42t-55 -26.5t-68.5 -9.5q-35 0 -63 9
t-47.5 25.5t-28.5 41t-7 56.5h71q0 -35 20 -54.5t62 -19.5q44 0 68.5 22.5t24.5 55.5q0 28 -16 46t-53 18h-48z" />
    <glyph glyph-name="four.num" horiz-adv-x="408" 
d="M290 490l45 212h-2q-4 -10 -12 -22q-7 -11 -17.5 -25.5t-27.5 -31.5l-127 -133h141zM346 434l-21 -100h-69l21 100h-216l10 54l259 276h85l-57 -271h58l-12 -59h-58z" />
    <glyph glyph-name="five.num" horiz-adv-x="398" 
d="M324 492q0 31 -16 49.5t-54 19.5q-49 0 -80 -36h-65l68 239h249l-13 -62h-189l-35 -120h2q14 14 37.5 25t55.5 11q57 0 87 -33t30 -85q0 -38 -13.5 -70.5t-38 -55.5t-58.5 -36t-74 -13q-74 0 -108.5 32.5t-32.5 93.5h73q-2 -32 20 -49t51 -17q25 0 44.5 9t32.5 24t20 34
t7 40z" />
    <glyph glyph-name="six.num" horiz-adv-x="415" 
d="M368 660q-2 25 -19 40t-48 15q-47 0 -79 -41t-46 -114h3q15 23 45.5 38t62.5 15q60 0 94.5 -33t34.5 -88q0 -35 -13 -65.5t-36 -53t-54.5 -35.5t-67.5 -13q-40 0 -69 11.5t-47.5 32t-27 49t-8.5 62.5q0 25 4 56t14 63.5t26 63t39.5 54.5t56 38.5t74.5 14.5q35 0 60.5 -9
t42 -24t24 -35t7.5 -42h-73zM244 381q22 0 40 8.5t30.5 22t19 31t6.5 35.5q0 36 -19 57.5t-57 21.5q-41 0 -67.5 -26t-26.5 -72q0 -33 18 -55.5t56 -22.5z" />
    <glyph glyph-name="seven.num" horiz-adv-x="363" 
d="M326 701h-214l13 63h302l-10 -45l-260 -385h-80z" />
    <glyph glyph-name="eight.num" horiz-adv-x="411" 
d="M292 770q60 0 99 -28t39 -82q0 -43 -25 -70.5t-63 -38.5v-2q26 -9 45.5 -30.5t19.5 -58.5q0 -31 -12.5 -56t-35.5 -42.5t-55 -27t-71 -9.5q-75 0 -112.5 30t-37.5 84q0 47 29 77t76 41v2q-23 10 -37.5 31t-14.5 51q0 28 11.5 52t32.5 41t49.5 26.5t62.5 9.5zM290 715
q-39 0 -59 -23t-20 -53t18 -45.5t47 -15.5q38 0 58.5 21.5t20.5 56.5q0 29 -19 44t-46 15zM239 379q46 0 69 23.5t23 58.5q0 33 -24.5 48.5t-57.5 15.5q-44 0 -67 -22.5t-23 -60.5q0 -32 23 -47.5t57 -15.5z" />
    <glyph glyph-name="nine.num" horiz-adv-x="406" 
d="M271 713q-23 0 -40.5 -9t-29.5 -23t-18.5 -32t-6.5 -36q1 -32 17.5 -52.5t53.5 -20.5q23 0 41 8.5t30 23t18.5 32.5t6.5 37q0 31 -18.5 51.5t-53.5 20.5zM211 325q-56 1 -92 26.5t-40 83.5h70q3 -23 18.5 -38t46.5 -15q52 0 81.5 44.5t43.5 114.5h-2q-19 -26 -48 -41.5
t-64 -15.5q-53 0 -87 32.5t-34 87.5q0 35 12.5 65.5t35 53t53.5 35t67 12.5q40 0 68 -12t45.5 -33.5t25.5 -50.5t8 -63q0 -27 -4 -58.5t-14 -63.5t-25.5 -61.5t-38.5 -52.5t-54.5 -36.5t-71.5 -13.5z" />
    <glyph glyph-name="minus.den" horiz-adv-x="398" 
d="M47 237h289l-12 -59h-288z" />
    <glyph glyph-name="plus.den" horiz-adv-x="396" 
d="M187 66h-66l24 113h-114l11 57h115l23 112h66l-23 -112h114l-11 -57h-115z" />
    <glyph glyph-name="parenleft.tab" horiz-adv-x="300" 
d="M169 -130q-12 31 -24.5 64.5t-22.5 72.5t-16 85t-6 102q0 81 17 159.5t48.5 153t74.5 145t96 136.5h73q-51 -70 -91.5 -141t-69.5 -145.5t-45.5 -155t-17.5 -168.5q-1 -51 3 -94t11.5 -80.5t17 -70t19.5 -63.5h-67z" />
    <glyph glyph-name="parenright.tab" horiz-adv-x="300" 
d="M164 788q12 -31 24.5 -64.5t22.5 -72.5t16 -85.5t6 -101.5q0 -81 -17 -159.5t-48.5 -153t-75 -145t-95.5 -136.5h-73q51 70 91.5 141t69.5 145.5t45 154.5t18 169q1 51 -3 94t-11.5 80.5t-17 70t-19.5 63.5h67z" />
    <glyph glyph-name="bracketleft.tab" horiz-adv-x="300" 
d="M205 788h213l-13 -67h-132l-153 -784h132l-13 -67h-213z" />
    <glyph glyph-name="bracketright.tab" horiz-adv-x="300" 
d="M120 -130h-213l13 67h132l153 784h-132l13 67h213z" />
    <glyph glyph-name="braceleft.tab" horiz-adv-x="300" 
d="M40 301l15 74h24q43 0 62 15t27 58l40 211q15 77 67 109t154 24l-12 -62q-36 2 -60 -3t-39 -17.5t-23.5 -32.5t-13.5 -48l-37 -191q-4 -19 -9 -35.5t-14.5 -29t-26 -21t-43.5 -12.5l-1 -4q23 -7 35.5 -19.5t17 -28.5t3 -35t-5.5 -39l-36 -179q-6 -32 -3.5 -51.5
t14.5 -30.5t33.5 -16t53.5 -9l-13 -62q-96 3 -138.5 41t-24.5 128l37 185q9 45 -6 63t-53 18h-24z" />
    <glyph glyph-name="braceright.tab" horiz-adv-x="300" 
d="M289 358l-15 -74h-24q-43 0 -62 -15t-27 -58l-40 -211q-15 -77 -67 -109t-154 -24l12 62q36 -2 60 3t39 17.5t23.5 32.5t13.5 48l32 167q4 20 10 41t17 38t28 29t43 14l1 4q-23 7 -35.5 19.5t-17 28.5t-3 35t5.5 39l36 179q6 32 3.5 51.5t-14.5 30.5t-34 16t-53 9l13 62
q96 -3 138.5 -42t23.5 -134l-36 -178q-9 -45 6 -63t53 -18h24z" />
    <glyph glyph-name="eight.sub" horiz-adv-x="411" 
d="M218 377q60 0 99 -28t39 -82q0 -43 -25 -70.5t-63 -38.5v-2q26 -9 45.5 -30.5t19.5 -58.5q0 -31 -12.5 -56t-35.5 -42.5t-55 -27t-71 -9.5q-75 0 -112.5 30t-37.5 84q0 47 29 77t76 41v2q-23 10 -37.5 31t-14.5 51q0 28 11.5 52t32.5 41t49.5 26.5t62.5 9.5zM216 322
q-39 0 -59 -23t-20 -53t18 -45.5t47 -15.5q38 0 58.5 21.5t20.5 56.5q0 29 -19 44t-46 15zM165 -14q46 0 69 23.5t23 58.5q0 33 -24.5 48.5t-57.5 15.5q-44 0 -67 -22.5t-23 -60.5q0 -32 23 -47.5t57 -15.5z" />
    <glyph glyph-name="eight.sup" horiz-adv-x="411" 
d="M302 821q60 0 99 -28t39 -82q0 -43 -25 -70.5t-63 -38.5v-2q26 -9 45.5 -30.5t19.5 -58.5q0 -31 -12.5 -56t-35.5 -42.5t-55 -27t-71 -9.5q-75 0 -112.5 30t-37.5 84q0 47 29 77t76 41v2q-23 10 -37.5 31t-14.5 51q0 28 11.5 52t32.5 41t49.5 26.5t62.5 9.5zM300 766
q-39 0 -59 -23t-20 -53t18 -45.5t47 -15.5q38 0 58.5 21.5t20.5 56.5q0 29 -19 44t-46 15zM249 430q46 0 69 23.5t23 58.5q0 33 -24.5 48.5t-57.5 15.5q-44 0 -67 -22.5t-23 -60.5q0 -32 23 -47.5t57 -15.5z" />
    <glyph glyph-name="five.sub" horiz-adv-x="398" 
d="M250 99q0 31 -16 49.5t-54 19.5q-49 0 -80 -36h-65l68 239h249l-13 -62h-189l-35 -120h2q14 14 37.5 25t55.5 11q57 0 87 -33t30 -85q0 -38 -13.5 -70.5t-38 -55.5t-58.5 -36t-74 -13q-74 0 -108.5 32.5t-32.5 93.5h73q-2 -32 20 -49t51 -17q25 0 44.5 9t32.5 24t20 34
t7 40z" />
    <glyph glyph-name="five.sup" horiz-adv-x="398" 
d="M334 543q0 31 -16 49.5t-54 19.5q-49 0 -80 -36h-65l68 239h249l-13 -62h-189l-35 -120h2q14 14 37.5 25t55.5 11q57 0 87 -33t30 -85q0 -38 -13.5 -70.5t-38 -55.5t-58.5 -36t-74 -13q-74 0 -108.5 32.5t-32.5 93.5h73q-2 -32 20 -49t51 -17q25 0 44.5 9t32.5 24t20 34
t7 40z" />
    <glyph glyph-name="four.sub" horiz-adv-x="408" 
d="M216 97l45 212h-2q-4 -10 -12 -22q-7 -11 -17.5 -25.5t-27.5 -31.5l-127 -133h141zM272 41l-21 -100h-69l21 100h-216l10 54l259 276h85l-57 -271h58l-12 -59h-58z" />
    <glyph glyph-name="four.sup" horiz-adv-x="408" 
d="M300 541l45 212h-2q-4 -10 -12 -22q-7 -11 -17.5 -25.5t-27.5 -31.5l-127 -133h141zM356 485l-21 -100h-69l21 100h-216l10 54l259 276h85l-57 -271h58l-12 -59h-58z" />
    <glyph glyph-name="minus.sub" horiz-adv-x="398" 
d="M36 177h289l-12 -59h-288z" />
    <glyph glyph-name="minus.sup" horiz-adv-x="398" 
d="M121 622h289l-12 -59h-288z" />
    <glyph glyph-name="nine.sub" horiz-adv-x="406" 
d="M197 320q-23 0 -40.5 -9t-29.5 -23t-18.5 -32t-6.5 -36q1 -32 17.5 -52.5t53.5 -20.5q23 0 41 8.5t30 23t18.5 32.5t6.5 37q0 31 -18.5 51.5t-53.5 20.5zM137 -68q-56 1 -92 26.5t-40 83.5h70q3 -23 18.5 -38t46.5 -15q52 0 81.5 44.5t43.5 114.5h-2q-19 -26 -48 -41.5
t-64 -15.5q-53 0 -87 32.5t-34 87.5q0 35 12.5 65.5t35 53t53.5 35t67 12.5q40 0 68 -12t45.5 -33.5t25.5 -50.5t8 -63q0 -27 -4 -58.5t-14 -63.5t-25.5 -61.5t-38.5 -52.5t-54.5 -36.5t-71.5 -13.5z" />
    <glyph glyph-name="nine.sup" horiz-adv-x="406" 
d="M281 764q-23 0 -40.5 -9t-29.5 -23t-18.5 -32t-6.5 -36q1 -32 17.5 -52.5t53.5 -20.5q23 0 41 8.5t30 23t18.5 32.5t6.5 37q0 31 -18.5 51.5t-53.5 20.5zM221 376q-56 1 -92 26.5t-40 83.5h70q3 -23 18.5 -38t46.5 -15q52 0 81.5 44.5t43.5 114.5h-2q-19 -26 -48 -41.5
t-64 -15.5q-53 0 -87 32.5t-34 87.5q0 35 12.5 65.5t35 53t53.5 35t67 12.5q40 0 68 -12t45.5 -33.5t25.5 -50.5t8 -63q0 -27 -4 -58.5t-14 -63.5t-25.5 -61.5t-38.5 -52.5t-54.5 -36.5t-71.5 -13.5z" />
    <glyph glyph-name="one.sub" horiz-adv-x="273" 
d="M112 242h-90l11 56h13q43 0 69 18q23 19 33 56h64l-90 -431h-73z" />
    <glyph glyph-name="one.sup" horiz-adv-x="273" 
d="M196 686h-90l11 56h13q43 0 69 18q23 19 33 56h64l-90 -431h-73z" />
    <glyph glyph-name="plus.sub" horiz-adv-x="396" 
d="M176 6h-66l24 113h-114l11 57h115l23 112h66l-23 -112h114l-11 -57h-115z" />
    <glyph glyph-name="plus.sup" horiz-adv-x="396" 
d="M261 451h-66l24 113h-114l11 57h115l23 112h66l-23 -112h114l-11 -57h-115z" />
    <glyph glyph-name="seven.sub" horiz-adv-x="363" 
d="M252 308h-214l13 63h302l-10 -45l-260 -385h-80z" />
    <glyph glyph-name="seven.sup" horiz-adv-x="363" 
d="M336 752h-214l13 63h302l-10 -45l-260 -385h-80z" />
    <glyph glyph-name="six.sub" horiz-adv-x="415" 
d="M294 267q-2 25 -19 40t-48 15q-47 0 -79 -41t-46 -114h3q15 23 45.5 38t62.5 15q60 0 94.5 -33t34.5 -88q0 -35 -13 -65.5t-36 -53t-54.5 -35.5t-67.5 -13q-40 0 -69 11.5t-47.5 32t-27 49t-8.5 62.5q0 25 4 56t14 63.5t26 63t39.5 54.5t56 38.5t74.5 14.5q35 0 60.5 -9
t42 -24t24 -35t7.5 -42h-73zM170 -12q22 0 40 8.5t30.5 22t19 31t6.5 35.5q0 36 -19 57.5t-57 21.5q-41 0 -67.5 -26t-26.5 -72q0 -33 18 -55.5t56 -22.5z" />
    <glyph glyph-name="six.sup" horiz-adv-x="415" 
d="M378 711q-2 25 -19 40t-48 15q-47 0 -79 -41t-46 -114h3q15 23 45.5 38t62.5 15q60 0 94.5 -33t34.5 -88q0 -35 -13 -65.5t-36 -53t-54.5 -35.5t-67.5 -13q-40 0 -69 11.5t-47.5 32t-27 49t-8.5 62.5q0 25 4 56t14 63.5t26 63t39.5 54.5t56 38.5t74.5 14.5q35 0 60.5 -9
t42 -24t24 -35t7.5 -42h-73zM254 432q22 0 40 8.5t30.5 22t19 31t6.5 35.5q0 36 -19 57.5t-57 21.5q-41 0 -67.5 -26t-26.5 -72q0 -33 18 -55.5t56 -22.5z" />
    <glyph glyph-name="three.sub" horiz-adv-x="401" 
d="M130 132l12 55h48q35 0 59 20t24 55q0 28 -19 43t-50 15q-32 0 -57.5 -17t-30.5 -57h-70q4 56 46.5 93.5t116.5 37.5q60 0 98.5 -27t38.5 -82q0 -43 -27.5 -71t-66.5 -39v-2q30 -8 49.5 -29.5t19.5 -59.5q0 -32 -13.5 -57t-37 -42t-55 -26.5t-68.5 -9.5q-35 0 -63 9
t-47.5 25.5t-28.5 41t-7 56.5h71q0 -35 20 -54.5t62 -19.5q44 0 68.5 22.5t24.5 55.5q0 28 -16 46t-53 18h-48z" />
    <glyph glyph-name="three.sup" horiz-adv-x="401" 
d="M214 576l12 55h48q35 0 59 20t24 55q0 28 -19 43t-50 15q-32 0 -57.5 -17t-30.5 -57h-70q4 56 46.5 93.5t116.5 37.5q60 0 98.5 -27t38.5 -82q0 -43 -27.5 -71t-66.5 -39v-2q30 -8 49.5 -29.5t19.5 -59.5q0 -32 -13.5 -57t-37 -42t-55 -26.5t-68.5 -9.5q-35 0 -63 9
t-47.5 25.5t-28.5 41t-7 56.5h71q0 -35 20 -54.5t62 -19.5q44 0 68.5 22.5t24.5 55.5q0 28 -16 46t-53 18h-48z" />
    <glyph glyph-name="two.sub" horiz-adv-x="391" 
d="M35 232q2 35 15.5 62t36 45.5t52 28t64.5 9.5q57 0 95 -26.5t38 -82.5q0 -27 -9.5 -49.5t-26.5 -43t-40 -40t-49 -39.5l-123 -93v-1h206l-12 -61h-317l9 48l184 146q23 18 41.5 33t32 29t21 29.5t7.5 35.5q0 26 -16.5 41.5t-47.5 15.5q-17 0 -32 -4t-27.5 -13.5
t-21 -26.5t-11.5 -43h-69z" />
    <glyph glyph-name="two.sup" horiz-adv-x="391" 
d="M119 676q2 35 15.5 62t36 45.5t52 28t64.5 9.5q57 0 95 -26.5t38 -82.5q0 -27 -9.5 -49.5t-26.5 -43t-40 -40t-49 -39.5l-123 -93v-1h206l-12 -61h-317l9 48l184 146q23 18 41.5 33t32 29t21 29.5t7.5 35.5q0 26 -16.5 41.5t-47.5 15.5q-17 0 -32 -4t-27.5 -13.5
t-21 -26.5t-11.5 -43h-69z" />
    <glyph glyph-name="zero.sub" horiz-adv-x="439" 
d="M20 87q0 43 11 94t36 94.5t65 72.5t98 29q74 0 111.5 -43t35.5 -117q-1 -46 -12.5 -96.5t-36.5 -92.5t-64.5 -69t-95.5 -27q-73 0 -110.5 40.5t-37.5 114.5zM170 -10q33 0 57 24t40 59.5t23.5 76t7.5 74.5q0 18 -3 34.5t-11 30t-22 21.5t-36 8q-34 0 -58 -25t-39.5 -62
t-22.5 -78t-7 -72q0 -16 3 -32.5t11 -29.5t21.5 -21t35.5 -8z" />
    <glyph glyph-name="zero.sup" horiz-adv-x="439" 
d="M104 531q0 43 11 94t36 94.5t65 72.5t98 29q74 0 111.5 -43t35.5 -117q-1 -46 -12.5 -96.5t-36.5 -92.5t-64.5 -69t-95.5 -27q-73 0 -110.5 40.5t-37.5 114.5zM254 434q33 0 57 24t40 59.5t23.5 76t7.5 74.5q0 18 -3 34.5t-11 30t-22 21.5t-36 8q-34 0 -58 -25t-39.5 -62
t-22.5 -78t-7 -72q0 -16 3 -32.5t11 -29.5t21.5 -21t35.5 -8z" />
    <glyph glyph-name="Q.old" horiz-adv-x="802" 
d="M511 11q-62 -27 -136 -27q-71 0 -125.5 23.5t-92 64.5t-57 97.5t-19.5 121.5q0 103 30 191.5t83 154t125.5 102.5t158.5 37q70 0 124 -23t90.5 -64.5t55.5 -98t19 -123.5q0 -58 -11.5 -117t-34.5 -114t-57.5 -102.5t-80.5 -81.5l68 -105l-70 -44zM175 289q0 -44 10 -85.5
t34.5 -73.5t65 -51.5t100.5 -19.5q46 0 85 15l-70 107l71 45l70 -109q35 31 60 73t41 89t23.5 96t7.5 94t-10.5 87t-34 74.5t-61.5 52t-94 19.5t-99.5 -19.5t-76.5 -52t-56.5 -75t-38 -88.5t-21 -92t-6.5 -86z" />
    <glyph glyph-name="Euro.tab" 
d="M567 207q-13 -49 -36 -90t-56 -70.5t-76.5 -46t-97.5 -16.5q-47 0 -84.5 15.5t-63 48t-38 83t-9.5 120.5h-83l14 71h76q2 11 4 22.5t4 23.5q2 11 4.5 22.5t5.5 22.5h-78l14 71h83q43 138 115 203t180 65q45 0 81.5 -16.5t60 -46.5t33.5 -71t3 -90h-87q7 74 -18 112
t-88 38q-74 0 -118 -49.5t-72 -144.5h215l-14 -71h-220l-9 -45q-2 -12 -4 -23.5t-4 -22.5h221l-14 -71h-216q-8 -102 21 -147t99 -45q31 0 57 12t47 32.5t36 47t24 56.5h88z" />
    <glyph glyph-name="dollar.tab" 
d="M354 678q-28 -2 -52.5 -11.5t-43 -25t-29 -38t-10.5 -51.5q0 -46 25.5 -71.5t63.5 -39.5zM305 66q30 3 58 14t50 29t35.5 43.5t13.5 59.5q0 47 -26.5 75t-83.5 48l-52 -269h5zM200 -116l22 111q-42 6 -77.5 21.5t-60 43t-37.5 67.5t-10 95h88q-2 -71 26 -108t85 -46
l56 288l-20 7q-72 23 -106 68.5t-34 106.5q0 47 17.5 85t49 66t75 43.5t94.5 17.5l15 78h65l-16 -82q39 -6 72 -22t55.5 -42t34 -63t8.5 -86h-87q4 53 -20.5 91t-76.5 50l-49 -254l19 -7q45 -16 76 -34.5t50.5 -41.5t28 -52t8.5 -66q0 -51 -20 -92t-55.5 -70.5t-84 -46
t-105.5 -18.5l-21 -108h-65z" />
    <glyph glyph-name="dieresis.uc" horiz-adv-x="369" 
d="M254 921h90l-19 -99h-90zM42 921h90l-19 -99h-90z" />
    <glyph glyph-name="zero.tab" 
d="M58 233q0 44 6.5 99.5t22 113t40.5 112.5t61.5 98t86 69.5t112.5 26.5q105 0 156.5 -67.5t51.5 -181.5q0 -44 -6.5 -99.5t-22 -113t-40.5 -112.5t-61.5 -98t-85.5 -69.5t-112 -26.5q-105 0 -157 67.5t-52 181.5zM277 58q42 0 75 24t58.5 62.5t43 87t29 98.5t16.5 97t5 82
q0 28 -4.5 58t-17.5 54.5t-38 40.5t-65 16q-43 0 -76 -24t-58.5 -62.5t-43.5 -87t-29.5 -98.5t-16.5 -97t-5 -82q0 -29 4.5 -59t18.5 -54.5t38.5 -40t65.5 -15.5z" />
    <glyph glyph-name="one.tab" 
d="M92 0l15 75h148l91 471h-160l12 64h37q72 0 111 36q21 17 34 40t21 58h72l-129 -669h147l-15 -75h-384z" />
    <glyph glyph-name="nine.tab" 
d="M505 535q0 66 -37 103.5t-97 37.5q-42 0 -73.5 -17.5t-52 -45t-31 -61.5t-10.5 -66q0 -28 8 -52.5t23.5 -42.5t39 -28t54.5 -10q43 0 75.5 14.5t55 39.5t34 58t11.5 70zM145 167q0 -48 27.5 -80t84.5 -32q51 0 89.5 26t67 69.5t47.5 99.5t31 117h-4q-30 -45 -77.5 -67
t-102.5 -22q-43 0 -79 15t-62 41.5t-40.5 64t-14.5 82.5q0 54 19.5 103t55 86.5t83.5 59.5t105 22q60 0 101.5 -20.5t68 -54t38.5 -75.5t12 -84q0 -55 -7.5 -116t-24.5 -120.5t-43.5 -113t-64.5 -94.5t-89 -65t-115 -24q-48 0 -84 14.5t-60.5 39.5t-36.5 58t-10 70h85z" />
    <glyph glyph-name="eight.tab" 
d="M383 752q44 0 82 -13.5t66.5 -38t45 -59.5t16.5 -78q0 -35 -11.5 -66.5t-31.5 -57t-47 -44t-58 -26.5v-2q19 -6 38 -19t34 -31.5t24.5 -44t9.5 -57.5q0 -55 -21.5 -98t-58.5 -72.5t-86 -45t-103 -15.5q-52 0 -94.5 13t-73 38t-47.5 61t-17 82q0 39 13 72.5t36 59.5
t54.5 44.5t68.5 27.5v2q-36 16 -61 54.5t-25 91.5q0 51 20 92t54 70t78.5 44.5t94.5 15.5zM377 680q-36 0 -64 -12t-47.5 -33t-29.5 -49.5t-10 -61.5q0 -56 36 -85.5t90 -29.5q34 0 61.5 11.5t47.5 31.5t31 48.5t11 62.5q0 27 -10 49t-27.5 37t-40.5 23t-48 8zM288 56
q82 0 127 44.5t45 114.5q0 32 -12.5 55.5t-33.5 38.5t-48 22.5t-55 7.5q-40 0 -71.5 -12t-53.5 -33t-33.5 -50.5t-11.5 -63.5q0 -32 11.5 -55.5t31.5 -38.5t47 -22.5t57 -7.5z" />
    <glyph glyph-name="seven.tab" 
d="M502 660h-380l16 81h483l-12 -59l-429 -682h-93z" />
    <glyph glyph-name="six.tab" 
d="M499 581q0 47 -29 73t-76 26q-48 0 -84.5 -24.5t-64.5 -66t-47 -95.5t-32 -112h4q30 45 76.5 68.5t103.5 23.5q45 0 81.5 -14t62.5 -40t40.5 -62.5t14.5 -81.5q0 -62 -20 -115.5t-56 -92.5t-85.5 -61t-108.5 -22t-101 20t-68.5 53t-39 76.5t-12.5 91.5q0 54 8.5 113.5
t25.5 118t44.5 112t65.5 94t87.5 64.5t110.5 24q43 0 78 -13t59 -35.5t36 -54t11 -68.5h-85zM282 61q42 0 74.5 17.5t54.5 45.5t33.5 64t11.5 74q0 66 -36.5 100.5t-96.5 34.5q-41 0 -73.5 -16t-55 -43t-34.5 -61.5t-12 -71.5q0 -66 35.5 -105t98.5 -39z" />
    <glyph glyph-name="five.tab" 
d="M142 193q-2 -68 33 -100t96 -32q45 0 79 18.5t57 49t35 69t12 79.5q0 63 -29 98.5t-92 35.5q-50 0 -86 -17.5t-59 -47.5h-80l99 395h374l-16 -80h-298l-55 -232h2q20 22 57.5 40.5t83.5 18.5q48 0 84 -15t60 -41.5t36.5 -63t12.5 -78.5q0 -64 -20 -119.5t-56.5 -97
t-88 -65t-115.5 -23.5q-51 0 -92.5 14.5t-70 41.5t-42.5 65.5t-11 86.5h90z" />
    <glyph glyph-name="space_uni0326.alt" horiz-adv-x="369" 
d="M205 634h-95l88 137h56z" />
    <glyph glyph-name="four.tab" 
d="M384 257l73 375h-3q-6 -11 -15 -23q-8 -11 -19 -24.5t-25 -30.5l-253 -297h242zM453 182l-35 -182h-84l35 182h-338l13 70l417 489h101l-94 -483h94l-15 -76h-94z" />
    <glyph glyph-name="three.tab" 
d="M282 336l16 82h35q71 0 112.5 37t41.5 106q0 57 -35 86t-89 29q-61 0 -104.5 -34t-54.5 -113h-90q4 50 25 91t54 70.5t77.5 45.5t95.5 16q48 0 86.5 -13t66.5 -37t43 -58t15 -77q0 -38 -11.5 -69t-31.5 -55t-47 -41t-58 -27v-2q22 -6 41.5 -19.5t34.5 -33.5t23.5 -46.5
t8.5 -60.5q0 -51 -20.5 -93t-55.5 -72t-82 -46.5t-100 -16.5q-116 0 -178.5 59t-55.5 164h89q1 -71 37.5 -108.5t112.5 -37.5q38 0 68.5 11.5t51.5 32t32.5 48.5t11.5 60q0 54 -30 88t-91 34h-45z" />
    <glyph glyph-name="two.tab" 
d="M124 514q4 63 25 108t55 74t78.5 42.5t96.5 13.5q42 0 78 -11.5t62.5 -34t41 -57t14.5 -79.5q0 -48 -16.5 -88.5t-41.5 -75t-56 -63.5t-61 -54l-251 -208v-1h357l-15 -80h-482l13 69l278 234q41 35 75 65.5t59 60.5t38.5 62t13.5 70q0 54 -29 85t-89 31q-27 0 -53.5 -7
t-48 -25t-36.5 -50t-21 -81h-85z" />
    </font>
</defs>
</svg>
