<svg viewBox="0 0 24 24" fill="none" className="dig-UIIcon" width="32" height="32" role="presentation" focusable="false"><path    fillRule="evenodd" clipRule="evenodd" d="M19.148 7.358c.249.248.427.557.519.896.329 1.248.333 3.851.333 3.851s0 2.604-.333 3.852a2.006 2.006 0 0 1-1.415 1.414c-1.247.335-6.252.335-6.252.335s-5.004 0-6.25-.335a2.004 2.004 0 0 1-1.415-1.414C4 14.709 4 12.105 4 12.105s0-2.603.335-3.85a2.003 2.003 0 0 1 1.414-1.42C6.995 6.5 12 6.5 12 6.5s5.004 0 6.252.34c.34.091.648.27.896.518Zm-4.59 4.747-4.158-2.4v4.8l4.158-2.4Z" fill="currentColor" vectorEffect="non-scaling-stroke"></path></svg>