<svg xmlns="http://www.w3.org/2000/svg">
<defs>
<font id="FoundersGroteskText" horiz-adv-x="620" >
  <font-face 
    font-family="
Klim Type Foundry Webfont License Agreement
1. This non-exclusive, revocable license grants limited rights to use the Webfonts on the domain specified on your sales receipt. All other rights, title, interest and design of the Webfonts belong to Klim. You agree that the Webfont is the exclusive property of Klim and to exercise reasonable care to avoid unauthorised distribution.
2. These uses are prohibited and/or require additional licenses: incorporating or embedding the Klim Webfonts in devices or software that is used on desktops, laptops, workstation, or other electronic devices; storing, archiving, re-serving, transmitting, or making the Klim Webfonts available or accessible for use by 3rd parties; altering, editing, or translating in any way, sublicensing, selling, or redistribution to 3rd parties; downloading, reverse engineering extracting or modifying the Klim Webfonts.
3. You are not permitted to embed the Webfonts in programs or devices, convert into other formats or create derivative works of the Webfonts or the designs in the Webfonts.
4. Klim will not support and is not responsible for unauthorised versions of the Klim Webfonts.
5. The Klim Webfonts may not be used in entertainment or gaming products without the purchase of an additional license.
6. The Klim Webfonts are without express or implied warranties of any kind and each are expressly revoked. Klim is not liable to any user for any direct, indirect, consequential, or incidental damages, including damages from loss of business profits, business interruption, loss of data or loss of any information even if notified in advance. You agree that Klim's sole liability will be the refunding of the license fee paid or replacement of the Webfonts in Klim's sole discretion. If you have questions you may contact Klim at kris@klim.co.nz
"
    font-weight="400"
    font-stretch="normal"
    units-per-em="1000"

<glyph glyph-name="ff" unicode="ff" horiz-adv-x="647" 
d="M180 0h-82v374h-76v63h76v30q0 37 12 68t34 52.5t52 33t64 11.5q18 0 35.5 -3t32.5 -9t27.5 -14.5t21.5 -19.5l-35 -52q-6 8 -14 14.5t-17.5 11t-20 7t-23.5 2.5q-20 0 -36 -6.5t-27.5 -19.5t-17.5 -33t-6 -46v-27h229v38q0 38 12.5 69.5t35.5 53t55 33t69 11.5
q28 0 52 -6t42 -18t31 -28.5t20 -36.5l-54 -38q-4 14 -11.5 25.5t-18 20t-25 13.5t-32.5 5q-21 0 -38.5 -6.5t-30 -20t-19 -33.5t-6.5 -47v-35h123v-63h-123v-374h-82v374h-229v-374z" />
    <glyph glyph-name="fi" unicode="fi" horiz-adv-x="571" 
d="M180 0h-82v374h-76v63h76v12q0 42 13 77.5t38.5 61.5t61.5 40t81 14q34 0 62.5 -7t50.5 -20t37 -31.5t24 -40.5l-60 -34q-5 17 -14 30t-23.5 22t-33 14t-40.5 5q-31 0 -53 -9t-35.5 -26.5t-20 -42t-6.5 -56.5v-9h312v-437h-83v374h-229v-374z" />
    <glyph glyph-name="fl" unicode="fl" horiz-adv-x="571" 
d="M409 630h83v-630h-83v630zM98 437v40q0 38 12 68.5t34.5 52t52 33t64.5 11.5q14 0 27.5 -2t26 -6t23.5 -9.5t20 -12.5l-27 -58q-6 6 -13.5 10.5t-15.5 8t-17.5 5t-19.5 1.5q-19 0 -35 -6.5t-27 -19t-17 -32.5t-6 -46v-38h121v-63h-121v-374h-82v374h-76v63h76z" />
    <glyph glyph-name="ffi" unicode="ffi" horiz-adv-x="882" 
d="M180 437h229v12q0 42 13 77.5t38.5 61.5t61.5 40t81 14q34 0 62.5 -7t50.5 -20t37 -31.5t24 -40.5l-60 -34q-4 16 -14 29.5t-24 22.5t-32.5 14t-40.5 5q-31 0 -53 -9t-35.5 -26.5t-20 -42t-6.5 -56.5v-9h312v-437h-83v374h-229v-374h-82v374h-229v-374h-82v374h-76v63h76
v30q0 37 12 68t34 52.5t52 33t64 11.5q18 0 35.5 -3t32.5 -9t27.5 -14.5t21.5 -19.5l-35 -52q-6 8 -14 14.5t-17.5 11t-20 7t-23.5 2.5q-20 0 -36 -6.5t-27.5 -19.5t-17.5 -33t-6 -46v-27z" />
    <glyph glyph-name="ffl" unicode="ffl" horiz-adv-x="882" 
d="M720 630h83v-630h-83v630zM409 437v40q0 37 12 68t34 52.5t52 33t64 11.5q15 0 28.5 -2t26 -6t23.5 -9.5t20 -12.5l-27 -58q-6 6 -13.5 10.5t-15.5 8t-17.5 5t-19.5 1.5q-20 0 -35.5 -6.5t-26.5 -19t-17 -32.5t-6 -46v-38h121v-63h-121v-374h-82v374h-229v-374h-82v374
h-76v63h76v30q0 37 12 68t34 52.5t52 33t64 11.5q18 0 35.5 -3t32.5 -9t27.5 -14.5t21.5 -19.5l-35 -52q-6 8 -14 14.5t-17.5 11t-20 7t-23.5 2.5q-20 0 -36 -6.5t-27.5 -19.5t-17.5 -33t-6 -46v-27h229z" />
    <glyph glyph-name="f_b" unicode="fb" horiz-adv-x="902" 
d="M648 -12q-30 0 -55.5 8t-45.5 22t-34.5 33t-22.5 42l-21 -93h-60v630h83v-288q8 23 22 42t34 34t45.5 23t55.5 8q47 0 85.5 -17.5t65.5 -49t41 -74t14 -90.5t-14 -90t-41 -73.5t-65.5 -49t-86.5 -17.5zM22 437h76v40q0 38 12 68.5t34.5 52t52 33t64.5 11.5q14 0 27.5 -2
t25.5 -6t23 -9.5t20 -12.5l-24 -59q-6 6 -13 11t-15.5 8t-18 5t-19.5 2q-20 0 -36 -6.5t-27.5 -19.5t-17.5 -33t-6 -46v-37h121v-63h-121v-374h-82v374h-76v63zM627 384q-28 0 -53 -11t-44.5 -31.5t-30 -49.5t-10.5 -64v-19q0 -35 10.5 -64t30 -50t44.5 -32t53 -11
q33 0 60 11.5t45.5 33.5t28 53t9.5 68t-9.5 68t-28 53t-45.5 33.5t-60 11.5z" />
    <glyph glyph-name="f_f_b" unicode="ffb" horiz-adv-x="1212" 
d="M801 93l-21 -93h-60v630h83v-288q8 23 22 42t34 34t45.5 23t55.5 8q47 0 85.5 -17.5t65.5 -49t41 -74t14 -90.5t-14 -90t-41 -73.5t-66 -49t-87 -17.5q-29 0 -54.5 8t-45.5 22t-34.5 33t-22.5 42zM800 228v-19q0 -35 10.5 -64.5t29.5 -50t44.5 -31.5t53.5 -11
q33 0 60 11.5t45.5 33.5t28 53t9.5 68t-9.5 68t-28 53t-45.5 33.5t-60 11.5q-28 0 -53.5 -11t-44.5 -31.5t-29.5 -49.5t-10.5 -64zM180 437h229v40q0 37 12 68t34 52.5t52 33t64 11.5q15 0 28.5 -2t26 -6t23.5 -9.5t20 -12.5l-27 -58q-6 6 -13.5 10.5t-15.5 8t-17.5 5
t-19.5 1.5q-20 0 -35.5 -6.5t-26.5 -19t-17 -32.5t-6 -46v-38h121v-63h-121v-374h-82v374h-229v-374h-82v374h-76v63h76v30q0 37 12 68t34 52.5t52 33t64 11.5q18 0 35.5 -3t32.5 -9t27.5 -14.5t21.5 -19.5l-35 -52q-6 8 -14 14.5t-17.5 11t-20 7t-23.5 2.5q-20 0 -36 -6.5
t-27.5 -19.5t-17.5 -33t-6 -46v-27z" />
    <glyph glyph-name="f_h" unicode="fh" horiz-adv-x="888" 
d="M22 437h76v40q0 38 12 68.5t34.5 52t52 33t64.5 11.5q14 0 27.5 -2t26 -6t23.5 -9.5t20 -12.5l-27 -58q-6 6 -13.5 10.5t-15.5 8t-17.5 5t-19.5 1.5q-19 0 -35 -6.5t-27 -19t-17 -32.5t-6 -46v-38h121v-63h-121v-374h-82v374h-76v63zM492 630v-282q8 21 22.5 39t35 32
t46 22t53.5 8q42 0 73.5 -13t51.5 -37t29.5 -56.5t9.5 -71.5v-271h-83v260q0 27 -7 49t-21 38t-34.5 24t-47.5 8q-28 0 -51.5 -10t-40.5 -29t-26.5 -45.5t-9.5 -58.5v-236h-83v630h83z" />
    <glyph glyph-name="f_f_h" unicode="ffh" horiz-adv-x="1199" 
d="M803 630v-282q8 21 22.5 39t35 32t46 22t53.5 8q42 0 73.5 -13t51.5 -37t29.5 -56.5t9.5 -71.5v-271h-83v260q0 27 -7 49t-21 38t-34.5 24t-46.5 8q-28 0 -51.5 -10t-41 -29t-27 -45.5t-9.5 -58.5v-236h-83v630h83zM180 437h229v40q0 37 12 68t34 52.5t52 33t64 11.5
q15 0 28.5 -2t26 -6t23.5 -9.5t20 -12.5l-27 -58q-6 6 -13.5 10.5t-15.5 8t-17.5 5t-19.5 1.5q-20 0 -35.5 -6.5t-26.5 -19t-17 -32.5t-6 -46v-38h121v-63h-121v-374h-82v374h-229v-374h-82v374h-76v63h76v30q0 37 12 68t34 52.5t52 33t64 11.5q18 0 35.5 -3t32.5 -9
t27.5 -14.5t21.5 -19.5l-35 -52q-6 8 -14 14.5t-17.5 11t-20 7t-23.5 2.5q-20 0 -36 -6.5t-27.5 -19.5t-17.5 -33t-6 -46v-27z" />
    <glyph glyph-name="f_j" unicode="fj" horiz-adv-x="571" 
d="M376 -180q-14 0 -27.5 2.5t-26 7t-24 10t-20.5 12.5l20 52q9 -6 17 -10t16.5 -7t17.5 -4.5t19 -1.5t17.5 3t13 9t8 15t2.5 21v445h-229v-374h-82v374h-76v63h76v12q0 42 13 77.5t38.5 61.5t61.5 40t81 14q34 0 62.5 -7t50.5 -20t37 -31.5t24 -40.5l-60 -34q-5 17 -14 30
t-23.5 22t-33 14t-40.5 5q-31 0 -53 -9t-35.5 -26.5t-20 -42t-6.5 -56.5v-9h312v-497q0 -29 -7.5 -51.5t-22 -37.5t-36 -23t-50.5 -8z" />
    <glyph glyph-name="f_f_j" unicode="ffj" horiz-adv-x="882" 
d="M180 437h229v12q0 42 13 77.5t38.5 61.5t61.5 40t81 14q34 0 62.5 -7t50.5 -20t37 -31.5t24 -40.5l-60 -34q-4 16 -14 29.5t-24 22.5t-32.5 14t-40.5 5q-31 0 -53 -9t-35.5 -26.5t-20 -42t-6.5 -56.5v-9h312v-497q0 -29 -7.5 -51.5t-22 -37.5t-36 -23t-50.5 -8
q-14 0 -27.5 2.5t-26 7t-24 10t-20.5 12.5l20 52q9 -6 17 -10t16 -7t17 -4.5t19 -1.5t18 3t13.5 9t8 15t2.5 21v445h-229v-374h-82v374h-229v-374h-82v374h-76v63h76v30q0 37 12 68t34 52.5t52 33t64 11.5q18 0 35.5 -3t32.5 -9t27.5 -14.5t21.5 -19.5l-35 -52
q-6 8 -14 14.5t-17.5 11t-20 7t-23.5 2.5q-20 0 -36 -6.5t-27.5 -19.5t-17.5 -33t-6 -46v-27z" />
    <glyph glyph-name="f_k" unicode="fk" horiz-adv-x="865" 
d="M22 437h76v40q0 38 12 68.5t34.5 52t52 33t64.5 11.5q14 0 27.5 -2t26 -6t23.5 -9.5t20 -12.5l-27 -58q-6 6 -13.5 10.5t-15.5 8t-17.5 5t-19.5 1.5q-19 0 -35 -6.5t-27 -19t-17 -32.5t-6 -46v-38h121v-63h-121v-374h-82v374h-76v63zM567 217l-74 -64v-153h-83v630h83
v-397l237 204h101l-204 -171l213 -266h-96z" />
    <glyph glyph-name="f_f_k" unicode="ffk" horiz-adv-x="1168" 
d="M180 437h229v40q0 37 12 68t34 52.5t52 33t64 11.5q15 0 28.5 -2t26 -6t23.5 -9.5t20 -12.5l-27 -58q-6 6 -13.5 10.5t-15.5 8t-17.5 5t-19.5 1.5q-20 0 -35.5 -6.5t-26.5 -19t-17 -32.5t-6 -46v-38h121v-63h-121v-374h-82v374h-229v-374h-82v374h-76v63h76v30
q0 37 12 68t34 52.5t52 33t64 11.5q18 0 35.5 -3t32.5 -9t27.5 -14.5t21.5 -19.5l-35 -52q-6 8 -14 14.5t-17.5 11t-20 7t-23.5 2.5q-20 0 -36 -6.5t-27.5 -19.5t-17.5 -33t-6 -46v-27zM803 153v-153h-83v630h83v-397l237 204h101l-204 -171l213 -266h-96l-177 217z" />
    <glyph glyph-name=".notdef" horiz-adv-x="608" 
 />
    <glyph glyph-name=".null" horiz-adv-x="0" 
 />
    <glyph glyph-name="nonmarkingreturn" unicode="&#xd;" horiz-adv-x="221" 
 />
    <glyph glyph-name="NULL" horiz-adv-x="0" 
 />
    <glyph glyph-name="NULL" horiz-adv-x="0" 
 />
    <glyph glyph-name="space" unicode=" " horiz-adv-x="252" 
 />
    <glyph glyph-name="exclam" unicode="!" horiz-adv-x="231" 
d="M71 630h89v-192l-24 -253h-40l-25 253v192zM66 0v100h100v-100h-100z" />
    <glyph glyph-name="quotedbl" unicode="&#x22;" horiz-adv-x="347" 
d="M216 377v253h71v-253h-71zM60 377v253h71v-253h-71z" />
    <glyph glyph-name="numbersign" unicode="#" horiz-adv-x="637" 
d="M376 225l42 180h-157l-42 -180h157zM322 0l40 167h-157l-40 -167h-70l40 167h-105l11 58h108l42 180h-119l11 59h122l40 166h70l-40 -166h157l40 166h70l-40 -166h105l-11 -59h-108l-42 -180h119l-11 -58h-122l-40 -167h-70z" />
    <glyph glyph-name="dollar" unicode="$" horiz-adv-x="598" 
d="M256 369l18 -4v208q-30 -1 -55 -9t-43.5 -22t-28.5 -34t-10 -45q0 -21 8 -36.5t23.5 -26t36.5 -17.5t51 -14zM362 265l-32 7v-214q32 2 59 10t47.5 22t31.5 33.5t11 44.5q0 21 -7.5 36.5t-22.5 26.5t-36.5 19t-50.5 15zM330 -118h-56v107q-42 4 -80.5 15.5t-71.5 30
t-58 43.5t-41 55l56 63q14 -29 34.5 -52.5t46 -41t54.5 -28.5t60 -15v225l-55 12q-36 8 -65 20.5t-51.5 32t-35 47.5t-12.5 64q0 39 15.5 71.5t45 57t69.5 38.5t89 15v102h56v-105q36 -4 68 -14.5t58.5 -26.5t47 -36t34.5 -44l-58 -59q-10 21 -24.5 39t-34 32t-42.5 24
t-49 15v-216l52 -11q41 -9 73 -21.5t55.5 -32.5t37 -49t13.5 -68q0 -40 -17 -73t-48.5 -56.5t-73.5 -37t-92 -15.5v-107z" />
    <glyph glyph-name="percent" unicode="%" horiz-adv-x="854" 
d="M206 643q33 0 62 -12.5t51 -34.5t34.5 -51t12.5 -61t-12.5 -61.5t-34.5 -51t-51 -34t-62 -12.5q-32 0 -61 12.5t-51 34.5t-34.5 51t-12.5 61t12.5 61t34.5 51t51 34.5t61 12.5zM190 0l406 630h68l-406 -630h-68zM206 583q-19 0 -36.5 -7.5t-31 -21.5t-21 -32t-7.5 -38
q0 -21 7.5 -39t21 -31.5t31 -21t36.5 -7.5q20 0 37.5 7.5t31 21t21 31.5t7.5 39q0 20 -7.5 38t-21 32t-31 21.5t-37.5 7.5zM648 -13q-33 0 -62 12.5t-51 34.5t-34.5 51t-12.5 61t12.5 61.5t34.5 51t51 34t62 12.5q32 0 61 -12.5t51 -34.5t34.5 -51t12.5 -61t-12.5 -61
t-34.5 -51t-51 -34.5t-61 -12.5zM648 47q19 0 36.5 7.5t31 21.5t21 32t7.5 38q0 21 -7.5 39t-21 31.5t-31 21t-36.5 7.5q-20 0 -37.5 -7.5t-31 -21t-21 -31.5t-7.5 -39q0 -20 7.5 -38t21 -32t31 -21.5t37.5 -7.5z" />
    <glyph glyph-name="ampersand" unicode="&#x26;" horiz-adv-x="665" 
d="M196 489q0 -15 5 -29.5t13 -28t18 -25.5t25 -28q32 15 52.5 28t33.5 26.5t18.5 30t5.5 37.5q0 16 -5 30t-15.5 25.5t-26 18t-35.5 6.5q-19 0 -35.5 -6t-28.5 -17.5t-18.5 -28.5t-6.5 -39zM252 55q20 0 39.5 3.5t38 10t35 16t32.5 21.5l-2 2l-171 188q-24 -13 -41.5 -25.5
t-29.5 -28t-18.5 -35t-6.5 -44.5t9 -45t26 -34t39.5 -21.5t49.5 -7.5zM574 -8q-17 0 -32.5 3.5t-30.5 11t-32 20.5t-36 31q-21 -16 -43 -29t-46 -22t-50 -14t-53 -5q-44 0 -81.5 11.5t-66 34t-44 55t-15.5 72.5q0 31 9.5 57t27.5 47.5t43 40t58 36.5q-16 19 -27.5 35
t-20 33.5t-13.5 36.5t-5 40q0 34 12 62.5t35 49.5t54 32t68 11t67 -10.5t50.5 -29.5t31 -45t10.5 -56q0 -28 -9.5 -51.5t-27.5 -43t-44.5 -37.5t-64.5 -37l153 -170q13 17 24 35.5t20 39t16 42t12 43.5l74 -5q-7 -28 -17 -55.5t-22.5 -53.5t-28 -50t-32.5 -46q13 -14 24 -24
t22.5 -17t24.5 -10.5t28 -3.5q6 0 11.5 0.5t11.5 1t13 1.5t14 3v-54q-7 -4 -15.5 -7t-18 -5.5t-19.5 -3.5t-19 -1z" />
    <glyph glyph-name="quotesingle" unicode="'" horiz-adv-x="193" 
d="M60 377v253h73v-253h-73z" />
    <glyph glyph-name="parenleft" unicode="(" horiz-adv-x="308" 
d="M51 288q0 51 9 102t27 99t44 91.5t59 79.5h83q-38 -43 -64 -89t-41.5 -92.5t-22.5 -93.5t-7 -97t7 -97t22.5 -93.5t41.5 -92.5t64 -89h-83q-33 36 -59 79.5t-44 91.5t-27 99t-9 102z" />
    <glyph glyph-name="parenright" unicode=")" horiz-adv-x="308" 
d="M118 660q33 -36 59 -79.5t44 -91.5t27 -99t9 -102t-9 -102t-27 -99t-44 -91.5t-59 -79.5h-83q38 43 64 89t41.5 92.5t22.5 93.5t7 97t-7 97t-22.5 93.5t-41.5 92.5t-64 89h83z" />
    <glyph glyph-name="asterisk" unicode="*" horiz-adv-x="378" 
d="M24 498l19 55l117 -41v127h58v-126l119 41l17 -55l-119 -38l75 -101l-48 -34l-73 100l-72 -102l-47 36l74 99z" />
    <glyph glyph-name="plus" unicode="+" horiz-adv-x="638" 
d="M574 277h-220v-221h-70v221h-220v70h220v221h70v-221h220v-70z" />
    <glyph glyph-name="comma" unicode="," horiz-adv-x="238" 
d="M66 0v106h106v-124q0 -28 -6.5 -50t-21 -37.5t-37.5 -24t-55 -8.5v53q17 0 29 3.5t20 11t11.5 20.5t3.5 32v18h-50z" />
    <glyph glyph-name="hyphen" unicode="-" horiz-adv-x="364" 
d="M67 218v74h230v-74h-230z" />
    <glyph glyph-name="period" unicode="." horiz-adv-x="238" 
d="M66 0v106h106v-106h-106z" />
    <glyph glyph-name="slash" unicode="/" horiz-adv-x="365" 
d="M13 -83l256 742h78l-255 -742h-79z" />
    <glyph glyph-name="zero" unicode="0" horiz-adv-x="634" 
d="M578 315q0 -78 -17.5 -139t-51 -103t-82 -63.5t-110.5 -21.5t-110.5 21.5t-82.5 63.5t-51.5 103t-17.5 139t17.5 139t51.5 103t82.5 63.5t110.5 21.5t110.5 -21.5t82 -63.5t51 -103t17.5 -139zM488 315q0 64 -10.5 112.5t-31.5 80.5t-53.5 48t-75.5 16t-75.5 -16
t-53.5 -48t-31.5 -80.5t-10.5 -112.5t10.5 -112.5t31.5 -80.5t53.5 -48t75.5 -16t75.5 16t53.5 48t31.5 80.5t10.5 112.5z" />
    <glyph glyph-name="one" unicode="1" horiz-adv-x="389" 
d="M286 0h-87v476h-168v64h45q41 0 67 4.5t42.5 15t26.5 28t17 46.5h57v-634z" />
    <glyph glyph-name="two" unicode="2" horiz-adv-x="553" 
d="M186 75h328v-75h-465v50l179 153q50 42 77.5 67.5t50.5 53.5t36 58t13 63q0 28 -8.5 50.5t-24.5 39t-40 25.5t-55 9q-32 0 -57.5 -9.5t-43.5 -28.5t-27 -46t-9 -61q0 -7 0.5 -14.5t2 -14.5l3 -14t4.5 -14l-85 4q-3 7 -4.5 14.5l-3 15t-2 15t-0.5 14.5q0 48 15.5 87t45 67
t70.5 43t91 15q54 0 95 -14.5t68 -41t40.5 -61.5t13.5 -76t-16.5 -79t-44 -71.5t-58 -62t-72.5 -63.5z" />
    <glyph glyph-name="three" unicode="3" horiz-adv-x="560" 
d="M137 425l-82 26q5 42 23.5 77t48 60.5t69.5 39.5t88 14q51 0 91.5 -12.5t68.5 -36t42 -56.5t14 -72q0 -30 -11 -55.5t-30 -44.5t-42.5 -31t-48.5 -16q30 -3 56 -15t46 -32.5t31 -47t11 -56.5q0 -39 -16 -72t-45.5 -57t-72 -37t-93.5 -13t-94.5 13t-75.5 37.5t-52 60
t-25 79.5l83 26q2 -35 14.5 -62t34.5 -46t51.5 -28.5t64.5 -9.5q31 0 56.5 7.5t44 22t28.5 36t10 49.5q0 26 -11 47t-31 35t-46.5 21t-56.5 7q-9 0 -17.5 -0.5t-15.5 -1.5t-15.5 -2.5t-11.5 -1.5v79q2 0 10.5 -1.5t15 -2.5t15.5 -1.5t19 -0.5q27 0 51 5.5t43 18t30 33.5
t11 50q0 26 -8.5 47t-25.5 36t-42 23.5t-57 8.5t-58 -10t-44.5 -29t-29.5 -46.5t-13 -61.5z" />
    <glyph glyph-name="four" unicode="4" horiz-adv-x="598" 
d="M456 630v-391h113v-71h-113v-168h-84v168h-333v84l309 378h108zM372 555l-259 -316h259v316z" />
    <glyph glyph-name="five" unicode="5" horiz-adv-x="571" 
d="M43 188l86 18q1 -33 12.5 -60.5t32 -47.5t50 -30.5t66.5 -10.5q33 0 60 10.5t46.5 31t30 48.5t10.5 62q0 31 -10 58t-28.5 46.5t-45.5 30.5t-60 11q-23 0 -43.5 -5.5t-37.5 -15t-30.5 -22t-22.5 -27.5l-85 15q6 35 12 77.5t11 87.5t8.5 87.5t4.5 77.5h374q2 -19 -0.5 -34
t-10.5 -25.5t-22.5 -16.5t-36.5 -6q-17 0 -46.5 1.5t-64 4t-66.5 5t-62 4.5q-1 -14 -3.5 -44.5t-6.5 -64.5t-7.5 -61.5t-6.5 -39.5q11 15 27 27.5t36 21.5t43.5 14.5t49.5 5.5q51 0 91 -16.5t68 -46t42 -68t14 -82.5q0 -48 -17 -89t-48.5 -70.5t-74.5 -45.5t-94 -16
t-94.5 14.5t-76 41t-51.5 63.5t-23 81z" />
    <glyph glyph-name="six" unicode="6" horiz-adv-x="593" 
d="M535 489l-78 -25q-6 25 -17 45t-27.5 34.5t-39.5 22t-52 7.5q-50 0 -86.5 -22.5t-59 -63t-33 -93.5t-8.5 -116q8 28 24 52t40 42t56 28t71 10q48 0 88 -15t69 -43.5t44 -66.5t15 -83q0 -47 -16 -86.5t-46 -68t-72.5 -44t-94.5 -15.5q-62 0 -110.5 22t-81 63t-49 99.5
t-16.5 130.5q0 74 17 136.5t50.5 108t84 70t115.5 24.5q42 0 77.5 -10.5t63 -30.5t46 -48.5t26.5 -63.5zM158 201q0 -32 10.5 -58t31 -45t49 -29.5t62.5 -10.5t61 10t46.5 29.5t29.5 45.5t10 58t-10 58t-29.5 44.5t-47.5 28.5t-63 10t-63 -10t-47.5 -28.5t-29.5 -44.5
t-10 -58z" />
    <glyph glyph-name="seven" unicode="7" horiz-adv-x="527" 
d="M394 550h-354v80h447v-61q-58 -60 -99 -126.5t-66 -137.5t-36.5 -146.5t-12.5 -158.5h-95q1 82 17 160t44.5 148t67.5 131t87 111z" />
    <glyph glyph-name="eight" unicode="8" horiz-adv-x="576" 
d="M288 -12q-56 0 -100.5 12.5t-75.5 36t-47.5 56.5t-16.5 74q0 30 11 55.5t30 45.5t43.5 32.5t50.5 17.5q-25 9 -46 23t-35.5 33t-22.5 42.5t-8 50.5q0 40 16 72.5t45.5 55.5t69 35t86.5 12t87 -12t69.5 -35t45.5 -55.5t16 -72.5q0 -27 -8 -50.5t-23 -42.5t-35.5 -33
t-46.5 -23q26 -5 50.5 -17.5t43.5 -32.5t30 -45.5t11 -55.5q0 -41 -16.5 -74t-47.5 -56.5t-75.5 -36t-100.5 -12.5zM288 349q29 0 53.5 7.5t41.5 21.5t26.5 35t9.5 48q0 29 -9.5 51t-26.5 36.5t-41.5 22t-53.5 7.5t-53.5 -7.5t-41.5 -22t-26.5 -36.5t-9.5 -51q0 -27 9.5 -48
t26.5 -35t41.5 -21.5t53.5 -7.5zM288 53q36 0 63.5 8t46.5 23t29 37t10 50t-9.5 49t-28.5 35.5t-47 21.5t-64 7t-63.5 -7t-46.5 -21.5t-29 -35.5t-10 -49t10 -49.5t29 -37t47 -23.5t63 -8z" />
    <glyph glyph-name="nine" unicode="9" horiz-adv-x="593" 
d="M435 429q0 32 -10.5 58t-31 45t-49 29.5t-62.5 10.5t-61 -10t-46.5 -29.5t-29.5 -45.5t-10 -58t10 -58t29.5 -44.5t47.5 -28.5t63 -10t63 10t47.5 28.5t29.5 44.5t10 58zM58 141l78 25q6 -25 17 -45t27.5 -34.5t39.5 -22t52 -7.5q50 0 86.5 22.5t59 63t33 93.5t8.5 116
q-8 -28 -24 -52t-40 -42t-56 -28t-71 -10q-48 0 -88 15t-69 43.5t-44 66.5t-15 83q0 47 16 86.5t46 68t72.5 44t94.5 15.5q62 0 110.5 -22t81 -63t49 -99.5t16.5 -130.5q0 -74 -17 -136.5t-50.5 -108t-84 -70t-115.5 -24.5q-42 0 -77.5 10.5t-63 30.5t-46 48.5t-26.5 63.5z
" />
    <glyph glyph-name="colon" unicode=":" horiz-adv-x="238" 
d="M66 0v106h106v-106h-106zM66 317v106h106v-106h-106z" />
    <glyph glyph-name="semicolon" unicode=";" horiz-adv-x="238" 
d="M66 0v106h106v-124q0 -28 -6.5 -50t-21 -37.5t-37.5 -24t-55 -8.5v53q17 0 29 3.5t20 11t11.5 20.5t3.5 32v18h-50zM66 317v106h106v-106h-106z" />
    <glyph glyph-name="less" unicode="&#x3c;" horiz-adv-x="482" 
d="M50 265v90l390 208v-81l-326 -172l326 -172v-82z" />
    <glyph glyph-name="equal" unicode="=" horiz-adv-x="651" 
d="M70 357v68h511v-68h-511zM70 196v68h511v-68h-511z" />
    <glyph glyph-name="greater" unicode="&#x3e;" horiz-adv-x="482" 
d="M432 355v-90l-389 -209v82l325 172l-325 172v81z" />
    <glyph glyph-name="question" unicode="?" horiz-adv-x="513" 
d="M289 178h-79q0 22 4 39.5t13 33t23 30.5t35 31q55 44 68.5 59t21.5 35.5t8 46.5q0 25 -7.5 47t-23 38t-38.5 25t-53 9q-33 0 -58.5 -10t-42.5 -29t-26 -46.5t-9 -62.5v-10t0.5 -10.5t1.5 -10.5l2 -10l-86 5q-1 6 -1.5 11t-1 10.5t-0.5 10.5v10q0 48 15.5 87t44.5 67
t70 43t91 15q53 0 93.5 -14.5t66.5 -40.5t39 -59.5t13 -72.5q0 -31 -10 -57t-27.5 -47.5t-37.5 -38.5t-57 -46q-15 -12 -24.5 -21.5t-15.5 -19.5t-9 -21t-3 -26zM197 0v98h100v-98h-100z" />
    <glyph glyph-name="at" unicode="@" horiz-adv-x="780" 
d="M565 89q25 0 45.5 11t36 33.5t24 58t8.5 82.5q0 52 -17 96t-50 75.5t-80.5 49t-107.5 17.5q-71 0 -130 -23.5t-101.5 -67t-65 -103.5t-22.5 -131q0 -63 22 -114t61.5 -86.5t92 -54t112.5 -18.5q29 0 55 2.5t51 7.5t50 14t50 21l21 -43q-25 -15 -51.5 -26t-55 -17.5
t-58.5 -10t-63 -3.5q-74 0 -137.5 22t-111 64.5t-74 104t-26.5 139.5q0 80 27 149.5t77.5 120.5t121 79.5t155.5 28.5q74 0 133 -21.5t100 -61t62.5 -93.5t21.5 -117q0 -59 -15 -105t-41.5 -76t-60 -44.5t-70.5 -14.5q-21 0 -37.5 5.5t-28.5 15t-20 22.5t-12 28
q-9 -16 -21.5 -29t-28 -22.5t-34 -14.5t-39.5 -5q-29 0 -52.5 9.5t-40.5 27.5t-26 44t-9 59q0 41 12.5 80t37 70t59.5 49.5t77 18.5q20 0 38 -4.5t32 -13t24 -20t15 -25.5l15 55h73l-59 -237q-4 -16 -3.5 -27.5t5.5 -18t13.5 -9.5t20.5 -3zM466 202l7 24q6 24 3.5 44.5
t-12.5 35.5t-26 23t-37 8q-26 0 -48 -14t-37.5 -37.5t-23.5 -52t-8 -58.5q0 -20 4 -35.5t12.5 -25.5t21 -15t29.5 -5q18 0 36 6.5t33.5 20t27 34t18.5 47.5z" />
    <glyph glyph-name="A" unicode="A" horiz-adv-x="664" 
d="M324 537l-109 -283h224l-111 283h-4zM539 0l-72 184h-278l-71 -184h-87l249 630h98l255 -630h-94z" />
    <glyph glyph-name="B" unicode="B" horiz-adv-x="664" 
d="M453 327q31 -5 59 -17t49 -31.5t33 -46t12 -59.5q0 -41 -14.5 -73t-43.5 -54.5t-71 -34t-97 -11.5h-296v630h285q57 0 99 -12t68.5 -34t39 -53t12.5 -69q0 -27 -10.5 -50t-29.5 -40.5t-43 -29t-52 -15.5zM169 558v-200h204q34 0 58.5 7t40 19.5t23 31t7.5 41.5t-7.5 41.5
t-23 32t-40.5 20.5t-58 7h-204zM378 291h-209v-218h210q35 0 61.5 7t44.5 21t27 34t9 45q0 26 -9 47t-27 35t-45 21.5t-62 7.5z" />
    <glyph glyph-name="C" unicode="C" horiz-adv-x="691" 
d="M568 221l78 -42q-14 -44 -38.5 -79t-60 -60t-81 -38.5t-100.5 -13.5q-65 0 -122 23.5t-100 67.5t-67 104.5t-24 131.5t24 131.5t67 104.5t101 67.5t124 23.5q49 0 91 -11.5t76 -33t59 -52.5t40 -69l-73 -48q-10 32 -27 57.5t-41.5 43.5t-55.5 28t-69 10
q-49 0 -90.5 -17.5t-71.5 -50.5t-46.5 -80t-16.5 -104t16.5 -104t46.5 -80t70.5 -50.5t88.5 -17.5q42 0 76 10.5t59 31t41.5 49.5t25.5 67z" />
    <glyph glyph-name="D" unicode="D" horiz-adv-x="709" 
d="M84 0v630h234q77 0 139.5 -21.5t107 -62.5t68 -99.5t23.5 -131.5t-23.5 -131.5t-68 -99.5t-107 -62.5t-139.5 -21.5h-234zM172 72h136q62 0 110 16.5t81 47.5t49.5 76.5t16.5 102.5t-16.5 102.5t-49.5 76.5t-81 47.5t-110 16.5h-136v-486z" />
    <glyph glyph-name="E" unicode="E" horiz-adv-x="625" 
d="M566 74v-74h-482v630h473v-74h-387v-192h294v-75h-294v-215h396z" />
    <glyph glyph-name="F" unicode="F" horiz-adv-x="595" 
d="M171 0h-87v630h465v-74h-378v-196h294v-75h-294v-285z" />
    <glyph glyph-name="G" unicode="G" horiz-adv-x="735" 
d="M638 479l-74 -50q-9 31 -26 56.5t-42 44t-58 28t-72 9.5q-48 0 -89 -17.5t-71 -50.5t-46 -80t-16 -105t16.5 -104.5t47 -79.5t72.5 -50.5t92 -17.5q45 0 81.5 13.5t63 38t42 58t19.5 73.5h-244v66h323v-311h-64l-13 114q-10 -29 -31 -53t-50.5 -40t-64 -24.5t-72.5 -8.5
q-66 0 -122.5 23.5t-98.5 67t-65 104t-23 132.5q0 71 24 131.5t67 104.5t100 67.5t122 23.5q51 0 94.5 -11t78 -32t59.5 -51t40 -69z" />
    <glyph glyph-name="H" unicode="H" horiz-adv-x="730" 
d="M172 0h-88v630h88v-266h386v266h88v-630h-88v289h-386v-289z" />
    <glyph glyph-name="I" unicode="I" horiz-adv-x="256" 
d="M84 630h88v-630h-88v630z" />
    <glyph glyph-name="J" unicode="J" horiz-adv-x="551" 
d="M391 630h88v-411q0 -54 -15 -97t-43 -73t-67 -45.5t-87 -15.5q-52 0 -93.5 18t-70 52t-41.5 81t-9 103l89 21q-5 -45 0 -81.5t21 -63t42 -40.5t62 -14q32 0 55.5 10.5t39 30.5t22.5 49t7 66v410z" />
    <glyph glyph-name="K" unicode="K" horiz-adv-x="659" 
d="M640 0h-109l-249 315l-110 -111v-204h-88v630h88v-330l328 330h107l-261 -260z" />
    <glyph glyph-name="L" unicode="L" horiz-adv-x="608" 
d="M84 630h88v-554h389v-76h-477v630z" />
    <glyph glyph-name="M" unicode="M" horiz-adv-x="816" 
d="M431 0h-46l-215 550h-4v-550h-82v630h139l187 -488h3l179 488h140v-630h-88v550h-4z" />
    <glyph glyph-name="N" unicode="N" horiz-adv-x="698" 
d="M181 630l352 -488v488h81v-630h-73l-376 516v-516h-81v630h97z" />
    <glyph glyph-name="O" unicode="O" horiz-adv-x="745" 
d="M692 315q0 -72 -23.5 -132t-67 -104t-102.5 -67.5t-127 -23.5t-126.5 23.5t-102 67.5t-67 104t-23.5 132t23.5 132t67 104t102 67.5t126.5 23.5t127 -23.5t102.5 -67.5t67 -104t23.5 -132zM601 315q0 57 -16.5 103.5t-47 79.5t-72.5 50.5t-93 17.5t-93 -17.5t-72 -50.5
t-46.5 -79.5t-16.5 -103.5t16.5 -103.5t46.5 -79.5t72 -50.5t93 -17.5t93 17.5t72.5 50.5t47 79.5t16.5 103.5z" />
    <glyph glyph-name="P" unicode="P" horiz-adv-x="645" 
d="M358 252h-187v-252h-87v630h274q58 0 103.5 -13t77 -37.5t48 -59.5t16.5 -79t-16.5 -79t-48 -59.5t-77 -37.5t-103.5 -13zM171 325h185q41 0 71 7t50 21.5t30 36.5t10 51t-10 51t-30 36.5t-50 21.5t-71 7h-185v-232z" />
    <glyph glyph-name="Q" unicode="Q" horiz-adv-x="745" 
d="M470 -167q-30 0 -55.5 11t-43.5 31.5t-26.5 49.5t-5.5 65q-62 6 -114.5 31.5t-91 68.5t-59.5 100.5t-21 124.5q0 72 23.5 132t67 104t102 67.5t126.5 23.5t127 -23.5t102.5 -67.5t67 -104t23.5 -132q0 -66 -20.5 -122.5t-57.5 -99.5t-88.5 -69.5t-111.5 -33.5
q-2 -20 1 -36t11.5 -28t21.5 -18t30 -6q14 0 26.5 3t22.5 9t19 14t17 19l20 -66q-9 -11 -22 -20t-28 -15t-31 -9.5t-32 -3.5zM601 315q0 57 -16.5 103.5t-47 79.5t-72.5 50.5t-93 17.5t-93 -17.5t-72 -50.5t-46.5 -79.5t-16.5 -103.5t16.5 -103.5t46.5 -79.5t72 -50.5
t93 -17.5t93 17.5t72.5 50.5t47 79.5t16.5 103.5z" />
    <glyph glyph-name="R" unicode="R" horiz-adv-x="664" 
d="M171 557v-211h179q40 0 69 6.5t48.5 19.5t29 33t9.5 47q0 26 -8.5 45.5t-27 32.5t-47 20t-67.5 7h-185zM633 0h-105q-8 4 -15 15t-12 28t-9 38.5t-6 45.5q-3 38 -11 65.5t-22.5 46t-37.5 28t-56 9.5h-188v-276h-87v630h279q59 0 102.5 -12t72.5 -35t43 -55.5t14 -72.5
q0 -29 -12 -54.5t-33.5 -45t-49.5 -31t-59 -13.5q27 -4 48 -16.5t36 -31.5t24.5 -43.5t13.5 -52.5q6 -39 13 -66t15.5 -45t18.5 -29.5t23 -19.5v-7z" />
    <glyph glyph-name="S" unicode="S" horiz-adv-x="612" 
d="M29 132l57 66q15 -33 39.5 -59t55.5 -43.5t65 -26.5t70 -9q35 0 65 7t52.5 20.5t35 34t12.5 47.5q0 21 -8 36.5t-23 26.5t-36 19t-50 14l-138 30q-35 7 -64.5 20t-52 33t-35 48t-12.5 64q0 40 16.5 73.5t47 58t73 37.5t92.5 13q45 0 84.5 -9t71.5 -26t56.5 -39.5
t41.5 -49.5l-60 -61q-12 25 -30.5 45.5t-44 36t-55.5 23.5t-64 8q-32 0 -58.5 -7t-45.5 -20.5t-29 -33.5t-10 -45q0 -21 8.5 -36.5t24 -26.5t36.5 -18t50 -13l122 -26q41 -9 73 -22t56 -33t37 -49.5t13 -68.5q0 -42 -19 -76.5t-53.5 -58t-80.5 -36t-99 -12.5q-47 0 -91 10
t-82.5 28.5t-67.5 45.5t-46 60z" />
    <glyph glyph-name="T" unicode="T" horiz-adv-x="683" 
d="M384 0h-88v554h-256v76h603v-76h-259v-554z" />
    <glyph glyph-name="U" unicode="U" horiz-adv-x="682" 
d="M341 -12q-54 0 -102 17t-85 50.5t-58 85t-21 118.5v371h88v-365q0 -49 12 -86.5t35.5 -63t56.5 -38.5t74 -13t74.5 13t56.5 38.5t35.5 63t12.5 86.5v365h86v-371q0 -67 -21 -118.5t-57.5 -85t-84.5 -50.5t-102 -17z" />
    <glyph glyph-name="V" unicode="V" horiz-adv-x="653" 
d="M375 0h-97l-247 630h95l202 -531h4l199 531h91z" />
    <glyph glyph-name="W" unicode="W" horiz-adv-x="899" 
d="M493 630l141 -522h4l142 522h83l-173 -630h-103l-135 503h-4l-136 -503h-102l-174 630h86l144 -520h4l139 520h84z" />
    <glyph glyph-name="X" unicode="X" horiz-adv-x="670" 
d="M615 630l-230 -299l252 -331h-103l-201 266l-201 -266h-99l252 327l-231 303h104l178 -238l180 238h99z" />
    <glyph glyph-name="Y" unicode="Y" horiz-adv-x="625" 
d="M316 347l182 283h95l-238 -363v-267h-85v267l-238 363h102z" />
    <glyph glyph-name="Z" unicode="Z" horiz-adv-x="636" 
d="M164 76h419v-76h-529v65l408 489h-404v76h514v-68z" />
    <glyph glyph-name="bracketleft" unicode="[" horiz-adv-x="321" 
d="M154 597v-618h114v-63h-192v744h192v-63h-114z" />
    <glyph glyph-name="backslash" unicode="\" horiz-adv-x="365" 
d="M96 659l256 -742h-79l-255 742h78z" />
    <glyph glyph-name="bracketright" unicode="]" horiz-adv-x="321" 
d="M167 -21v618h-114v63h192v-744h-192v63h114z" />
    <glyph glyph-name="asciicircum" unicode="^" horiz-adv-x="396" 
d="M159 630h78l139 -202h-82l-96 140l-96 -140h-82z" />
    <glyph glyph-name="underscore" unicode="_" horiz-adv-x="401" 
d="M30 -120v65h341v-65h-341z" />
    <glyph glyph-name="grave" unicode="`" horiz-adv-x="520" 
d="M337 514h-56l-99 152h95z" />
    <glyph glyph-name="a" unicode="a" horiz-adv-x="525" 
d="M134 301l-74 27q12 26 31 48t44.5 38.5t58 25.5t70.5 9t67.5 -8t50 -24.5t31.5 -41t11 -57.5v-215q0 -12 3 -21t8 -14.5t12 -8.5t16 -3q7 0 13 1t12 3.5t11.5 5t11.5 6.5l5 -62q-9 -6 -17.5 -9.5t-17 -6t-16.5 -3.5t-18 -1q-21 0 -39 7.5t-31.5 20.5t-21.5 31t-9 38
q-8 -21 -23 -38.5t-36.5 -30.5t-48 -20t-55.5 -7q-31 0 -56.5 9t-44 25.5t-28.5 40t-10 52.5t12 51t34.5 38t53 27.5t71.5 21.5l130 30v35q0 12 -4 23t-14 20t-26 14t-39 5q-25 0 -46.5 -6.5t-37.5 -18t-27 -26t-17 -31.5zM345 176v57l-110 -27q-27 -7 -46.5 -13.5t-33 -16
t-21 -23t-7.5 -31.5q0 -14 5 -26.5t14.5 -22t23.5 -14.5t33 -5q28 0 54 10t46 27t31 39t11 46z" />
    <glyph glyph-name="b" unicode="b" horiz-adv-x="572" 
d="M160 93l-20 -93h-61v630h83v-288q8 23 22.5 42t34 34t45 23t55.5 8q48 0 86.5 -17.5t65.5 -49t41 -74t14 -90.5t-14 -90t-41 -73.5t-66 -49t-87 -17.5q-30 0 -55.5 8t-45.5 22t-34.5 33t-22.5 42zM159 228v-19q0 -35 10.5 -64t30 -50t44.5 -32t53 -11q33 0 60 11.5
t45.5 33.5t28 53t9.5 68t-9.5 68t-28 53t-45.5 33.5t-60 11.5q-28 0 -53 -11t-44.5 -31.5t-30 -49.5t-10.5 -64z" />
    <glyph glyph-name="c" unicode="c" horiz-adv-x="504" 
d="M393 153l68 -34q-9 -28 -26 -51.5t-41.5 -41.5t-57 -28t-71.5 -10q-49 0 -90.5 16.5t-72 47.5t-47 73.5t-16.5 92.5t16.5 92.5t47.5 73.5t73 48t92 17q36 0 66 -8.5t53.5 -24.5t40.5 -37.5t28 -47.5l-67 -40q-7 20 -18 36t-26 28.5t-34 19t-42 6.5q-32 0 -58.5 -11
t-45.5 -32.5t-29.5 -52t-10.5 -67.5t10 -67t29 -51.5t45.5 -32.5t57.5 -11q25 0 45.5 7t36 20t26.5 31t18 39z" />
    <glyph glyph-name="d" unicode="d" horiz-adv-x="572" 
d="M413 209v19q0 35 -11 64t-30 49.5t-44.5 31.5t-53.5 11q-33 0 -59.5 -11.5t-45 -33.5t-28 -53t-9.5 -68t9.5 -68t28 -53t45 -33.5t59.5 -11.5q28 0 53.5 11t44.5 32t30 50t11 64zM410 0v94q-8 -23 -22.5 -42t-34 -33.5t-45 -22.5t-55.5 -8q-48 0 -86.5 17.5t-65.5 49
t-41 73.5t-14 90t14 90.5t41 74t65.5 49t86.5 17.5q30 0 55.5 -8t45 -23t34 -34t22.5 -42v288h83v-630h-83z" />
    <glyph glyph-name="e" unicode="e" horiz-adv-x="525" 
d="M413 147l64 -38q-13 -29 -32.5 -51.5t-45 -38t-57.5 -23.5t-69 -8q-49 0 -90.5 16t-72 46t-47.5 71.5t-17 90.5q0 51 16.5 94.5t47 75.5t71.5 49.5t88 17.5q51 0 90.5 -17t66 -47t40 -69t13.5 -82v-26h-351q0 -35 11.5 -63.5t32 -49t47 -31.5t56.5 -11q27 0 49 6
t38.5 17.5t29 29t21.5 41.5zM131 262h269q-2 24 -11 46t-25.5 39.5t-40.5 27t-54 9.5q-28 0 -52 -9.5t-42 -26.5t-29 -39t-15 -47z" />
    <glyph glyph-name="f" unicode="f" horiz-adv-x="336" 
d="M98 374h-76v63h76v38q0 38 12.5 69.5t35.5 53t55 33t69 11.5q28 0 52 -6t42 -18t31 -28.5t20 -36.5l-54 -38q-4 14 -11.5 25.5t-18 20t-25 13.5t-32.5 5q-21 0 -38.5 -6.5t-30 -20t-19 -33.5t-6.5 -47v-35h123v-63h-123v-374h-82v374z" />
    <glyph glyph-name="g" unicode="g" horiz-adv-x="534" 
d="M354 301q0 21 -7.5 38t-21 29.5t-31.5 19t-38 6.5t-38.5 -6.5t-32 -19t-21 -29.5t-7.5 -38t7.5 -38.5t21 -30t31.5 -19t39 -6.5t38.5 6.5t31 19t21 30t7.5 38.5zM509 -28q0 -39 -21 -68.5t-56.5 -48t-80 -27t-92.5 -8.5q-47 0 -88 7.5t-73 22.5t-50 38.5t-18 54.5
q0 17 7.5 32.5t20.5 27.5t31 20t38 10q-15 4 -27 11.5t-20.5 17.5t-12.5 22t-4 26t4.5 26.5t13 22.5t20.5 18.5t27 14.5q-12 9 -22 21t-16.5 26t-10 29.5t-3.5 32.5q0 33 13 60.5t37 47t57.5 30t72.5 10.5q19 0 36.5 -2.5t33.5 -7.5t30 -12t26 -16q9 16 22 30.5t30 24.5
t38 14.5t44 1.5l9 -73q-15 3 -31 2.5t-31.5 -5t-28.5 -11.5t-21 -17q6 -8 10 -17t7 -19t4.5 -20t1.5 -21q0 -34 -13 -61.5t-37.5 -46.5t-57.5 -29.5t-72 -10.5q-13 0 -25.5 1t-24 3.5t-22.5 6t-21 7.5q-7 -4 -12.5 -8t-9.5 -9.5t-6.5 -12.5t-2.5 -15t3.5 -15t10.5 -12
t17.5 -7.5t25.5 -2.5h166q35 0 63.5 -8.5t49 -24t31 -37t10.5 -47.5zM108 -46q0 -20 11.5 -35t32 -25t48 -14.5t59.5 -4.5q37 0 68 5t54 16t36 27.5t13 38.5q0 15 -7 26t-20 18t-30 10t-38 3h-137q-18 0 -34 -4.5t-29 -12.5t-20 -20.5t-7 -27.5z" />
    <glyph glyph-name="h" unicode="h" horiz-adv-x="558" 
d="M162 630v-282q8 21 22.5 39t35 32t46 22t53.5 8q42 0 73.5 -13t51.5 -37t29.5 -56.5t9.5 -71.5v-271h-83v260q0 27 -7 49t-21 38t-34.5 24t-47.5 8t-50.5 -10t-41 -29t-27 -45.5t-9.5 -58.5v-236h-83v630h83z" />
    <glyph glyph-name="i" unicode="i" horiz-adv-x="241" 
d="M73 538v92h95v-92h-95zM79 437h83v-437h-83v437z" />
    <glyph glyph-name="j" unicode="j" horiz-adv-x="241" 
d="M168 538h-95v92h95v-92zM162 437v-497q0 -29 -7 -51.5t-21.5 -37.5t-36.5 -23t-51 -8q-14 0 -27.5 2.5t-26 7t-24 10t-20.5 12.5l21 52q9 -6 17 -10t16 -7t17 -4.5t19 -1.5t17.5 3t13 9t8 15t2.5 21v508h83z" />
    <glyph glyph-name="k" unicode="k" horiz-adv-x="527" 
d="M162 153v-153h-83v630h83v-397l237 204h102l-205 -171l214 -266h-97l-176 217z" />
    <glyph glyph-name="l" unicode="l" horiz-adv-x="241" 
d="M79 630h83v-630h-83v630z" />
    <glyph glyph-name="m" unicode="m" horiz-adv-x="858" 
d="M461 343q7 21 21.5 40t36 34t48.5 23.5t58 8.5q40 0 70 -13t49.5 -37t29 -56.5t9.5 -71.5v-271h-83v260q0 27 -6.5 49t-20 38t-33 24t-45.5 8t-48.5 -10t-39 -29t-25.5 -45.5t-9 -58.5v-236h-83v260q0 27 -7 49t-20 38t-33 24t-45 8q-26 0 -48.5 -10t-39.5 -29t-26 -45.5
t-9 -58.5v-236h-83v437h83v-89q7 21 21.5 39t34.5 32t44.5 22t51.5 8q30 0 54 -7.5t42.5 -21.5t31 -33.5t19.5 -43.5z" />
    <glyph glyph-name="n" unicode="n" horiz-adv-x="558" 
d="M162 236v-236h-83v437h83v-89q8 21 22.5 39t35 32t46 22t53.5 8q42 0 73.5 -13t51.5 -37t29.5 -56.5t9.5 -71.5v-271h-83v260q0 27 -7 49t-21 38t-34.5 24t-47.5 8t-50.5 -10t-41 -29t-27 -45.5t-9.5 -58.5z" />
    <glyph glyph-name="o" unicode="o" horiz-adv-x="553" 
d="M507 218q0 -50 -17.5 -92t-49.5 -73t-74 -48t-90 -17t-90 17t-73.5 48t-49 73t-17.5 92t17.5 92.5t49 73.5t73.5 48t90 17t90 -17t74 -48t49.5 -73.5t17.5 -92.5zM132 218q0 -36 10 -66.5t29 -52.5t45.5 -33.5t59.5 -11.5t60 11.5t46 33.5t29 52.5t10 66.5q0 37 -10 67.5
t-29 52.5t-46 33.5t-60 11.5t-59.5 -11.5t-45.5 -33.5t-29 -52.5t-10 -67.5z" />
    <glyph glyph-name="p" unicode="p" horiz-adv-x="572" 
d="M159 228v-19q0 -35 10.5 -64t30 -50t44.5 -32t53 -11q33 0 60 11.5t45.5 33.5t28 53t9.5 68t-9.5 68t-28 53t-45.5 33.5t-60 11.5q-28 0 -53 -11t-44.5 -31.5t-30 -49.5t-10.5 -64zM162 94v-262h-83v605h83v-95q8 23 22.5 42t34 34t45 23t55.5 8q48 0 86.5 -17.5
t65.5 -49t41 -74t14 -90.5t-14 -90t-41 -73.5t-65.5 -49t-86.5 -17.5q-30 0 -55.5 8t-45 22.5t-34 33.5t-22.5 42z" />
    <glyph glyph-name="q" unicode="q" horiz-adv-x="572" 
d="M410 -168v262q-8 -23 -22.5 -42t-34 -33.5t-45 -22.5t-55.5 -8q-48 0 -86.5 17.5t-65.5 49t-41 73.5t-14 90t14 90.5t41 74t65.5 49t86.5 17.5q30 0 55.5 -8t45 -23t34 -34t22.5 -42v95h83v-605h-83zM413 209v19q0 35 -10.5 64t-30 49.5t-44.5 31.5t-53 11
q-33 0 -60 -11.5t-45.5 -33.5t-28 -53t-9.5 -68t9.5 -68t28 -53t45.5 -33.5t60 -11.5q28 0 53 11t44.5 32t30 50t10.5 64z" />
    <glyph glyph-name="r" unicode="r" horiz-adv-x="471" 
d="M286 376q-25 0 -48 -12t-40.5 -33t-27.5 -49.5t-10 -59.5v-222h-83v437h83v-105q8 23 20.5 43.5t31 37t42.5 26.5t53 10q31 0 55.5 -10.5t41 -30t25 -45.5t8.5 -56v-7t-0.5 -8t-1.5 -7.5t-2 -6.5l-71 -22q1 3 1.5 6.5t1 7.5l1 8t0.5 8q0 20 -4.5 36.5t-14.5 28.5
t-25 18.5t-36 6.5z" />
    <glyph glyph-name="s" unicode="s" horiz-adv-x="487" 
d="M40 88l48 55q11 -22 29 -39t39.5 -28.5t46 -17.5t49.5 -6q24 0 43.5 3.5t33 11.5t21 20t7.5 28q0 12 -4.5 21t-13.5 16t-21.5 12.5t-29.5 9.5l-98 23q-28 7 -50.5 16.5t-39.5 24t-26 35t-9 47.5q0 28 12.5 52t35.5 41.5t54 26.5t67 9q32 0 60.5 -6t52.5 -18t42.5 -28.5
t30.5 -37.5l-52 -46q-9 17 -23 30t-31.5 22.5t-37.5 14t-42 4.5q-19 0 -35.5 -4t-29 -11.5t-19.5 -18t-7 -23.5q0 -12 4 -21.5t12.5 -16.5t21 -12.5t30.5 -9.5l111 -27q25 -6 45.5 -15.5t36 -24t24 -34.5t8.5 -45q0 -30 -13.5 -55t-38 -42.5t-58 -26.5t-73.5 -9
q-34 0 -66.5 7t-61 20t-50.5 31.5t-35 41.5z" />
    <glyph glyph-name="t" unicode="t" horiz-adv-x="439" 
d="M23 437h91v121l82 25v-146h186v-63h-186v-230q0 -22 6 -38.5t16.5 -27t24 -15.5t28.5 -5q19 0 33.5 5t25.5 15t20.5 24t19.5 35l42 -58q-8 -18 -22 -34t-33 -29t-42.5 -20.5t-49.5 -7.5q-31 0 -58.5 9.5t-48 28t-32.5 47t-12 65.5v236h-91v63z" />
    <glyph glyph-name="u" unicode="u" horiz-adv-x="556" 
d="M394 200v237h83v-437h-83v89q-8 -21 -22.5 -39t-35 -32t-46 -22t-53.5 -8q-42 0 -73 13t-50.5 37t-29 56t-9.5 71v272h83v-260q0 -28 7 -50t20 -38t33.5 -24t46.5 -8q27 0 51 10.5t41.5 29.5t27 45.5t9.5 57.5z" />
    <glyph glyph-name="v" unicode="v" horiz-adv-x="503" 
d="M290 0h-77l-189 437h87l142 -339h4l141 339h82z" />
    <glyph glyph-name="w" unicode="w" horiz-adv-x="710" 
d="M392 437l108 -332h4l104 332h78l-141 -437h-80l-108 327h-4l-107 -327h-80l-142 437h82l105 -332h4l106 332h71z" />
    <glyph glyph-name="x" unicode="x" horiz-adv-x="505" 
d="M457 437l-161 -208l182 -229h-97l-133 170l-132 -170h-90l178 225l-164 212h96l117 -151l115 151h89z" />
    <glyph glyph-name="y" unicode="y" horiz-adv-x="498" 
d="M203 -38l17 39l-197 436h91l146 -337h4l129 337h81l-187 -466q-15 -36 -29.5 -62t-32.5 -46t-42 -31.5t-54 -11.5q-26 0 -46 7.5t-34.5 21.5t-23 32t-11.5 40l67 35q0 -17 3 -29.5t9.5 -21.5t16.5 -13.5t24 -4.5q12 0 21 4.5t17 14t15.5 23t15.5 33.5z" />
    <glyph glyph-name="z" unicode="z" horiz-adv-x="477" 
d="M60 437h360v-60l-267 -310h273v-67h-373v60l262 310h-255v67z" />
    <glyph glyph-name="braceleft" unicode="{" horiz-adv-x="348" 
d="M37 256v64h25q16 0 25 3.5t14 12t6.5 22t1.5 35.5v166q0 25 5 43.5t16 31.5t28.5 19.5t41.5 6.5h95v-63h-76q-8 0 -14 -2.5t-10 -7.5t-5.5 -11.5t-1.5 -15.5v-170q0 -22 -3.5 -39t-11.5 -29.5t-21.5 -21t-33.5 -12.5q20 -4 33.5 -12.5t21.5 -21t11.5 -30t3.5 -39.5v-169
q0 -9 1.5 -15.5t5.5 -11.5t10 -7.5t14 -2.5h76v-63h-95q-24 0 -41.5 6.5t-28.5 19.5t-16 31.5t-5 43.5v166q0 22 -1.5 35.5t-6.5 22t-14 12t-25 3.5h-25z" />
    <glyph glyph-name="bar" unicode="|" horiz-adv-x="243" 
d="M84 -83v742h75v-742h-75z" />
    <glyph glyph-name="braceright" unicode="}" horiz-adv-x="348" 
d="M311 320v-64h-25q-16 0 -25 -3.5t-14 -12t-6.5 -22t-1.5 -35.5v-166q0 -25 -5 -43.5t-16 -31.5t-28 -19.5t-41 -6.5h-96v63h76q9 0 15 2.5t9.5 7t5 11.5t1.5 16v169q0 22 3.5 39t11.5 30t21.5 21.5t33.5 12.5q-20 4 -33.5 12.5t-21.5 21t-11.5 29.5t-3.5 39v170
q0 9 -1.5 16t-5 11.5t-9.5 7t-15 2.5h-76v63h96q24 0 41 -6.5t28 -19.5t16 -31.5t5 -43.5v-166q0 -22 1.5 -35.5t6.5 -22t14 -12t25 -3.5h25z" />
    <glyph glyph-name="asciitilde" unicode="~" horiz-adv-x="412" 
d="M108 207h-51q0 28 5 50.5t15.5 39t26.5 25t37 8.5q19 0 34.5 -7.5t35.5 -23t31 -22t24 -6.5q10 0 17 3.5t11.5 10.5t6.5 17.5t3 24.5h51q0 -28 -5 -50.5t-15.5 -39t-27 -25t-37.5 -8.5q-18 0 -33.5 7.5t-35.5 23t-31 22t-24 6.5q-10 0 -17 -3.5t-11.5 -10.5t-6.5 -17.5
t-3 -24.5z" />
    <glyph glyph-name="uni00A0" unicode="&#xa0;" horiz-adv-x="180" 
 />
    <glyph glyph-name="exclamdown" unicode="&#xa1;" horiz-adv-x="231" 
d="M66 418v100h100v-100h-100zM160 -112h-89v192l25 253h40l24 -253v-192z" />
    <glyph glyph-name="cent" unicode="&#xa2;" horiz-adv-x="527" 
d="M484 119q-10 -25 -25.5 -47t-37 -39.5t-50 -29t-63.5 -14.5v-87h-55v87q-46 4 -84 22.5t-65.5 49t-42.5 70.5t-15 87q0 46 14.5 86t42 70.5t66 49t84.5 23.5v95h55v-94q32 -3 59 -13t48 -25.5t37 -35.5t26 -43l-57 -39q-7 17 -17.5 32t-25 26.5t-32.5 19t-38 10.5v-323
q22 3 41 11.5t34 21t26 28.5t17 35zM124 219q0 -34 9 -62t26 -49t41 -34t53 -17v323q-30 -5 -53.5 -18t-40.5 -33.5t-26 -48.5t-9 -61z" />
    <glyph glyph-name="sterling" unicode="&#xa3;" horiz-adv-x="606" 
d="M436 -12q-27 0 -51 7t-44.5 18.5t-37.5 24t-41 32.5q-9 -19 -21 -34t-28 -25.5t-35.5 -16.5t-43.5 -6q-23 0 -43.5 6.5t-36 19.5t-24 32t-8.5 43q0 22 8.5 40.5t23.5 32t36.5 21t46.5 7.5q10 0 19.5 -1t18.5 -3.5t18 -6t18 -7.5q0 17 -3 32.5t-7.5 29.5t-10 27t-12.5 27
h-110v56h82q-6 12 -10.5 24.5t-7.5 25.5t-5 27t-2 29q0 43 14 78t41 60.5t65.5 39.5t85.5 14q46 0 84 -12t65.5 -35t44 -57t20.5 -76l-79 -24q-1 33 -10.5 58.5t-27 42.5t-41.5 25.5t-54 8.5q-31 0 -54.5 -9.5t-39 -26.5t-23 -40t-7.5 -50q0 -13 2 -26.5t5 -26t7 -24.5
t10 -26h155v-56h-132q6 -15 10.5 -28t8 -27t5.5 -29t2 -30v-12t-0.5 -11.5l-1 -11t-1.5 -11.5q21 -16 36.5 -26.5t33.5 -19.5t38 -14.5t41 -5.5q23 0 38.5 8.5t25.5 24t14 37.5t4 50l72 -9q1 -43 -8 -77.5t-28 -58.5t-47 -36.5t-63 -12.5zM136 39q16 0 28 5.5t20.5 15
t14 23.5t8.5 31q-9 6 -17 10.5t-17 7.5t-18 5t-18 2q-13 0 -23.5 -3.5t-18 -9.5t-11 -15.5t-3.5 -21.5q0 -11 4 -20.5t11.5 -16t17.5 -10t22 -3.5z" />
    <glyph glyph-name="yen" unicode="&#xa5;" horiz-adv-x="615" 
d="M520 141h-171v-141h-83v141h-171v55h171v71l-3 4h-168v55h132l-199 304h95l189 -294l183 294h92l-199 -304h132v-55h-168l-3 -4v-71h171v-55z" />
    <glyph glyph-name="section" unicode="&#xa7;" horiz-adv-x="470" 
d="M303 166l2 -1q13 5 24 11.5t18.5 15t12 20t4.5 25.5q0 15 -5 27.5t-14.5 22.5t-23 18.5t-32.5 17.5l-123 57l-3 1q-13 -5 -23.5 -11t-18 -14.5t-12 -20t-4.5 -24.5q0 -16 5 -28.5t14.5 -22.5t23 -18.5t32.5 -17.5zM236 -96q-32 0 -61 6.5t-53.5 18.5t-43 29t-30.5 38
l55 45q9 -17 22.5 -30.5t30.5 -23t36 -14.5t40 -5t39 5t30.5 14.5t19.5 22t7 27.5q0 10 -2.5 18.5t-8 16.5t-15.5 15t-25 14l-128 57q-29 13 -50 27t-36.5 31.5t-23.5 40t-8 50.5q0 17 5.5 33.5t15.5 31t23 26.5t29 21q-9 8 -16.5 17t-12.5 20t-7.5 23.5t-2.5 27.5
q0 29 12.5 54t35.5 43t54 28t67 10q32 0 61 -6.5t53.5 -18.5t43 -29t30.5 -38l-55 -45q-9 17 -22.5 30.5t-30.5 23t-36.5 14.5t-40.5 5t-39 -5t-30.5 -14.5t-19.5 -22t-7 -27.5q0 -11 2.5 -19.5t8 -16t15.5 -14t26 -13.5l127 -58q29 -13 50.5 -27t36.5 -31.5t23 -40t8 -50.5
q0 -17 -5.5 -33.5t-15 -31t-22.5 -26t-29 -20.5q9 -8 16 -17.5t12 -20t7.5 -23.5t2.5 -27q0 -30 -12.5 -55t-35.5 -43t-54 -28t-66 -10z" />
    <glyph glyph-name="dieresis" unicode="&#xa8;" horiz-adv-x="520" 
d="M298 532v91h80v-91h-80zM142 532v91h79v-91h-79z" />
    <glyph glyph-name="copyright" unicode="&#xa9;" horiz-adv-x="744" 
d="M45 315q0 70 25.5 130t70.5 104.5t104.5 68.5t126.5 24t126.5 -24t104.5 -68.5t70.5 -104.5t25.5 -130t-25.5 -130t-70.5 -104.5t-104.5 -68.5t-126.5 -24t-126.5 24t-104.5 68.5t-70.5 104.5t-25.5 130zM92 315q0 -60 21.5 -111.5t60 -89.5t90 -59t108.5 -21t108 21
t90 59t60.5 89.5t21.5 111.5t-21.5 111.5t-60.5 89.5t-90 59t-108 21t-108.5 -21t-90 -59t-60 -89.5t-21.5 -111.5zM182 314q0 43 14.5 80t40.5 63.5t60.5 41t74.5 14.5q34 0 62 -8t49.5 -23t36.5 -36.5t23 -47.5l-58 -26q-5 18 -14.5 33t-23.5 25.5t-32.5 16.5t-40.5 6
q-26 0 -48 -9.5t-38 -28t-24.5 -44t-8.5 -57.5q0 -31 8.5 -56.5t24.5 -43.5t38 -27.5t48 -9.5q24 0 43.5 6.5t33.5 19t23 29t13 36.5l59 -28q-8 -28 -23 -51t-36.5 -39.5t-50.5 -25.5t-64 -9q-40 0 -74.5 14.5t-60.5 41t-40.5 63.5t-14.5 80z" />
    <glyph glyph-name="ordfeminine" unicode="&#xaa;" horiz-adv-x="399" 
d="M116 530l-62 22q7 19 20 35.5t31.5 28.5t42.5 18.5t51 6.5t49 -5.5t37 -17.5t23 -30t8 -43v-138q0 -7 1.5 -12.5t4.5 -9.5t7.5 -5.5t10.5 -1.5q4 0 9 1t9 2.5t8 3.5t7 5l5 -48q-7 -4 -14 -7t-13.5 -5t-13.5 -3t-14 -1q-15 0 -28 5t-22.5 13.5t-15.5 20.5t-7 25
q-6 -14 -16 -25.5t-24.5 -20t-32 -13t-37.5 -4.5q-21 0 -39 6t-31 17t-20 27t-7 36t8 35.5t23.5 26t35.5 18t47 13.5l92 23v19q0 8 -3 15t-9.5 12.5t-16.5 8.5t-23 3q-17 0 -31 -4.5t-24.5 -12t-17 -18t-8.5 -22.5zM249 455v34l-72 -18q-16 -4 -27 -8t-19 -10t-12.5 -14
t-4.5 -20q0 -9 3 -16.5t9 -13t14.5 -8.5t19.5 -3q17 0 33.5 6t29 16.5t19.5 24.5t7 30zM61 237h284v-53h-284v53z" />
    <glyph glyph-name="guillemotleft" unicode="&#xab;" horiz-adv-x="465" 
d="M56 184v69l161 139v-86l-100 -88l100 -87v-86zM248 184v69l161 139v-86l-100 -88l100 -87v-86z" />
    <glyph glyph-name="registered" unicode="&#xae;" horiz-adv-x="509" 
d="M469 426q0 -46 -16.5 -85.5t-46.5 -68.5t-69 -45t-83 -16t-83 16t-68.5 45t-46 68.5t-16.5 85.5t16.5 86t46 69t68.5 45t83 16t83 -16t69 -45t46.5 -69t16.5 -86zM429 426q0 39 -13.5 72t-37.5 57.5t-56 37.5t-68 13t-68 -13t-56 -37.5t-37.5 -57.5t-13.5 -72
q0 -38 13.5 -71t37.5 -57t56 -37t68 -13t68 13t56 37t37.5 57t13.5 71zM214 438h46q12 0 20 1.5t13.5 5.5t8.5 10t3 15q0 8 -3 14t-8.5 10t-14 6t-19.5 2h-46v-64zM363 316h-53q-2 3 -4 7t-3.5 9t-2.5 11.5t-3 16.5q-1 10 -3.5 17.5t-6.5 12t-10.5 7t-15.5 2.5h-47v-83h-49
v225h105q21 0 37 -4.5t26.5 -13.5t16 -21.5t5.5 -28.5q0 -12 -5 -21.5t-14 -17t-20 -11.5t-23 -5q11 -2 19.5 -5.5t15 -9.5t11 -13.5t5.5 -17.5q2 -12 4 -21.5t4.5 -16t5 -10.5t5.5 -8z" />
    <glyph glyph-name="macron" unicode="&#xaf;" horiz-adv-x="520" 
d="M131 531v59h261v-59h-261z" />
    <glyph glyph-name="degree" unicode="&#xb0;" horiz-adv-x="358" 
d="M40 506q0 28 10.5 53t29.5 43.5t44.5 29t54.5 10.5t54.5 -10.5t44.5 -29t29.5 -43.5t10.5 -53t-10.5 -53.5t-29.5 -44t-44.5 -29t-54.5 -10.5t-54.5 10.5t-44.5 29t-29.5 44t-10.5 53.5zM101 506q0 -17 5.5 -31.5t16 -26t25 -17.5t31.5 -6q18 0 32.5 6t24.5 17.5t15.5 26
t5.5 31.5q0 16 -5.5 31t-15.5 26t-24.5 17t-32.5 6q-17 0 -31.5 -6t-25 -17t-16 -26t-5.5 -31z" />
    <glyph glyph-name="plusminus" unicode="&#xb1;" horiz-adv-x="638" 
d="M575 350h-222v-187h-69v187h-221v69h221v187h69v-187h222v-69zM63 39v70h512v-70h-512z" />
    <glyph glyph-name="twosuperior" unicode="&#xb2;" horiz-adv-x="391" 
d="M158 298h189v-59h-296v45l111 92q30 25 46.5 40t29.5 30.5t20 32t7 34.5q0 15 -4.5 27t-13.5 21t-21.5 14t-29.5 5q-18 0 -32 -5.5t-23.5 -16t-14.5 -25.5t-5 -33q0 -5 0.5 -9.5l1 -9t1.5 -8.5t3 -8l-69 3q-1 5 -2 9.5t-1.5 9t-1 9.5t-0.5 9q0 30 10 55t29 42.5t45.5 27
t58.5 9.5q34 0 60.5 -9.5t44.5 -26t27 -38.5t9 -48q0 -25 -9 -47.5t-24.5 -42.5t-34.5 -37t-45 -38z" />
    <glyph glyph-name="threesuperior" unicode="&#xb3;" horiz-adv-x="395" 
d="M118 501l-67 15q3 27 15 49.5t31 39t45 25.5t57 9q33 0 59 -8t44 -23t27 -35.5t9 -45.5q0 -18 -7 -33.5t-19 -27.5t-26.5 -19.5t-30.5 -9.5q19 -2 35.5 -9.5t28.5 -20t19 -29t7 -34.5q0 -25 -10 -46t-29.5 -35.5t-46.5 -22.5t-60 -8t-60.5 8t-48.5 23.5t-33.5 37.5
t-15.5 50l67 17q1 -19 8.5 -34t19.5 -25t28 -15.5t35 -5.5q16 0 30 4t24 11.5t15.5 19t5.5 26.5t-6 26t-16.5 18.5t-25 11.5t-30.5 4q-5 0 -10 -0.5t-9 -0.5t-9 -1t-7 -1v58q1 0 6 -1t9 -1t9 -0.5t11 -0.5q15 0 28 3t23 10t16 18.5t6 27.5q0 14 -4.5 25.5t-14 20t-23 13
t-30.5 4.5t-31.5 -5.5t-25 -16.5t-16 -26t-6.5 -34z" />
    <glyph glyph-name="acute" unicode="&#xb4;" horiz-adv-x="520" 
d="M238 514h-56l60 152h95z" />
    <glyph glyph-name="paragraph" unicode="&#xb6;" horiz-adv-x="569" 
d="M258 -86v360q-53 0 -95 12t-70.5 35.5t-43.5 56.5t-15 74t15 74t43.5 56.5t70.5 35.5t95 12h227v-716h-66v652h-97v-652h-64z" />
    <glyph glyph-name="periodcentered" unicode="&#xb7;" horiz-adv-x="240" 
d="M67 205v106h106v-106h-106z" />
    <glyph glyph-name="cedilla" unicode="&#xb8;" horiz-adv-x="592" 
d="M404 -125q0 -21 -8.5 -37t-24 -26t-34.5 -15t-41 -5q-18 0 -35 3.5t-31.5 10t-26 14t-19.5 15.5l17 36q8 -8 18 -14.5t22 -11.5t25 -7.5t27 -2.5q11 0 20.5 2.5t16.5 7t10.5 11.5t3.5 15q0 14 -8.5 22.5t-22 11.5t-29 1t-27.5 -8l-23 14l61 99h40l-43 -70q19 4 38.5 2
t36.5 -10.5t27 -23t10 -34.5z" />
    <glyph glyph-name="onesuperior" unicode="&#xb9;" horiz-adv-x="297" 
d="M214 239h-70v284h-102v51h28q24 0 40 3t26.5 10t16.5 18t11 28h50v-394z" />
    <glyph glyph-name="ordmasculine" unicode="&#xba;" horiz-adv-x="413" 
d="M368 484q0 -35 -12.5 -64t-34.5 -50t-51.5 -32.5t-63.5 -11.5q-33 0 -62.5 11.5t-51.5 32.5t-34.5 50t-12.5 64q0 34 12.5 63t34.5 50.5t51.5 33t62.5 11.5q34 0 63.5 -11.5t51.5 -33t34.5 -50.5t12.5 -63zM118 484q0 -23 6 -42.5t17.5 -33t28 -21t36.5 -7.5t36.5 7.5
t28.5 21t18 33t6 42.5t-6 42t-18 32.5t-28.5 21t-36.5 7.5t-36.5 -7.5t-28 -21t-17.5 -32.5t-6 -42zM348 237v-53h-283v53h283z" />
    <glyph glyph-name="guillemotright" unicode="&#xbb;" horiz-adv-x="465" 
d="M217 253v-69l-161 -139v86l100 87l-100 88v86zM409 253v-69l-161 -139v86l100 87l-100 88v86z" />
    <glyph glyph-name="onequarter" unicode="&#xbc;" horiz-adv-x="861" 
d="M752 392v-239h67v-55h-67v-98h-65v98h-209v64l190 230h84zM687 334l-149 -181h149v181zM635 630l-406 -630h-69l407 630h68zM214 239h-70v284h-102v51h28q24 0 40 3t26.5 10t16.5 18t11 28h50v-394z" />
    <glyph glyph-name="onehalf" unicode="&#xbd;" horiz-adv-x="863" 
d="M643 59h188v-59h-295v45l111 92q30 25 46.5 40t29.5 30.5t20 32t7 34.5q0 15 -4.5 27.5t-13.5 21t-21.5 13.5t-29.5 5q-18 0 -32 -5.5t-23.5 -16t-14.5 -25t-5 -33.5q0 -5 0.5 -9.5l1 -9t1.5 -8.5t3 -8l-68 2q-2 5 -3 9.5t-1.5 9t-1 9.5t-0.5 9q0 30 10 55t29 43
t45.5 27.5t58.5 9.5q34 0 60.5 -9.5t44.5 -26t27 -38.5t9 -48q0 -25 -9 -47.5t-24.5 -42.5t-34.5 -37t-45 -38zM214 239h-70v284h-102v51h28q24 0 40 3t26.5 10t16.5 18t11 28h50v-394zM635 630l-406 -630h-69l407 630h68z" />
    <glyph glyph-name="threequarters" unicode="&#xbe;" horiz-adv-x="934" 
d="M826 392v-239h67v-55h-67v-98h-65v98h-209v64l190 230h84zM761 334l-149 -181h149v181zM118 501l-67 15q3 27 15 49.5t31 39t45 25.5t57 9q33 0 59 -8t44 -23t27 -35.5t9 -45.5q0 -18 -7 -33.5t-19 -27.5t-26.5 -19.5t-30.5 -9.5q19 -2 35.5 -9.5t28.5 -20t19 -29
t7 -34.5q0 -25 -10 -46t-29.5 -35.5t-46.5 -22.5t-60 -8t-60.5 8t-48.5 23.5t-33.5 37.5t-15.5 50l67 17q1 -19 8.5 -34t19.5 -25t28 -15.5t35 -5.5q16 0 30 4t24 11.5t15.5 19t5.5 26.5t-6 26t-16.5 18.5t-25 11.5t-30.5 4q-5 0 -10 -0.5t-9 -0.5t-9 -1t-7 -1v58q1 0 6 -1
t9 -1t9 -0.5t11 -0.5q15 0 28 3t23 10t16 18.5t6 27.5q0 14 -4.5 25.5t-14 20t-23 13t-30.5 4.5t-31.5 -5.5t-25 -16.5t-16 -26t-6.5 -34zM719 630l-406 -630h-69l407 630h68z" />
    <glyph glyph-name="questiondown" unicode="&#xbf;" horiz-adv-x="513" 
d="M316 518v-98h-100v98h100zM224 340h79q0 -22 -4 -39.5t-13 -33t-23 -30.5t-35 -31q-55 -44 -68.5 -59t-21.5 -35.5t-8 -46.5q0 -25 7.5 -47t23 -38t38.5 -25t53 -9q33 0 58.5 10t42.5 29t26 46.5t9 62.5v10t-0.5 10.5t-1.5 10.5l-2 10l86 -5q1 -6 1.5 -11t1 -10.5
t0.5 -10.5v-10q0 -48 -15.5 -87t-44.5 -67t-70 -43t-91 -15q-53 0 -93.5 14.5t-66.5 40.5t-39 59.5t-13 72.5q0 31 10 57t27.5 47.5t37.5 38.5t57 46q15 12 24.5 21.5t15.5 19.5t9 21t3 26z" />
    <glyph glyph-name="Agrave" unicode="&#xc0;" horiz-adv-x="664" 
d="M324 537l-109 -283h224l-111 283h-4zM539 0l-72 184h-278l-71 -184h-87l249 630h98l255 -630h-94zM365 704h-58l-97 126h101z" />
    <glyph glyph-name="Aacute" unicode="&#xc1;" horiz-adv-x="664" 
d="M324 537l-109 -283h224l-111 283h-4zM539 0l-72 184h-278l-71 -184h-87l249 630h98l255 -630h-94zM353 704h-58l54 126h101z" />
    <glyph glyph-name="Acircumflex" unicode="&#xc2;" horiz-adv-x="664" 
d="M324 537l-109 -283h224l-111 283h-4zM539 0l-72 184h-278l-71 -184h-87l249 630h98l255 -630h-94zM280 830h96l82 -126h-60l-70 76l-70 -76h-61z" />
    <glyph glyph-name="Atilde" unicode="&#xc3;" horiz-adv-x="664" 
d="M324 537l-109 -283h224l-111 283h-4zM539 0l-72 184h-278l-71 -184h-87l249 630h98l255 -630h-94zM229 703h-52q0 27 5.5 49t16 37.5t26.5 24t37 8.5q18 0 34 -7.5t37 -23t32.5 -22t23.5 -6.5q10 0 17 3.5t11 10.5t6 17.5t3 24.5h52q0 -27 -5.5 -49t-16 -38t-26.5 -24
t-37 -8q-18 0 -34 7.5t-36.5 23t-32 22t-24.5 6.5q-10 0 -17 -3.5t-11 -11t-6 -17.5t-3 -24z" />
    <glyph glyph-name="Adieresis" unicode="&#xc4;" horiz-adv-x="664" 
d="M324 537l-109 -283h224l-111 283h-4zM539 0l-72 184h-278l-71 -184h-87l249 630h98l255 -630h-94zM210 708v91h79v-91h-79zM366 708v91h80v-91h-80z" />
    <glyph glyph-name="Aring" unicode="&#xc5;" horiz-adv-x="664" 
d="M324 537l-109 -283h224l-111 283h-4zM539 0l-72 184h-278l-71 -184h-87l249 630h98l255 -630h-94zM229 778q0 20 7 37t20 29.5t31 19.5t40 7q21 0 39.5 -7t31.5 -19.5t20 -29.5t7 -37t-7 -37.5t-20 -30t-31.5 -19.5t-39.5 -7q-22 0 -40 7t-31 19.5t-20 30t-7 37.5z
M277 778q0 -11 3 -20.5t9.5 -16.5t16 -10.5t21.5 -3.5t21.5 3.5t16 10.5t9.5 16.5t3 20.5t-3 20t-9.5 16t-16 10.5t-21.5 3.5t-21.5 -3.5t-16 -10.5t-9.5 -16t-3 -20z" />
    <glyph glyph-name="AE" unicode="&#xc6;" horiz-adv-x="1033" 
d="M492 565l-203 -311h203v311zM492 0v184h-248l-120 -184h-93l415 630h519v-74h-388v-192h295v-75h-295v-215h397v-74h-482z" />
    <glyph glyph-name="Ccedilla" unicode="&#xc7;" horiz-adv-x="691" 
d="M456 -125q0 -21 -8.5 -37t-24 -26t-34.5 -15t-41 -5q-18 0 -35 3.5t-31.5 10t-26 14t-19.5 15.5l17 36q8 -8 18 -14.5t22 -11.5t25 -7.5t27 -2.5q11 0 20.5 2.5t16.5 7t10.5 11.5t3.5 15q0 14 -8.5 22.5t-22 11.5t-29 1t-27.5 -8l-23 14l47 78q-47 4 -89 21
q-57 24 -100 68t-67 104.5t-24 131.5t24 131.5t67 104.5t101 67.5t124 23.5q49 0 91 -11.5t76 -33t59 -52.5t40 -69l-73 -48q-10 32 -27 57.5t-41.5 43.5t-55.5 28t-69 10q-49 0 -90.5 -17.5t-71.5 -50.5t-46.5 -80t-16.5 -104t16.5 -104t46.5 -80t70.5 -50.5t88.5 -17.5
q42 0 76 10.5t59 31t41.5 49.5t25.5 67l78 -42q-14 -44 -38.5 -79t-60 -60t-81.5 -39q-42 -12 -93 -13l-29 -47q19 4 38.5 2t36.5 -10.5t27 -23t10 -34.5z" />
    <glyph glyph-name="Egrave" unicode="&#xc8;" horiz-adv-x="625" 
d="M355 704h-58l-97 126h101zM566 74v-74h-482v630h473v-74h-387v-192h294v-75h-294v-215h396z" />
    <glyph glyph-name="Eacute" unicode="&#xc9;" horiz-adv-x="625" 
d="M343 704h-58l54 126h101zM566 74v-74h-482v630h473v-74h-387v-192h294v-75h-294v-215h396z" />
    <glyph glyph-name="Ecircumflex" unicode="&#xca;" horiz-adv-x="625" 
d="M566 74v-74h-482v630h473v-74h-387v-192h294v-75h-294v-215h396zM269 830h96l82 -126h-60l-70 76l-70 -76h-61z" />
    <glyph glyph-name="Edieresis" unicode="&#xcb;" horiz-adv-x="625" 
d="M199 708v91h79v-91h-79zM355 708v91h80v-91h-80zM566 74v-74h-482v630h473v-74h-387v-192h294v-75h-294v-215h396z" />
    <glyph glyph-name="Igrave" unicode="&#xcc;" horiz-adv-x="256" 
d="M84 630h88v-630h-88v630zM165 704h-58l-97 126h101z" />
    <glyph glyph-name="Iacute" unicode="&#xcd;" horiz-adv-x="256" 
d="M84 630h88v-630h-88v630zM152 704h-58l54 126h101z" />
    <glyph glyph-name="Icircumflex" unicode="&#xce;" horiz-adv-x="256" 
d="M84 630h88v-630h-88v630zM79 830h96l82 -126h-60l-70 76l-70 -76h-61z" />
    <glyph glyph-name="Idieresis" unicode="&#xcf;" horiz-adv-x="256" 
d="M84 630h88v-630h-88v630zM9 708v91h79v-91h-79zM165 708v91h80v-91h-80z" />
    <glyph glyph-name="Eth" unicode="&#xd0;" horiz-adv-x="725" 
d="M334 0h-234v294h-76v70h76v266h234q77 0 139.5 -21.5t107 -62.5t68 -99.5t23.5 -131.5t-23.5 -131.5t-68 -99.5t-107 -62.5t-139.5 -21.5zM188 72h136q62 0 110 16.5t81 47.5t49.5 76.5t16.5 102.5t-16.5 102.5t-49.5 76.5t-81 47.5t-110 16.5h-136v-194h153v-70h-153
v-222z" />
    <glyph glyph-name="Ntilde" unicode="&#xd1;" horiz-adv-x="698" 
d="M252 703h-52q0 27 5.5 49t16 37.5t26.5 24t37 8.5q18 0 34 -7.5t37 -23t32.5 -22t23.5 -6.5q10 0 17 3.5t11 10.5t6 17.5t3 24.5h52q0 -27 -5.5 -49t-16 -38t-26.5 -24t-37 -8q-18 0 -34 7.5t-36.5 23t-32 22t-24.5 6.5q-10 0 -17 -3.5t-11 -11t-6 -17.5t-3 -24zM181 630
l352 -488v488h81v-630h-73l-376 516v-516h-81v630h97z" />
    <glyph glyph-name="Ograve" unicode="&#xd2;" horiz-adv-x="745" 
d="M410 704h-58l-97 126h101zM692 315q0 -72 -23.5 -132t-67 -104t-102.5 -67.5t-127 -23.5t-126.5 23.5t-102 67.5t-67 104t-23.5 132t23.5 132t67 104t102 67.5t126.5 23.5t127 -23.5t102.5 -67.5t67 -104t23.5 -132zM601 315q0 57 -16.5 103.5t-47 79.5t-72.5 50.5
t-93 17.5t-93 -17.5t-72 -50.5t-46.5 -79.5t-16.5 -103.5t16.5 -103.5t46.5 -79.5t72 -50.5t93 -17.5t93 17.5t72.5 50.5t47 79.5t16.5 103.5z" />
    <glyph glyph-name="Oacute" unicode="&#xd3;" horiz-adv-x="745" 
d="M398 704h-58l54 126h101zM692 315q0 -72 -23.5 -132t-67 -104t-102.5 -67.5t-127 -23.5t-126.5 23.5t-102 67.5t-67 104t-23.5 132t23.5 132t67 104t102 67.5t126.5 23.5t127 -23.5t102.5 -67.5t67 -104t23.5 -132zM601 315q0 57 -16.5 103.5t-47 79.5t-72.5 50.5
t-93 17.5t-93 -17.5t-72 -50.5t-46.5 -79.5t-16.5 -103.5t16.5 -103.5t46.5 -79.5t72 -50.5t93 -17.5t93 17.5t72.5 50.5t47 79.5t16.5 103.5z" />
    <glyph glyph-name="Ocircumflex" unicode="&#xd4;" horiz-adv-x="745" 
d="M692 315q0 -72 -23.5 -132t-67 -104t-102.5 -67.5t-127 -23.5t-126.5 23.5t-102 67.5t-67 104t-23.5 132t23.5 132t67 104t102 67.5t126.5 23.5t127 -23.5t102.5 -67.5t67 -104t23.5 -132zM601 315q0 57 -16.5 103.5t-47 79.5t-72.5 50.5t-93 17.5t-93 -17.5t-72 -50.5
t-46.5 -79.5t-16.5 -103.5t16.5 -103.5t46.5 -79.5t72 -50.5t93 -17.5t93 17.5t72.5 50.5t47 79.5t16.5 103.5zM325 830h96l82 -126h-60l-70 76l-70 -76h-61z" />
    <glyph glyph-name="Otilde" unicode="&#xd5;" horiz-adv-x="745" 
d="M274 703h-52q0 27 5.5 49t16 37.5t26.5 24t37 8.5q18 0 34 -7.5t37 -23t32.5 -22t23.5 -6.5q10 0 17 3.5t11 10.5t6 17.5t3 24.5h52q0 -27 -5.5 -49t-16 -38t-26.5 -24t-37 -8q-18 0 -34 7.5t-36.5 23t-32 22t-24.5 6.5q-10 0 -17 -3.5t-11 -11t-6 -17.5t-3 -24zM692 315
q0 -72 -23.5 -132t-67 -104t-102.5 -67.5t-127 -23.5t-126.5 23.5t-102 67.5t-67 104t-23.5 132t23.5 132t67 104t102 67.5t126.5 23.5t127 -23.5t102.5 -67.5t67 -104t23.5 -132zM601 315q0 57 -16.5 103.5t-47 79.5t-72.5 50.5t-93 17.5t-93 -17.5t-72 -50.5t-46.5 -79.5
t-16.5 -103.5t16.5 -103.5t46.5 -79.5t72 -50.5t93 -17.5t93 17.5t72.5 50.5t47 79.5t16.5 103.5z" />
    <glyph glyph-name="Odieresis" unicode="&#xd6;" horiz-adv-x="745" 
d="M255 708v91h79v-91h-79zM411 708v91h80v-91h-80zM692 315q0 -72 -23.5 -132t-67 -104t-102.5 -67.5t-127 -23.5t-126.5 23.5t-102 67.5t-67 104t-23.5 132t23.5 132t67 104t102 67.5t126.5 23.5t127 -23.5t102.5 -67.5t67 -104t23.5 -132zM601 315q0 57 -16.5 103.5
t-47 79.5t-72.5 50.5t-93 17.5t-93 -17.5t-72 -50.5t-46.5 -79.5t-16.5 -103.5t16.5 -103.5t46.5 -79.5t72 -50.5t93 -17.5t93 17.5t72.5 50.5t47 79.5t16.5 103.5z" />
    <glyph glyph-name="multiply" unicode="&#xd7;" horiz-adv-x="548" 
d="M226 308l-162 162l49 49l160 -164l160 164l49 -49l-161 -162l161 -161l-49 -49l-160 163l-160 -163l-49 49z" />
    <glyph glyph-name="Oslash" unicode="&#xd8;" horiz-adv-x="745" 
d="M144 315q0 -25 3 -47.5t9 -43.5t15 -39t21 -34l329 363q-15 13 -31.5 22.5t-35.5 16t-39.5 10t-42.5 3.5q-51 0 -93 -17.5t-72 -50.5t-46.5 -79.5t-16.5 -103.5zM372 64q51 0 93 17.5t72.5 50.5t47 79.5t16.5 103.5q0 23 -2.5 44.5t-8 41t-13.5 37t-18 32.5l-327 -361
q14 -11 30 -19.5t33.5 -14t36.5 -8.5t40 -3zM372 -12q-28 0 -54.5 4t-51 12t-47 19.5t-42.5 26.5l-68 -76l-46 35l72 79q-20 21 -35 46.5t-25.5 54t-16 60.5t-5.5 66q0 72 23.5 132t67 104t102 67.5t126.5 23.5q29 0 57 -4.5t53.5 -13t49 -21t43.5 -29.5l61 67l46 -35
l-65 -72q18 -21 32 -45.5t23.5 -52t14.5 -58t5 -63.5q0 -72 -23.5 -132t-67 -104t-102.5 -67.5t-127 -23.5z" />
    <glyph glyph-name="Ugrave" unicode="&#xd9;" horiz-adv-x="682" 
d="M379 704h-58l-97 126h101zM341 -12q-54 0 -102 17t-85 50.5t-58 85t-21 118.5v371h88v-365q0 -49 12 -86.5t35.5 -63t56.5 -38.5t74 -13t74.5 13t56.5 38.5t35.5 63t12.5 86.5v365h86v-371q0 -67 -21 -118.5t-57.5 -85t-84.5 -50.5t-102 -17z" />
    <glyph glyph-name="Uacute" unicode="&#xda;" horiz-adv-x="682" 
d="M366 704h-58l54 126h101zM341 -12q-54 0 -102 17t-85 50.5t-58 85t-21 118.5v371h88v-365q0 -49 12 -86.5t35.5 -63t56.5 -38.5t74 -13t74.5 13t56.5 38.5t35.5 63t12.5 86.5v365h86v-371q0 -67 -21 -118.5t-57.5 -85t-84.5 -50.5t-102 -17z" />
    <glyph glyph-name="Ucircumflex" unicode="&#xdb;" horiz-adv-x="682" 
d="M341 -12q-54 0 -102 17t-85 50.5t-58 85t-21 118.5v371h88v-365q0 -49 12 -86.5t35.5 -63t56.5 -38.5t74 -13t74.5 13t56.5 38.5t35.5 63t12.5 86.5v365h86v-371q0 -67 -21 -118.5t-57.5 -85t-84.5 -50.5t-102 -17zM293 830h96l82 -126h-60l-70 76l-70 -76h-61z" />
    <glyph glyph-name="Udieresis" unicode="&#xdc;" horiz-adv-x="682" 
d="M223 708v91h79v-91h-79zM379 708v91h80v-91h-80zM341 -12q-54 0 -102 17t-85 50.5t-58 85t-21 118.5v371h88v-365q0 -49 12 -86.5t35.5 -63t56.5 -38.5t74 -13t74.5 13t56.5 38.5t35.5 63t12.5 86.5v365h86v-371q0 -67 -21 -118.5t-57.5 -85t-84.5 -50.5t-102 -17z" />
    <glyph glyph-name="Yacute" unicode="&#xdd;" horiz-adv-x="625" 
d="M316 347l182 283h95l-238 -363v-267h-85v267l-238 363h102zM338 704h-58l54 126h101z" />
    <glyph glyph-name="Thorn" unicode="&#xde;" horiz-adv-x="645" 
d="M358 132h-187v-132h-87v630h87v-120h187q58 0 103.5 -13t77 -37.5t48 -59.5t16.5 -79t-16.5 -79t-48 -59.5t-77 -37.5t-103.5 -13zM171 205h185q41 0 71 7t50 21.5t30 36.5t10 51t-10 51t-30 36.5t-50 21.5t-71 7h-185v-232z" />
    <glyph glyph-name="germandbls" unicode="&#xdf;" horiz-adv-x="557" 
d="M472 486q0 -28 -8 -50.5t-22.5 -39.5t-33.5 -27.5t-40 -15.5q32 -5 58.5 -19.5t45.5 -36.5t29 -50.5t10 -61.5q0 -46 -15 -81.5t-42 -60t-62.5 -36.5t-74.5 -12q-11 0 -21.5 1t-19.5 3t-16.5 4t-16.5 5v64q8 -2 16 -4.5t16 -4t16 -2.5t14 -1q26 0 48.5 8t39 24t26 40.5
t9.5 56.5q0 29 -10 52.5t-28 40.5t-43.5 25.5t-56.5 8.5h-13.5h-8.5t-9 -0.5t-11 -0.5v67q4 -1 8.5 -1.5t9 -0.5h9h12.5q26 0 45.5 7t33 20t20 32t6.5 44q0 21 -6.5 38.5t-20 31t-33 20.5t-45.5 7q-28 0 -51 -9.5t-39.5 -28t-25.5 -44.5t-9 -59v-439h-83v444q0 42 15 78.5
t42.5 63.5t66.5 41.5t85 14.5q42 0 76.5 -11t58.5 -31t36.5 -49t12.5 -65z" />
    <glyph glyph-name="agrave" unicode="&#xe0;" horiz-adv-x="525" 
d="M134 301l-74 27q12 26 31 48t44.5 38.5t58 25.5t70.5 9t67.5 -8t50 -24.5t31.5 -41t11 -57.5v-215q0 -12 3 -21t8 -14.5t12 -8.5t16 -3q7 0 13 1t12 3.5t11.5 5t11.5 6.5l5 -62q-9 -6 -17.5 -9.5t-17 -6t-16.5 -3.5t-18 -1q-21 0 -39 7.5t-31.5 20.5t-21.5 31t-9 38
q-8 -21 -23 -38.5t-36.5 -30.5t-48 -20t-55.5 -7q-31 0 -56.5 9t-44 25.5t-28.5 40t-10 52.5t12 51t34.5 38t53 27.5t71.5 21.5l130 30v35q0 12 -4 23t-14 20t-26 14t-39 5q-25 0 -46.5 -6.5t-37.5 -18t-27 -26t-17 -31.5zM345 176v57l-110 -27q-27 -7 -46.5 -13.5t-33 -16
t-21 -23t-7.5 -31.5q0 -14 5 -26.5t14.5 -22t23.5 -14.5t33 -5q28 0 54 10t46 27t31 39t11 46zM299 514h-56l-99 152h95z" />
    <glyph glyph-name="aacute" unicode="&#xe1;" horiz-adv-x="525" 
d="M134 301l-74 27q12 26 31 48t44.5 38.5t58 25.5t70.5 9t67.5 -8t50 -24.5t31.5 -41t11 -57.5v-215q0 -12 3 -21t8 -14.5t12 -8.5t16 -3q7 0 13 1t12 3.5t11.5 5t11.5 6.5l5 -62q-9 -6 -17.5 -9.5t-17 -6t-16.5 -3.5t-18 -1q-21 0 -39 7.5t-31.5 20.5t-21.5 31t-9 38
q-8 -21 -23 -38.5t-36.5 -30.5t-48 -20t-55.5 -7q-31 0 -56.5 9t-44 25.5t-28.5 40t-10 52.5t12 51t34.5 38t53 27.5t71.5 21.5l130 30v35q0 12 -4 23t-14 20t-26 14t-39 5q-25 0 -46.5 -6.5t-37.5 -18t-27 -26t-17 -31.5zM345 176v57l-110 -27q-27 -7 -46.5 -13.5t-33 -16
t-21 -23t-7.5 -31.5q0 -14 5 -26.5t14.5 -22t23.5 -14.5t33 -5q28 0 54 10t46 27t31 39t11 46zM286 514h-56l60 152h95z" />
    <glyph glyph-name="acircumflex" unicode="&#xe2;" horiz-adv-x="525" 
d="M134 301l-74 27q12 26 31 48t44.5 38.5t58 25.5t70.5 9t67.5 -8t50 -24.5t31.5 -41t11 -57.5v-215q0 -12 3 -21t8 -14.5t12 -8.5t16 -3q7 0 13 1t12 3.5t11.5 5t11.5 6.5l5 -62q-9 -6 -17.5 -9.5t-17 -6t-16.5 -3.5t-18 -1q-21 0 -39 7.5t-31.5 20.5t-21.5 31t-9 38
q-8 -21 -23 -38.5t-36.5 -30.5t-48 -20t-55.5 -7q-31 0 -56.5 9t-44 25.5t-28.5 40t-10 52.5t12 51t34.5 38t53 27.5t71.5 21.5l130 30v35q0 12 -4 23t-14 20t-26 14t-39 5q-25 0 -46.5 -6.5t-37.5 -18t-27 -26t-17 -31.5zM345 176v57l-110 -27q-27 -7 -46.5 -13.5t-33 -16
t-21 -23t-7.5 -31.5q0 -14 5 -26.5t14.5 -22t23.5 -14.5t33 -5q28 0 54 10t46 27t31 39t11 46zM214 660h88l85 -146h-59l-70 96l-70 -96h-59z" />
    <glyph glyph-name="atilde" unicode="&#xe3;" horiz-adv-x="525" 
d="M134 301l-74 27q12 26 31 48t44.5 38.5t58 25.5t70.5 9t67.5 -8t50 -24.5t31.5 -41t11 -57.5v-215q0 -12 3 -21t8 -14.5t12 -8.5t16 -3q7 0 13 1t12 3.5t11.5 5t11.5 6.5l5 -62q-9 -6 -17.5 -9.5t-17 -6t-16.5 -3.5t-18 -1q-21 0 -39 7.5t-31.5 20.5t-21.5 31t-9 38
q-8 -21 -23 -38.5t-36.5 -30.5t-48 -20t-55.5 -7q-31 0 -56.5 9t-44 25.5t-28.5 40t-10 52.5t12 51t34.5 38t53 27.5t71.5 21.5l130 30v35q0 12 -4 23t-14 20t-26 14t-39 5q-25 0 -46.5 -6.5t-37.5 -18t-27 -26t-17 -31.5zM345 176v57l-110 -27q-27 -7 -46.5 -13.5t-33 -16
t-21 -23t-7.5 -31.5q0 -14 5 -26.5t14.5 -22t23.5 -14.5t33 -5q28 0 54 10t46 27t31 39t11 46zM164 520h-52q0 28 5.5 51t16 40t26.5 26.5t37 9.5q18 0 34 -9t37 -26t32.5 -24.5t23.5 -7.5q10 0 17 5t11 13.5t6 20t3 25.5h52q0 -28 -5.5 -51t-16 -40t-26.5 -26.5t-37 -9.5
q-18 0 -34 9t-36.5 26t-32 24.5t-24.5 7.5q-10 0 -17 -5t-11 -13.5t-6 -19.5t-3 -26z" />
    <glyph glyph-name="adieresis" unicode="&#xe4;" horiz-adv-x="525" 
d="M134 301l-74 27q12 26 31 48t44.5 38.5t58 25.5t70.5 9t67.5 -8t50 -24.5t31.5 -41t11 -57.5v-215q0 -12 3 -21t8 -14.5t12 -8.5t16 -3q7 0 13 1t12 3.5t11.5 5t11.5 6.5l5 -62q-9 -6 -17.5 -9.5t-17 -6t-16.5 -3.5t-18 -1q-21 0 -39 7.5t-31.5 20.5t-21.5 31t-9 38
q-8 -21 -23 -38.5t-36.5 -30.5t-48 -20t-55.5 -7q-31 0 -56.5 9t-44 25.5t-28.5 40t-10 52.5t12 51t34.5 38t53 27.5t71.5 21.5l130 30v35q0 12 -4 23t-14 20t-26 14t-39 5q-25 0 -46.5 -6.5t-37.5 -18t-27 -26t-17 -31.5zM345 176v57l-110 -27q-27 -7 -46.5 -13.5t-33 -16
t-21 -23t-7.5 -31.5q0 -14 5 -26.5t14.5 -22t23.5 -14.5t33 -5q28 0 54 10t46 27t31 39t11 46zM301 532v91h80v-91h-80zM145 532v91h79v-91h-79z" />
    <glyph glyph-name="aring" unicode="&#xe5;" horiz-adv-x="525" 
d="M134 301l-74 27q12 26 31 48t44.5 38.5t58 25.5t70.5 9t67.5 -8t50 -24.5t31.5 -41t11 -57.5v-215q0 -12 3 -21t8 -14.5t12 -8.5t16 -3q7 0 13 1t12 3.5t11.5 5t11.5 6.5l5 -62q-9 -6 -17.5 -9.5t-17 -6t-16.5 -3.5t-18 -1q-21 0 -39 7.5t-31.5 20.5t-21.5 31t-9 38
q-8 -21 -23 -38.5t-36.5 -30.5t-48 -20t-55.5 -7q-31 0 -56.5 9t-44 25.5t-28.5 40t-10 52.5t12 51t34.5 38t53 27.5t71.5 21.5l130 30v35q0 12 -4 23t-14 20t-26 14t-39 5q-25 0 -46.5 -6.5t-37.5 -18t-27 -26t-17 -31.5zM345 176v57l-110 -27q-27 -7 -46.5 -13.5t-33 -16
t-21 -23t-7.5 -31.5q0 -14 5 -26.5t14.5 -22t23.5 -14.5t33 -5q28 0 54 10t46 27t31 39t11 46zM164 596q0 20 7 37t20 30t31 20t40 7q21 0 39.5 -7t31.5 -20t20 -30t7 -37t-7 -37.5t-20 -30t-31.5 -19.5t-39.5 -7q-22 0 -40 7t-31 19.5t-20 30t-7 37.5zM212 596
q0 -11 3 -20.5t9.5 -16.5t16 -10.5t21.5 -3.5t21.5 3.5t16 10.5t9.5 16.5t3 20.5t-3 20t-9.5 16t-16 10.5t-21.5 3.5t-21.5 -3.5t-16 -10.5t-9.5 -16t-3 -20z" />
    <glyph glyph-name="ae" unicode="&#xe6;" horiz-adv-x="816" 
d="M564 -12q-32 0 -61 7t-54 21t-44.5 33.5t-33.5 43.5q-11 -20 -28 -38t-40.5 -32.5t-53.5 -23t-66 -8.5q-31 0 -56.5 8.5t-44 25t-28.5 39.5t-10 52q0 30 12 51.5t34 37t52.5 26.5t72.5 21l130 30v39q0 12 -4 23t-14 20t-26 14t-39 5q-25 0 -46.5 -6.5t-37.5 -18t-27 -26
t-17 -31.5l-74 27q12 26 31 48t44.5 38.5t57.5 25.5t69 9q26 0 48 -4.5t40 -14t31 -23t21 -30.5q14 17 31.5 30.5t38 22.5t42.5 14t46 5q51 0 90.5 -17t66 -47t40 -69t13.5 -82v-26h-351q0 -35 11.5 -63.5t32 -49t47 -31.5t56.5 -11q27 0 49 6t38.5 17.5t29 29t21.5 41.5
l64 -38q-13 -29 -32.5 -51.5t-45 -38t-57.5 -23.5t-69 -8zM422 262h269q-2 25 -11 46.5t-25 39t-40.5 27t-54.5 9.5q-28 0 -52 -9.5t-42 -26.5t-29 -39t-15 -47zM345 176v53l-110 -26q-30 -8 -48 -14t-31.5 -14.5t-21 -22t-7.5 -32.5q0 -14 5 -26.5t14.5 -21t23.5 -13.5
t33 -5q28 0 54 10t46 27t31 39t11 46z" />
    <glyph glyph-name="ccedilla" unicode="&#xe7;" horiz-adv-x="504" 
d="M366 -125q0 -21 -8.5 -37t-24 -26t-34.5 -15t-41 -5q-18 0 -35 3.5t-31.5 10t-26 14t-19.5 15.5l17 36q8 -8 18 -14.5t22 -11.5t25 -7.5t27 -2.5q11 0 20.5 2.5t16.5 7t10.5 11.5t3.5 15q0 14 -8.5 22.5t-22 11.5t-29 1t-27.5 -8l-23 14l47 77q-37 3 -69 15
q-41 17 -71.5 48t-47 73.5t-16.5 92.5t16.5 92.5t47.5 73.5t73 48t92 17q36 0 66 -8.5t53.5 -24.5t40.5 -37.5t28 -47.5l-67 -40q-7 20 -18 36t-26 28.5t-34 19t-42 6.5q-32 0 -58.5 -11t-45.5 -32.5t-29.5 -52t-10.5 -67.5t10 -67t29 -51.5t45.5 -32.5t57.5 -11
q25 0 45.5 7t36 20t26.5 31t18 39l68 -34q-9 -28 -26 -51.5t-41.5 -41.5t-57.5 -28q-25 -7 -53 -9l-29 -48q19 4 38.5 2t36.5 -10.5t27 -23t10 -34.5z" />
    <glyph glyph-name="egrave" unicode="&#xe8;" horiz-adv-x="525" 
d="M413 147l64 -38q-13 -29 -32.5 -51.5t-45 -38t-57.5 -23.5t-69 -8q-49 0 -90.5 16t-72 46t-47.5 71.5t-17 90.5q0 51 16.5 94.5t47 75.5t71.5 49.5t88 17.5q51 0 90.5 -17t66 -47t40 -69t13.5 -82v-26h-351q0 -35 11.5 -63.5t32 -49t47 -31.5t56.5 -11q27 0 49 6
t38.5 17.5t29 29t21.5 41.5zM131 262h269q-2 24 -11 46t-25.5 39.5t-40.5 27t-54 9.5q-28 0 -52 -9.5t-42 -26.5t-29 -39t-15 -47zM312 514h-56l-99 152h95z" />
    <glyph glyph-name="eacute" unicode="&#xe9;" horiz-adv-x="525" 
d="M299 514h-56l60 152h95zM413 147l64 -38q-13 -29 -32.5 -51.5t-45 -38t-57.5 -23.5t-69 -8q-49 0 -90.5 16t-72 46t-47.5 71.5t-17 90.5q0 51 16.5 94.5t47 75.5t71.5 49.5t88 17.5q51 0 90.5 -17t66 -47t40 -69t13.5 -82v-26h-351q0 -35 11.5 -63.5t32 -49t47 -31.5
t56.5 -11q27 0 49 6t38.5 17.5t29 29t21.5 41.5zM131 262h269q-2 24 -11 46t-25.5 39.5t-40.5 27t-54 9.5q-28 0 -52 -9.5t-42 -26.5t-29 -39t-15 -47z" />
    <glyph glyph-name="ecircumflex" unicode="&#xea;" horiz-adv-x="525" 
d="M232 660h88l85 -146h-59l-70 96l-70 -96h-59zM413 147l64 -38q-13 -29 -32.5 -51.5t-45 -38t-57.5 -23.5t-69 -8q-49 0 -90.5 16t-72 46t-47.5 71.5t-17 90.5q0 51 16.5 94.5t47 75.5t71.5 49.5t88 17.5q51 0 90.5 -17t66 -47t40 -69t13.5 -82v-26h-351q0 -35 11.5 -63.5
t32 -49t47 -31.5t56.5 -11q27 0 49 6t38.5 17.5t29 29t21.5 41.5zM131 262h269q-2 24 -11 46t-25.5 39.5t-40.5 27t-54 9.5q-28 0 -52 -9.5t-42 -26.5t-29 -39t-15 -47z" />
    <glyph glyph-name="edieresis" unicode="&#xeb;" horiz-adv-x="525" 
d="M314 532v91h80v-91h-80zM158 532v91h79v-91h-79zM413 147l64 -38q-13 -29 -32.5 -51.5t-45 -38t-57.5 -23.5t-69 -8q-49 0 -90.5 16t-72 46t-47.5 71.5t-17 90.5q0 51 16.5 94.5t47 75.5t71.5 49.5t88 17.5q51 0 90.5 -17t66 -47t40 -69t13.5 -82v-26h-351
q0 -35 11.5 -63.5t32 -49t47 -31.5t56.5 -11q27 0 49 6t38.5 17.5t29 29t21.5 41.5zM131 262h269q-2 24 -11 46t-25.5 39.5t-40.5 27t-54 9.5q-28 0 -52 -9.5t-42 -26.5t-29 -39t-15 -47z" />
    <glyph glyph-name="igrave" unicode="&#xec;" horiz-adv-x="241" 
d="M79 437h83v-437h-83v437zM157 514h-56l-99 152h95z" />
    <glyph glyph-name="iacute" unicode="&#xed;" horiz-adv-x="241" 
d="M144 514h-56l60 152h95zM79 437h83v-437h-83v437z" />
    <glyph glyph-name="icircumflex" unicode="&#xee;" horiz-adv-x="241" 
d="M77 660h88l85 -146h-59l-70 96l-70 -96h-59zM79 437h83v-437h-83v437z" />
    <glyph glyph-name="idieresis" unicode="&#xef;" horiz-adv-x="241" 
d="M159 532v91h80v-91h-80zM3 532v91h79v-91h-79zM79 437h83v-437h-83v437z" />
    <glyph glyph-name="eth" unicode="&#xf0;" horiz-adv-x="553" 
d="M278 -12q-49 0 -91.5 16t-74 45.5t-49 71t-17.5 91.5t17 91t48 70.5t72 45t88 15.5q22 0 42 -5t38.5 -15t34.5 -24t29 -32q-7 19 -19 38.5t-28 39.5t-35.5 39.5t-42.5 38.5l-127 -47l-18 41l104 38q-11 8 -22.5 16t-23.5 15.5t-24.5 14.5t-24.5 14l58 37q15 -8 29.5 -16
t28 -17l27 -18t25.5 -18l85 31l18 -41l-63 -23q35 -31 62 -66t45.5 -74t28 -82t9.5 -89q0 -58 -16.5 -103.5t-47.5 -76t-73 -46.5t-92 -16zM278 53q34 0 60.5 11.5t45.5 32.5t28.5 50.5t9.5 64.5q0 36 -9.5 65t-28.5 50.5t-45.5 33t-60.5 11.5t-60.5 -11.5t-45.5 -33
t-28.5 -50.5t-9.5 -65q0 -35 9.5 -64.5t28.5 -50.5t45.5 -32.5t60.5 -11.5z" />
    <glyph glyph-name="ntilde" unicode="&#xf1;" horiz-adv-x="558" 
d="M162 236v-236h-83v437h83v-89q8 21 22.5 39t35 32t46 22t53.5 8q42 0 73.5 -13t51.5 -37t29.5 -56.5t9.5 -71.5v-271h-83v260q0 27 -7 49t-21 38t-34.5 24t-47.5 8t-50.5 -10t-41 -29t-27 -45.5t-9.5 -58.5zM181 520h-52q0 28 5.5 51t16 40t26.5 26.5t37 9.5q18 0 34 -9
t37 -26t32.5 -24.5t23.5 -7.5q10 0 17 5t11 13.5t6 20t3 25.5h52q0 -28 -5.5 -51t-16 -40t-26.5 -26.5t-37 -9.5q-18 0 -34 9t-36.5 26t-32 24.5t-24.5 7.5q-10 0 -17 -5t-11 -13.5t-6 -19.5t-3 -26z" />
    <glyph glyph-name="ograve" unicode="&#xf2;" horiz-adv-x="553" 
d="M507 218q0 -50 -17.5 -92t-49.5 -73t-74 -48t-90 -17t-90 17t-73.5 48t-49 73t-17.5 92t17.5 92.5t49 73.5t73.5 48t90 17t90 -17t74 -48t49.5 -73.5t17.5 -92.5zM132 218q0 -36 10 -66.5t29 -52.5t45.5 -33.5t59.5 -11.5t60 11.5t46 33.5t29 52.5t10 66.5q0 37 -10 67.5
t-29 52.5t-46 33.5t-60 11.5t-59.5 -11.5t-45.5 -33.5t-29 -52.5t-10 -67.5zM313 514h-56l-99 152h95z" />
    <glyph glyph-name="oacute" unicode="&#xf3;" horiz-adv-x="553" 
d="M300 514h-56l60 152h95zM507 218q0 -50 -17.5 -92t-49.5 -73t-74 -48t-90 -17t-90 17t-73.5 48t-49 73t-17.5 92t17.5 92.5t49 73.5t73.5 48t90 17t90 -17t74 -48t49.5 -73.5t17.5 -92.5zM132 218q0 -36 10 -66.5t29 -52.5t45.5 -33.5t59.5 -11.5t60 11.5t46 33.5
t29 52.5t10 66.5q0 37 -10 67.5t-29 52.5t-46 33.5t-60 11.5t-59.5 -11.5t-45.5 -33.5t-29 -52.5t-10 -67.5z" />
    <glyph glyph-name="ocircumflex" unicode="&#xf4;" horiz-adv-x="553" 
d="M233 660h88l85 -146h-59l-70 96l-70 -96h-59zM507 218q0 -50 -17.5 -92t-49.5 -73t-74 -48t-90 -17t-90 17t-73.5 48t-49 73t-17.5 92t17.5 92.5t49 73.5t73.5 48t90 17t90 -17t74 -48t49.5 -73.5t17.5 -92.5zM132 218q0 -36 10 -66.5t29 -52.5t45.5 -33.5t59.5 -11.5
t60 11.5t46 33.5t29 52.5t10 66.5q0 37 -10 67.5t-29 52.5t-46 33.5t-60 11.5t-59.5 -11.5t-45.5 -33.5t-29 -52.5t-10 -67.5z" />
    <glyph glyph-name="otilde" unicode="&#xf5;" horiz-adv-x="553" 
d="M507 218q0 -50 -17.5 -92t-49.5 -73t-74 -48t-90 -17t-90 17t-73.5 48t-49 73t-17.5 92t17.5 92.5t49 73.5t73.5 48t90 17t90 -17t74 -48t49.5 -73.5t17.5 -92.5zM132 218q0 -36 10 -66.5t29 -52.5t45.5 -33.5t59.5 -11.5t60 11.5t46 33.5t29 52.5t10 66.5q0 37 -10 67.5
t-29 52.5t-46 33.5t-60 11.5t-59.5 -11.5t-45.5 -33.5t-29 -52.5t-10 -67.5zM178 520h-52q0 28 5.5 51t16 40t26.5 26.5t37 9.5q18 0 34 -9t37 -26t32.5 -24.5t23.5 -7.5q10 0 17 5t11 13.5t6 20t3 25.5h52q0 -28 -5.5 -51t-16 -40t-26.5 -26.5t-37 -9.5q-18 0 -34 9
t-36.5 26t-32 24.5t-24.5 7.5q-10 0 -17 -5t-11 -13.5t-6 -19.5t-3 -26z" />
    <glyph glyph-name="odieresis" unicode="&#xf6;" horiz-adv-x="553" 
d="M315 532v91h80v-91h-80zM159 532v91h79v-91h-79zM507 218q0 -50 -17.5 -92t-49.5 -73t-74 -48t-90 -17t-90 17t-73.5 48t-49 73t-17.5 92t17.5 92.5t49 73.5t73.5 48t90 17t90 -17t74 -48t49.5 -73.5t17.5 -92.5zM132 218q0 -36 10 -66.5t29 -52.5t45.5 -33.5t59.5 -11.5
t60 11.5t46 33.5t29 52.5t10 66.5q0 37 -10 67.5t-29 52.5t-46 33.5t-60 11.5t-59.5 -11.5t-45.5 -33.5t-29 -52.5t-10 -67.5z" />
    <glyph glyph-name="divide" unicode="&#xf7;" horiz-adv-x="638" 
d="M269 472v99h101v-99h-101zM64 277v70h510v-70h-510zM269 53v99h101v-99h-101z" />
    <glyph glyph-name="oslash" unicode="&#xf8;" horiz-adv-x="553" 
d="M131 218q0 -14 1.5 -27.5t4.5 -26t7.5 -24t10.5 -21.5l211 235q-9 7 -19 12.5t-21.5 9.5t-24 6t-25.5 2q-33 0 -60 -12t-46 -34t-29 -52.5t-10 -67.5zM276 53q33 0 60 11.5t46 33.5t29 52.5t10 67.5q0 14 -1.5 27.5t-4.5 25.5t-7 23t-10 21l-210 -234q9 -7 19 -12
t21 -8.5t23 -5.5t25 -2zM276 -12q-19 0 -37 2.5t-35 8t-33 13t-30 17.5l-57 -64l-39 31l59 66q-14 15 -24.5 32.5t-18 37.5t-11.5 41.5t-4 44.5q0 50 17.5 92.5t49 73.5t73.5 48t90 17q19 0 37.5 -3t36 -8t33.5 -13t31 -19l54 61l39 -31l-56 -63q13 -15 23.5 -32.5t17.5 -37
t11 -41t4 -44.5q0 -50 -17.5 -92t-49.5 -73t-74 -48t-90 -17z" />
    <glyph glyph-name="ugrave" unicode="&#xf9;" horiz-adv-x="556" 
d="M394 200v237h83v-437h-83v89q-8 -21 -22.5 -39t-35 -32t-46 -22t-53.5 -8q-42 0 -73 13t-50.5 37t-29 56t-9.5 71v272h83v-260q0 -28 7 -50t20 -38t33.5 -24t46.5 -8q27 0 51 10.5t41.5 29.5t27 45.5t9.5 57.5zM309 514h-56l-99 152h95z" />
    <glyph glyph-name="uacute" unicode="&#xfa;" horiz-adv-x="556" 
d="M297 514h-56l60 152h95zM394 200v237h83v-437h-83v89q-8 -21 -22.5 -39t-35 -32t-46 -22t-53.5 -8q-42 0 -73 13t-50.5 37t-29 56t-9.5 71v272h83v-260q0 -28 7 -50t20 -38t33.5 -24t46.5 -8q27 0 51 10.5t41.5 29.5t27 45.5t9.5 57.5z" />
    <glyph glyph-name="ucircumflex" unicode="&#xfb;" horiz-adv-x="556" 
d="M229 660h88l85 -146h-59l-70 96l-70 -96h-59zM394 200v237h83v-437h-83v89q-8 -21 -22.5 -39t-35 -32t-46 -22t-53.5 -8q-42 0 -73 13t-50.5 37t-29 56t-9.5 71v272h83v-260q0 -28 7 -50t20 -38t33.5 -24t46.5 -8q27 0 51 10.5t41.5 29.5t27 45.5t9.5 57.5z" />
    <glyph glyph-name="udieresis" unicode="&#xfc;" horiz-adv-x="556" 
d="M311 532v91h80v-91h-80zM155 532v91h79v-91h-79zM394 200v237h83v-437h-83v89q-8 -21 -22.5 -39t-35 -32t-46 -22t-53.5 -8q-42 0 -73 13t-50.5 37t-29 56t-9.5 71v272h83v-260q0 -28 7 -50t20 -38t33.5 -24t46.5 -8q27 0 51 10.5t41.5 29.5t27 45.5t9.5 57.5z" />
    <glyph glyph-name="yacute" unicode="&#xfd;" horiz-adv-x="498" 
d="M203 -38l17 39l-197 436h91l146 -337h4l129 337h81l-187 -466q-15 -36 -29.5 -62t-32.5 -46t-42 -31.5t-54 -11.5q-26 0 -46 7.5t-34.5 21.5t-23 32t-11.5 40l67 35q0 -17 3 -29.5t9.5 -21.5t16.5 -13.5t24 -4.5q12 0 21 4.5t17 14t15.5 23t15.5 33.5zM281 514h-56
l60 152h95z" />
    <glyph glyph-name="thorn" unicode="&#xfe;" horiz-adv-x="572" 
d="M159 228v-19q0 -35 10.5 -64t30 -50t44.5 -32t53 -11q33 0 60 11.5t45.5 33.5t28 53t9.5 68t-9.5 68t-28 53t-45.5 33.5t-60 11.5q-28 0 -53 -11t-44.5 -31.5t-30 -49.5t-10.5 -64zM162 94v-262h-83v798h83v-288q8 23 22.5 42t34 34t45 23t55.5 8q48 0 86.5 -17.5
t65.5 -49t41 -74t14 -90.5t-14 -90t-41 -73.5t-65.5 -49t-86.5 -17.5q-30 0 -55.5 8t-45 22.5t-34 33.5t-22.5 42z" />
    <glyph glyph-name="ydieresis" unicode="&#xff;" horiz-adv-x="498" 
d="M203 -38l17 39l-197 436h91l146 -337h4l129 337h81l-187 -466q-15 -36 -29.5 -62t-32.5 -46t-42 -31.5t-54 -11.5q-26 0 -46 7.5t-34.5 21.5t-23 32t-11.5 40l67 35q0 -17 3 -29.5t9.5 -21.5t16.5 -13.5t24 -4.5q12 0 21 4.5t17 14t15.5 23t15.5 33.5zM295 532v91h80v-91
h-80zM139 532v91h79v-91h-79z" />
    <glyph glyph-name="Amacron" unicode="&#x100;" horiz-adv-x="664" 
d="M324 537l-109 -283h224l-111 283h-4zM539 0l-72 184h-278l-71 -184h-87l249 630h98l255 -630h-94zM196 709v60h263v-60h-263z" />
    <glyph glyph-name="amacron" unicode="&#x101;" horiz-adv-x="525" 
d="M134 301l-74 27q12 26 31 48t44.5 38.5t58 25.5t70.5 9t67.5 -8t50 -24.5t31.5 -41t11 -57.5v-215q0 -12 3 -21t8 -14.5t12 -8.5t16 -3q7 0 13 1t12 3.5t11.5 5t11.5 6.5l5 -62q-9 -6 -17.5 -9.5t-17 -6t-16.5 -3.5t-18 -1q-21 0 -39 7.5t-31.5 20.5t-21.5 31t-9 38
q-8 -21 -23 -38.5t-36.5 -30.5t-48 -20t-55.5 -7q-31 0 -56.5 9t-44 25.5t-28.5 40t-10 52.5t12 51t34.5 38t53 27.5t71.5 21.5l130 30v35q0 12 -4 23t-14 20t-26 14t-39 5q-25 0 -46.5 -6.5t-37.5 -18t-27 -26t-17 -31.5zM345 176v57l-110 -27q-27 -7 -46.5 -13.5t-33 -16
t-21 -23t-7.5 -31.5q0 -14 5 -26.5t14.5 -22t23.5 -14.5t33 -5q28 0 54 10t46 27t31 39t11 46zM128 531v59h261v-59h-261z" />
    <glyph glyph-name="Abreve" unicode="&#x102;" horiz-adv-x="664" 
d="M324 537l-109 -283h224l-111 283h-4zM539 0l-72 184h-278l-71 -184h-87l249 630h98l255 -630h-94zM328 701q-28 0 -49.5 8t-36.5 24t-22.5 40t-7.5 56h56q0 -17 3.5 -30t10.5 -22.5t18.5 -14.5t27.5 -5t27 5t18 14.5t10.5 22.5t3.5 30h57q0 -32 -8 -56t-22.5 -40t-36 -24
t-49.5 -8z" />
    <glyph glyph-name="abreve" unicode="&#x103;" horiz-adv-x="525" 
d="M134 301l-74 27q12 26 31 48t44.5 38.5t58 25.5t70.5 9t67.5 -8t50 -24.5t31.5 -41t11 -57.5v-215q0 -12 3 -21t8 -14.5t12 -8.5t16 -3q7 0 13 1t12 3.5t11.5 5t11.5 6.5l5 -62q-9 -6 -17.5 -9.5t-17 -6t-16.5 -3.5t-18 -1q-21 0 -39 7.5t-31.5 20.5t-21.5 31t-9 38
q-8 -21 -23 -38.5t-36.5 -30.5t-48 -20t-55.5 -7q-31 0 -56.5 9t-44 25.5t-28.5 40t-10 52.5t12 51t34.5 38t53 27.5t71.5 21.5l130 30v35q0 12 -4 23t-14 20t-26 14t-39 5q-25 0 -46.5 -6.5t-37.5 -18t-27 -26t-17 -31.5zM345 176v57l-110 -27q-27 -7 -46.5 -13.5t-33 -16
t-21 -23t-7.5 -31.5q0 -14 5 -26.5t14.5 -22t23.5 -14.5t33 -5q28 0 54 10t46 27t31 39t11 46zM263 504q-27 0 -49.5 10.5t-38 30t-24 46.5t-8.5 59h55q0 -20 4 -36.5t12 -28.5t20.5 -18.5t28.5 -6.5t28 6.5t20.5 18.5t12.5 28.5t4 36.5h55q0 -32 -8.5 -59t-24.5 -46.5
t-38 -30t-49 -10.5z" />
    <glyph glyph-name="Aogonek" unicode="&#x104;" horiz-adv-x="664" 
d="M189 184l-71 -184h-87l249 630h98l255 -630h-45q-14 -13 -24 -23q-15 -15 -24.5 -27.5t-14 -23.5t-4.5 -22q0 -7 2 -12.5t6.5 -9.5t11.5 -6t17 -2q7 0 14 1.5t14 4t13.5 5.5t14.5 7v-45q-8 -5 -16 -9.5t-17.5 -8t-20.5 -5.5t-24 -2q-17 0 -31 4.5t-24.5 13t-16 21.5
t-5.5 29q0 17 7 33t19.5 30t26.5 27q11 9 26 21l-71 183h-278zM324 537l-109 -283h224l-111 283h-4z" />
    <glyph glyph-name="aogonek" unicode="&#x105;" horiz-adv-x="525" 
d="M134 301l-74 27q12 26 31 48t44.5 38.5t58 25.5t70.5 9t67.5 -8t50 -24.5t31.5 -41t11 -57.5v-215q0 -12 3 -21t8 -14.5t12 -8.5t16 -3q7 0 13 1t12 3.5t11.5 5t11.5 6.5l5 -62q-9 -6 -18 -10l-14 -4q-12 -11 -20 -19q-15 -15 -24.5 -27.5t-14 -23.5t-4.5 -22
q0 -7 2 -12.5t6.5 -9.5t11.5 -6t17 -2q7 0 14 1.5t14 4t13.5 5.5t14.5 7v-45q-8 -5 -16 -9.5t-17.5 -8t-20.5 -5.5t-24 -2q-17 0 -31 4.5t-24.5 13t-16 21.5t-5.5 29q0 17 7 33t19.5 30t26.5 27q6 5 14 12q-9 2 -18 6q-18 7 -31.5 20t-21.5 31t-9 38q-8 -21 -23 -38.5
t-36.5 -30.5t-48 -20t-55.5 -7q-31 0 -56.5 9t-44 25.5t-28.5 40t-10 52.5t12 51t34.5 38t53 27.5t71.5 21.5l130 30v35q0 12 -4 23t-14 20t-26 14t-39 5q-25 0 -46.5 -6.5t-37.5 -18t-27 -26t-17 -31.5zM345 176v57l-110 -27q-27 -7 -46.5 -13.5t-33 -16t-21 -23
t-7.5 -31.5q0 -14 5 -26.5t14.5 -22t23.5 -14.5t33 -5q28 0 54 10t46 27t31 39t11 46z" />
    <glyph glyph-name="Cacute" unicode="&#x106;" horiz-adv-x="691" 
d="M568 221l78 -42q-14 -44 -38.5 -79t-60 -60t-81 -38.5t-100.5 -13.5q-65 0 -122 23.5t-100 67.5t-67 104.5t-24 131.5t24 131.5t67 104.5t101 67.5t124 23.5q49 0 91 -11.5t76 -33t59 -52.5t40 -69l-73 -48q-10 32 -27 57.5t-41.5 43.5t-55.5 28t-69 10
q-49 0 -90.5 -17.5t-71.5 -50.5t-46.5 -80t-16.5 -104t16.5 -104t46.5 -80t70.5 -50.5t88.5 -17.5q42 0 76 10.5t59 31t41.5 49.5t25.5 67zM398 704h-58l54 126h101z" />
    <glyph glyph-name="cacute" unicode="&#x107;" horiz-adv-x="504" 
d="M302 514h-56l60 152h95zM393 153l68 -34q-9 -28 -26 -51.5t-41.5 -41.5t-57 -28t-71.5 -10q-49 0 -90.5 16.5t-72 47.5t-47 73.5t-16.5 92.5t16.5 92.5t47.5 73.5t73 48t92 17q36 0 66 -8.5t53.5 -24.5t40.5 -37.5t28 -47.5l-67 -40q-7 20 -18 36t-26 28.5t-34 19
t-42 6.5q-32 0 -58.5 -11t-45.5 -32.5t-29.5 -52t-10.5 -67.5t10 -67t29 -51.5t45.5 -32.5t57.5 -11q25 0 45.5 7t36 20t26.5 31t18 39z" />
    <glyph glyph-name="Ccircumflex" unicode="&#x108;" horiz-adv-x="691" 
d="M568 221l78 -42q-14 -44 -38.5 -79t-60 -60t-81 -38.5t-100.5 -13.5q-65 0 -122 23.5t-100 67.5t-67 104.5t-24 131.5t24 131.5t67 104.5t101 67.5t124 23.5q49 0 91 -11.5t76 -33t59 -52.5t40 -69l-73 -48q-10 32 -27 57.5t-41.5 43.5t-55.5 28t-69 10
q-49 0 -90.5 -17.5t-71.5 -50.5t-46.5 -80t-16.5 -104t16.5 -104t46.5 -80t70.5 -50.5t88.5 -17.5q42 0 76 10.5t59 31t41.5 49.5t25.5 67zM324 830h96l82 -126h-60l-70 76l-70 -76h-61z" />
    <glyph glyph-name="ccircumflex" unicode="&#x109;" horiz-adv-x="504" 
d="M234 660h88l85 -146h-59l-70 96l-70 -96h-59zM393 153l68 -34q-9 -28 -26 -51.5t-41.5 -41.5t-57 -28t-71.5 -10q-49 0 -90.5 16.5t-72 47.5t-47 73.5t-16.5 92.5t16.5 92.5t47.5 73.5t73 48t92 17q36 0 66 -8.5t53.5 -24.5t40.5 -37.5t28 -47.5l-67 -40q-7 20 -18 36
t-26 28.5t-34 19t-42 6.5q-32 0 -58.5 -11t-45.5 -32.5t-29.5 -52t-10.5 -67.5t10 -67t29 -51.5t45.5 -32.5t57.5 -11q25 0 45.5 7t36 20t26.5 31t18 39z" />
    <glyph glyph-name="Cdotaccent" unicode="&#x10a;" horiz-adv-x="691" 
d="M420 708h-95v92h95v-92zM568 221l78 -42q-14 -44 -38.5 -79t-60 -60t-81 -38.5t-100.5 -13.5q-65 0 -122 23.5t-100 67.5t-67 104.5t-24 131.5t24 131.5t67 104.5t101 67.5t124 23.5q49 0 91 -11.5t76 -33t59 -52.5t40 -69l-73 -48q-10 32 -27 57.5t-41.5 43.5t-55.5 28
t-69 10q-49 0 -90.5 -17.5t-71.5 -50.5t-46.5 -80t-16.5 -104t16.5 -104t46.5 -80t70.5 -50.5t88.5 -17.5q42 0 76 10.5t59 31t41.5 49.5t25.5 67z" />
    <glyph glyph-name="cdotaccent" unicode="&#x10b;" horiz-adv-x="504" 
d="M393 153l68 -34q-9 -28 -26 -51.5t-41.5 -41.5t-57 -28t-71.5 -10q-49 0 -90.5 16.5t-72 47.5t-47 73.5t-16.5 92.5t16.5 92.5t47.5 73.5t73 48t92 17q36 0 66 -8.5t53.5 -24.5t40.5 -37.5t28 -47.5l-67 -40q-7 20 -18 36t-26 28.5t-34 19t-42 6.5q-32 0 -58.5 -11
t-45.5 -32.5t-29.5 -52t-10.5 -67.5t10 -67t29 -51.5t45.5 -32.5t57.5 -11q25 0 45.5 7t36 20t26.5 31t18 39zM326 538h-95v92h95v-92z" />
    <glyph glyph-name="Ccaron" unicode="&#x10c;" horiz-adv-x="691" 
d="M568 221l78 -42q-14 -44 -38.5 -79t-60 -60t-81 -38.5t-100.5 -13.5q-65 0 -122 23.5t-100 67.5t-67 104.5t-24 131.5t24 131.5t67 104.5t101 67.5t124 23.5q49 0 91 -11.5t76 -33t59 -52.5t40 -69l-73 -48q-10 32 -27 57.5t-41.5 43.5t-55.5 28t-69 10
q-49 0 -90.5 -17.5t-71.5 -50.5t-46.5 -80t-16.5 -104t16.5 -104t46.5 -80t70.5 -50.5t88.5 -17.5q42 0 76 10.5t59 31t41.5 49.5t25.5 67zM420 704h-96l-83 126h61l70 -77l70 77h60z" />
    <glyph glyph-name="ccaron" unicode="&#x10d;" horiz-adv-x="504" 
d="M234 506l-85 146h59l70 -96l70 96h59l-85 -146h-88zM393 153l68 -34q-9 -28 -26 -51.5t-41.5 -41.5t-57 -28t-71.5 -10q-49 0 -90.5 16.5t-72 47.5t-47 73.5t-16.5 92.5t16.5 92.5t47.5 73.5t73 48t92 17q36 0 66 -8.5t53.5 -24.5t40.5 -37.5t28 -47.5l-67 -40
q-7 20 -18 36t-26 28.5t-34 19t-42 6.5q-32 0 -58.5 -11t-45.5 -32.5t-29.5 -52t-10.5 -67.5t10 -67t29 -51.5t45.5 -32.5t57.5 -11q25 0 45.5 7t36 20t26.5 31t18 39z" />
    <glyph glyph-name="Dcaron" unicode="&#x10e;" horiz-adv-x="709" 
d="M369 704h-96l-83 126h61l70 -77l70 77h60zM84 0v630h234q77 0 139.5 -21.5t107 -62.5t68 -99.5t23.5 -131.5t-23.5 -131.5t-68 -99.5t-107 -62.5t-139.5 -21.5h-234zM172 72h136q62 0 110 16.5t81 47.5t49.5 76.5t16.5 102.5t-16.5 102.5t-49.5 76.5t-81 47.5t-110 16.5
h-136v-486z" />
    <glyph glyph-name="dcaron" unicode="&#x10f;" horiz-adv-x="572" 
d="M624 483h-44l18 156h92zM413 209v19q0 35 -11 64t-30 49.5t-44.5 31.5t-53.5 11q-33 0 -59.5 -11.5t-45 -33.5t-28 -53t-9.5 -68t9.5 -68t28 -53t45 -33.5t59.5 -11.5q28 0 53.5 11t44.5 32t30 50t11 64zM410 0v94q-8 -23 -22.5 -42t-34 -33.5t-45 -22.5t-55.5 -8
q-48 0 -86.5 17.5t-65.5 49t-41 73.5t-14 90t14 90.5t41 74t65.5 49t86.5 17.5q30 0 55.5 -8t45 -23t34 -34t22.5 -42v288h83v-630h-83z" />
    <glyph glyph-name="Dcroat" unicode="&#x110;" horiz-adv-x="725" 
d="M334 0h-234v294h-76v70h76v266h234q77 0 139.5 -21.5t107 -62.5t68 -99.5t23.5 -131.5t-23.5 -131.5t-68 -99.5t-107 -62.5t-139.5 -21.5zM188 72h136q62 0 110 16.5t81 47.5t49.5 76.5t16.5 102.5t-16.5 102.5t-49.5 76.5t-81 47.5t-110 16.5h-136v-194h153v-70h-153
v-222z" />
    <glyph glyph-name="dcroat" unicode="&#x111;" horiz-adv-x="585" 
d="M413 209v19q0 35 -11 64t-30 49.5t-44.5 31.5t-53.5 11q-33 0 -59.5 -11.5t-45 -33.5t-28 -53t-9.5 -68t9.5 -68t28 -53t45 -33.5t59.5 -11.5q28 0 53.5 11t44.5 32t30 50t11 64zM410 94q-8 -23 -22.5 -42t-34 -33.5t-45 -22.5t-55.5 -8q-48 0 -86.5 17.5t-65.5 49
t-41 73.5t-14 90t14 90.5t41 74t65.5 49t86.5 17.5q30 0 55.5 -8t45 -23t34 -34t22.5 -42v163h-138v52h138v73h83v-73h74v-52h-74v-505h-83v94z" />
    <glyph glyph-name="Emacron" unicode="&#x112;" horiz-adv-x="625" 
d="M186 709v60h263v-60h-263zM566 74v-74h-482v630h473v-74h-387v-192h294v-75h-294v-215h396z" />
    <glyph glyph-name="emacron" unicode="&#x113;" horiz-adv-x="525" 
d="M413 147l64 -38q-13 -29 -32.5 -51.5t-45 -38t-57.5 -23.5t-69 -8q-49 0 -90.5 16t-72 46t-47.5 71.5t-17 90.5q0 51 16.5 94.5t47 75.5t71.5 49.5t88 17.5q51 0 90.5 -17t66 -47t40 -69t13.5 -82v-26h-351q0 -35 11.5 -63.5t32 -49t47 -31.5t56.5 -11q27 0 49 6
t38.5 17.5t29 29t21.5 41.5zM131 262h269q-2 24 -11 46t-25.5 39.5t-40.5 27t-54 9.5q-28 0 -52 -9.5t-42 -26.5t-29 -39t-15 -47zM145 531v59h261v-59h-261z" />
    <glyph glyph-name="Ebreve" unicode="&#x114;" horiz-adv-x="625" 
d="M317 701q-28 0 -49.5 8t-36.5 24t-22.5 40t-7.5 56h56q0 -17 3.5 -30t10.5 -22.5t18.5 -14.5t27.5 -5t27 5t18 14.5t10.5 22.5t3.5 30h57q0 -32 -8 -56t-22.5 -40t-36 -24t-49.5 -8zM566 74v-74h-482v630h473v-74h-387v-192h294v-75h-294v-215h396z" />
    <glyph glyph-name="ebreve" unicode="&#x115;" horiz-adv-x="525" 
d="M413 147l64 -38q-13 -29 -32.5 -51.5t-45 -38t-57.5 -23.5t-69 -8q-49 0 -90.5 16t-72 46t-47.5 71.5t-17 90.5q0 51 16.5 94.5t47 75.5t71.5 49.5t88 17.5q51 0 90.5 -17t66 -47t40 -69t13.5 -82v-26h-351q0 -35 11.5 -63.5t32 -49t47 -31.5t56.5 -11q27 0 49 6
t38.5 17.5t29 29t21.5 41.5zM131 262h269q-2 24 -11 46t-25.5 39.5t-40.5 27t-54 9.5q-28 0 -52 -9.5t-42 -26.5t-29 -39t-15 -47zM276 504q-27 0 -49.5 10.5t-38 30t-24 46.5t-8.5 59h55q0 -20 4 -36.5t12 -28.5t20.5 -18.5t28.5 -6.5t28 6.5t20.5 18.5t12.5 28.5t4 36.5
h55q0 -32 -8.5 -59t-24.5 -46.5t-38 -30t-49 -10.5z" />
    <glyph glyph-name="Edotaccent" unicode="&#x116;" horiz-adv-x="625" 
d="M365 708h-95v92h95v-92zM566 74v-74h-482v630h473v-74h-387v-192h294v-75h-294v-215h396z" />
    <glyph glyph-name="edotaccent" unicode="&#x117;" horiz-adv-x="525" 
d="M413 147l64 -38q-13 -29 -32.5 -51.5t-45 -38t-57.5 -23.5t-69 -8q-49 0 -90.5 16t-72 46t-47.5 71.5t-17 90.5q0 51 16.5 94.5t47 75.5t71.5 49.5t88 17.5q51 0 90.5 -17t66 -47t40 -69t13.5 -82v-26h-351q0 -35 11.5 -63.5t32 -49t47 -31.5t56.5 -11q27 0 49 6
t38.5 17.5t29 29t21.5 41.5zM131 262h269q-2 24 -11 46t-25.5 39.5t-40.5 27t-54 9.5q-28 0 -52 -9.5t-42 -26.5t-29 -39t-15 -47zM323 538h-95v92h95v-92z" />
    <glyph glyph-name="Eogonek" unicode="&#x118;" horiz-adv-x="625" 
d="M566 74v-74h-67q-14 -13 -24 -23q-15 -15 -24.5 -27.5t-14 -23.5t-4.5 -22q0 -7 2 -12.5t6.5 -9.5t11.5 -6t17 -2q7 0 14 1.5t14 4t13.5 5.5t14.5 7v-45q-8 -5 -16 -9.5t-17.5 -8t-20.5 -5.5t-24 -2q-17 0 -31 4.5t-24.5 13t-16 21.5t-5.5 29q0 17 7 33t19.5 30t26.5 27
q10 8 24 20h-363v630h473v-74h-387v-192h294v-75h-294v-215h396z" />
    <glyph glyph-name="eogonek" unicode="&#x119;" horiz-adv-x="525" 
d="M413 147l64 -38q-13 -29 -32.5 -51.5t-45.5 -38.5q-11 -6 -23 -12q-19 -17 -32 -30q-15 -15 -24.5 -27.5t-14 -23.5t-4.5 -22q0 -7 2 -12.5t6.5 -9.5t11.5 -6t17 -2q7 0 14 1.5t14 4t13.5 5.5t14.5 7v-45q-8 -5 -16 -9.5t-17.5 -8t-20.5 -5.5t-24 -2q-17 0 -31 4.5
t-24.5 13t-16 21.5t-5.5 29q0 17 7 33t19.5 30t26.5 27q5 4 11 10q-14 -2 -30 -2q-49 0 -90.5 16t-72 46t-47.5 71.5t-17 90.5q0 51 16.5 94.5t47 75.5t71.5 49.5t88 17.5q51 0 90.5 -17t66 -47t40 -69t13.5 -82v-26h-351q0 -35 11.5 -63.5t32 -49t47 -31.5t56.5 -11
q27 0 49 6t38.5 17.5t29 29t21.5 41.5zM131 262h269q-2 24 -11 46t-25.5 39.5t-40.5 27t-54 9.5q-28 0 -52 -9.5t-42 -26.5t-29 -39t-15 -47z" />
    <glyph glyph-name="Ecaron" unicode="&#x11a;" horiz-adv-x="625" 
d="M365 704h-96l-83 126h61l70 -77l70 77h60zM566 74v-74h-482v630h473v-74h-387v-192h294v-75h-294v-215h396z" />
    <glyph glyph-name="ecaron" unicode="&#x11b;" horiz-adv-x="525" 
d="M232 506l-85 146h59l70 -96l70 96h59l-85 -146h-88zM413 147l64 -38q-13 -29 -32.5 -51.5t-45 -38t-57.5 -23.5t-69 -8q-49 0 -90.5 16t-72 46t-47.5 71.5t-17 90.5q0 51 16.5 94.5t47 75.5t71.5 49.5t88 17.5q51 0 90.5 -17t66 -47t40 -69t13.5 -82v-26h-351
q0 -35 11.5 -63.5t32 -49t47 -31.5t56.5 -11q27 0 49 6t38.5 17.5t29 29t21.5 41.5zM131 262h269q-2 24 -11 46t-25.5 39.5t-40.5 27t-54 9.5q-28 0 -52 -9.5t-42 -26.5t-29 -39t-15 -47z" />
    <glyph glyph-name="Gcircumflex" unicode="&#x11c;" horiz-adv-x="735" 
d="M638 479l-74 -50q-9 31 -26 56.5t-42 44t-58 28t-72 9.5q-48 0 -89 -17.5t-71 -50.5t-46 -80t-16 -105t16.5 -104.5t47 -79.5t72.5 -50.5t92 -17.5q45 0 81.5 13.5t63 38t42 58t19.5 73.5h-244v66h323v-311h-64l-13 114q-10 -29 -31 -53t-50.5 -40t-64 -24.5t-72.5 -8.5
q-66 0 -122.5 23.5t-98.5 67t-65 104t-23 132.5q0 71 24 131.5t67 104.5t100 67.5t122 23.5q51 0 94.5 -11t78 -32t59.5 -51t40 -69zM326 830h96l82 -126h-60l-70 76l-70 -76h-61z" />
    <glyph glyph-name="gcircumflex" unicode="&#x11d;" horiz-adv-x="534" 
d="M225 660h88l85 -146h-59l-70 96l-70 -96h-59zM354 301q0 21 -7.5 38t-21 29.5t-31.5 19t-38 6.5t-38.5 -6.5t-32 -19t-21 -29.5t-7.5 -38t7.5 -38.5t21 -30t31.5 -19t39 -6.5t38.5 6.5t31 19t21 30t7.5 38.5zM509 -28q0 -39 -21 -68.5t-56.5 -48t-80 -27t-92.5 -8.5
q-47 0 -88 7.5t-73 22.5t-50 38.5t-18 54.5q0 17 7.5 32.5t20.5 27.5t31 20t38 10q-15 4 -27 11.5t-20.5 17.5t-12.5 22t-4 26t4.5 26.5t13 22.5t20.5 18.5t27 14.5q-12 9 -22 21t-16.5 26t-10 29.5t-3.5 32.5q0 33 13 60.5t37 47t57.5 30t72.5 10.5q19 0 36.5 -2.5
t33.5 -7.5t30 -12t26 -16q9 16 22 30.5t30 24.5t38 14.5t44 1.5l9 -73q-15 3 -31 2.5t-31.5 -5t-28.5 -11.5t-21 -17q6 -8 10 -17t7 -19t4.5 -20t1.5 -21q0 -34 -13 -61.5t-37.5 -46.5t-57.5 -29.5t-72 -10.5q-13 0 -25.5 1t-24 3.5t-22.5 6t-21 7.5q-7 -4 -12.5 -8
t-9.5 -9.5t-6.5 -12.5t-2.5 -15t3.5 -15t10.5 -12t17.5 -7.5t25.5 -2.5h166q35 0 63.5 -8.5t49 -24t31 -37t10.5 -47.5zM108 -46q0 -20 11.5 -35t32 -25t48 -14.5t59.5 -4.5q37 0 68 5t54 16t36 27.5t13 38.5q0 15 -7 26t-20 18t-30 10t-38 3h-137q-18 0 -34 -4.5t-29 -12.5
t-20 -20.5t-7 -27.5z" />
    <glyph glyph-name="Gbreve" unicode="&#x11e;" horiz-adv-x="735" 
d="M374 701q-28 0 -49.5 8t-36.5 24t-22.5 40t-7.5 56h56q0 -17 3.5 -30t10.5 -22.5t18.5 -14.5t27.5 -5t27 5t18 14.5t10.5 22.5t3.5 30h57q0 -32 -8 -56t-22.5 -40t-36 -24t-49.5 -8zM638 479l-74 -50q-9 31 -26 56.5t-42 44t-58 28t-72 9.5q-48 0 -89 -17.5t-71 -50.5
t-46 -80t-16 -105t16.5 -104.5t47 -79.5t72.5 -50.5t92 -17.5q45 0 81.5 13.5t63 38t42 58t19.5 73.5h-244v66h323v-311h-64l-13 114q-10 -29 -31 -53t-50.5 -40t-64 -24.5t-72.5 -8.5q-66 0 -122.5 23.5t-98.5 67t-65 104t-23 132.5q0 71 24 131.5t67 104.5t100 67.5
t122 23.5q51 0 94.5 -11t78 -32t59.5 -51t40 -69z" />
    <glyph glyph-name="gbreve" unicode="&#x11f;" horiz-adv-x="534" 
d="M354 301q0 21 -7.5 38t-21 29.5t-31.5 19t-38 6.5t-38.5 -6.5t-32 -19t-21 -29.5t-7.5 -38t7.5 -38.5t21 -30t31.5 -19t39 -6.5t38.5 6.5t31 19t21 30t7.5 38.5zM509 -28q0 -39 -21 -68.5t-56.5 -48t-80 -27t-92.5 -8.5q-47 0 -88 7.5t-73 22.5t-50 38.5t-18 54.5
q0 17 7.5 32.5t20.5 27.5t31 20t38 10q-15 4 -27 11.5t-20.5 17.5t-12.5 22t-4 26t4.5 26.5t13 22.5t20.5 18.5t27 14.5q-12 9 -22 21t-16.5 26t-10 29.5t-3.5 32.5q0 33 13 60.5t37 47t57.5 30t72.5 10.5q19 0 36.5 -2.5t33.5 -7.5t30 -12t26 -16q9 16 22 30.5t30 24.5
t38 14.5t44 1.5l9 -73q-15 3 -31 2.5t-31.5 -5t-28.5 -11.5t-21 -17q6 -8 10 -17t7 -19t4.5 -20t1.5 -21q0 -34 -13 -61.5t-37.5 -46.5t-57.5 -29.5t-72 -10.5q-13 0 -25.5 1t-24 3.5t-22.5 6t-21 7.5q-7 -4 -12.5 -8t-9.5 -9.5t-6.5 -12.5t-2.5 -15t3.5 -15t10.5 -12
t17.5 -7.5t25.5 -2.5h166q35 0 63.5 -8.5t49 -24t31 -37t10.5 -47.5zM108 -46q0 -20 11.5 -35t32 -25t48 -14.5t59.5 -4.5q37 0 68 5t54 16t36 27.5t13 38.5q0 15 -7 26t-20 18t-30 10t-38 3h-137q-18 0 -34 -4.5t-29 -12.5t-20 -20.5t-7 -27.5zM269 504q-27 0 -49.5 10.5
t-38 30t-24 46.5t-8.5 59h55q0 -20 4 -36.5t12 -28.5t20.5 -18.5t28.5 -6.5t28 6.5t20.5 18.5t12.5 28.5t4 36.5h55q0 -32 -8.5 -59t-24.5 -46.5t-38 -30t-49 -10.5z" />
    <glyph glyph-name="Gdotaccent" unicode="&#x120;" horiz-adv-x="735" 
d="M421 708h-95v92h95v-92zM638 479l-74 -50q-9 31 -26 56.5t-42 44t-58 28t-72 9.5q-48 0 -89 -17.5t-71 -50.5t-46 -80t-16 -105t16.5 -104.5t47 -79.5t72.5 -50.5t92 -17.5q45 0 81.5 13.5t63 38t42 58t19.5 73.5h-244v66h323v-311h-64l-13 114q-10 -29 -31 -53
t-50.5 -40t-64 -24.5t-72.5 -8.5q-66 0 -122.5 23.5t-98.5 67t-65 104t-23 132.5q0 71 24 131.5t67 104.5t100 67.5t122 23.5q51 0 94.5 -11t78 -32t59.5 -51t40 -69z" />
    <glyph glyph-name="gdotaccent" unicode="&#x121;" horiz-adv-x="534" 
d="M354 301q0 21 -7.5 38t-21 29.5t-31.5 19t-38 6.5t-38.5 -6.5t-32 -19t-21 -29.5t-7.5 -38t7.5 -38.5t21 -30t31.5 -19t39 -6.5t38.5 6.5t31 19t21 30t7.5 38.5zM509 -28q0 -39 -21 -68.5t-56.5 -48t-80 -27t-92.5 -8.5q-47 0 -88 7.5t-73 22.5t-50 38.5t-18 54.5
q0 17 7.5 32.5t20.5 27.5t31 20t38 10q-15 4 -27 11.5t-20.5 17.5t-12.5 22t-4 26t4.5 26.5t13 22.5t20.5 18.5t27 14.5q-12 9 -22 21t-16.5 26t-10 29.5t-3.5 32.5q0 33 13 60.5t37 47t57.5 30t72.5 10.5q19 0 36.5 -2.5t33.5 -7.5t30 -12t26 -16q9 16 22 30.5t30 24.5
t38 14.5t44 1.5l9 -73q-15 3 -31 2.5t-31.5 -5t-28.5 -11.5t-21 -17q6 -8 10 -17t7 -19t4.5 -20t1.5 -21q0 -34 -13 -61.5t-37.5 -46.5t-57.5 -29.5t-72 -10.5q-13 0 -25.5 1t-24 3.5t-22.5 6t-21 7.5q-7 -4 -12.5 -8t-9.5 -9.5t-6.5 -12.5t-2.5 -15t3.5 -15t10.5 -12
t17.5 -7.5t25.5 -2.5h166q35 0 63.5 -8.5t49 -24t31 -37t10.5 -47.5zM108 -46q0 -20 11.5 -35t32 -25t48 -14.5t59.5 -4.5q37 0 68 5t54 16t36 27.5t13 38.5q0 15 -7 26t-20 18t-30 10t-38 3h-137q-18 0 -34 -4.5t-29 -12.5t-20 -20.5t-7 -27.5zM316 538h-95v92h95v-92z" />
    <glyph glyph-name="Gcommaaccent" unicode="&#x122;" horiz-adv-x="735" 
d="M329 -122v69h90v-66q0 -22 -5 -39.5t-16.5 -30t-29.5 -19.5t-43 -7v35q12 0 20.5 4t13.5 11.5t7 18t2 24.5h-39zM638 479l-74 -50q-9 31 -26 56.5t-42 44t-58 28t-72 9.5q-48 0 -89 -17.5t-71 -50.5t-46 -80t-16 -105t16.5 -104.5t47 -79.5t72.5 -50.5t92 -17.5
q45 0 81.5 13.5t63 38t42 58t19.5 73.5h-244v66h323v-311h-64l-13 114q-10 -29 -31 -53t-50.5 -40t-64 -24.5t-72.5 -8.5q-66 0 -122.5 23.5t-98.5 67t-65 104t-23 132.5q0 71 24 131.5t67 104.5t100 67.5t122 23.5q51 0 94.5 -11t78 -32t59.5 -51t40 -69z" />
    <glyph glyph-name="gcommaaccent" unicode="&#x123;" horiz-adv-x="534" 
d="M314 583v-68h-90v66q0 22 5 39.5t16.5 30t29.5 19.5t43 7v-35q-12 0 -20.5 -4t-13.5 -11.5t-7 -18.5t-2 -25h39zM354 301q0 21 -7.5 38t-21 29.5t-31.5 19t-38 6.5t-38.5 -6.5t-32 -19t-21 -29.5t-7.5 -38t7.5 -38.5t21 -30t31.5 -19t39 -6.5t38.5 6.5t31 19t21 30
t7.5 38.5zM509 -28q0 -39 -21 -68.5t-56.5 -48t-80 -27t-92.5 -8.5q-47 0 -88 7.5t-73 22.5t-50 38.5t-18 54.5q0 17 7.5 32.5t20.5 27.5t31 20t38 10q-15 4 -27 11.5t-20.5 17.5t-12.5 22t-4 26t4.5 26.5t13 22.5t20.5 18.5t27 14.5q-12 9 -22 21t-16.5 26t-10 29.5
t-3.5 32.5q0 33 13 60.5t37 47t57.5 30t72.5 10.5q19 0 36.5 -2.5t33.5 -7.5t30 -12t26 -16q9 16 22 30.5t30 24.5t38 14.5t44 1.5l9 -73q-15 3 -31 2.5t-31.5 -5t-28.5 -11.5t-21 -17q6 -8 10 -17t7 -19t4.5 -20t1.5 -21q0 -34 -13 -61.5t-37.5 -46.5t-57.5 -29.5
t-72 -10.5q-13 0 -25.5 1t-24 3.5t-22.5 6t-21 7.5q-7 -4 -12.5 -8t-9.5 -9.5t-6.5 -12.5t-2.5 -15t3.5 -15t10.5 -12t17.5 -7.5t25.5 -2.5h166q35 0 63.5 -8.5t49 -24t31 -37t10.5 -47.5zM108 -46q0 -20 11.5 -35t32 -25t48 -14.5t59.5 -4.5q37 0 68 5t54 16t36 27.5
t13 38.5q0 15 -7 26t-20 18t-30 10t-38 3h-137q-18 0 -34 -4.5t-29 -12.5t-20 -20.5t-7 -27.5z" />
    <glyph glyph-name="Hcircumflex" unicode="&#x124;" horiz-adv-x="730" 
d="M172 0h-88v630h88v-266h386v266h88v-630h-88v289h-386v-289zM317 830h96l82 -126h-60l-70 76l-70 -76h-61z" />
    <glyph glyph-name="hcircumflex" unicode="&#x125;" horiz-adv-x="558" 
d="M162 630v-282q8 21 22.5 39t35 32t46 22t53.5 8q42 0 73.5 -13t51.5 -37t29.5 -56.5t9.5 -71.5v-271h-83v260q0 27 -7 49t-21 38t-34.5 24t-47.5 8t-50.5 -10t-41 -29t-27 -45.5t-9.5 -58.5v-236h-83v630h83zM234 799h96l82 -126h-60l-70 76l-70 -76h-61z" />
    <glyph glyph-name="Hbar" unicode="&#x126;" horiz-adv-x="762" 
d="M188 318h386v120h-386v-120zM188 243v-243h-88v438h-76v70h76v122h88v-122h386v122h88v-122h76v-70h-76v-438h-88v243h-386z" />
    <glyph glyph-name="hbar" unicode="&#x127;" horiz-adv-x="571" 
d="M175 236v-236h-83v505h-74v52h74v73h83v-73h138v-52h-138v-157q8 21 22.5 39t35 32t46 22t53.5 8q42 0 73.5 -13t51.5 -37t29.5 -56.5t9.5 -71.5v-271h-83v260q0 27 -7 49t-21 38t-34.5 24t-47.5 8t-50.5 -10t-41 -29t-27 -45.5t-9.5 -58.5z" />
    <glyph glyph-name="Itilde" unicode="&#x128;" horiz-adv-x="256" 
d="M84 630h88v-630h-88v630zM28 703h-52q0 27 5.5 49t16 37.5t26.5 24t37 8.5q18 0 34 -7.5t37 -23t32.5 -22t23.5 -6.5q10 0 17 3.5t11 10.5t6 17.5t3 24.5h52q0 -27 -5.5 -49t-16 -38t-26.5 -24t-37 -8q-18 0 -34 7.5t-36.5 23t-32 22t-24.5 6.5q-10 0 -17 -3.5t-11 -11
t-6 -17.5t-3 -24z" />
    <glyph glyph-name="itilde" unicode="&#x129;" horiz-adv-x="241" 
d="M38 520h-50q0 27 5 49t15 38t24 24t33 8q17 0 30.5 -8t31 -23.5t25.5 -21.5t18 -6q9 0 15 3.5t10 11t5.5 17.5t2.5 24h50q0 -27 -5 -49t-15 -37.5t-24.5 -24t-32.5 -8.5q-17 0 -30.5 8t-31 23.5t-25.5 21.5t-18 6q-9 0 -15 -3.5t-10 -10.5t-5.5 -17t-2.5 -25zM79 437h83
v-437h-83v437z" />
    <glyph glyph-name="Imacron" unicode="&#x12a;" horiz-adv-x="256" 
d="M84 630h88v-630h-88v630zM-4 709v60h263v-60h-263z" />
    <glyph glyph-name="imacron" unicode="&#x12b;" horiz-adv-x="241" 
d="M8 531v59h225v-59h-225zM79 437h83v-437h-83v437z" />
    <glyph glyph-name="Ibreve" unicode="&#x12c;" horiz-adv-x="256" 
d="M84 630h88v-630h-88v630zM127 701q-28 0 -49.5 8t-36.5 24t-22.5 40t-7.5 56h56q0 -17 3.5 -30t10.5 -22.5t18.5 -14.5t27.5 -5t27 5t18 14.5t10.5 22.5t3.5 30h57q0 -32 -8 -56t-22.5 -40t-36 -24t-49.5 -8z" />
    <glyph glyph-name="ibreve" unicode="&#x12d;" horiz-adv-x="241" 
d="M79 437h83v-437h-83v437zM121 504q-27 0 -49.5 10.5t-38 30t-24 46.5t-8.5 59h55q0 -20 4 -36.5t12 -28.5t20.5 -18.5t28.5 -6.5t28 6.5t20.5 18.5t12.5 28.5t4 36.5h55q0 -32 -8.5 -59t-24.5 -46.5t-38 -30t-49 -10.5z" />
    <glyph glyph-name="Iogonek" unicode="&#x12e;" horiz-adv-x="256" 
d="M84 630h88v-630h-18q-14 -13 -24 -23q-15 -15 -24.5 -27.5t-14 -23.5t-4.5 -22q0 -7 2 -12.5t6.5 -9.5t11.5 -6t17 -2q7 0 14 1.5t14 4t13.5 5.5t14.5 7v-45q-8 -5 -16 -9.5t-17.5 -8t-20.5 -5.5t-24 -2q-17 0 -31 4.5t-24.5 13t-16 21.5t-5.5 29q0 17 7 33t19.5 30
t26.5 27q10 8 24 20h-18v630z" />
    <glyph glyph-name="iogonek" unicode="&#x12f;" horiz-adv-x="241" 
d="M79 437h83v-437h-16q-14 -13 -24 -23q-15 -15 -24.5 -27.5t-14 -23.5t-4.5 -22q0 -7 2 -12.5t6.5 -9.5t11.5 -6t17 -2q7 0 14 1.5t14 4t13.5 5.5t14.5 7v-45q-8 -5 -16 -9.5t-17.5 -8t-20.5 -5.5t-24 -2q-17 0 -31 4.5t-24.5 13t-16 21.5t-5.5 29q0 17 7 33t19.5 30
t26.5 27q10 8 24 20h-15v437zM73 538v92h95v-92h-95z" />
    <glyph glyph-name="Idotaccent" unicode="&#x130;" horiz-adv-x="256" 
d="M84 630h88v-630h-88v630zM174 708h-95v92h95v-92z" />
    <glyph glyph-name="dotlessi" unicode="&#x131;" horiz-adv-x="241" 
d="M79 437h83v-437h-83v437z" />
    <glyph glyph-name="IJ" unicode="&#x132;" horiz-adv-x="787" 
d="M84 630h88v-630h-88v630zM624 630h88v-411q0 -54 -15 -97t-43 -73t-67 -45.5t-87 -15.5q-52 0 -93.5 18t-70 52t-41.5 81t-9 103l89 21q-5 -45 0 -81.5t21 -63t42 -40.5t62 -14q32 0 55.5 10.5t39 30.5t22.5 49t7 66v410z" />
    <glyph glyph-name="ij" unicode="&#x133;" horiz-adv-x="481" 
d="M73 538v92h95v-92h-95zM79 437h83v-437h-83v437zM408 538h-95v92h95v-92zM402 437v-497q0 -29 -7 -51.5t-21.5 -37.5t-36.5 -23t-51 -8q-14 0 -27.5 2.5t-26 7t-24 10t-20.5 12.5l21 52q9 -6 17 -10t16 -7t17 -4.5t19 -1.5t17.5 3t13 9t8 15t2.5 21v508h83z" />
    <glyph glyph-name="Jcircumflex" unicode="&#x134;" horiz-adv-x="551" 
d="M388 630h88v-411q0 -54 -15 -97t-43 -73t-67 -45.5t-87 -15.5q-52 0 -93.5 18t-70 52t-41.5 81t-9 103l89 21q-5 -45 0 -81.5t21 -63t42 -40.5t62 -14q32 0 55.5 10.5t39 30.5t22.5 49t7 66v410zM378 830h96l82 -126h-60l-70 76l-70 -76h-61z" />
    <glyph glyph-name="jcircumflex" unicode="&#x135;" horiz-adv-x="241" 
d="M74 660h88l85 -146h-59l-70 96l-70 -96h-59zM162 437v-497q0 -29 -7 -51.5t-21.5 -37.5t-36.5 -23t-51 -8q-14 0 -27.5 2.5t-26 7t-24 10t-20.5 12.5l21 52q9 -6 17 -10t16 -7t17 -4.5t19 -1.5t17.5 3t13 9t8 15t2.5 21v508h83z" />
    <glyph glyph-name="Kcommaaccent" unicode="&#x136;" horiz-adv-x="659" 
d="M275 -122v69h90v-66q0 -22 -5 -39.5t-16.5 -30t-29.5 -19.5t-43 -7v35q12 0 20.5 4t13.5 11.5t7 18t2 24.5h-39zM640 0h-109l-249 315l-110 -111v-204h-88v630h88v-330l328 330h107l-261 -260z" />
    <glyph glyph-name="kcommaaccent" unicode="&#x137;" horiz-adv-x="527" 
d="M224 -122v69h90v-66q0 -22 -5 -39.5t-16.5 -30t-29.5 -19.5t-43 -7v35q12 0 20.5 4t13.5 11.5t7 18t2 24.5h-39zM162 153v-153h-83v630h83v-397l237 204h102l-205 -171l214 -266h-97l-176 217z" />
    <glyph glyph-name="kgreenlandic" unicode="&#x138;" horiz-adv-x="527" 
d="M162 153v-153h-83v437h83v-204l237 204h102l-205 -171l214 -266h-97l-176 217z" />
    <glyph glyph-name="Lacute" unicode="&#x139;" horiz-adv-x="608" 
d="M163 704h-58l54 126h101zM84 630h88v-554h389v-76h-477v630z" />
    <glyph glyph-name="lacute" unicode="&#x13a;" horiz-adv-x="241" 
d="M146 704h-58l54 126h101zM79 630h83v-630h-83v630z" />
    <glyph glyph-name="Lcommaaccent" unicode="&#x13b;" horiz-adv-x="608" 
d="M278 -122v69h90v-66q0 -22 -5 -39.5t-16.5 -30t-29.5 -19.5t-43 -7v35q12 0 20.5 4t13.5 11.5t7 18t2 24.5h-39zM84 630h88v-554h389v-76h-477v630z" />
    <glyph glyph-name="lcommaaccent" unicode="&#x13c;" horiz-adv-x="241" 
d="M76 -122v69h90v-66q0 -22 -5 -39.5t-16.5 -30t-29.5 -19.5t-43 -7v35q12 0 20.5 4t13.5 11.5t7 18t2 24.5h-39zM79 630h83v-630h-83v630z" />
    <glyph glyph-name="Lcaron" unicode="&#x13d;" horiz-adv-x="608" 
d="M413 474h-44l18 156h92zM84 630h88v-554h389v-76h-477v630z" />
    <glyph glyph-name="lcaron" unicode="&#x13e;" horiz-adv-x="241" 
d="M292 483h-44l18 156h92zM79 630h83v-630h-83v630z" />
    <glyph glyph-name="Ldot" unicode="&#x13f;" horiz-adv-x="608" 
d="M84 630h88v-554h389v-76h-477v630zM499 280h-95v100h95v-100z" />
    <glyph glyph-name="ldot" unicode="&#x140;" horiz-adv-x="383" 
d="M79 630h83v-630h-83v630zM361 269h-95v100h95v-100z" />
    <glyph glyph-name="Lslash" unicode="&#x141;" horiz-adv-x="624" 
d="M577 0h-477v260l-76 -31v73l76 32v296h88v-266l185 76v-73l-185 -77v-214h389v-76z" />
    <glyph glyph-name="lslash" unicode="&#x142;" horiz-adv-x="307" 
d="M195 0h-83v303l-84 -43v62l84 45v263h83v-225l85 44v-62l-85 -45v-342z" />
    <glyph glyph-name="Nacute" unicode="&#x143;" horiz-adv-x="698" 
d="M376 704h-58l54 126h101zM181 630l352 -488v488h81v-630h-73l-376 516v-516h-81v630h97z" />
    <glyph glyph-name="nacute" unicode="&#x144;" horiz-adv-x="558" 
d="M303 514h-56l60 152h95zM162 236v-236h-83v437h83v-89q8 21 22.5 39t35 32t46 22t53.5 8q42 0 73.5 -13t51.5 -37t29.5 -56.5t9.5 -71.5v-271h-83v260q0 27 -7 49t-21 38t-34.5 24t-47.5 8t-50.5 -10t-41 -29t-27 -45.5t-9.5 -58.5z" />
    <glyph glyph-name="Ncommaaccent" unicode="&#x145;" horiz-adv-x="698" 
d="M305 -122v69h90v-66q0 -22 -5 -39.5t-16.5 -30t-29.5 -19.5t-43 -7v35q12 0 20.5 4t13.5 11.5t7 18t2 24.5h-39zM181 630l352 -488v488h81v-630h-73l-376 516v-516h-81v630h97z" />
    <glyph glyph-name="ncommaaccent" unicode="&#x146;" horiz-adv-x="558" 
d="M235 -122v69h90v-66q0 -22 -5 -39.5t-16.5 -30t-29.5 -19.5t-43 -7v35q12 0 20.5 4t13.5 11.5t7 18t2 24.5h-39zM162 236v-236h-83v437h83v-89q8 21 22.5 39t35 32t46 22t53.5 8q42 0 73.5 -13t51.5 -37t29.5 -56.5t9.5 -71.5v-271h-83v260q0 27 -7 49t-21 38t-34.5 24
t-47.5 8t-50.5 -10t-41 -29t-27 -45.5t-9.5 -58.5z" />
    <glyph glyph-name="Ncaron" unicode="&#x147;" horiz-adv-x="698" 
d="M398 704h-96l-83 126h61l70 -77l70 77h60zM181 630l352 -488v488h81v-630h-73l-376 516v-516h-81v630h97z" />
    <glyph glyph-name="ncaron" unicode="&#x148;" horiz-adv-x="558" 
d="M236 506l-85 146h59l70 -96l70 96h59l-85 -146h-88zM162 236v-236h-83v437h83v-89q8 21 22.5 39t35 32t46 22t53.5 8q42 0 73.5 -13t51.5 -37t29.5 -56.5t9.5 -71.5v-271h-83v260q0 27 -7 49t-21 38t-34.5 24t-47.5 8t-50.5 -10t-41 -29t-27 -45.5t-9.5 -58.5z" />
    <glyph glyph-name="Eng" unicode="&#x14a;" horiz-adv-x="698" 
d="M462 -180q-27 0 -50.5 5.5t-43 16.5t-34.5 25t-25 32l48 47q9 -13 19 -23t21.5 -17.5t26.5 -11.5t32 -4q21 0 35.5 7t23.5 22t13.5 37t4.5 54l-368 506v-516h-81v630h97l352 -488v488h81v-641q0 -43 -11 -75.5t-31 -53t-48 -30.5t-62 -10z" />
    <glyph glyph-name="eng" unicode="&#x14b;" horiz-adv-x="558" 
d="M368 -180q-14 0 -28 2.5t-26.5 7t-24 10t-20.5 12.5l21 52q9 -6 17 -10t16 -7t17 -4.5t19 -1.5t17.5 3t13 9t8 15t2.5 21v331q0 27 -7 49t-21 38t-34.5 24t-47.5 8t-50.5 -10t-41 -29t-27 -45.5t-9.5 -58.5v-236h-83v437h83v-89q8 21 22.5 39t35 32t46 22t53.5 8
q42 0 73.5 -13t51.5 -37t29.5 -56.5t9.5 -71.5v-331q0 -29 -7 -51.5t-21.5 -37.5t-36 -23t-50.5 -8z" />
    <glyph glyph-name="Omacron" unicode="&#x14c;" horiz-adv-x="745" 
d="M241 709v60h263v-60h-263zM692 315q0 -72 -23.5 -132t-67 -104t-102.5 -67.5t-127 -23.5t-126.5 23.5t-102 67.5t-67 104t-23.5 132t23.5 132t67 104t102 67.5t126.5 23.5t127 -23.5t102.5 -67.5t67 -104t23.5 -132zM601 315q0 57 -16.5 103.5t-47 79.5t-72.5 50.5
t-93 17.5t-93 -17.5t-72 -50.5t-46.5 -79.5t-16.5 -103.5t16.5 -103.5t46.5 -79.5t72 -50.5t93 -17.5t93 17.5t72.5 50.5t47 79.5t16.5 103.5z" />
    <glyph glyph-name="omacron" unicode="&#x14d;" horiz-adv-x="553" 
d="M146 531v59h261v-59h-261zM507 218q0 -50 -17.5 -92t-49.5 -73t-74 -48t-90 -17t-90 17t-73.5 48t-49 73t-17.5 92t17.5 92.5t49 73.5t73.5 48t90 17t90 -17t74 -48t49.5 -73.5t17.5 -92.5zM132 218q0 -36 10 -66.5t29 -52.5t45.5 -33.5t59.5 -11.5t60 11.5t46 33.5
t29 52.5t10 66.5q0 37 -10 67.5t-29 52.5t-46 33.5t-60 11.5t-59.5 -11.5t-45.5 -33.5t-29 -52.5t-10 -67.5z" />
    <glyph glyph-name="Obreve" unicode="&#x14e;" horiz-adv-x="745" 
d="M373 701q-28 0 -49.5 8t-36.5 24t-22.5 40t-7.5 56h56q0 -17 3.5 -30t10.5 -22.5t18.5 -14.5t27.5 -5t27 5t18 14.5t10.5 22.5t3.5 30h57q0 -32 -8 -56t-22.5 -40t-36 -24t-49.5 -8zM692 315q0 -72 -23.5 -132t-67 -104t-102.5 -67.5t-127 -23.5t-126.5 23.5t-102 67.5
t-67 104t-23.5 132t23.5 132t67 104t102 67.5t126.5 23.5t127 -23.5t102.5 -67.5t67 -104t23.5 -132zM601 315q0 57 -16.5 103.5t-47 79.5t-72.5 50.5t-93 17.5t-93 -17.5t-72 -50.5t-46.5 -79.5t-16.5 -103.5t16.5 -103.5t46.5 -79.5t72 -50.5t93 -17.5t93 17.5t72.5 50.5
t47 79.5t16.5 103.5z" />
    <glyph glyph-name="obreve" unicode="&#x14f;" horiz-adv-x="553" 
d="M507 218q0 -50 -17.5 -92t-49.5 -73t-74 -48t-90 -17t-90 17t-73.5 48t-49 73t-17.5 92t17.5 92.5t49 73.5t73.5 48t90 17t90 -17t74 -48t49.5 -73.5t17.5 -92.5zM132 218q0 -36 10 -66.5t29 -52.5t45.5 -33.5t59.5 -11.5t60 11.5t46 33.5t29 52.5t10 66.5q0 37 -10 67.5
t-29 52.5t-46 33.5t-60 11.5t-59.5 -11.5t-45.5 -33.5t-29 -52.5t-10 -67.5zM277 504q-27 0 -49.5 10.5t-38 30t-24 46.5t-8.5 59h55q0 -20 4 -36.5t12 -28.5t20.5 -18.5t28.5 -6.5t28 6.5t20.5 18.5t12.5 28.5t4 36.5h55q0 -32 -8.5 -59t-24.5 -46.5t-38 -30t-49 -10.5z
" />
    <glyph glyph-name="Ohungarumlaut" unicode="&#x150;" horiz-adv-x="745" 
d="M692 315q0 -72 -23.5 -132t-67 -104t-102.5 -67.5t-127 -23.5t-126.5 23.5t-102 67.5t-67 104t-23.5 132t23.5 132t67 104t102 67.5t126.5 23.5t127 -23.5t102.5 -67.5t67 -104t23.5 -132zM601 315q0 57 -16.5 103.5t-47 79.5t-72.5 50.5t-93 17.5t-93 -17.5t-72 -50.5
t-46.5 -79.5t-16.5 -103.5t16.5 -103.5t46.5 -79.5t72 -50.5t93 -17.5t93 17.5t72.5 50.5t47 79.5t16.5 103.5zM472 704h-50l51 126h95zM325 704h-50l51 126h95z" />
    <glyph glyph-name="ohungarumlaut" unicode="&#x151;" horiz-adv-x="553" 
d="M374 506h-49l54 152h89zM223 506h-50l55 152h89zM507 218q0 -50 -17.5 -92t-49.5 -73t-74 -48t-90 -17t-90 17t-73.5 48t-49 73t-17.5 92t17.5 92.5t49 73.5t73.5 48t90 17t90 -17t74 -48t49.5 -73.5t17.5 -92.5zM132 218q0 -36 10 -66.5t29 -52.5t45.5 -33.5t59.5 -11.5
t60 11.5t46 33.5t29 52.5t10 66.5q0 37 -10 67.5t-29 52.5t-46 33.5t-60 11.5t-59.5 -11.5t-45.5 -33.5t-29 -52.5t-10 -67.5z" />
    <glyph glyph-name="OE" unicode="&#x152;" horiz-adv-x="1080" 
d="M391 0q-77 0 -139.5 21.5t-107 62.5t-68 99.5t-23.5 131.5t23.5 131.5t68 99.5t107 62.5t139.5 21.5h621v-74h-388v-192h295v-75h-295v-215h397v-74h-630zM537 558h-136q-62 0 -110 -16.5t-81 -47.5t-49.5 -76.5t-16.5 -102.5t16.5 -102.5t49.5 -76.5t81 -47.5t110 -16.5
h136v486z" />
    <glyph glyph-name="oe" unicode="&#x153;" horiz-adv-x="894" 
d="M846 109q-13 -29 -32.5 -51.5t-45 -38t-57 -23.5t-67.5 -8q-30 0 -57 6.5t-50.5 19t-43 30t-34.5 39.5q-15 -21 -35 -38.5t-43.5 -30.5t-50 -19.5t-54.5 -6.5q-48 0 -90 17t-73.5 48t-49 73t-17.5 92t17.5 92.5t49 73.5t73.5 48t90 17q28 0 55 -7t51 -20t44 -31t35 -40
q14 22 33 40t42 31t49 20t53 7q51 0 90.5 -17t66 -47t40 -69t13.5 -82v-26h-351q0 -35 11.5 -63.5t31.5 -49t47 -31.5t57 -11q27 0 49 6t38.5 17.5t29 29t21.5 41.5zM500 262h268q-1 24 -10 46t-25.5 39.5t-40.5 27t-54 9.5q-28 0 -52 -9.5t-42 -26.5t-29 -39t-15 -47z
M132 218q0 -36 10 -66.5t29 -52.5t45.5 -33.5t59.5 -11.5t60 11.5t46 33.5t29 52.5t10 66.5q0 37 -10 67.5t-29 52.5t-46 33.5t-60 11.5t-59.5 -11.5t-45.5 -33.5t-29 -52.5t-10 -67.5z" />
    <glyph glyph-name="Racute" unicode="&#x154;" horiz-adv-x="664" 
d="M171 557v-211h179q40 0 69 6.5t48.5 19.5t29 33t9.5 47q0 26 -8.5 45.5t-27 32.5t-47 20t-67.5 7h-185zM633 0h-105q-8 4 -15 15t-12 28t-9 38.5t-6 45.5q-3 38 -11 65.5t-22.5 46t-37.5 28t-56 9.5h-188v-276h-87v630h279q59 0 102.5 -12t72.5 -35t43 -55.5t14 -72.5
q0 -29 -12 -54.5t-33.5 -45t-49.5 -31t-59 -13.5q27 -4 48 -16.5t36 -31.5t24.5 -43.5t13.5 -52.5q6 -39 13 -66t15.5 -45t18.5 -29.5t23 -19.5v-7zM348 704h-58l54 126h101z" />
    <glyph glyph-name="racute" unicode="&#x155;" horiz-adv-x="471" 
d="M281 514h-56l60 152h95zM286 376q-25 0 -48 -12t-40.5 -33t-27.5 -49.5t-10 -59.5v-222h-83v437h83v-105q8 23 20.5 43.5t31 37t42.5 26.5t53 10q31 0 55.5 -10.5t41 -30t25 -45.5t8.5 -56v-7t-0.5 -8t-1.5 -7.5t-2 -6.5l-71 -22q1 3 1.5 6.5t1 7.5l1 8t0.5 8
q0 20 -4.5 36.5t-14.5 28.5t-25 18.5t-36 6.5z" />
    <glyph glyph-name="Rcommaaccent" unicode="&#x156;" horiz-adv-x="664" 
d="M278 -122v69h90v-66q0 -22 -5 -39.5t-16.5 -30t-29.5 -19.5t-43 -7v35q12 0 20.5 4t13.5 11.5t7 18t2 24.5h-39zM171 557v-211h179q40 0 69 6.5t48.5 19.5t29 33t9.5 47q0 26 -8.5 45.5t-27 32.5t-47 20t-67.5 7h-185zM633 0h-105q-8 4 -15 15t-12 28t-9 38.5t-6 45.5
q-3 38 -11 65.5t-22.5 46t-37.5 28t-56 9.5h-188v-276h-87v630h279q59 0 102.5 -12t72.5 -35t43 -55.5t14 -72.5q0 -29 -12 -54.5t-33.5 -45t-49.5 -31t-59 -13.5q27 -4 48 -16.5t36 -31.5t24.5 -43.5t13.5 -52.5q6 -39 13 -66t15.5 -45t18.5 -29.5t23 -19.5v-7z" />
    <glyph glyph-name="rcommaaccent" unicode="&#x157;" horiz-adv-x="471" 
d="M74 -122v69h90v-66q0 -22 -5 -39.5t-16.5 -30t-29.5 -19.5t-43 -7v35q12 0 20.5 4t13.5 11.5t7 18t2 24.5h-39zM286 376q-25 0 -48 -12t-40.5 -33t-27.5 -49.5t-10 -59.5v-222h-83v437h83v-105q8 23 20.5 43.5t31 37t42.5 26.5t53 10q31 0 55.5 -10.5t41 -30t25 -45.5
t8.5 -56v-7t-0.5 -8t-1.5 -7.5t-2 -6.5l-71 -22q1 3 1.5 6.5t1 7.5l1 8t0.5 8q0 20 -4.5 36.5t-14.5 28.5t-25 18.5t-36 6.5z" />
    <glyph glyph-name="Rcaron" unicode="&#x158;" horiz-adv-x="664" 
d="M371 704h-96l-83 126h61l70 -77l70 77h60zM171 557v-211h179q40 0 69 6.5t48.5 19.5t29 33t9.5 47q0 26 -8.5 45.5t-27 32.5t-47 20t-67.5 7h-185zM633 0h-105q-8 4 -15 15t-12 28t-9 38.5t-6 45.5q-3 38 -11 65.5t-22.5 46t-37.5 28t-56 9.5h-188v-276h-87v630h279
q59 0 102.5 -12t72.5 -35t43 -55.5t14 -72.5q0 -29 -12 -54.5t-33.5 -45t-49.5 -31t-59 -13.5q27 -4 48 -16.5t36 -31.5t24.5 -43.5t13.5 -52.5q6 -39 13 -66t15.5 -45t18.5 -29.5t23 -19.5v-7z" />
    <glyph glyph-name="rcaron" unicode="&#x159;" horiz-adv-x="471" 
d="M213 506l-85 146h59l70 -96l70 96h59l-85 -146h-88zM286 376q-25 0 -48 -12t-40.5 -33t-27.5 -49.5t-10 -59.5v-222h-83v437h83v-105q8 23 20.5 43.5t31 37t42.5 26.5t53 10q31 0 55.5 -10.5t41 -30t25 -45.5t8.5 -56v-7t-0.5 -8t-1.5 -7.5t-2 -6.5l-71 -22q1 3 1.5 6.5
t1 7.5l1 8t0.5 8q0 20 -4.5 36.5t-14.5 28.5t-25 18.5t-36 6.5z" />
    <glyph glyph-name="Sacute" unicode="&#x15a;" horiz-adv-x="612" 
d="M29 132l57 66q15 -33 39.5 -59t55.5 -43.5t65 -26.5t70 -9q35 0 65 7t52.5 20.5t35 34t12.5 47.5q0 21 -8 36.5t-23 26.5t-36 19t-50 14l-138 30q-35 7 -64.5 20t-52 33t-35 48t-12.5 64q0 40 16.5 73.5t47 58t73 37.5t92.5 13q45 0 84.5 -9t71.5 -26t56.5 -39.5
t41.5 -49.5l-60 -61q-12 25 -30.5 45.5t-44 36t-55.5 23.5t-64 8q-32 0 -58.5 -7t-45.5 -20.5t-29 -33.5t-10 -45q0 -21 8.5 -36.5t24 -26.5t36.5 -18t50 -13l122 -26q41 -9 73 -22t56 -33t37 -49.5t13 -68.5q0 -42 -19 -76.5t-53.5 -58t-80.5 -36t-99 -12.5q-47 0 -91 10
t-82.5 28.5t-67.5 45.5t-46 60zM325 704h-58l54 126h101z" />
    <glyph glyph-name="sacute" unicode="&#x15b;" horiz-adv-x="487" 
d="M267 514h-56l60 152h95zM40 88l48 55q11 -22 29 -39t39.5 -28.5t46 -17.5t49.5 -6q24 0 43.5 3.5t33 11.5t21 20t7.5 28q0 12 -4.5 21t-13.5 16t-21.5 12.5t-29.5 9.5l-98 23q-28 7 -50.5 16.5t-39.5 24t-26 35t-9 47.5q0 28 12.5 52t35.5 41.5t54 26.5t67 9
q32 0 60.5 -6t52.5 -18t42.5 -28.5t30.5 -37.5l-52 -46q-9 17 -23 30t-31.5 22.5t-37.5 14t-42 4.5q-19 0 -35.5 -4t-29 -11.5t-19.5 -18t-7 -23.5q0 -12 4 -21.5t12.5 -16.5t21 -12.5t30.5 -9.5l111 -27q25 -6 45.5 -15.5t36 -24t24 -34.5t8.5 -45q0 -30 -13.5 -55
t-38 -42.5t-58 -26.5t-73.5 -9q-34 0 -66.5 7t-61 20t-50.5 31.5t-35 41.5z" />
    <glyph glyph-name="Scircumflex" unicode="&#x15c;" horiz-adv-x="612" 
d="M29 132l57 66q15 -33 39.5 -59t55.5 -43.5t65 -26.5t70 -9q35 0 65 7t52.5 20.5t35 34t12.5 47.5q0 21 -8 36.5t-23 26.5t-36 19t-50 14l-138 30q-35 7 -64.5 20t-52 33t-35 48t-12.5 64q0 40 16.5 73.5t47 58t73 37.5t92.5 13q45 0 84.5 -9t71.5 -26t56.5 -39.5
t41.5 -49.5l-60 -61q-12 25 -30.5 45.5t-44 36t-55.5 23.5t-64 8q-32 0 -58.5 -7t-45.5 -20.5t-29 -33.5t-10 -45q0 -21 8.5 -36.5t24 -26.5t36.5 -18t50 -13l122 -26q41 -9 73 -22t56 -33t37 -49.5t13 -68.5q0 -42 -19 -76.5t-53.5 -58t-80.5 -36t-99 -12.5q-47 0 -91 10
t-82.5 28.5t-67.5 45.5t-46 60zM252 830h96l82 -126h-60l-70 76l-70 -76h-61z" />
    <glyph glyph-name="scircumflex" unicode="&#x15d;" horiz-adv-x="487" 
d="M200 660h88l85 -146h-59l-70 96l-70 -96h-59zM40 88l48 55q11 -22 29 -39t39.5 -28.5t46 -17.5t49.5 -6q24 0 43.5 3.5t33 11.5t21 20t7.5 28q0 12 -4.5 21t-13.5 16t-21.5 12.5t-29.5 9.5l-98 23q-28 7 -50.5 16.5t-39.5 24t-26 35t-9 47.5q0 28 12.5 52t35.5 41.5
t54 26.5t67 9q32 0 60.5 -6t52.5 -18t42.5 -28.5t30.5 -37.5l-52 -46q-9 17 -23 30t-31.5 22.5t-37.5 14t-42 4.5q-19 0 -35.5 -4t-29 -11.5t-19.5 -18t-7 -23.5q0 -12 4 -21.5t12.5 -16.5t21 -12.5t30.5 -9.5l111 -27q25 -6 45.5 -15.5t36 -24t24 -34.5t8.5 -45
q0 -30 -13.5 -55t-38 -42.5t-58 -26.5t-73.5 -9q-34 0 -66.5 7t-61 20t-50.5 31.5t-35 41.5z" />
    <glyph glyph-name="Scedilla" unicode="&#x15e;" horiz-adv-x="612" 
d="M401 -125q0 -21 -8.5 -37t-24 -26t-34.5 -15t-41 -5q-18 0 -35 3.5t-31.5 10t-26 14t-19.5 15.5l17 36q8 -8 18 -14.5t22 -11.5t25 -7.5t27 -2.5q11 0 20.5 2.5t16.5 7t10.5 11.5t3.5 15q0 14 -8.5 22.5t-22 11.5t-29 1t-27.5 -8l-23 14l47 78q-27 2 -53 8
q-44 10 -82.5 28.5t-67.5 45.5t-46 60l57 66q15 -33 39.5 -59t55.5 -43.5t65 -26.5t70 -9q35 0 65 7t52.5 20.5t35 34t12.5 47.5q0 21 -8 36.5t-23 26.5t-36 19t-50 14l-138 30q-35 7 -64.5 20t-52 33t-35 48t-12.5 64q0 40 16.5 73.5t47 58t73 37.5t92.5 13q45 0 84.5 -9
t71.5 -26t56.5 -39.5t41.5 -49.5l-60 -61q-12 25 -30.5 45.5t-44 36t-55.5 23.5t-64 8q-32 0 -58.5 -7t-45.5 -20.5t-29 -33.5t-10 -45q0 -21 8.5 -36.5t24 -26.5t36.5 -18t50 -13l122 -26q41 -9 73 -22t56 -33t37 -49.5t13 -68.5q0 -42 -19 -76.5t-53.5 -58t-80.5 -36.5
q-45 -12 -97 -12l-29 -47q19 4 38.5 2t36.5 -10.5t27 -23t10 -34.5z" />
    <glyph glyph-name="scedilla" unicode="&#x15f;" horiz-adv-x="487" 
d="M330 -125q0 -21 -8.5 -37t-24 -26t-34.5 -15t-41 -5q-18 0 -35 3.5t-31.5 10t-26 14t-19.5 15.5l17 36q8 -8 18 -14.5t22 -11.5t25 -7.5t27 -2.5q11 0 20.5 2.5t16.5 7t10.5 11.5t3.5 15q0 14 -8.5 22.5t-22 11.5t-29 1t-27.5 -8l-23 14l48 79l-22 4q-32 7 -60.5 20
t-50.5 31.5t-35 41.5l48 55q11 -22 29 -39t39.5 -28.5t46 -17.5t49.5 -6q24 0 43.5 3.5t33 11.5t21 20t7.5 28q0 12 -4.5 21t-13.5 16t-21.5 12.5t-29.5 9.5l-98 23q-28 7 -50.5 16.5t-39.5 24t-26 35t-9 47.5q0 28 12.5 52t35.5 41.5t54 26.5t67 9q32 0 60.5 -6t52.5 -18
t42.5 -28.5t30.5 -37.5l-52 -46q-9 17 -23 30t-31.5 22.5t-37.5 14t-42 4.5q-19 0 -35.5 -4t-29 -11.5t-19.5 -18t-7 -23.5q0 -12 4 -21.5t12.5 -16.5t21 -12.5t30.5 -9.5l111 -27q25 -6 45.5 -15.5t36 -24t24 -34.5t8.5 -45q0 -30 -13.5 -55t-38 -42.5t-58 -26.5t-73.5 -9
h-6l-29 -47q19 4 38.5 2t36.5 -10.5t27 -23t10 -34.5z" />
    <glyph glyph-name="Scaron" unicode="&#x160;" horiz-adv-x="612" 
d="M29 132l57 66q15 -33 39.5 -59t55.5 -43.5t65 -26.5t70 -9q35 0 65 7t52.5 20.5t35 34t12.5 47.5q0 21 -8 36.5t-23 26.5t-36 19t-50 14l-138 30q-35 7 -64.5 20t-52 33t-35 48t-12.5 64q0 40 16.5 73.5t47 58t73 37.5t92.5 13q45 0 84.5 -9t71.5 -26t56.5 -39.5
t41.5 -49.5l-60 -61q-12 25 -30.5 45.5t-44 36t-55.5 23.5t-64 8q-32 0 -58.5 -7t-45.5 -20.5t-29 -33.5t-10 -45q0 -21 8.5 -36.5t24 -26.5t36.5 -18t50 -13l122 -26q41 -9 73 -22t56 -33t37 -49.5t13 -68.5q0 -42 -19 -76.5t-53.5 -58t-80.5 -36t-99 -12.5q-47 0 -91 10
t-82.5 28.5t-67.5 45.5t-46 60zM348 704h-96l-83 126h61l70 -77l70 77h60z" />
    <glyph glyph-name="scaron" unicode="&#x161;" horiz-adv-x="487" 
d="M200 506l-85 146h59l70 -96l70 96h59l-85 -146h-88zM40 88l48 55q11 -22 29 -39t39.5 -28.5t46 -17.5t49.5 -6q24 0 43.5 3.5t33 11.5t21 20t7.5 28q0 12 -4.5 21t-13.5 16t-21.5 12.5t-29.5 9.5l-98 23q-28 7 -50.5 16.5t-39.5 24t-26 35t-9 47.5q0 28 12.5 52
t35.5 41.5t54 26.5t67 9q32 0 60.5 -6t52.5 -18t42.5 -28.5t30.5 -37.5l-52 -46q-9 17 -23 30t-31.5 22.5t-37.5 14t-42 4.5q-19 0 -35.5 -4t-29 -11.5t-19.5 -18t-7 -23.5q0 -12 4 -21.5t12.5 -16.5t21 -12.5t30.5 -9.5l111 -27q25 -6 45.5 -15.5t36 -24t24 -34.5t8.5 -45
q0 -30 -13.5 -55t-38 -42.5t-58 -26.5t-73.5 -9q-34 0 -66.5 7t-61 20t-50.5 31.5t-35 41.5z" />
    <glyph glyph-name="Tcommaaccent" unicode="&#x162;" horiz-adv-x="683" 
d="M297 -122v69h90v-66q0 -22 -5 -39.5t-16.5 -30t-29.5 -19.5t-43 -7v35q12 0 20.5 4t13.5 11.5t7 18t2 24.5h-39zM384 0h-88v554h-256v76h603v-76h-259v-554z" />
    <glyph glyph-name="tcommaaccent" unicode="&#x163;" horiz-adv-x="439" 
d="M196 -122v69h90v-66q0 -22 -5 -39.5t-16.5 -30t-29.5 -19.5t-43 -7v35q12 0 20.5 4t13.5 11.5t7 18t2 24.5h-39zM23 437h91v121l82 25v-146h186v-63h-186v-230q0 -22 6 -38.5t16.5 -27t24 -15.5t28.5 -5q19 0 33.5 5t25.5 15t20.5 24t19.5 35l42 -58q-8 -18 -22 -34
t-33 -29t-42.5 -20.5t-49.5 -7.5q-31 0 -58.5 9.5t-48 28t-32.5 47t-12 65.5v236h-91v63z" />
    <glyph glyph-name="Tcaron" unicode="&#x164;" horiz-adv-x="683" 
d="M390 704h-96l-83 126h61l70 -77l70 77h60zM384 0h-88v554h-256v76h603v-76h-259v-554z" />
    <glyph glyph-name="tcaron" unicode="&#x165;" horiz-adv-x="439" 
d="M334 528h-44l18 156h92zM23 437h91v121l82 25v-146h186v-63h-186v-230q0 -22 6 -38.5t16.5 -27t24 -15.5t28.5 -5q19 0 33.5 5t25.5 15t20.5 24t19.5 35l42 -58q-8 -18 -22 -34t-33 -29t-42.5 -20.5t-49.5 -7.5q-31 0 -58.5 9.5t-48 28t-32.5 47t-12 65.5v236h-91v63z
" />
    <glyph glyph-name="Tbar" unicode="&#x166;" horiz-adv-x="683" 
d="M520 296h-136v-296h-88v296h-135v70h135v188h-256v76h603v-76h-259v-188h136v-70z" />
    <glyph glyph-name="tbar" unicode="&#x167;" horiz-adv-x="473" 
d="M431 79q-8 -18 -22 -34t-33 -29t-42.5 -20.5t-49.5 -7.5q-31 0 -58.5 9.5t-48 28t-32.5 47t-12 65.5v83h-90v54h90v99h-91v63h91v121l82 25v-146h186v-63h-186v-99h186v-54h-186v-77q0 -22 6 -38.5t16.5 -27t24 -15.5t28.5 -5q19 0 33.5 5t25.5 15t20.5 24t19.5 35z" />
    <glyph glyph-name="Utilde" unicode="&#x168;" horiz-adv-x="682" 
d="M242 703h-52q0 27 5.5 49t16 37.5t26.5 24t37 8.5q18 0 34 -7.5t37 -23t32.5 -22t23.5 -6.5q10 0 17 3.5t11 10.5t6 17.5t3 24.5h52q0 -27 -5.5 -49t-16 -38t-26.5 -24t-37 -8q-18 0 -34 7.5t-36.5 23t-32 22t-24.5 6.5q-10 0 -17 -3.5t-11 -11t-6 -17.5t-3 -24zM341 -12
q-54 0 -102 17t-85 50.5t-58 85t-21 118.5v371h88v-365q0 -49 12 -86.5t35.5 -63t56.5 -38.5t74 -13t74.5 13t56.5 38.5t35.5 63t12.5 86.5v365h86v-371q0 -67 -21 -118.5t-57.5 -85t-84.5 -50.5t-102 -17z" />
    <glyph glyph-name="utilde" unicode="&#x169;" horiz-adv-x="556" 
d="M394 200v237h83v-437h-83v89q-8 -21 -22.5 -39t-35 -32t-46 -22t-53.5 -8q-42 0 -73 13t-50.5 37t-29 56t-9.5 71v272h83v-260q0 -28 7 -50t20 -38t33.5 -24t46.5 -8q27 0 51 10.5t41.5 29.5t27 45.5t9.5 57.5zM174 520h-52q0 28 5.5 51t16 40t26.5 26.5t37 9.5
q18 0 34 -9t37 -26t32.5 -24.5t23.5 -7.5q10 0 17 5t11 13.5t6 20t3 25.5h52q0 -28 -5.5 -51t-16 -40t-26.5 -26.5t-37 -9.5q-18 0 -34 9t-36.5 26t-32 24.5t-24.5 7.5q-10 0 -17 -5t-11 -13.5t-6 -19.5t-3 -26z" />
    <glyph glyph-name="Umacron" unicode="&#x16a;" horiz-adv-x="682" 
d="M209 709v60h263v-60h-263zM341 -12q-54 0 -102 17t-85 50.5t-58 85t-21 118.5v371h88v-365q0 -49 12 -86.5t35.5 -63t56.5 -38.5t74 -13t74.5 13t56.5 38.5t35.5 63t12.5 86.5v365h86v-371q0 -67 -21 -118.5t-57.5 -85t-84.5 -50.5t-102 -17z" />
    <glyph glyph-name="umacron" unicode="&#x16b;" horiz-adv-x="556" 
d="M394 200v237h83v-437h-83v89q-8 -21 -22.5 -39t-35 -32t-46 -22t-53.5 -8q-42 0 -73 13t-50.5 37t-29 56t-9.5 71v272h83v-260q0 -28 7 -50t20 -38t33.5 -24t46.5 -8q27 0 51 10.5t41.5 29.5t27 45.5t9.5 57.5zM143 531v59h261v-59h-261z" />
    <glyph glyph-name="Ubreve" unicode="&#x16c;" horiz-adv-x="682" 
d="M341 701q-28 0 -49.5 8t-36.5 24t-22.5 40t-7.5 56h56q0 -17 3.5 -30t10.5 -22.5t18.5 -14.5t27.5 -5t27 5t18 14.5t10.5 22.5t3.5 30h57q0 -32 -8 -56t-22.5 -40t-36 -24t-49.5 -8zM341 -12q-54 0 -102 17t-85 50.5t-58 85t-21 118.5v371h88v-365q0 -49 12 -86.5
t35.5 -63t56.5 -38.5t74 -13t74.5 13t56.5 38.5t35.5 63t12.5 86.5v365h86v-371q0 -67 -21 -118.5t-57.5 -85t-84.5 -50.5t-102 -17z" />
    <glyph glyph-name="ubreve" unicode="&#x16d;" horiz-adv-x="556" 
d="M394 200v237h83v-437h-83v89q-8 -21 -22.5 -39t-35 -32t-46 -22t-53.5 -8q-42 0 -73 13t-50.5 37t-29 56t-9.5 71v272h83v-260q0 -28 7 -50t20 -38t33.5 -24t46.5 -8q27 0 51 10.5t41.5 29.5t27 45.5t9.5 57.5zM273 504q-27 0 -49.5 10.5t-38 30t-24 46.5t-8.5 59h55
q0 -20 4 -36.5t12 -28.5t20.5 -18.5t28.5 -6.5t28 6.5t20.5 18.5t12.5 28.5t4 36.5h55q0 -32 -8.5 -59t-24.5 -46.5t-38 -30t-49 -10.5z" />
    <glyph glyph-name="Uring" unicode="&#x16e;" horiz-adv-x="682" 
d="M341 -12q-54 0 -102 17t-85 50.5t-58 85t-21 118.5v371h88v-365q0 -49 12 -86.5t35.5 -63t56.5 -38.5t74 -13t74.5 13t56.5 38.5t35.5 63t12.5 86.5v365h86v-371q0 -67 -21 -118.5t-57.5 -85t-84.5 -50.5t-102 -17zM243 778q0 20 7 37t20 29.5t31 19.5t40 7q21 0 39.5 -7
t31.5 -19.5t20 -29.5t7 -37t-7 -37.5t-20 -30t-31.5 -19.5t-39.5 -7q-22 0 -40 7t-31 19.5t-20 30t-7 37.5zM291 778q0 -11 3 -20.5t9.5 -16.5t16 -10.5t21.5 -3.5t21.5 3.5t16 10.5t9.5 16.5t3 20.5t-3 20t-9.5 16t-16 10.5t-21.5 3.5t-21.5 -3.5t-16 -10.5t-9.5 -16
t-3 -20z" />
    <glyph glyph-name="uring" unicode="&#x16f;" horiz-adv-x="556" 
d="M175 596q0 20 7 37t20 30t31 20t40 7q21 0 39.5 -7t31.5 -20t20 -30t7 -37t-7 -37.5t-20 -30t-31.5 -19.5t-39.5 -7q-22 0 -40 7t-31 19.5t-20 30t-7 37.5zM223 596q0 -11 3 -20.5t9.5 -16.5t16 -10.5t21.5 -3.5t21.5 3.5t16 10.5t9.5 16.5t3 20.5t-3 20t-9.5 16
t-16 10.5t-21.5 3.5t-21.5 -3.5t-16 -10.5t-9.5 -16t-3 -20zM394 200v237h83v-437h-83v89q-8 -21 -22.5 -39t-35 -32t-46 -22t-53.5 -8q-42 0 -73 13t-50.5 37t-29 56t-9.5 71v272h83v-260q0 -28 7 -50t20 -38t33.5 -24t46.5 -8q27 0 51 10.5t41.5 29.5t27 45.5t9.5 57.5z
" />
    <glyph glyph-name="Uhungarumlaut" unicode="&#x170;" horiz-adv-x="682" 
d="M341 -12q-54 0 -102 17t-85 50.5t-58 85t-21 118.5v371h88v-365q0 -49 12 -86.5t35.5 -63t56.5 -38.5t74 -13t74.5 13t56.5 38.5t35.5 63t12.5 86.5v365h86v-371q0 -67 -21 -118.5t-57.5 -85t-84.5 -50.5t-102 -17zM441 704h-50l51 126h95zM294 704h-50l51 126h95z" />
    <glyph glyph-name="uhungarumlaut" unicode="&#x171;" horiz-adv-x="556" 
d="M394 200v237h83v-437h-83v89q-8 -21 -22.5 -39t-35 -32t-46 -22t-53.5 -8q-42 0 -73 13t-50.5 37t-29 56t-9.5 71v272h83v-260q0 -28 7 -50t20 -38t33.5 -24t46.5 -8q27 0 51 10.5t41.5 29.5t27 45.5t9.5 57.5zM371 506h-49l54 152h89zM220 506h-50l55 152h89z" />
    <glyph glyph-name="Uogonek" unicode="&#x172;" horiz-adv-x="682" 
d="M341 -12q-54 0 -102 17t-85 50.5t-58 85t-21 118.5v371h88v-365q0 -49 12 -86.5t35.5 -63t56.5 -38.5t74 -13t74.5 13t56.5 38.5t35.5 63t12.5 86.5v365h86v-371q0 -67 -21 -118.5t-57.5 -85t-84.5 -50.5l-5 -2q-17 -15 -28 -26q-15 -15 -24.5 -27.5t-14 -23.5t-4.5 -22
q0 -7 2 -12.5t6.5 -9.5t11.5 -6t17 -2q7 0 14 1.5t14 4t13.5 5.5t14.5 7v-45q-8 -5 -16 -9.5t-17.5 -8t-20.5 -5.5t-24 -2q-17 0 -31 4.5t-24.5 13t-16 21.5t-5.5 29q0 17 7 33t19.5 30t26.5 27q5 4 11 9q-14 -1 -28 -1z" />
    <glyph glyph-name="uogonek" unicode="&#x173;" horiz-adv-x="556" 
d="M394 200v237h83v-437h-33q-14 -13 -24 -23q-15 -15 -24.5 -27.5t-14 -23.5t-4.5 -22q0 -7 2 -12.5t6.5 -9.5t11.5 -6t17 -2q7 0 14 1.5t14 4t13.5 5.5t14.5 7v-45q-8 -5 -16 -9.5t-17.5 -8t-20.5 -5.5t-24 -2q-17 0 -31 4.5t-24.5 13t-16 21.5t-5.5 29q0 17 7 33t19.5 30
t26.5 27q11 9 26 21v88q-8 -21 -22.5 -39t-35 -32t-46 -22t-53.5 -8q-42 0 -73 13t-50.5 37t-29 56t-9.5 71v272h83v-260q0 -28 7 -50t20 -38t33.5 -24t46.5 -8q27 0 51 10.5t41.5 29.5t27 45.5t9.5 57.5z" />
    <glyph glyph-name="Wcircumflex" unicode="&#x174;" horiz-adv-x="899" 
d="M493 630l141 -522h4l142 522h83l-173 -630h-103l-135 503h-4l-136 -503h-102l-174 630h86l144 -520h4l139 520h84zM402 830h96l82 -126h-60l-70 76l-70 -76h-61z" />
    <glyph glyph-name="wcircumflex" unicode="&#x175;" horiz-adv-x="710" 
d="M310 660h88l85 -146h-59l-70 96l-70 -96h-59zM392 437l108 -332h4l104 332h78l-141 -437h-80l-108 327h-4l-107 -327h-80l-142 437h82l105 -332h4l106 332h71z" />
    <glyph glyph-name="Ycircumflex" unicode="&#x176;" horiz-adv-x="625" 
d="M316 347l182 283h95l-238 -363v-267h-85v267l-238 363h102zM265 830h96l82 -126h-60l-70 76l-70 -76h-61z" />
    <glyph glyph-name="ycircumflex" unicode="&#x177;" horiz-adv-x="498" 
d="M203 -38l17 39l-197 436h91l146 -337h4l129 337h81l-187 -466q-15 -36 -29.5 -62t-32.5 -46t-42 -31.5t-54 -11.5q-26 0 -46 7.5t-34.5 21.5t-23 32t-11.5 40l67 35q0 -17 3 -29.5t9.5 -21.5t16.5 -13.5t24 -4.5q12 0 21 4.5t17 14t15.5 23t15.5 33.5zM213 660h88
l85 -146h-59l-70 96l-70 -96h-59z" />
    <glyph glyph-name="Ydieresis" unicode="&#x178;" horiz-adv-x="625" 
d="M316 347l182 283h95l-238 -363v-267h-85v267l-238 363h102zM195 708v91h79v-91h-79zM351 708v91h80v-91h-80z" />
    <glyph glyph-name="Zacute" unicode="&#x179;" horiz-adv-x="636" 
d="M164 76h419v-76h-529v65l408 489h-404v76h514v-68zM346 704h-58l54 126h101z" />
    <glyph glyph-name="zacute" unicode="&#x17a;" horiz-adv-x="477" 
d="M267 514h-56l60 152h95zM60 437h360v-60l-267 -310h273v-67h-373v60l262 310h-255v67z" />
    <glyph glyph-name="Zdotaccent" unicode="&#x17b;" horiz-adv-x="636" 
d="M368 708h-95v92h95v-92zM164 76h419v-76h-529v65l408 489h-404v76h514v-68z" />
    <glyph glyph-name="zdotaccent" unicode="&#x17c;" horiz-adv-x="477" 
d="M60 437h360v-60l-267 -310h273v-67h-373v60l262 310h-255v67zM291 538h-95v92h95v-92z" />
    <glyph glyph-name="Zcaron" unicode="&#x17d;" horiz-adv-x="636" 
d="M368 704h-96l-83 126h61l70 -77l70 77h60zM164 76h419v-76h-529v65l408 489h-404v76h514v-68z" />
    <glyph glyph-name="zcaron" unicode="&#x17e;" horiz-adv-x="477" 
d="M200 506l-85 146h59l70 -96l70 96h59l-85 -146h-88zM60 437h360v-60l-267 -310h273v-67h-373v60l262 310h-255v67z" />
    <glyph glyph-name="florin" unicode="&#x192;" horiz-adv-x="433" 
d="M51 -103q-5 0 -10 0.5l-10 1t-9.5 1t-11.5 1.5v63q4 -1 7.5 -1.5t6.5 -1t6 -0.5h6q18 0 31.5 6t23.5 17.5t16.5 28.5t10.5 39l55 263h-78v61h91l26 126q6 30 19 55.5t31.5 44t43 28.5t54.5 10q5 0 11 -0.5t12.5 -1.5t12.5 -2t13 -3v-61q-9 1 -11.5 1.5t-6.5 1t-7.5 1
t-7.5 0.5q-18 0 -32 -6t-24 -17.5t-17 -28t-12 -38.5l-23 -110h101v-61h-114l-58 -279q-7 -33 -18.5 -58t-29 -43.5t-42 -28t-56.5 -9.5z" />
    <glyph glyph-name="Aringacute" unicode="&#x1fa;" horiz-adv-x="664" 
d="M452 999l-97 -104h-58l54 104h101zM330 853q23 0 42 -6.5t33 -18.5t21.5 -28.5t7.5 -35.5t-7.5 -35t-21.5 -28.5t-33 -19t-42 -6.5t-42 6.5t-32.5 19t-20.5 28.5t-7 35t7 35.5t20.5 28.5t32.5 18.5t42 6.5zM330 812q-13 0 -22.5 -3.5t-16.5 -10t-10.5 -15t-3.5 -19.5
t3.5 -19.5t10.5 -14.5t16.5 -9.5t22.5 -3.5t22.5 3.5t16.5 9.5t10.5 14.5t3.5 19.5t-3.5 19.5t-10.5 15t-16.5 10t-22.5 3.5zM324 537l-109 -283h224l-111 283h-4zM539 0l-72 184h-278l-71 -184h-87l249 630h98l255 -630h-94z" />
    <glyph glyph-name="aringacute" unicode="&#x1fb;" horiz-adv-x="525" 
d="M384 813l-97 -104h-58l54 104h101zM160 579q0 19 7 35t20.5 28t32.5 18.5t42 6.5t42 -6.5t33 -18.5t21.5 -28t7.5 -35t-7.5 -35.5t-21.5 -28.5t-33 -19t-42 -7t-42 7t-32.5 19t-20.5 28.5t-7 35.5zM209 579q0 -11 3.5 -19.5t10.5 -15t16.5 -10t22.5 -3.5t22.5 3.5
t16.5 10t10.5 15t3.5 19.5q0 10 -3.5 18.5t-10.5 15t-17 10t-22 3.5t-22 -3.5t-17 -10t-10.5 -15t-3.5 -18.5zM134 301l-74 27q12 26 31 48t44.5 38.5t58 25.5t70.5 9t67.5 -8t50 -24.5t31.5 -41t11 -57.5v-215q0 -12 3 -21t8 -14.5t12 -8.5t16 -3q7 0 13 1t12 3.5t11.5 5
t11.5 6.5l5 -62q-9 -6 -17.5 -9.5t-17 -6t-16.5 -3.5t-18 -1q-21 0 -39 7.5t-31.5 20.5t-21.5 31t-9 38q-8 -21 -23 -38.5t-36.5 -30.5t-48 -20t-55.5 -7q-31 0 -56.5 9t-44 25.5t-28.5 40t-10 52.5t12 51t34.5 38t53 27.5t71.5 21.5l130 30v35q0 12 -4 23t-14 20t-26 14
t-39 5q-25 0 -46.5 -6.5t-37.5 -18t-27 -26t-17 -31.5zM345 176v57l-110 -27q-27 -7 -46.5 -13.5t-33 -16t-21 -23t-7.5 -31.5q0 -14 5 -26.5t14.5 -22t23.5 -14.5t33 -5q28 0 54 10t46 27t31 39t11 46z" />
    <glyph glyph-name="AEacute" unicode="&#x1fc;" horiz-adv-x="1033" 
d="M696 704h-58l54 126h101zM492 565l-203 -311h203v311zM492 0v184h-248l-120 -184h-93l415 630h519v-74h-388v-192h295v-75h-295v-215h397v-74h-482z" />
    <glyph glyph-name="aeacute" unicode="&#x1fd;" horiz-adv-x="816" 
d="M431 514h-56l60 152h95zM564 -12q-32 0 -61 7t-54 21t-44.5 33.5t-33.5 43.5q-11 -20 -28 -38t-40.5 -32.5t-53.5 -23t-66 -8.5q-31 0 -56.5 8.5t-44 25t-28.5 39.5t-10 52q0 30 12 51.5t34 37t52.5 26.5t72.5 21l130 30v39q0 12 -4 23t-14 20t-26 14t-39 5
q-25 0 -46.5 -6.5t-37.5 -18t-27 -26t-17 -31.5l-74 27q12 26 31 48t44.5 38.5t57.5 25.5t69 9q26 0 48 -4.5t40 -14t31 -23t21 -30.5q14 17 31.5 30.5t38 22.5t42.5 14t46 5q51 0 90.5 -17t66 -47t40 -69t13.5 -82v-26h-351q0 -35 11.5 -63.5t32 -49t47 -31.5t56.5 -11
q27 0 49 6t38.5 17.5t29 29t21.5 41.5l64 -38q-13 -29 -32.5 -51.5t-45 -38t-57.5 -23.5t-69 -8zM422 262h269q-2 25 -11 46.5t-25 39t-40.5 27t-54.5 9.5q-28 0 -52 -9.5t-42 -26.5t-29 -39t-15 -47zM345 176v53l-110 -26q-30 -8 -48 -14t-31.5 -14.5t-21 -22t-7.5 -32.5
q0 -14 5 -26.5t14.5 -21t23.5 -13.5t33 -5q28 0 54 10t46 27t31 39t11 46z" />
    <glyph glyph-name="Oslashacute" unicode="&#x1fe;" horiz-adv-x="745" 
d="M144 315q0 -25 3 -47.5t9 -43.5t15 -39t21 -34l329 363q-15 13 -31.5 22.5t-35.5 16t-39.5 10t-42.5 3.5q-51 0 -93 -17.5t-72 -50.5t-46.5 -79.5t-16.5 -103.5zM372 64q51 0 93 17.5t72.5 50.5t47 79.5t16.5 103.5q0 23 -2.5 44.5t-8 41t-13.5 37t-18 32.5l-327 -361
q14 -11 30 -19.5t33.5 -14t36.5 -8.5t40 -3zM372 -12q-28 0 -54.5 4t-51 12t-47 19.5t-42.5 26.5l-68 -76l-46 35l72 79q-20 21 -35 46.5t-25.5 54t-16 60.5t-5.5 66q0 72 23.5 132t67 104t102 67.5t126.5 23.5q29 0 57 -4.5t53.5 -13t49 -21t43.5 -29.5l61 67l46 -35
l-65 -72q18 -21 32 -45.5t23.5 -52t14.5 -58t5 -63.5q0 -72 -23.5 -132t-67 -104t-102.5 -67.5t-127 -23.5zM398 704h-58l54 126h101z" />
    <glyph glyph-name="oslashacute" unicode="&#x1ff;" horiz-adv-x="553" 
d="M131 218q0 -14 1.5 -27.5t4.5 -26t7.5 -24t10.5 -21.5l211 235q-9 7 -19 12.5t-21.5 9.5t-24 6t-25.5 2q-33 0 -60 -12t-46 -34t-29 -52.5t-10 -67.5zM276 53q33 0 60 11.5t46 33.5t29 52.5t10 67.5q0 14 -1.5 27.5t-4.5 25.5t-7 23t-10 21l-210 -234q9 -7 19 -12
t21 -8.5t23 -5.5t25 -2zM276 -12q-19 0 -37 2.5t-35 8t-33 13t-30 17.5l-57 -64l-39 31l59 66q-14 15 -24.5 32.5t-18 37.5t-11.5 41.5t-4 44.5q0 50 17.5 92.5t49 73.5t73.5 48t90 17q19 0 37.5 -3t36 -8t33.5 -13t31 -19l54 61l39 -31l-56 -63q13 -15 23.5 -32.5t17.5 -37
t11 -41t4 -44.5q0 -50 -17.5 -92t-49.5 -73t-74 -48t-90 -17zM300 514h-56l60 152h95z" />
    <glyph glyph-name="Scommaaccent" unicode="&#x218;" horiz-adv-x="612" 
d="M255 -122v69h90v-66q0 -22 -5 -39.5t-16.5 -30t-29.5 -19.5t-43 -7v35q12 0 20.5 4t13.5 11.5t7 18t2 24.5h-39zM29 132l57 66q15 -33 39.5 -59t55.5 -43.5t65 -26.5t70 -9q35 0 65 7t52.5 20.5t35 34t12.5 47.5q0 21 -8 36.5t-23 26.5t-36 19t-50 14l-138 30
q-35 7 -64.5 20t-52 33t-35 48t-12.5 64q0 40 16.5 73.5t47 58t73 37.5t92.5 13q45 0 84.5 -9t71.5 -26t56.5 -39.5t41.5 -49.5l-60 -61q-12 25 -30.5 45.5t-44 36t-55.5 23.5t-64 8q-32 0 -58.5 -7t-45.5 -20.5t-29 -33.5t-10 -45q0 -21 8.5 -36.5t24 -26.5t36.5 -18
t50 -13l122 -26q41 -9 73 -22t56 -33t37 -49.5t13 -68.5q0 -42 -19 -76.5t-53.5 -58t-80.5 -36t-99 -12.5q-47 0 -91 10t-82.5 28.5t-67.5 45.5t-46 60z" />
    <glyph glyph-name="scommaaccent" unicode="&#x219;" horiz-adv-x="487" 
d="M199 -122v69h90v-66q0 -22 -5 -39.5t-16.5 -30t-29.5 -19.5t-43 -7v35q12 0 20.5 4t13.5 11.5t7 18t2 24.5h-39zM40 88l48 55q11 -22 29 -39t39.5 -28.5t46 -17.5t49.5 -6q24 0 43.5 3.5t33 11.5t21 20t7.5 28q0 12 -4.5 21t-13.5 16t-21.5 12.5t-29.5 9.5l-98 23
q-28 7 -50.5 16.5t-39.5 24t-26 35t-9 47.5q0 28 12.5 52t35.5 41.5t54 26.5t67 9q32 0 60.5 -6t52.5 -18t42.5 -28.5t30.5 -37.5l-52 -46q-9 17 -23 30t-31.5 22.5t-37.5 14t-42 4.5q-19 0 -35.5 -4t-29 -11.5t-19.5 -18t-7 -23.5q0 -12 4 -21.5t12.5 -16.5t21 -12.5
t30.5 -9.5l111 -27q25 -6 45.5 -15.5t36 -24t24 -34.5t8.5 -45q0 -30 -13.5 -55t-38 -42.5t-58 -26.5t-73.5 -9q-34 0 -66.5 7t-61 20t-50.5 31.5t-35 41.5z" />
    <glyph glyph-name="uni0237" unicode="&#x237;" horiz-adv-x="241" 
d="M162 437v-497q0 -29 -7 -51.5t-21.5 -37.5t-36.5 -23t-51 -8q-14 0 -27.5 2.5t-26 7t-24 10t-20.5 12.5l21 52q9 -6 17 -10t16 -7t17 -4.5t19 -1.5t17.5 3t13 9t8 15t2.5 21v508h83z" />
    <glyph glyph-name="circumflex" unicode="&#x2c6;" horiz-adv-x="520" 
d="M216 660h88l85 -146h-59l-70 96l-70 -96h-59z" />
    <glyph glyph-name="caron" unicode="&#x2c7;" horiz-adv-x="520" 
d="M216 506l-85 146h59l70 -96l70 96h59l-85 -146h-88z" />
    <glyph glyph-name="breve" unicode="&#x2d8;" horiz-adv-x="520" 
d="M260 504q-27 0 -49.5 10.5t-38 30t-24 46.5t-8.5 59h55q0 -20 4 -36.5t12 -28.5t20.5 -18.5t28.5 -6.5t28 6.5t20.5 18.5t12.5 28.5t4 36.5h55q0 -32 -8.5 -59t-24.5 -46.5t-38 -30t-49 -10.5z" />
    <glyph glyph-name="dotaccent" unicode="&#x2d9;" horiz-adv-x="520" 
d="M307 538h-95v92h95v-92z" />
    <glyph glyph-name="ring" unicode="&#x2da;" horiz-adv-x="520" 
d="M162 596q0 20 7 37t20 30t31 20t40 7q21 0 39.5 -7t31.5 -20t20 -30t7 -37t-7 -37.5t-20 -30t-31.5 -19.5t-39.5 -7q-22 0 -40 7t-31 19.5t-20 30t-7 37.5zM210 596q0 -11 3 -20.5t9.5 -16.5t16 -10.5t21.5 -3.5t21.5 3.5t16 10.5t9.5 16.5t3 20.5t-3 20t-9.5 16
t-16 10.5t-21.5 3.5t-21.5 -3.5t-16 -10.5t-9.5 -16t-3 -20z" />
    <glyph glyph-name="ogonek" unicode="&#x2db;" horiz-adv-x="520" 
d="M275 12h51q-23 -21 -38 -35.5t-24.5 -27t-14 -23.5t-4.5 -22q0 -7 2 -12.5t6.5 -9.5t11.5 -6t17 -2q7 0 14 1.5t14 4t13.5 5.5t14.5 7v-45q-8 -5 -16 -9.5t-17.5 -8t-20.5 -5.5t-24 -2q-17 0 -31 4.5t-24.5 13t-16 21.5t-5.5 29q0 17 7 33t19.5 30t27 26.5t38.5 32.5z
" />
    <glyph glyph-name="tilde" unicode="&#x2dc;" horiz-adv-x="520" 
d="M163 520h-52q0 28 5.5 51t16 40t26.5 26.5t37 9.5q18 0 34 -9t37 -26t32.5 -24.5t23.5 -7.5q10 0 17 5t11 13.5t6 20t3 25.5h52q0 -28 -5.5 -51t-16 -40t-26.5 -26.5t-37 -9.5q-18 0 -34 9t-36.5 26t-32 24.5t-24.5 7.5q-10 0 -17 -5t-11 -13.5t-6 -19.5t-3 -26z" />
    <glyph glyph-name="hungarumlaut" unicode="&#x2dd;" horiz-adv-x="520" 
d="M312 506h-49l54 152h89zM161 506h-50l55 152h89z" />
    <glyph glyph-name="Wgrave" unicode="&#x1e80;" horiz-adv-x="899" 
d="M488 704h-58l-97 126h101zM493 630l141 -522h4l142 522h83l-173 -630h-103l-135 503h-4l-136 -503h-102l-174 630h86l144 -520h4l139 520h84z" />
    <glyph glyph-name="wgrave" unicode="&#x1e81;" horiz-adv-x="710" 
d="M392 437l108 -332h4l104 332h78l-141 -437h-80l-108 327h-4l-107 -327h-80l-142 437h82l105 -332h4l106 332h71zM384 514h-56l-99 152h95z" />
    <glyph glyph-name="Wacute" unicode="&#x1e82;" horiz-adv-x="899" 
d="M475 704h-58l54 126h101zM493 630l141 -522h4l142 522h83l-173 -630h-103l-135 503h-4l-136 -503h-102l-174 630h86l144 -520h4l139 520h84z" />
    <glyph glyph-name="wacute" unicode="&#x1e83;" horiz-adv-x="710" 
d="M380 514h-56l60 152h95zM392 437l108 -332h4l104 332h78l-141 -437h-80l-108 327h-4l-107 -327h-80l-142 437h82l105 -332h4l106 332h71z" />
    <glyph glyph-name="Wdieresis" unicode="&#x1e84;" horiz-adv-x="899" 
d="M332 708v91h79v-91h-79zM488 708v91h80v-91h-80zM493 630l141 -522h4l142 522h83l-173 -630h-103l-135 503h-4l-136 -503h-102l-174 630h86l144 -520h4l139 520h84z" />
    <glyph glyph-name="wdieresis" unicode="&#x1e85;" horiz-adv-x="710" 
d="M395 532v91h80v-91h-80zM239 532v91h79v-91h-79zM392 437l108 -332h4l104 332h78l-141 -437h-80l-108 327h-4l-107 -327h-80l-142 437h82l105 -332h4l106 332h71z" />
    <glyph glyph-name="Ygrave" unicode="&#x1ef2;" horiz-adv-x="625" 
d="M316 347l182 283h95l-238 -363v-267h-85v267l-238 363h102zM351 704h-58l-97 126h101z" />
    <glyph glyph-name="ygrave" unicode="&#x1ef3;" horiz-adv-x="498" 
d="M203 -38l17 39l-197 436h91l146 -337h4l129 337h81l-187 -466q-15 -36 -29.5 -62t-32.5 -46t-42 -31.5t-54 -11.5q-26 0 -46 7.5t-34.5 21.5t-23 32t-11.5 40l67 35q0 -17 3 -29.5t9.5 -21.5t16.5 -13.5t24 -4.5q12 0 21 4.5t17 14t15.5 23t15.5 33.5zM293 514h-56
l-99 152h95z" />
    <glyph glyph-name="endash" unicode="&#x2013;" horiz-adv-x="519" 
d="M67 224v61h385v-61h-385z" />
    <glyph glyph-name="emdash" unicode="&#x2014;" horiz-adv-x="1020" 
d="M67 224v61h886v-61h-886z" />
    <glyph glyph-name="quoteleft" unicode="&#x2018;" horiz-adv-x="253" 
d="M180 504v-104h-106v122q0 28 6.5 50t21 37.5t37.5 24t55 8.5v-53q-17 0 -29 -3.5t-20 -11t-11.5 -20t-3.5 -31.5v-19h50z" />
    <glyph glyph-name="quoteright" unicode="&#x2019;" horiz-adv-x="253" 
d="M73 526v104h106v-122q0 -28 -6.5 -50t-21 -37.5t-37.5 -24t-55 -8.5v53q17 0 29 3.5t20 11t11.5 20t3.5 31.5v19h-50z" />
    <glyph glyph-name="quotesinglbase" unicode="&#x201a;" horiz-adv-x="253" 
d="M73 10v104h106v-122q0 -28 -6.5 -50t-21 -37.5t-37.5 -24t-55 -8.5v53q17 0 29 3.5t20 11t11.5 20t3.5 31.5v19h-50z" />
    <glyph glyph-name="quotedblleft" unicode="&#x201c;" horiz-adv-x="441" 
d="M369 504v-104h-106v122q0 28 6.5 50t21 37.5t37.5 24t55 8.5v-53q-17 0 -29 -3.5t-20 -11t-11.5 -20t-3.5 -31.5v-19h50zM180 504v-104h-106v122q0 28 6.5 50t21 37.5t37.5 24t55 8.5v-53q-17 0 -29 -3.5t-20 -11t-11.5 -20t-3.5 -31.5v-19h50z" />
    <glyph glyph-name="quotedblright" unicode="&#x201d;" horiz-adv-x="441" 
d="M73 526v104h106v-122q0 -28 -6.5 -50t-21 -37.5t-37.5 -24t-55 -8.5v53q17 0 29 3.5t20 11t11.5 20t3.5 31.5v19h-50zM261 526v104h106v-122q0 -28 -6.5 -50t-21 -37.5t-37.5 -24t-55 -8.5v53q17 0 29 3.5t20 11t11.5 20t3.5 31.5v19h-50z" />
    <glyph glyph-name="quotedblbase" unicode="&#x201e;" horiz-adv-x="441" 
d="M73 10v104h106v-122q0 -28 -6.5 -50t-21 -37.5t-37.5 -24t-55 -8.5v53q17 0 29 3.5t20 11t11.5 20t3.5 31.5v19h-50zM261 10v104h106v-122q0 -28 -6.5 -50t-21 -37.5t-37.5 -24t-55 -8.5v53q17 0 29 3.5t20 11t11.5 20t3.5 31.5v19h-50z" />
    <glyph glyph-name="dagger" unicode="&#x2020;" horiz-adv-x="333" 
d="M301 483h-104v-228h-61v228h-104v58h104v98h61v-98h104v-58z" />
    <glyph glyph-name="daggerdbl" unicode="&#x2021;" horiz-adv-x="343" 
d="M142 255v94h-105v56h105v85h-105v55h105v94h59v-94h105v-55h-105v-85h105v-56h-105v-94h-59z" />
    <glyph glyph-name="bullet" unicode="&#x2022;" horiz-adv-x="353" 
d="M298 256q0 -26 -9.5 -48.5t-26 -38.5t-39 -25t-47.5 -9t-47 9t-38.5 25t-26 38.5t-9.5 48.5t9.5 48t26 38.5t38.5 25.5t47 9t47.5 -9t39 -25.5t26 -38.5t9.5 -48z" />
    <glyph glyph-name="ellipsis" unicode="&#x2026;" horiz-adv-x="839" 
d="M667 0v106h106v-106h-106zM366 0v106h106v-106h-106zM66 0v106h106v-106h-106z" />
    <glyph glyph-name="perthousand" unicode="&#x2030;" horiz-adv-x="1231" 
d="M206 643q33 0 62 -12.5t51 -34.5t34.5 -51t12.5 -61t-12.5 -61.5t-34.5 -51t-51 -34t-62 -12.5q-32 0 -61 12.5t-51 34.5t-34.5 51t-12.5 61t12.5 61t34.5 51t51 34.5t61 12.5zM190 0l406 630h68l-406 -630h-68zM206 583q-19 0 -36.5 -7.5t-31 -21.5t-21 -32t-7.5 -38
q0 -21 7.5 -39t21 -31.5t31 -21t36.5 -7.5q20 0 37.5 7.5t31 21t21 31.5t7.5 39q0 20 -7.5 38t-21 32t-31 21.5t-37.5 7.5zM648 -13q-33 0 -62 12.5t-51 34.5t-34.5 51t-12.5 61t12.5 61.5t34.5 51t51 34t62 12.5q32 0 61 -12.5t51 -34.5t34.5 -51t12.5 -61t-12.5 -61
t-34.5 -51t-51 -34.5t-61 -12.5zM1183 146q0 -32 -12.5 -61t-34.5 -51t-51 -34.5t-61 -12.5t-61 12.5t-51 34.5t-34.5 51t-12.5 61t12.5 61.5t34 51t51 34t61.5 12.5t61.5 -12.5t51 -34t34 -51t12.5 -61.5zM648 47q19 0 36.5 7.5t31 21.5t21 32t7.5 38q0 21 -7.5 39
t-21 31.5t-31 21t-36.5 7.5q-20 0 -37.5 -7.5t-31 -21t-21 -31.5t-7.5 -39q0 -20 7.5 -38t21 -32t31 -21.5t37.5 -7.5zM927 146q0 -20 7.5 -38t21 -32t31 -21.5t37.5 -7.5t37.5 7.5t31 21.5t21 32t7.5 38q0 21 -7.5 39t-21 31.5t-31 21t-37.5 7.5t-37.5 -7.5t-31 -21
t-21 -31.5t-7.5 -39z" />
    <glyph glyph-name="guilsinglleft" unicode="&#x2039;" horiz-adv-x="273" 
d="M56 184v69l161 139v-86l-100 -88l100 -87v-86z" />
    <glyph glyph-name="guilsinglright" unicode="&#x203a;" horiz-adv-x="273" 
d="M217 253v-69l-161 -139v86l100 87l-100 88v86z" />
    <glyph glyph-name="fraction" unicode="&#x2044;" horiz-adv-x="195" 
d="M335 630l-406 -630h-69l407 630h68z" />
    <glyph glyph-name="uni2070" unicode="&#x2070;" horiz-adv-x="442" 
d="M389 435q0 -48 -11.5 -86t-33 -64t-53 -39.5t-70.5 -13.5t-70 13.5t-52.5 39.5t-33 64t-11.5 86t11.5 86t33 64.5t52.5 40t70 13.5t70.5 -13.5t53 -40t33 -64.5t11.5 -86zM315 435q0 37 -5.5 65t-17 46.5t-29.5 27.5t-42 9t-41.5 -9t-29.5 -27.5t-17.5 -46.5t-5.5 -65
t5.5 -64.5t17.5 -46t29.5 -27.5t41.5 -9t42 9t29.5 27.5t17 46t5.5 64.5z" />
    <glyph glyph-name="uni2074" unicode="&#x2074;" horiz-adv-x="427" 
d="M319 631v-239h67v-55h-67v-98h-65v98h-209v64l190 230h84zM254 573l-149 -181h149v181z" />
    <glyph glyph-name="uni2075" unicode="&#x2075;" horiz-adv-x="398" 
d="M45 356l69 12q1 -18 7 -33t17.5 -26t27.5 -16.5t36 -5.5q18 0 33 5.5t26 16.5t16.5 26t5.5 34q0 17 -5.5 31.5t-16 25.5t-25.5 17t-33 6q-13 0 -24.5 -3t-21 -8t-17 -11.5t-12.5 -14.5l-65 10q4 21 8 48t7 56t5.5 56t2.5 49h242q2 -14 -0.5 -26t-9 -20.5t-17.5 -13
t-27 -4.5q-11 0 -28 1t-36 2.5l-38 3t-34 3.5q0 -9 -1.5 -25.5t-3.5 -35t-4.5 -33.5t-3.5 -22q7 8 16 15.5t20.5 13t25.5 8.5t30 3q30 0 55 -10t42 -28.5t26 -42.5t9 -51q0 -31 -11 -56t-30.5 -43.5t-46.5 -28t-59 -9.5q-33 0 -61 9t-49 25.5t-33 39t-14 50.5z" />
    <glyph glyph-name="uni2076" unicode="&#x2076;" horiz-adv-x="414" 
d="M358 539l-63 -14q-3 14 -9 24.5t-15.5 18t-21.5 11.5t-28 4q-28 0 -48 -12.5t-32 -34.5t-17.5 -51.5t-4.5 -63.5q5 16 14.5 29t23.5 23t33 15.5t41 5.5q29 0 53.5 -9.5t42 -26.5t27 -40.5t9.5 -51.5q0 -30 -10.5 -55t-30 -42.5t-46.5 -27t-60 -9.5q-39 0 -69.5 13.5
t-51 39.5t-31 62.5t-10.5 81.5q0 46 10.5 84.5t31.5 66.5t53 43.5t73 15.5q27 0 49.5 -6.5t40.5 -19.5t29.5 -32t16.5 -42zM133 365q0 -17 6 -31.5t16.5 -25t26 -16t34.5 -5.5q18 0 33 5.5t25.5 16t16 25t5.5 31.5q0 18 -5.5 32t-16 24.5t-26 16t-34.5 5.5t-34 -5.5
t-25.5 -16t-16 -24.5t-5.5 -32z" />
    <glyph glyph-name="uni2077" unicode="&#x2077;" horiz-adv-x="375" 
d="M256 567h-212v64h287v-47q-37 -37 -61.5 -77t-39 -83t-21 -88t-6.5 -97h-77q1 50 10 96t26 87t40.5 77t53.5 68z" />
    <glyph glyph-name="uni2078" unicode="&#x2078;" horiz-adv-x="409" 
d="M205 232q-36 0 -65 7.5t-49 22.5t-30.5 35.5t-10.5 46.5q0 18 7 34.5t19 28.5t27.5 20.5t31.5 11.5q-16 5 -29 13.5t-23 20t-15 26t-5 31.5q0 25 10.5 45.5t29.5 34.5t45 21.5t57 7.5t56.5 -7.5t44.5 -21.5t29.5 -34.5t10.5 -45.5q0 -17 -5 -31.5t-14.5 -26t-22.5 -20
t-29 -13.5q16 -3 31.5 -11.5t27 -20.5t18.5 -28.5t7 -34.5q0 -26 -10.5 -46.5t-30.5 -35.5t-48.5 -22.5t-64.5 -7.5zM205 463q16 0 29 4t22.5 11.5t14.5 19t5 26.5t-5 27.5t-14.5 20.5t-22.5 12t-29 4t-29.5 -4t-23 -12t-14.5 -20.5t-5 -27.5t5 -26.5t14.5 -19t23 -11.5
t29.5 -4zM205 284q19 0 34.5 4.5t26 13t16 20.5t5.5 27q0 16 -5.5 27.5t-16 19.5t-25.5 12t-35 4t-35.5 -4t-26 -12t-16 -19.5t-5.5 -27.5q0 -15 5.5 -27t16 -20.5t26 -13t35.5 -4.5z" />
    <glyph glyph-name="uni2079" unicode="&#x2079;" horiz-adv-x="414" 
d="M281 505q0 17 -5.5 31.5t-16.5 25t-26.5 16t-33.5 5.5t-33.5 -5.5t-26 -16t-16 -25t-5.5 -31.5q0 -18 5.5 -32t16.5 -24t26 -15.5t34 -5.5t34 5.5t25.5 15.5t16 24t5.5 32zM56 331l64 15q3 -14 8.5 -25t15 -18.5t21.5 -11.5t28 -4q28 0 48 12.5t32.5 34.5t18 51.5
t4.5 64.5q-5 -16 -15 -29.5t-24 -23.5t-32.5 -15.5t-41.5 -5.5q-29 0 -53.5 9.5t-41.5 27t-26.5 41t-9.5 51.5q0 30 10.5 55t29.5 42.5t46 27t60 9.5q39 0 69.5 -13.5t51 -39.5t31 -63t10.5 -82q0 -46 -10.5 -84.5t-31.5 -66.5t-52.5 -43t-72.5 -15q-27 0 -50 6.5t-41 19.5
t-29.5 31.5t-16.5 41.5z" />
    <glyph glyph-name="uni2080" unicode="&#x2080;" horiz-adv-x="442" 
d="M389 96q0 -48 -11.5 -86t-33.5 -64t-53 -39.5t-70 -13.5t-70 13.5t-52.5 39.5t-33 64t-11.5 86t11.5 86t33 64.5t52.5 40t70 13.5t70 -13.5t53 -40t33.5 -64.5t11.5 -86zM315 96q0 37 -5.5 64.5t-17 46t-29.5 27.5t-42 9t-41.5 -9t-29 -27.5t-17 -46t-5.5 -64.5
t5.5 -64.5t17 -46t29 -27.5t41.5 -9t42 9t29.5 27.5t17 46t5.5 64.5z" />
    <glyph glyph-name="uni2081" unicode="&#x2081;" horiz-adv-x="297" 
d="M213 -100h-69v285h-102v50h28q24 0 40 3t26.5 10t16.5 18t11 28h49v-394z" />
    <glyph glyph-name="uni2082" unicode="&#x2082;" horiz-adv-x="391" 
d="M158 -41h188v-59h-295v45l111 92q30 25 46.5 40t29.5 30.5t20 32t7 34.5q0 15 -4.5 27.5t-13.5 21t-21.5 13.5t-29.5 5q-18 0 -32 -5.5t-23.5 -16t-14.5 -25t-5 -33.5q0 -5 0.5 -9.5l1 -9t1.5 -8.5t3 -8l-68 2q-2 5 -3 9.5t-1.5 9t-1 9.5t-0.5 9q0 30 10 55t29 43
t45.5 27.5t58.5 9.5q34 0 60.5 -9.5t44.5 -26t27 -38.5t9 -48q0 -25 -9 -47.5t-24.5 -42.5t-34.5 -37t-45 -38z" />
    <glyph glyph-name="uni2083" unicode="&#x2083;" horiz-adv-x="395" 
d="M118 162l-67 15q3 27 15 49.5t31 39t45 25.5t57 9q33 0 59 -8t44 -23t27 -35.5t9 -45.5q0 -18 -7 -33.5t-19 -27.5t-26.5 -19.5t-30.5 -9.5q19 -2 35.5 -9.5t28.5 -20t19 -29t7 -34.5q0 -25 -10 -46t-29.5 -35.5t-46 -22.5t-59.5 -8t-61 8t-48.5 23.5t-33 37.5t-15.5 50
l66 16q1 -18 8.5 -33t19.5 -25t28.5 -15.5t35.5 -5.5q16 0 29.5 4t23.5 11.5t15.5 19t5.5 26.5t-6 26.5t-17 19t-25 11.5t-31 4q-5 0 -9.5 -0.5l-9 -1t-8 -1t-7.5 -1.5v58q1 0 6 -1t9 -1t9 -0.5t11 -0.5q15 0 28 3t23 10t16 18.5t6 27.5q0 14 -4.5 25.5t-14 19.5t-23 12.5
t-30.5 4.5t-31.5 -5.5t-25 -16t-16 -25.5t-6.5 -34z" />
    <glyph glyph-name="uni2084" unicode="&#x2084;" horiz-adv-x="427" 
d="M319 292v-239h67v-55h-67v-98h-65v98h-209v64l190 230h84zM254 234l-149 -181h149v181z" />
    <glyph glyph-name="uni2085" unicode="&#x2085;" horiz-adv-x="398" 
d="M45 17l69 11q1 -18 7.5 -32.5t18 -25t27.5 -16t36 -5.5q18 0 32.5 5.5t25.5 16t16.5 25.5t5.5 34q0 17 -5.5 31.5t-16 25.5t-25.5 17t-34 6q-13 0 -24 -3t-20.5 -8t-17 -11.5t-12.5 -14.5l-65 10q4 23 7.5 50t7 55t6 55.5t3.5 48.5h240q2 -14 0 -25.5t-8 -20t-17.5 -13.5
t-27.5 -5q-11 0 -28 1t-36 2.5l-38 3t-34 3.5q0 -9 -1.5 -25t-3.5 -34.5t-4 -34t-3 -22.5q6 8 15 15.5t20.5 13.5t25.5 9t29 3q31 0 56 -10.5t42.5 -28.5t26.5 -42.5t9 -51.5q0 -31 -11 -56t-31 -43.5t-47 -28t-59 -9.5q-33 0 -61 9t-49 25.5t-33 39t-14 50.5z" />
    <glyph glyph-name="uni2086" unicode="&#x2086;" horiz-adv-x="414" 
d="M358 200l-63 -14q-3 14 -9 24.5t-15.5 18t-21.5 11.5t-28 4q-28 0 -48 -12.5t-32.5 -34.5t-17.5 -51t-4 -64q5 16 14.5 29t23.5 23t32.5 15.5t41.5 5.5q29 0 53.5 -9.5t41.5 -26.5t26.5 -40.5t9.5 -51.5q0 -30 -10.5 -55t-29.5 -42.5t-46 -27t-60 -9.5q-39 0 -69.5 13.5
t-51 39.5t-31 62.5t-10.5 81.5q0 46 10.5 84.5t31.5 66.5t53 43.5t73 15.5q27 0 50 -6.5t40.5 -19.5t29 -32t16.5 -42zM133 26q0 -17 6 -31.5t16.5 -25t26 -16t34.5 -5.5q18 0 33 5.5t25.5 16t16 25t5.5 31.5q0 18 -5.5 32t-16 24.5t-26 16t-34.5 5.5t-34 -5.5t-25.5 -16
t-16 -24.5t-5.5 -32z" />
    <glyph glyph-name="uni2087" unicode="&#x2087;" horiz-adv-x="375" 
d="M256 228h-211v64h286v-47q-37 -37 -61.5 -77.5t-39 -83.5t-21 -88t-6.5 -96h-77q0 50 9.5 95.5t26 86.5t40.5 77.5t54 68.5z" />
    <glyph glyph-name="uni2088" unicode="&#x2088;" horiz-adv-x="409" 
d="M204 -107q-36 0 -64.5 7.5t-48.5 22.5t-30.5 35.5t-10.5 46.5q0 18 7 34t19 28.5t27.5 20.5t31.5 11q-16 6 -29 14.5t-22.5 20t-14.5 26t-5 31.5q0 25 10.5 45.5t29 34.5t44.5 21.5t56 7.5q31 0 57 -7.5t45 -21.5t29.5 -34.5t10.5 -45.5q0 -17 -5 -31.5t-14.5 -26
t-22.5 -20t-29 -14.5q16 -3 31.5 -11t27.5 -20.5t19 -28.5t7 -34q0 -26 -10.5 -46.5t-31 -35.5t-49.5 -22.5t-65 -7.5zM204 124q16 0 29.5 4t23 12t15 19t5.5 25q0 16 -5.5 28t-15 20.5t-23 12.5t-29.5 4t-29 -4t-22.5 -12.5t-14.5 -20.5t-5 -28q0 -14 5 -25t14.5 -19
t22.5 -12t29 -4zM204 -55q20 0 35.5 4.5t26 13t16 20.5t5.5 27q0 16 -5.5 27.5t-16 19.5t-26 12t-35.5 4q-19 0 -34.5 -4t-26 -12t-16 -19.5t-5.5 -27.5q0 -15 5.5 -27t16.5 -20.5t26 -13t34 -4.5z" />
    <glyph glyph-name="uni2089" unicode="&#x2089;" horiz-adv-x="414" 
d="M282 166q0 17 -6 31.5t-17 25t-26.5 16.5t-34.5 6q-18 0 -33 -6t-25.5 -16.5t-16 -25t-5.5 -31.5q0 -18 5.5 -32t16 -24t26 -15.5t34.5 -5.5t34 5.5t26 15.5t16.5 24t5.5 32zM56 -8l63 14q3 -14 9 -24.5t15.5 -18t21.5 -11.5t28 -4q28 0 48 12.5t32.5 34.5t17.5 51.5
t4 63.5q-5 -16 -14.5 -29t-23.5 -23t-32.5 -15.5t-41.5 -5.5q-29 0 -53.5 9.5t-41.5 27t-26.5 41t-9.5 51.5q0 30 10.5 55t29.5 42.5t46 27t60 9.5q39 0 69.5 -13.5t51 -39.5t31 -63t10.5 -82q0 -46 -10.5 -84.5t-31.5 -66.5t-52.5 -43t-72.5 -15q-27 0 -50 6.5t-40.5 19.5
t-29.5 31.5t-17 41.5z" />
    <glyph glyph-name="Euro" unicode="&#x20ac;" horiz-adv-x="648" 
d="M613 187q-11 -45 -32 -81.5t-52.5 -63t-72 -40.5t-89.5 -14q-52 0 -95.5 16.5t-77.5 47.5t-56.5 75t-32.5 99h-75v52h68q0 4 -0.5 8.5t-0.5 9v9v10.5v10v8.5t0.5 8.5t0.5 8h-68v52h74q10 55 32.5 99.5t56.5 76t78 48t96 16.5q48 0 88 -13.5t70.5 -38t51.5 -59t32 -76.5
l-78 -41q-6 34 -19 62t-33.5 49t-49 32.5t-63.5 11.5q-36 0 -65 -11.5t-51.5 -33t-37 -52.5t-22.5 -70h196l-10 -52h-193q0 -4 -0.5 -8t-0.5 -8.5v-8.5v-10v-10.5v-9t0.5 -9t0.5 -8.5h183l-10 -52h-166q8 -39 23 -69.5t37 -52t51 -33t65 -11.5t64 11t49 32t34 50t19 66z" />
    <glyph glyph-name="trademark" unicode="&#x2122;" horiz-adv-x="747" 
d="M186 338h-63v238h-101v54h267v-54h-103v-238zM530 338h-50l-72 233h-2v-233h-59v292h98l62 -215h3l63 215h92v-292h-62v233h-2z" />
    <glyph glyph-name="uni2153" unicode="&#x2153;" horiz-adv-x="864" 
d="M635 630l-406 -630h-69l407 630h68zM214 239h-70v284h-102v51h28q24 0 40 3t26.5 10t16.5 18t11 28h50v-394zM596 262l-67 15q3 27 15 49.5t31 39t45 25.5t57 9q33 0 59 -8t44 -23t27 -35.5t9 -45.5q0 -18 -7 -33.5t-19 -27.5t-26.5 -19.5t-30.5 -9.5q19 -2 35.5 -9.5
t28.5 -20t19 -29t7 -34.5q0 -25 -10 -46t-29.5 -35.5t-46 -22.5t-59.5 -8t-61 8t-48.5 23.5t-33 37.5t-15.5 50l66 16q1 -18 8.5 -33t19.5 -25t28.5 -15.5t35.5 -5.5q16 0 29.5 4t23.5 11.5t15.5 19t5.5 26.5t-6 26.5t-17 19t-25 11.5t-31 4q-5 0 -9.5 -0.5l-9 -1t-8 -1
t-7.5 -1.5v58q1 0 6 -1t9 -1t9 -0.5t11 -0.5q15 0 28 3t23 10t16 18.5t6 27.5q0 14 -4.5 25.5t-14 19.5t-23 12.5t-30.5 4.5t-31.5 -5.5t-25 -16t-16 -25.5t-6.5 -34z" />
    <glyph glyph-name="uni2154" unicode="&#x2154;" horiz-adv-x="960" 
d="M158 298h189v-59h-296v45l111 92q30 25 46.5 40t29.5 30.5t20 32t7 34.5q0 15 -4.5 27t-13.5 21t-21.5 14t-29.5 5q-18 0 -32 -5.5t-23.5 -16t-14.5 -25.5t-5 -33q0 -5 0.5 -9.5l1 -9t1.5 -8.5t3 -8l-69 3q-1 5 -2 9.5t-1.5 9t-1 9.5t-0.5 9q0 30 10 55t29 42.5t45.5 27
t58.5 9.5q34 0 60.5 -9.5t44.5 -26t27 -38.5t9 -48q0 -25 -9 -47.5t-24.5 -42.5t-34.5 -37t-45 -38zM732 630l-406 -630h-69l407 630h68zM693 262l-67 15q3 27 15 49.5t31 39t45 25.5t57 9q33 0 59 -8t44 -23t27 -35.5t9 -45.5q0 -18 -7 -33.5t-19 -27.5t-26.5 -19.5
t-30.5 -9.5q19 -2 35.5 -9.5t28.5 -20t19 -29t7 -34.5q0 -25 -10 -46t-29.5 -35.5t-46 -22.5t-59.5 -8t-61 8t-48.5 23.5t-33 37.5t-15.5 50l66 16q1 -18 8.5 -33t19.5 -25t28.5 -15.5t35.5 -5.5q16 0 29.5 4t23.5 11.5t15.5 19t5.5 26.5t-6 26.5t-17 19t-25 11.5t-31 4
q-5 0 -9.5 -0.5l-9 -1t-8 -1t-7.5 -1.5v58q1 0 6 -1t9 -1t9 -0.5t11 -0.5q15 0 28 3t23 10t16 18.5t6 27.5q0 14 -4.5 25.5t-14 19.5t-23 12.5t-30.5 4.5t-31.5 -5.5t-25 -16t-16 -25.5t-6.5 -34z" />
    <glyph glyph-name="uni215B" unicode="&#x215b;" horiz-adv-x="872" 
d="M680 -7q-36 0 -64.5 7.5t-48.5 22.5t-30.5 35.5t-10.5 46.5q0 18 7 34t19 28.5t27.5 20.5t31.5 11q-16 6 -29 14.5t-22.5 20t-14.5 26t-5 31.5q0 25 10.5 45.5t29 34.5t44.5 21.5t56 7.5q31 0 57 -7.5t45 -21.5t29.5 -34.5t10.5 -45.5q0 -17 -5 -31.5t-14.5 -26
t-22.5 -20t-29 -14.5q16 -3 31.5 -11t27.5 -20.5t19 -28.5t7 -34q0 -26 -10.5 -46.5t-31 -35.5t-49.5 -22.5t-65 -7.5zM680 224q16 0 29.5 4t23 12t15 19t5.5 25q0 16 -5.5 28t-15 20.5t-23 12.5t-29.5 4t-29 -4t-22.5 -12.5t-14.5 -20.5t-5 -28q0 -14 5 -25t14.5 -19
t22.5 -12t29 -4zM680 45q20 0 35.5 4.5t26 13t16 20.5t5.5 27q0 16 -5.5 27.5t-16 19.5t-26 12t-35.5 4q-19 0 -34.5 -4t-26 -12t-16 -19.5t-5.5 -27.5q0 -15 5.5 -27t16.5 -20.5t26 -13t34 -4.5zM635 630l-406 -630h-69l407 630h68zM214 239h-70v284h-102v51h28q24 0 40 3
t26.5 10t16.5 18t11 28h50v-394z" />
    <glyph glyph-name="uni215C" unicode="&#x215c;" horiz-adv-x="956" 
d="M764 -8q-36 0 -64.5 7.5t-48.5 22.5t-30.5 35.5t-10.5 46.5q0 18 7 34t19 28.5t27.5 20.5t31.5 11q-16 6 -29 14.5t-22.5 20t-14.5 26t-5 31.5q0 25 10.5 45.5t29 34.5t44.5 21.5t56 7.5q31 0 57 -7.5t45 -21.5t29.5 -34.5t10.5 -45.5q0 -17 -5 -31.5t-14.5 -26
t-22.5 -20t-29 -14.5q16 -3 31.5 -11t27.5 -20.5t19 -28.5t7 -34q0 -26 -10.5 -46.5t-31 -35.5t-49.5 -22.5t-65 -7.5zM764 223q16 0 29.5 4t23 12t15 19t5.5 25q0 16 -5.5 28t-15 20.5t-23 12.5t-29.5 4t-29 -4t-22.5 -12.5t-14.5 -20.5t-5 -28q0 -14 5 -25t14.5 -19
t22.5 -12t29 -4zM764 44q20 0 35.5 4.5t26 13t16 20.5t5.5 27q0 16 -5.5 27.5t-16 19.5t-26 12t-35.5 4q-19 0 -34.5 -4t-26 -12t-16 -19.5t-5.5 -27.5q0 -15 5.5 -27t16.5 -20.5t26 -13t34 -4.5zM118 501l-67 15q3 27 15 49.5t31 39t45 25.5t57 9q33 0 59 -8t44 -23
t27 -35.5t9 -45.5q0 -18 -7 -33.5t-19 -27.5t-26.5 -19.5t-30.5 -9.5q19 -2 35.5 -9.5t28.5 -20t19 -29t7 -34.5q0 -25 -10 -46t-29.5 -35.5t-46.5 -22.5t-60 -8t-60.5 8t-48.5 23.5t-33.5 37.5t-15.5 50l67 17q1 -19 8.5 -34t19.5 -25t28 -15.5t35 -5.5q16 0 30 4t24 11.5
t15.5 19t5.5 26.5t-6 26t-16.5 18.5t-25 11.5t-30.5 4q-5 0 -10 -0.5t-9 -0.5t-9 -1t-7 -1v58q1 0 6 -1t9 -1t9 -0.5t11 -0.5q15 0 28 3t23 10t16 18.5t6 27.5q0 14 -4.5 25.5t-14 20t-23 13t-30.5 4.5t-31.5 -5.5t-25 -16.5t-16 -26t-6.5 -34zM719 630l-406 -630h-69
l407 630h68z" />
    <glyph glyph-name="uni215D" unicode="&#x215d;" horiz-adv-x="954" 
d="M762 -8q-36 0 -64.5 7.5t-48.5 22.5t-30.5 35.5t-10.5 46.5q0 18 7 34t19 28.5t27.5 20.5t31.5 11q-16 6 -29 14.5t-22.5 20t-14.5 26t-5 31.5q0 25 10.5 45.5t29 34.5t44.5 21.5t56 7.5q31 0 57 -7.5t45 -21.5t29.5 -34.5t10.5 -45.5q0 -17 -5 -31.5t-14.5 -26
t-22.5 -20t-29 -14.5q16 -3 31.5 -11t27.5 -20.5t19 -28.5t7 -34q0 -26 -10.5 -46.5t-31 -35.5t-49.5 -22.5t-65 -7.5zM762 223q16 0 29.5 4t23 12t15 19t5.5 25q0 16 -5.5 28t-15 20.5t-23 12.5t-29.5 4t-29 -4t-22.5 -12.5t-14.5 -20.5t-5 -28q0 -14 5 -25t14.5 -19
t22.5 -12t29 -4zM762 44q20 0 35.5 4.5t26 13t16 20.5t5.5 27q0 16 -5.5 27.5t-16 19.5t-26 12t-35.5 4q-19 0 -34.5 -4t-26 -12t-16 -19.5t-5.5 -27.5q0 -15 5.5 -27t16.5 -20.5t26 -13t34 -4.5zM45 356l69 12q1 -18 7 -33t17.5 -26t27.5 -16.5t36 -5.5q18 0 33 5.5
t26 16.5t16.5 26t5.5 34q0 17 -5.5 31.5t-16 25.5t-25.5 17t-33 6q-13 0 -24.5 -3t-21 -8t-17 -11.5t-12.5 -14.5l-65 10q4 21 8 48t7 56t5.5 56t2.5 49h242q2 -14 -0.5 -26t-9 -20.5t-17.5 -13t-27 -4.5q-11 0 -28 1t-36 2.5l-38 3t-34 3.5q0 -9 -1.5 -25.5t-3.5 -35
t-4.5 -33.5t-3.5 -22q7 8 16 15.5t20.5 13t25.5 8.5t30 3q30 0 55 -10t42 -28.5t26 -42.5t9 -51q0 -31 -11 -56t-30.5 -43.5t-46.5 -28t-59 -9.5q-33 0 -61 9t-49 25.5t-33 39t-14 50.5zM716 630l-406 -630h-69l407 630h68z" />
    <glyph glyph-name="uni215E" unicode="&#x215e;" horiz-adv-x="867" 
d="M675 -8q-36 0 -64.5 7.5t-48.5 22.5t-30.5 35.5t-10.5 46.5q0 18 7 34t19 28.5t27.5 20.5t31.5 11q-16 6 -29 14.5t-22.5 20t-14.5 26t-5 31.5q0 25 10.5 45.5t29 34.5t44.5 21.5t56 7.5q31 0 57 -7.5t45 -21.5t29.5 -34.5t10.5 -45.5q0 -17 -5 -31.5t-14.5 -26
t-22.5 -20t-29 -14.5q16 -3 31.5 -11t27.5 -20.5t19 -28.5t7 -34q0 -26 -10.5 -46.5t-31 -35.5t-49.5 -22.5t-65 -7.5zM675 223q16 0 29.5 4t23 12t15 19t5.5 25q0 16 -5.5 28t-15 20.5t-23 12.5t-29.5 4t-29 -4t-22.5 -12.5t-14.5 -20.5t-5 -28q0 -14 5 -25t14.5 -19
t22.5 -12t29 -4zM675 44q20 0 35.5 4.5t26 13t16 20.5t5.5 27q0 16 -5.5 27.5t-16 19.5t-26 12t-35.5 4q-19 0 -34.5 -4t-26 -12t-16 -19.5t-5.5 -27.5q0 -15 5.5 -27t16.5 -20.5t26 -13t34 -4.5zM629 630l-406 -630h-69l407 630h68zM256 567h-212v64h287v-47
q-37 -37 -61.5 -77t-39 -83t-21 -88t-6.5 -97h-77q1 50 10 96t26 87t40.5 77t53.5 68z" />
    <glyph glyph-name="minus" unicode="&#x2212;" horiz-adv-x="638" 
d="M64 277v70h510v-70h-510z" />
    <glyph glyph-name="approxequal" unicode="&#x2248;" horiz-adv-x="651" 
d="M70 329v69q19 12 37 20.5t35 14.5t33.5 8.5t32.5 2.5q29 0 54.5 -5.5t62 -16.5t62 -16.5t54.5 -5.5q16 0 33 2.5t34.5 8t35.5 14t37 20.5v-69q-19 -12 -37 -21t-35.5 -14.5t-34.5 -8t-33 -2.5q-29 0 -54.5 5.5t-62 16.5t-62 16.5t-54.5 5.5q-16 0 -32.5 -2.5t-34 -8
t-35.5 -14t-36 -20.5zM70 179v69q18 12 36 21t35.5 14.5t34 8t32.5 2.5q29 0 54.5 -5.5t62 -17t62 -17t54.5 -5.5q16 0 32.5 2.5t34.5 8t36 14.5t37 21v-69q-19 -12 -37 -21t-36 -14.5t-34.5 -8t-32.5 -2.5q-29 0 -54.5 5.5t-62 17t-62 17t-54.5 5.5q-16 0 -32.5 -2.5
t-33.5 -8.5t-35 -14.5t-37 -20.5z" />
    <glyph glyph-name="notequal" unicode="&#x2260;" horiz-adv-x="651" 
d="M581 197h-306l-92 -122h-72l92 122h-133v67h184l70 93h-254v67h305l94 125h71l-94 -125h135v-67h-186l-70 -93h256v-67z" />
    <glyph glyph-name="lessequal" unicode="&#x2264;" horiz-adv-x="489" 
d="M49 337v82l390 177v-76l-315 -142l315 -143v-76zM49 39v70h390v-70h-390z" />
    <glyph glyph-name="greaterequal" unicode="&#x2265;" horiz-adv-x="489" 
d="M439 419v-82l-390 -178v76l316 143l-316 142v76zM439 109v-70h-390v70h390z" />
    <glyph glyph-name="commaaccent" unicode="&#xf6c3;" horiz-adv-x="520" 
d="M215 -122v69h90v-66q0 -22 -5 -39.5t-16.5 -30t-29.5 -19.5t-43 -7v35q12 0 20.5 4t13.5 11.5t7 18t2 24.5h-39z" />
    <glyph glyph-name="_230" horiz-adv-x="0" 
 />
    <glyph glyph-name="idotaccent" horiz-adv-x="241" 
d="M79 437h83v-437h-83v437zM168 538h-95v92h95v-92z" />
    <glyph glyph-name="a.ord" horiz-adv-x="399" 
d="M117 460l-63 22q7 20 20 36t31.5 28t42 18.5t51.5 6.5q27 0 48.5 -6t37 -17.5t23.5 -30t8 -42.5v-139q0 -7 1.5 -12.5t5 -9t8 -5t9.5 -1.5q4 0 8.5 1t9 2.5t8.5 3.5t7 5l5 -48q-7 -4 -14 -7t-13.5 -5t-13 -3t-14.5 -1q-15 0 -28 5t-22.5 13.5t-15.5 20.5t-7 25
q-6 -14 -16.5 -25.5t-25 -20t-31.5 -13t-37 -4.5q-21 0 -39 6t-30.5 17t-19.5 27t-7 36t8 35.5t23 26t35 18t47 14.5l92 22v19q0 9 -3 16t-9 12.5t-16 8.5t-24 3q-17 0 -31 -4.5t-24.5 -12.5t-16.5 -18.5t-8 -22.5zM249 384v35l-72 -18q-16 -4 -27 -8t-19.5 -10t-13 -14
t-4.5 -20q0 -9 3 -16.5t9 -13.5t15 -9t20 -3q17 0 33.5 6t29 17t19.5 25t7 29z" />
    <glyph glyph-name="b.ord" horiz-adv-x="429" 
d="M135 324l-16 -61h-52v430h70v-192q6 15 15.5 27.5t23 22t30.5 15t37 5.5q32 0 58.5 -12t45 -33.5t28 -50.5t9.5 -62t-9.5 -62t-28.5 -50.5t-45.5 -33.5t-59.5 -12q-20 0 -36.5 5t-30.5 14t-23.5 22t-15.5 28zM135 419v-13q0 -22 6.5 -40t18.5 -30.5t28 -19.5t34 -7
q21 0 38 7.5t28.5 21t17.5 33t6 42.5t-6 42.5t-17.5 33t-28.5 21t-38 7.5q-18 0 -34 -7t-28 -20t-18.5 -31t-6.5 -40z" />
    <glyph glyph-name="c.ord" horiz-adv-x="380" 
d="M283 373l60 -23q-6 -20 -18 -37.5t-29.5 -30.5t-41 -20t-51.5 -7q-34 0 -63 11t-50.5 32t-33 50.5t-11.5 64.5q0 34 11.5 63.5t33 50.5t51 32.5t63.5 11.5q26 0 48 -6.5t39 -18t29 -27t19 -34.5l-58 -27q-4 13 -11 23t-16 18t-21 12t-26 4q-20 0 -36.5 -7t-28 -20
t-18 -32t-6.5 -43t6.5 -43t18 -32.5t27.5 -20.5t35 -7q15 0 28 4.5t23 13t16.5 20t10.5 25.5z" />
    <glyph glyph-name="d.ord" horiz-adv-x="429" 
d="M294 406v13q0 22 -6.5 40t-18.5 31t-28 20t-34 7q-21 0 -38 -7.5t-28.5 -21t-17.5 -33t-6 -42.5t6 -42.5t17.5 -33t28.5 -21t38 -7.5q18 0 34 7t28 19.5t18.5 30.5t6.5 40zM292 263v61q-6 -15 -15.5 -27.5t-23 -22t-30.5 -14.5t-37 -5q-32 0 -58.5 12t-45 33.5t-28 50.5
t-9.5 62t9.5 62t28 50.5t45 33.5t58.5 12q20 0 37 -5.5t30.5 -15t23 -22t15.5 -27.5v192h70v-430h-70z" />
    <glyph glyph-name="e.ord" horiz-adv-x="393" 
d="M292 364l55 -24q-9 -21 -22.5 -36.5t-31.5 -26.5t-40.5 -16.5t-48.5 -5.5q-34 0 -63.5 11t-51 31t-33 48.5t-11.5 62.5q0 35 11.5 65t33 52t50.5 34t62 12q35 0 62.5 -12t46 -32.5t28 -47t9.5 -56.5v-20h-233q0 -21 7 -38.5t19.5 -30t29 -19.5t35.5 -7q17 0 30.5 3.5
t24 10.5t18.5 17.5t13 24.5zM117 443h165q-1 15 -6.5 28.5t-15.5 24t-24.5 16.5t-33.5 6q-18 0 -32.5 -6t-25.5 -16t-18 -23.5t-9 -29.5z" />
    <glyph glyph-name="f.ord" horiz-adv-x="273" 
d="M82 511h-52v51h52v22q0 27 9 48.5t26 37t39.5 23.5t49.5 8q21 0 38 -4.5t30 -12.5t22.5 -19t14.5 -25l-42 -32q-3 9 -7.5 16t-11.5 13t-17 9t-22 3q-13 0 -24 -4t-19 -12.5t-12 -21t-4 -29.5v-20h82v-51h-82v-248h-70v248z" />
    <glyph glyph-name="g.ord" horiz-adv-x="404" 
d="M254 470q0 13 -4.5 23.5t-12.5 18.5t-19 12t-24 4t-24 -4t-19.5 -12t-13 -18.5t-4.5 -23.5t4.5 -24t13 -19t19.5 -12t24 -4t24 4t19 12t12.5 19t4.5 24zM372 247q0 -27 -14.5 -47t-40 -33t-57 -19t-66.5 -6q-33 0 -61.5 4.5t-50.5 14.5t-34.5 25.5t-12.5 36.5
q0 11 4.5 21t13.5 18t20.5 13.5t25.5 6.5q-10 3 -18.5 8t-14 12.5t-8.5 16t-3 17.5q0 10 3.5 19t9.5 16t15 13t20 10q-9 7 -16.5 15t-12.5 17.5t-7.5 20.5t-2.5 23q0 23 9.5 41.5t26.5 32t41 20.5t52 7q13 0 25.5 -1.5t24 -5t21.5 -8.5t19 -11q6 11 15 21.5t21 18t27 11
t32 0.5l6 -57q-10 2 -21 1.5t-21.5 -3t-19 -7t-14.5 -10.5q4 -5 6.5 -11t4.5 -12t3 -13t1 -14q0 -23 -9.5 -41.5t-27 -32t-41.5 -20.5t-52 -7q-8 0 -16.5 0.5t-16 2t-15 3.5t-14.5 4q-4 -2 -8 -4.5t-6.5 -6t-4 -7.5t-1.5 -9t2 -9.5t6.5 -8t11.5 -5t16 -1.5h121q24 0 43.5 -6
t33 -16.5t20.5 -25.5t7 -33zM98 231q0 -12 7.5 -21.5t20.5 -15t30.5 -8.5t38.5 -3q24 0 44 3t35 10t23.5 16.5t8.5 22.5q0 9 -4 15.5t-11.5 10.5t-18 6t-22.5 2h-101q-10 0 -19.5 -2.5t-16.5 -7.5t-11 -12t-4 -16z" />
    <glyph glyph-name="h.ord" horiz-adv-x="421" 
d="M137 693v-189q6 14 16 26t24 21.5t31 14.5t36 5q29 0 50.5 -9t35.5 -25.5t20.5 -38.5t6.5 -48v-187h-71v174q0 18 -4.5 32.5t-13 24.5t-21.5 15t-29 5q-17 0 -32 -6.5t-26 -19t-17 -30t-6 -37.5v-158h-70v430h70z" />
    <glyph glyph-name="i.ord" horiz-adv-x="204" 
d="M63 623v70h78v-70h-78zM67 562h70v-299h-70v299z" />
    <glyph glyph-name="j.ord" horiz-adv-x="204" 
d="M141 623h-78v70h78v-70zM137 562v-332q0 -22 -5.5 -38.5t-16.5 -27.5t-27.5 -16.5t-37.5 -5.5q-10 0 -20.5 1.5t-20 4.5t-17.5 7t-15 9l15 42q6 -4 11.5 -6.5t11 -4.5t11.5 -3t13 -1t12 2t8.5 5.5t5.5 9.5t2 14v340h70z" />
    <glyph glyph-name="k.ord" horiz-adv-x="404" 
d="M137 361v-98h-70v430h70v-266l153 135h82l-136 -117l142 -182h-82l-110 141z" />
    <glyph glyph-name="l.ord" horiz-adv-x="204" 
d="M67 693h70v-430h-70v430z" />
    <glyph glyph-name="m.ord" horiz-adv-x="627" 
d="M341 500q5 14 15.5 27t25 23t33 15.5t39.5 5.5q28 0 49 -9t34 -25.5t19.5 -38.5t6.5 -48v-187h-71v174q0 18 -4 32.5t-12.5 24.5t-20.5 15t-28 5q-17 0 -31 -6.5t-24.5 -19t-16 -30t-5.5 -37.5v-158h-71v174q0 18 -4 32.5t-12.5 24.5t-20.5 15t-28 5q-17 0 -31 -6.5
t-24.5 -19t-16 -30t-5.5 -37.5v-158h-70v299h70v-58q5 14 15.5 26t24 21.5t30 14.5t34.5 5q20 0 36.5 -5t29 -14.5t21 -22.5t13.5 -29z" />
    <glyph glyph-name="n.ord" horiz-adv-x="421" 
d="M137 421v-158h-70v299h70v-58q6 14 16 26t24 21.5t31 14.5t36 5q29 0 50.5 -9t35.5 -25.5t20.5 -38.5t6.5 -48v-187h-71v174q0 18 -4.5 32.5t-13 24.5t-21.5 15t-29 5q-17 0 -32 -6.5t-26 -19t-17 -30t-6 -37.5z" />
    <glyph glyph-name="o.ord" horiz-adv-x="413" 
d="M368 413q0 -34 -12.5 -63.5t-34.5 -50.5t-51.5 -32.5t-63.5 -11.5q-33 0 -62.5 11.5t-51.5 32.5t-34.5 50.5t-12.5 63.5t12.5 63.5t34.5 50.5t51.5 32.5t62.5 11.5q34 0 63.5 -11.5t51.5 -32.5t34.5 -50.5t12.5 -63.5zM118 413q0 -23 6 -42.5t17.5 -33t28 -21t36.5 -7.5
t36.5 7.5t28.5 21t18 33t6 42.5t-6 42t-18 33t-28.5 21.5t-36.5 7.5t-36.5 -7.5t-28 -21.5t-17.5 -33t-6 -42z" />
    <glyph glyph-name="p.ord" horiz-adv-x="429" 
d="M135 419v-13q0 -22 6.5 -40t18.5 -30.5t28 -19.5t34 -7q21 0 38 7.5t28.5 21t17.5 33t6 42.5t-6 42.5t-17.5 33t-28.5 21t-38 7.5q-18 0 -34 -7t-28 -20t-18.5 -31t-6.5 -40zM137 324v-174h-70v412h70v-61q6 15 15.5 27.5t23 22t30.5 15t37 5.5q32 0 58.5 -12t45 -33.5
t28 -50.5t9.5 -62t-9.5 -62t-28 -50.5t-45 -33.5t-58.5 -12q-20 0 -37 5t-30.5 14.5t-23 22t-15.5 27.5z" />
    <glyph glyph-name="q.ord" horiz-adv-x="429" 
d="M292 150v174q-6 -15 -15.5 -27.5t-23 -22t-30.5 -14.5t-37 -5q-32 0 -58.5 12t-45 33.5t-28 50.5t-9.5 62t9.5 62t28 50.5t45 33.5t58.5 12q20 0 37 -5.5t30.5 -15t23 -22t15.5 -27.5v61h70v-412h-70zM294 406v13q0 22 -6.5 40t-18.5 31t-28 20t-34 7q-21 0 -38 -7.5
t-28.5 -21t-17.5 -33t-6 -42.5t6 -42.5t17.5 -33t28.5 -21t38 -7.5q18 0 34 7t28 19.5t18.5 30.5t6.5 40z" />
    <glyph glyph-name="r.ord" horiz-adv-x="364" 
d="M325 456l-59 -21q0 2 0.5 4t1 4.5t0.5 5v5.5q0 13 -3 23.5t-9 18t-16 11.5t-23 4q-17 0 -32 -8t-25.5 -22t-16.5 -33t-6 -41v-144h-71v299h71v-68q5 15 14 28.5t21.5 24.5t28.5 17.5t35 6.5q22 0 39 -7.5t28.5 -21t17.5 -32t6 -39.5v-4.5v-3.5t-0.5 -4t-1.5 -3z" />
    <glyph glyph-name="s.ord" horiz-adv-x="370" 
d="M39 323l43 40q7 -14 19 -24.5t26.5 -18t30.5 -11t32 -3.5q15 0 26.5 2t20 6.5t13 11t4.5 16.5q0 7 -3 13t-8 10t-13 7t-18 5l-66 15q-21 5 -37 12t-27.5 17.5t-18 25t-6.5 33.5q0 20 9 36.5t25 29t38 19t48 6.5q23 0 44 -4.5t38.5 -13t31 -20t22.5 -26.5l-45 -33
q-7 11 -16.5 19.5t-21 14.5t-25 9t-28.5 3q-11 0 -21 -2.5t-17.5 -7t-11.5 -11t-4 -14.5q0 -7 2.5 -12t7.5 -9.5t12 -7.5t17 -5l76 -18q18 -4 33 -11t26 -17t17.5 -24t6.5 -32q0 -21 -9.5 -38.5t-26.5 -30t-41 -19t-53 -6.5q-24 0 -46.5 4.5t-43 13.5t-36.5 21.5t-26 28.5z
" />
    <glyph glyph-name="t.ord" horiz-adv-x="340" 
d="M31 562h60v80l69 18v-98h122v-51h-122v-144q0 -13 3.5 -23.5t10.5 -17t15.5 -10t18.5 -3.5q12 0 21.5 3.5t16.5 9.5t13 15t13 23l35 -46q-6 -12 -16 -23.5t-24 -20.5t-31 -14t-37 -5q-23 0 -42.5 6.5t-34 19.5t-23 33.5t-8.5 47.5v149h-60v51z" />
    <glyph glyph-name="u.ord" horiz-adv-x="419" 
d="M282 404v158h70v-299h-70v58q-6 -14 -16 -26t-24 -21t-31 -14t-36 -5q-29 0 -50.5 9t-34.5 25.5t-19.5 38.5t-6.5 48v186h70v-173q0 -18 4.5 -32.5t13 -24.5t21 -15t28.5 -5q17 0 32 6.5t26 19t17 29.5t6 37z" />
    <glyph glyph-name="v.ord" horiz-adv-x="383" 
d="M227 263h-71l-126 299h74l90 -221h2l90 221h67z" />
    <glyph glyph-name="w.ord" horiz-adv-x="517" 
d="M290 562l65 -211h3l63 211h66l-93 -299h-69l-65 209h-3l-65 -209h-68l-94 299h70l64 -211h2l65 211h59z" />
    <glyph glyph-name="x.ord" horiz-adv-x="384" 
d="M340 562l-111 -142l124 -157h-81l-83 107l-83 -107h-74l121 154l-112 145h80l72 -94l72 94h75z" />
    <glyph glyph-name="y.ord" horiz-adv-x="381" 
d="M154 241l9 21l-134 300h78l91 -218h3l83 218h68l-126 -307q-11 -27 -21.5 -47t-24 -35t-31.5 -23t-41 -8q-18 0 -33 5.5t-25.5 15t-17 23t-8.5 29.5l53 28q0 -11 2 -19.5t6.5 -14.5t10.5 -9t15 -3q7 0 13 3t11 8.5t9.5 13.5t9.5 19z" />
    <glyph glyph-name="z.ord" horiz-adv-x="365" 
d="M56 562h255v-49l-174 -195h178v-55h-263v50l171 195h-167v54z" />
    <glyph glyph-name="f_idieresis" horiz-adv-x="497" 
d="M417 528v94h82v-94h-82zM84 377h-67v60h67v50q0 34 10 62.5t29 49.5t47 32t62 11q28 0 51 -6.5t39.5 -19.5t28.5 -31.5t19 -42.5l-65 -23q-4 14 -10.5 25t-15 19t-20 12.5t-25.5 4.5q-17 0 -30 -5.5t-21.5 -16.5t-12.5 -26t-4 -35v-60h265v-437h-83v377h-182v-377h-82
v377z" />
    <glyph glyph-name="f_f_idieresis" horiz-adv-x="761" 
d="M681 528v94h82v-94h-82zM348 377h-182v-377h-82v377h-67v60h67v47q0 34 10 61.5t28.5 46.5t44.5 29.5t57 10.5q18 0 34 -2.5t28.5 -7t23 -10t20.5 -12.5l-23 -55q-8 6 -16.5 10.5t-17.5 7.5t-18.5 5t-19.5 2q-17 0 -30 -6t-22 -17t-13 -26.5t-4 -35.5v-48h182v50
q0 34 10 62.5t29 49.5t47 32t62 11q28 0 51 -6.5t39.5 -19.5t28.5 -31.5t19 -42.5l-65 -23q-4 14 -10.5 25t-15 19t-20 12.5t-25.5 4.5q-17 0 -30 -5.5t-21.5 -16.5t-12.5 -26t-4 -35v-60h265v-437h-83v377h-182v-377h-82v377z" />
    <glyph glyph-name="caron.Slovak" horiz-adv-x="520" 
d="M250 483h-44l18 156h92z" />
    <glyph glyph-name="commaturn" horiz-adv-x="520" 
d="M305 583v-68h-90v66q0 22 5 39.5t16.5 30t29.5 19.5t43 7v-35q-12 0 -20.5 -4t-13.5 -11.5t-7 -18.5t-2 -25h39z" />
    <glyph glyph-name="dotbelow" horiz-adv-x="520" 
d="M215 -172v92h88v-92h-88z" />
    <glyph glyph-name="grave.cap" horiz-adv-x="520" 
d="M337 704h-58l-97 126h101z" />
    <glyph glyph-name="acute.cap" horiz-adv-x="520" 
d="M240 704h-58l54 126h101z" />
    <glyph glyph-name="circumflex.cap" horiz-adv-x="520" 
d="M212 830h96l82 -126h-60l-70 76l-70 -76h-61z" />
    <glyph glyph-name="tilde.cap" horiz-adv-x="520" 
d="M163 703h-52q0 27 5.5 49t16 37.5t26.5 24t37 8.5q18 0 34 -7.5t37 -23t32.5 -22t23.5 -6.5q10 0 17 3.5t11 10.5t6 17.5t3 24.5h52q0 -27 -5.5 -49t-16 -38t-26.5 -24t-37 -8q-18 0 -34 7.5t-36.5 23t-32 22t-24.5 6.5q-10 0 -17 -3.5t-11 -11t-6 -17.5t-3 -24z" />
    <glyph glyph-name="macron.cap" horiz-adv-x="520" 
d="M128 709v60h263v-60h-263z" />
    <glyph glyph-name="breve.cap" horiz-adv-x="520" 
d="M260 701q-28 0 -49.5 8t-36.5 24t-22.5 40t-7.5 56h56q0 -17 3.5 -30t10.5 -22.5t18.5 -14.5t27.5 -5t27 5t18 14.5t10.5 22.5t3.5 30h57q0 -32 -8 -56t-22.5 -40t-36 -24t-49.5 -8z" />
    <glyph glyph-name="dotaccent.cap" horiz-adv-x="520" 
d="M307 708h-95v92h95v-92z" />
    <glyph glyph-name="dieresis.cap" horiz-adv-x="520" 
d="M142 708v91h79v-91h-79zM298 708v91h80v-91h-80z" />
    <glyph glyph-name="ring.cap" horiz-adv-x="520" 
d="M162 778q0 20 7 37t20 29.5t31 19.5t40 7q21 0 39.5 -7t31.5 -19.5t20 -29.5t7 -37t-7 -37.5t-20 -30t-31.5 -19.5t-39.5 -7q-22 0 -40 7t-31 19.5t-20 30t-7 37.5zM210 778q0 -11 3 -20.5t9.5 -16.5t16 -10.5t21.5 -3.5t21.5 3.5t16 10.5t9.5 16.5t3 20.5t-3 20t-9.5 16
t-16 10.5t-21.5 3.5t-21.5 -3.5t-16 -10.5t-9.5 -16t-3 -20z" />
    <glyph glyph-name="hungarumlaut.cap" horiz-adv-x="520" 
d="M310 704h-50l51 126h95zM163 704h-50l51 126h95z" />
    <glyph glyph-name="caron.cap" horiz-adv-x="520" 
d="M308 704h-96l-83 126h61l70 -77l70 77h60z" />
    <glyph glyph-name="exclamdown.cap" horiz-adv-x="222" 
d="M56 530v100h100v-100h-100zM150 0h-89v192l25 253h40l24 -253v-192z" />
    <glyph glyph-name="questiondown.cap" horiz-adv-x="513" 
d="M316 630v-98h-100v98h100zM224 452h79q0 -22 -4 -39.5t-13 -33t-23 -30.5t-35 -31q-55 -44 -68.5 -59t-21.5 -35.5t-8 -46.5q0 -25 7.5 -47t23 -38t38.5 -25t53 -9q33 0 58.5 10t42.5 29t26 46.5t9 62.5v10t-0.5 10.5t-1.5 10.5l-2 10l86 -5q1 -6 1.5 -11t1 -10.5
t0.5 -10.5v-10q0 -48 -15.5 -87t-44.5 -67t-70 -43t-91 -15q-53 0 -93.5 14.5t-66.5 40.5t-39 59.5t-13 72.5q0 31 10 57t27.5 47.5t37.5 38.5t57 46q15 12 24.5 21.5t15.5 19.5t9 21t3 26z" />
    <glyph glyph-name="guilsinglleft.cap" horiz-adv-x="273" 
d="M56 272v68l161 140v-86l-100 -88l100 -88v-86z" />
    <glyph glyph-name="guilsinglright.cap" horiz-adv-x="273" 
d="M217 340v-68l-161 -140v86l100 88l-100 88v86z" />
    <glyph glyph-name="guillemotleft.cap" horiz-adv-x="465" 
d="M56 272v68l161 140v-86l-100 -88l100 -88v-86zM248 272v68l161 140v-86l-100 -88l100 -88v-86z" />
    <glyph glyph-name="guillemotright.cap" horiz-adv-x="465" 
d="M217 340v-68l-161 -140v86l100 88l-100 88v86zM409 340v-68l-161 -140v86l100 88l-100 88v86z" />
    <glyph glyph-name="slash.cap" horiz-adv-x="346" 
d="M10 0l247 630h79l-247 -630h-79z" />
    <glyph glyph-name="backslash.cap" horiz-adv-x="346" 
d="M89 630l247 -630h-79l-247 630h79z" />
    <glyph glyph-name="bar.cap" horiz-adv-x="243" 
d="M84 0v630h75v-630h-75z" />
    <glyph glyph-name="periodcentered.cap" horiz-adv-x="240" 
d="M67 265v106h106v-106h-106z" />
    <glyph glyph-name="bullet.cap" horiz-adv-x="353" 
d="M298 316q0 -26 -9.5 -48.5t-26 -38.5t-39 -25t-47.5 -9t-47 9t-38.5 25t-26 38.5t-9.5 48.5t9.5 48t26 38.5t38.5 25.5t47 9t47.5 -9t39 -25.5t26 -38.5t9.5 -48z" />
    <glyph glyph-name="hyphen.cap" horiz-adv-x="364" 
d="M67 278v74h230v-74h-230z" />
    <glyph glyph-name="endash.cap" horiz-adv-x="519" 
d="M67 284v61h385v-61h-385z" />
    <glyph glyph-name="emdash.cap" horiz-adv-x="1020" 
d="M67 284v61h886v-61h-886z" />
    <glyph glyph-name="parenleft.cap" horiz-adv-x="308" 
d="M51 308q0 51 9 102t27 99t44 91.5t59 79.5h83q-38 -43 -64 -89t-41.5 -92.5t-22.5 -93.5t-7 -97t7 -97t22.5 -93.5t41.5 -92.5t64 -89h-83q-33 36 -59 79.5t-44 91.5t-27 99t-9 102z" />
    <glyph glyph-name="parenright.cap" horiz-adv-x="308" 
d="M118 680q33 -36 59 -79.5t44 -91.5t27 -99t9 -102t-9 -102t-27 -99t-44 -91.5t-59 -79.5h-83q38 43 64 89t41.5 92.5t22.5 93.5t7 97t-7 97t-22.5 93.5t-41.5 92.5t-64 89h83z" />
    <glyph glyph-name="bracketleft.cap" horiz-adv-x="321" 
d="M154 617v-618h114v-63h-192v744h192v-63h-114z" />
    <glyph glyph-name="bracketright.cap" horiz-adv-x="321" 
d="M167 -1v618h-114v63h192v-744h-192v63h114z" />
    <glyph glyph-name="braceleft.cap" horiz-adv-x="348" 
d="M37 276v64h25q16 0 25 3.5t14 12t6.5 22t1.5 35.5v166q0 25 5 43.5t16 31.5t28.5 19.5t41.5 6.5h95v-63h-76q-8 0 -14 -2.5t-10 -7.5t-5.5 -11.5t-1.5 -15.5v-170q0 -22 -3.5 -39t-11.5 -29.5t-21.5 -21t-33.5 -12.5q20 -4 33.5 -12.5t21.5 -21t11.5 -30t3.5 -39.5v-169
q0 -9 1.5 -15.5t5.5 -11.5t10 -7.5t14 -2.5h76v-63h-95q-24 0 -41.5 6.5t-28.5 19.5t-16 31.5t-5 43.5v166q0 22 -1.5 35.5t-6.5 22t-14 12t-25 3.5h-25z" />
    <glyph glyph-name="braceright.cap" horiz-adv-x="348" 
d="M311 340v-64h-25q-16 0 -25 -3.5t-14 -12t-6.5 -22t-1.5 -35.5v-166q0 -25 -5 -43.5t-16 -31.5t-28 -19.5t-41 -6.5h-96v63h76q9 0 15 2.5t9.5 7t5 11.5t1.5 16v169q0 22 3.5 39t11.5 30t21.5 21.5t33.5 12.5q-20 4 -33.5 12.5t-21.5 21t-11.5 29.5t-3.5 39v170
q0 9 -1.5 16t-5 11.5t-9.5 7t-15 2.5h-76v63h96q24 0 41 -6.5t28 -19.5t16 -31.5t5 -43.5v-166q0 -22 1.5 -35.5t6.5 -22t14 -12t25 -3.5h25z" />
    <glyph glyph-name="at.cap" horiz-adv-x="780" 
d="M565 180q25 0 45.5 11t36 33.5t24 58t8.5 82.5q0 52 -17 96t-50 75.5t-80.5 49t-107.5 17.5q-71 0 -130 -23.5t-101.5 -67t-65 -103.5t-22.5 -131q0 -63 22 -114t61.5 -86.5t92 -54t112.5 -18.5q29 0 55 2.5t51 7.5t50 14t50 21l21 -43q-25 -15 -51.5 -26t-55 -17.5
t-58.5 -10t-63 -3.5q-74 0 -137.5 22t-111 64.5t-74 104t-26.5 139.5q0 80 27 149.5t77.5 120.5t121 79.5t155.5 28.5q74 0 133 -21.5t100 -61t62.5 -93.5t21.5 -117q0 -59 -15 -105t-41.5 -76t-60 -44.5t-70.5 -14.5q-21 0 -37.5 5.5t-28.5 15t-20 22.5t-12 28
q-9 -16 -21.5 -29t-28 -22.5t-34 -14.5t-39.5 -5q-29 0 -52.5 9.5t-40.5 27.5t-26 44t-9 59q0 41 12.5 80t37 70t59.5 49.5t77 18.5q20 0 38 -4.5t32 -13t24 -20t15 -25.5l15 55h73l-59 -237q-4 -16 -3.5 -27.5t5.5 -18t13.5 -9.5t20.5 -3zM466 293l7 24q6 24 3.5 44.5
t-12.5 35.5t-26 23t-37 8q-26 0 -48 -14t-37.5 -37.5t-23.5 -52t-8 -58.5q0 -20 4 -35.5t12.5 -25.5t21 -15t29.5 -5q18 0 36 6.5t33.5 20t27 34t18.5 47.5z" />
    <glyph glyph-name="published" horiz-adv-x="744" 
d="M45 315q0 70 25.5 130t70.5 104.5t104.5 68.5t126.5 24t126.5 -24t104.5 -68.5t70.5 -104.5t25.5 -130t-25.5 -130t-70.5 -104.5t-104.5 -68.5t-126.5 -24t-126.5 24t-104.5 68.5t-70.5 104.5t-25.5 130zM92 315q0 -60 21.5 -111.5t60 -89.5t90 -59t108.5 -21t108 21
t90 59t60.5 89.5t21.5 111.5t-21.5 111.5t-60.5 89.5t-90 59t-108 21t-108.5 -21t-90 -59t-60 -89.5t-21.5 -111.5zM313 259v-132h-66v374h151q35 0 62 -9t45.5 -25t28 -38t9.5 -49t-9.5 -49t-28 -38t-45.5 -25t-62 -9h-85zM313 314h75q22 0 39 4.5t27.5 13t16 20.5t5.5 28
t-5.5 28t-16 20.5t-27.5 13t-39 4.5h-75v-132z" />
    <glyph glyph-name="florin.lt" 
d="M151 -103q-5 0 -10 0.5l-10 1t-9.5 1t-11.5 1.5v63q4 -1 7.5 -1.5t6.5 -1t6 -0.5h6q18 0 31.5 6t23.5 17.5t16.5 28.5t10.5 39l55 263h-78v61h91l26 126q6 30 19 55.5t31.5 44t43 28.5t54.5 10q5 0 11 -0.5t12.5 -1.5t12.5 -2t13 -3v-61q-9 1 -11.5 1.5t-6.5 1t-7.5 1
t-7.5 0.5q-18 0 -32 -6t-24 -17.5t-17 -28t-12 -38.5l-23 -110h101v-61h-114l-58 -279q-7 -33 -18.5 -58t-29 -43.5t-42 -28t-56.5 -9.5z" />
    <glyph glyph-name="Euro.lt" 
d="M587 182q-11 -45 -31 -80.5t-49 -61t-67.5 -39t-86.5 -13.5q-50 0 -93 16.5t-76 47.5t-55 75t-32 99h-66v52h59q0 4 -0.5 8.5t-0.5 9v9v10.5v10v8.5t0.5 8.5t0.5 8h-59v52h65q10 55 32 99.5t55 76t76 48t94 16.5q47 0 85.5 -13t67 -37.5t48 -59t30.5 -76.5l-76 -40
q-6 35 -18 62.5t-31 48t-45.5 31.5t-60.5 11q-36 0 -64.5 -11.5t-50 -33t-35.5 -52.5t-22 -70h197l-10 -52h-193q0 -4 -0.5 -8t-0.5 -8.5v-8.5v-10v-10.5v-9t0.5 -9t0.5 -8.5h183l-10 -52h-166q7 -39 21.5 -69.5t36 -51.5t50 -32.5t63.5 -11.5t61.5 11t45.5 31t30.5 48
t17.5 64z" />
    <glyph glyph-name="dollar.lt" 
d="M271 369l17 -4v208q-29 -1 -53 -9t-41.5 -22t-27 -34t-9.5 -45q0 -21 8 -36.5t22.5 -26t35 -17.5t48.5 -14zM373 265l-30 7v-214q31 2 57 10t45 22t29.5 33.5t10.5 44.5q0 21 -7.5 36.5t-22 26.5t-34.5 19t-48 15zM343 -118h-55v107q-40 4 -77 15.5t-69 30t-56.5 43.5
t-39.5 55l55 63q13 -29 32.5 -53t44.5 -41t52.5 -28t57.5 -15v225l-53 12q-34 8 -63 20.5t-51 32.5t-34.5 47.5t-12.5 63.5q0 38 15.5 71t44 57.5t68 38.5t86.5 15v102h55v-105q35 -4 65.5 -14.5t55.5 -26.5t44.5 -36t33.5 -44l-57 -59q-9 21 -23 39t-32 32t-40 24t-47 15
v-216l49 -11q40 -9 71 -21.5t54.5 -32.5t36.5 -49t13 -68q0 -40 -17 -73t-47.5 -56.5t-71.5 -37t-88 -15.5v-107z" />
    <glyph glyph-name="cent.lt" 
d="M526 119q-10 -25 -25.5 -47t-37 -39.5t-50 -29t-63.5 -14.5v-87h-55v87q-46 4 -84 22.5t-65.5 49t-42.5 70.5t-15 87q0 46 14.5 86t42 70.5t66 49t84.5 23.5v95h55v-94q32 -3 59 -13t48 -25.5t37 -35.5t26 -43l-57 -39q-7 17 -17.5 32t-25 26.5t-32.5 19t-38 10.5v-323
q22 3 41 11.5t34 21t26 28.5t17 35zM166 219q0 -34 9 -62t26 -49t41 -34t53 -17v323q-30 -5 -53.5 -18t-40.5 -33.5t-26 -48.5t-9 -61z" />
    <glyph glyph-name="sterling.lt" 
d="M436 -12q-26 0 -49.5 7t-43.5 18t-37 24.5t-38 32.5q-8 -19 -20 -34t-27.5 -25.5t-35 -16.5t-42.5 -6t-42.5 7t-34.5 20t-23.5 32t-8.5 42q0 22 8 40.5t23 32t36 21t45 7.5q10 0 19.5 -1.5t18.5 -3.5t18 -5.5t17 -8.5q0 17 -3 32.5t-7.5 30t-10 27.5t-12.5 28h-110v55h84
q-6 13 -10.5 25t-7.5 25t-5 27.5t-2 29.5q0 42 13.5 77.5t40 60.5t63.5 39t82 14t81.5 -12t63.5 -35t42.5 -57t19.5 -76l-75 -23q-1 33 -10.5 58t-26 42t-40 25.5t-53.5 8.5t-52.5 -9.5t-37 -26.5t-21.5 -39.5t-7 -50.5q0 -13 1.5 -26.5t5 -26t7.5 -25t9 -25.5h149v-55h-126
q6 -15 10 -28t7.5 -27t5.5 -29t2 -30v-13t-0.5 -12t-1.5 -11.5t-2 -11.5q23 -17 37 -26.5t31 -18.5t36 -14.5t39 -5.5q22 0 37.5 8.5t25 24.5t13.5 37.5t4 49.5l70 -8q1 -44 -8 -78.5t-27.5 -58.5t-45.5 -36.5t-61 -12.5zM145 39q15 0 27 5.5t20.5 15t14 23.5t8.5 31
q-9 6 -17 11t-16.5 8t-17.5 5t-18 2q-13 0 -23 -3.5t-17 -9.5t-10.5 -15.5t-3.5 -21.5q0 -11 4 -20.5t11 -16.5t16.5 -10.5t21.5 -3.5z" />
    <glyph glyph-name="yen.lt" 
d="M520 137h-169v-137h-83v137h-168v59h168v71h-168v59h131l-192 304h94l181 -291l176 291h91l-193 -304h132v-59h-169v-71h169v-59z" />
    <glyph glyph-name="zero.lt" 
d="M569 315q0 -78 -17 -139t-50.5 -103t-81.5 -63.5t-110 -21.5t-110 21.5t-81.5 63.5t-50.5 103t-17 139t17 139t50.5 103t81.5 63.5t110 21.5t110 -21.5t81.5 -63.5t50.5 -103t17 -139zM479 315q0 64 -10.5 112.5t-31 80.5t-52.5 48t-75 16t-75 -16t-52.5 -48t-31 -80.5
t-10.5 -112.5t10.5 -112.5t31 -80.5t52.5 -48t75 -16t75 16t52.5 48t31 80.5t10.5 112.5z" />
    <glyph glyph-name="one.lt" 
d="M558 0h-471v72h199v404h-176v64h53q40 0 66 4.5t42.5 15t27 28t17.5 46.5h56v-562h186v-72z" />
    <glyph glyph-name="two.lt" 
d="M211 75h327v-75h-463v50l179 153q48 41 76 67t50.5 54t35 58t12.5 63q0 28 -8 51t-24.5 39t-40.5 25t-55 9q-32 0 -56.5 -9.5t-41.5 -28.5t-26 -46t-9 -61q0 -7 0.5 -14.5t2 -14.5l3 -14t4.5 -14l-86 4q-3 7 -4.5 14.5l-3 15t-2 15t-0.5 14.5q0 48 15.5 87t44.5 67t70 43
t91 15q53 0 94 -14.5t68 -41t40.5 -61.5t13.5 -76t-16.5 -79t-43.5 -71.5t-57.5 -62t-72.5 -63.5z" />
    <glyph glyph-name="three.lt" 
d="M164 425l-82 26q5 42 23.5 77t48 60.5t69.5 39.5t88 14q51 0 91.5 -12.5t68.5 -36t42 -56.5t14 -72q0 -30 -11 -55.5t-30 -44.5t-42.5 -31t-48.5 -16q30 -3 56 -15t46 -32.5t31 -47t11 -56.5q0 -39 -16 -72t-45.5 -57t-72 -37t-93.5 -13t-94.5 13t-75.5 37.5t-52 60
t-25 79.5l83 26q2 -35 14.5 -62t34.5 -46t51.5 -28.5t64.5 -9.5q31 0 56.5 7.5t44 22t28.5 36t10 49.5q0 26 -11 47t-31 35t-46.5 21t-56.5 7q-9 0 -17.5 -0.5t-15.5 -1.5t-15.5 -2.5t-11.5 -1.5v79q2 0 10.5 -1.5t15 -2.5t15.5 -1.5t19 -0.5q27 0 51 5.5t43 18t30 33.5
t11 50q0 26 -8.5 47t-25.5 36t-42 23.5t-57 8.5t-58 -10t-44.5 -29t-29.5 -46.5t-13 -61.5z" />
    <glyph glyph-name="four.lt" 
d="M462 630v-391h116v-71h-116v-168h-85v168h-329v82l309 380h105zM377 552l-254 -313h254v313z" />
    <glyph glyph-name="five.lt" 
d="M65 188l86 18q1 -33 12.5 -60.5t32 -47.5t50 -30.5t66.5 -10.5q33 0 60 10.5t46.5 31t30 48.5t10.5 62q0 31 -10 58t-28.5 46.5t-45.5 30.5t-60 11q-23 0 -43.5 -5.5t-37.5 -15t-30.5 -22t-22.5 -27.5l-85 15q6 35 12 77.5t11 87.5t8.5 87.5t4.5 77.5h374q2 -19 -0.5 -34
t-10.5 -25.5t-22.5 -16.5t-36.5 -6q-17 0 -46.5 1.5t-64 4t-66.5 5t-62 4.5q-1 -14 -3.5 -44.5t-6.5 -64.5t-7.5 -61.5t-6.5 -39.5q11 15 27 27.5t36 21.5t43.5 14.5t49.5 5.5q51 0 91 -16.5t68 -46t42 -68t14 -82.5q0 -48 -17 -89t-48.5 -70.5t-74.5 -45.5t-94 -16
t-94.5 14.5t-76 41t-51.5 63.5t-23 81z" />
    <glyph glyph-name="six.lt" 
d="M552 489l-78 -25q-6 25 -17 45t-27.5 34.5t-39.5 22t-52 7.5q-50 0 -86.5 -22.5t-59 -63t-33 -93.5t-8.5 -116q8 28 24 52t40 42t56 28t71 10q48 0 88 -15t69 -43.5t44 -66.5t15 -83q0 -47 -16 -86.5t-46 -68t-72.5 -44t-94.5 -15.5q-62 0 -110.5 22t-81 63t-49 99.5
t-16.5 130.5q0 74 17 136.5t50.5 108t84 70t115.5 24.5q42 0 77.5 -10.5t63 -30.5t46 -48.5t26.5 -63.5zM175 201q0 -32 10.5 -58t31 -45t49 -29.5t62.5 -10.5t61 10t46.5 29.5t29.5 45.5t10 58t-10 58t-29.5 44.5t-47.5 28.5t-63 10t-63 -10t-47.5 -28.5t-29.5 -44.5
t-10 -58z" />
    <glyph glyph-name="seven.lt" 
d="M439 552h-364v78h462v-53q-58 -60 -98.5 -127.5t-65 -140t-36 -149.5t-12.5 -160h-94q1 83 16 161t42 148.5t65 131.5t85 111z" />
    <glyph glyph-name="eight.lt" 
d="M310 -12q-56 0 -100.5 12.5t-75.5 36t-47.5 56.5t-16.5 74q0 30 11 55.5t30 45.5t43.5 32.5t50.5 17.5q-25 9 -46 23t-35.5 33t-22.5 42.5t-8 50.5q0 40 16 72.5t45.5 55.5t69 35t86.5 12t87 -12t69.5 -35t45.5 -55.5t16 -72.5q0 -27 -8 -50.5t-23 -42.5t-35.5 -33
t-46.5 -23q26 -5 50.5 -17.5t43.5 -32.5t30 -45.5t11 -55.5q0 -41 -16.5 -74t-47.5 -56.5t-75.5 -36t-100.5 -12.5zM310 349q29 0 53.5 7.5t41.5 21.5t26.5 35t9.5 48q0 29 -9.5 51t-26.5 36.5t-41.5 22t-53.5 7.5t-53.5 -7.5t-41.5 -22t-26.5 -36.5t-9.5 -51q0 -27 9.5 -48
t26.5 -35t41.5 -21.5t53.5 -7.5zM310 53q36 0 63.5 8t46.5 23t29 37t10 50t-9.5 49t-28.5 35.5t-47 21.5t-64 7t-63.5 -7t-46.5 -21.5t-29 -35.5t-10 -49t10 -49.5t29 -37t47 -23.5t63 -8z" />
    <glyph glyph-name="nine.lt" 
d="M446 429q0 32 -10.5 58t-31 45t-49 29.5t-62.5 10.5t-61 -10t-46.5 -29.5t-29.5 -45.5t-10 -58t10 -58t29.5 -44.5t47.5 -28.5t63 -10t63 10t47.5 28.5t29.5 44.5t10 58zM69 141l78 25q6 -25 17 -45t27.5 -34.5t39.5 -22t52 -7.5q50 0 86.5 22.5t59 63t33 93.5t8.5 116
q-8 -28 -24 -52t-40 -42t-56 -28t-71 -10q-48 0 -88 15t-69 43.5t-44 66.5t-15 83q0 47 16 86.5t46 68t72.5 44t94.5 15.5q62 0 110.5 -22t81 -63t49 -99.5t16.5 -130.5q0 -74 -17 -136.5t-50.5 -108t-84 -70t-115.5 -24.5q-42 0 -77.5 10.5t-63 30.5t-46 48.5t-26.5 63.5z
" />
    <glyph glyph-name="zero.dnom" horiz-adv-x="442" 
d="M389 196q0 -48 -11.5 -86t-33.5 -64t-53 -39.5t-70 -13.5t-70 13.5t-52.5 39.5t-33 64t-11.5 86t11.5 86t33 64.5t52.5 40t70 13.5t70 -13.5t53 -40t33.5 -64.5t11.5 -86zM315 196q0 37 -5.5 64.5t-17 46t-29.5 27.5t-42 9t-41.5 -9t-29 -27.5t-17 -46t-5.5 -64.5
t5.5 -64.5t17 -46t29 -27.5t41.5 -9t42 9t29.5 27.5t17 46t5.5 64.5z" />
    <glyph glyph-name="one.dnom" horiz-adv-x="297" 
d="M213 0h-69v285h-102v50h28q24 0 40 3t26.5 10t16.5 18t11 28h49v-394z" />
    <glyph glyph-name="two.dnom" horiz-adv-x="391" 
d="M158 59h188v-59h-295v45l111 92q30 25 46.5 40t29.5 30.5t20 32t7 34.5q0 15 -4.5 27.5t-13.5 21t-21.5 13.5t-29.5 5q-18 0 -32 -5.5t-23.5 -16t-14.5 -25t-5 -33.5q0 -5 0.5 -9.5l1 -9t1.5 -8.5t3 -8l-68 2q-2 5 -3 9.5t-1.5 9t-1 9.5t-0.5 9q0 30 10 55t29 43
t45.5 27.5t58.5 9.5q34 0 60.5 -9.5t44.5 -26t27 -38.5t9 -48q0 -25 -9 -47.5t-24.5 -42.5t-34.5 -37t-45 -38z" />
    <glyph glyph-name="three.dnom" horiz-adv-x="395" 
d="M118 262l-67 15q3 27 15 49.5t31 39t45 25.5t57 9q33 0 59 -8t44 -23t27 -35.5t9 -45.5q0 -18 -7 -33.5t-19 -27.5t-26.5 -19.5t-30.5 -9.5q19 -2 35.5 -9.5t28.5 -20t19 -29t7 -34.5q0 -25 -10 -46t-29.5 -35.5t-46 -22.5t-59.5 -8t-61 8t-48.5 23.5t-33 37.5t-15.5 50
l66 16q1 -18 8.5 -33t19.5 -25t28.5 -15.5t35.5 -5.5q16 0 29.5 4t23.5 11.5t15.5 19t5.5 26.5t-6 26.5t-17 19t-25 11.5t-31 4q-5 0 -9.5 -0.5l-9 -1t-8 -1t-7.5 -1.5v58q1 0 6 -1t9 -1t9 -0.5t11 -0.5q15 0 28 3t23 10t16 18.5t6 27.5q0 14 -4.5 25.5t-14 19.5t-23 12.5
t-30.5 4.5t-31.5 -5.5t-25 -16t-16 -25.5t-6.5 -34z" />
    <glyph glyph-name="four.dnom" horiz-adv-x="427" 
d="M319 392v-239h67v-55h-67v-98h-65v98h-209v64l190 230h84zM254 334l-149 -181h149v181z" />
    <glyph glyph-name="five.dnom" horiz-adv-x="398" 
d="M45 117l69 11q1 -18 7.5 -32.5t18 -25t27.5 -16t36 -5.5q18 0 32.5 5.5t25.5 16t16.5 25.5t5.5 34q0 17 -5.5 31.5t-16 25.5t-25.5 17t-34 6q-13 0 -24 -3t-20.5 -8t-17 -11.5t-12.5 -14.5l-65 10q4 23 7.5 50t7 55t6 55.5t3.5 48.5h240q2 -14 0 -25.5t-8 -20
t-17.5 -13.5t-27.5 -5q-11 0 -28 1t-36 2.5l-38 3t-34 3.5q0 -9 -1.5 -25t-3.5 -34.5t-4 -34t-3 -22.5q6 8 15 15.5t20.5 13.5t25.5 9t29 3q31 0 56 -10.5t42.5 -28.5t26.5 -42.5t9 -51.5q0 -31 -11 -56t-31 -43.5t-47 -28t-59 -9.5q-33 0 -61 9t-49 25.5t-33 39t-14 50.5z
" />
    <glyph glyph-name="six.dnom" horiz-adv-x="414" 
d="M358 300l-63 -14q-3 14 -9 24.5t-15.5 18t-21.5 11.5t-28 4q-28 0 -48 -12.5t-32.5 -34.5t-17.5 -51t-4 -64q5 16 14.5 29t23.5 23t32.5 15.5t41.5 5.5q29 0 53.5 -9.5t41.5 -26.5t26.5 -40.5t9.5 -51.5q0 -30 -10.5 -55t-29.5 -42.5t-46 -27t-60 -9.5q-39 0 -69.5 13.5
t-51 39.5t-31 62.5t-10.5 81.5q0 46 10.5 84.5t31.5 66.5t53 43.5t73 15.5q27 0 50 -6.5t40.5 -19.5t29 -32t16.5 -42zM133 126q0 -17 6 -31.5t16.5 -25t26 -16t34.5 -5.5q18 0 33 5.5t25.5 16t16 25t5.5 31.5q0 18 -5.5 32t-16 24.5t-26 16t-34.5 5.5t-34 -5.5t-25.5 -16
t-16 -24.5t-5.5 -32z" />
    <glyph glyph-name="seven.dnom" horiz-adv-x="375" 
d="M256 328h-211v64h286v-47q-37 -37 -61.5 -77.5t-39 -83.5t-21 -88t-6.5 -96h-77q0 50 9.5 95.5t26 86.5t40.5 77.5t54 68.5z" />
    <glyph glyph-name="eight.dnom" horiz-adv-x="409" 
d="M204 -7q-36 0 -64.5 7.5t-48.5 22.5t-30.5 35.5t-10.5 46.5q0 18 7 34t19 28.5t27.5 20.5t31.5 11q-16 6 -29 14.5t-22.5 20t-14.5 26t-5 31.5q0 25 10.5 45.5t29 34.5t44.5 21.5t56 7.5q31 0 57 -7.5t45 -21.5t29.5 -34.5t10.5 -45.5q0 -17 -5 -31.5t-14.5 -26
t-22.5 -20t-29 -14.5q16 -3 31.5 -11t27.5 -20.5t19 -28.5t7 -34q0 -26 -10.5 -46.5t-31 -35.5t-49.5 -22.5t-65 -7.5zM204 224q16 0 29.5 4t23 12t15 19t5.5 25q0 16 -5.5 28t-15 20.5t-23 12.5t-29.5 4t-29 -4t-22.5 -12.5t-14.5 -20.5t-5 -28q0 -14 5 -25t14.5 -19
t22.5 -12t29 -4zM204 45q20 0 35.5 4.5t26 13t16 20.5t5.5 27q0 16 -5.5 27.5t-16 19.5t-26 12t-35.5 4q-19 0 -34.5 -4t-26 -12t-16 -19.5t-5.5 -27.5q0 -15 5.5 -27t16.5 -20.5t26 -13t34 -4.5z" />
    <glyph glyph-name="nine.dnom" horiz-adv-x="414" 
d="M282 266q0 17 -6 31.5t-17 25t-26.5 16.5t-34.5 6q-18 0 -33 -6t-25.5 -16.5t-16 -25t-5.5 -31.5q0 -18 5.5 -32t16 -24t26 -15.5t34.5 -5.5t34 5.5t26 15.5t16.5 24t5.5 32zM56 92l63 14q3 -14 9 -24.5t15.5 -18t21.5 -11.5t28 -4q28 0 48 12.5t32.5 34.5t17.5 51.5
t4 63.5q-5 -16 -14.5 -29t-23.5 -23t-32.5 -15.5t-41.5 -5.5q-29 0 -53.5 9.5t-41.5 27t-26.5 41t-9.5 51.5q0 30 10.5 55t29.5 42.5t46 27t60 9.5q39 0 69.5 -13.5t51 -39.5t31 -63t10.5 -82q0 -46 -10.5 -84.5t-31.5 -66.5t-52.5 -43t-72.5 -15q-27 0 -50 6.5t-40.5 19.5
t-29.5 31.5t-17 41.5z" />
    <glyph glyph-name="percent.lt" horiz-adv-x="820" 
d="M49 484q0 33 12.5 62.5t34 51.5t50 34t59.5 12q32 0 60.5 -12t50.5 -34t34 -51.5t12 -62.5t-12 -62t-34 -51t-50.5 -34t-60.5 -12q-31 0 -59.5 12t-50 34t-34 51t-12.5 62zM641 630l-396 -630h-66l396 630h66zM112 484q0 -22 7 -40.5t20 -31.5t30 -20.5t36 -7.5
q20 0 37 7.5t30 20.5t20 31.5t7 40.5t-7 40.5t-20 31.5t-30 20.5t-37 7.5q-19 0 -36 -7.5t-30 -20.5t-20 -31.5t-7 -40.5zM771 146q0 -33 -12 -62.5t-34 -51.5t-50.5 -34t-59.5 -12q-32 0 -60.5 12t-50.5 34t-34 51.5t-12 62.5t12 62t34 51t50.5 34t60.5 12q31 0 59.5 -12
t50.5 -34t34 -51t12 -62zM708 146q0 22 -7 40.5t-20 31.5t-30 20.5t-36 7.5t-36.5 -7.5t-30.5 -20.5t-20 -31.5t-7 -40.5t7 -40.5t20 -31.5t30.5 -20.5t36.5 -7.5t36 7.5t30 20.5t20 31.5t7 40.5z" />
    <glyph glyph-name="perthousand.lt" horiz-adv-x="1220" 
d="M68 484q0 33 12 62.5t34 51.5t50.5 34t59.5 12q32 0 60.5 -12t50.5 -34t34 -51.5t12 -62.5t-12 -62t-34 -51t-50.5 -34t-60.5 -12q-31 0 -59.5 12t-50.5 34t-34 51t-12 62zM660 630l-396 -630h-67l396 630h67zM131 484q0 -22 7 -40.5t20 -31.5t30 -20.5t36 -7.5t36.5 7.5
t30.5 20.5t20 31.5t7 40.5t-7 40.5t-20 31.5t-30.5 20.5t-36.5 7.5t-36 -7.5t-30 -20.5t-20 -31.5t-7 -40.5zM790 146q0 -33 -12.5 -62.5t-34 -51.5t-50 -34t-59.5 -12q-32 0 -60.5 12t-50.5 34t-34 51.5t-12 62.5t12 62t34 51t50.5 34t60.5 12q31 0 59.5 -12t50 -34t34 -51
t12.5 -62zM1152 146q0 -33 -12.5 -62.5t-34 -51.5t-50 -34t-59.5 -12q-32 0 -60.5 12t-50.5 34t-34 51.5t-12 62.5t12 62t34 51t50.5 34t60.5 12q31 0 59.5 -12t50 -34t34 -51t12.5 -62zM727 146q0 22 -7.5 40.5t-20.5 31.5t-29.5 20.5t-35.5 7.5q-20 0 -37 -7.5t-30 -20.5
t-20 -31.5t-7 -40.5t7 -40.5t20 -31.5t30 -20.5t37 -7.5q19 0 35.5 7.5t29.5 20.5t20.5 31.5t7.5 40.5zM902 146q0 -22 7 -40.5t20 -31.5t30 -20.5t37 -7.5q19 0 36 7.5t30 20.5t20 31.5t7 40.5t-7 40.5t-20 31.5t-30 20.5t-36 7.5q-20 0 -37 -7.5t-30 -20.5t-20 -31.5
t-7 -40.5z" />
    <glyph glyph-name="plus.lt" 
d="M564 277h-220v-221h-70v221h-220v70h220v221h70v-221h220v-70z" />
    <glyph glyph-name="minus.lt" 
d="M54 277v70h510v-70h-510z" />
    <glyph glyph-name="multiply.lt" 
d="M262 308l-162 162l49 49l160 -164l160 164l49 -49l-161 -162l161 -161l-49 -49l-160 163l-160 -163l-49 49z" />
    <glyph glyph-name="divide.lt" 
d="M259 469v102h104v-102h-104zM55 277v70h510v-70h-510zM259 53v101h104v-101h-104z" />
    <glyph glyph-name="equal.lt" 
d="M54 357v68h511v-68h-511zM54 196v68h511v-68h-511z" />
    <glyph glyph-name="less.lt" 
d="M114 265v90l390 208v-81l-326 -172l326 -172v-82z" />
    <glyph glyph-name="greater.lt" 
d="M504 355v-90l-389 -209v82l325 172l-325 172v81z" />
    <glyph glyph-name="plusminus.lt" 
d="M566 350h-222v-187h-69v187h-222v69h222v187h69v-187h222v-69zM53 39v70h513v-70h-513z" />
    <glyph glyph-name="lessequal.lt" 
d="M115 337v82l390 177v-76l-315 -142l315 -143v-76zM115 39v70h390v-70h-390z" />
    <glyph glyph-name="greaterequal.lt" 
d="M504 419v-82l-390 -178v76l316 143l-316 142v76zM504 109v-70h-390v70h390z" />
    <glyph glyph-name="notequal.lt" 
d="M565 197h-306l-92 -122h-72l92 122h-133v67h184l70 93h-254v67h305l94 125h71l-94 -125h135v-67h-186l-70 -93h256v-67z" />
    <glyph glyph-name="approxequal.lt" 
d="M54 329v69q19 12 37 20.5t35 14.5t33.5 8.5t32.5 2.5q29 0 54.5 -5.5t62 -16.5t62 -16.5t54.5 -5.5q16 0 33 2.5t34.5 8t35.5 14t37 20.5v-69q-19 -12 -37 -21t-35.5 -14.5t-34.5 -8t-33 -2.5q-29 0 -54.5 5.5t-62 16.5t-62 16.5t-54.5 5.5q-16 0 -32.5 -2.5t-34 -8
t-35.5 -14t-36 -20.5zM54 179v69q18 12 36 21t35.5 14.5t34 8t32.5 2.5q29 0 54.5 -5.5t62 -17t62 -17t54.5 -5.5q16 0 32.5 2.5t34.5 8t36 14.5t37 21v-69q-19 -12 -37 -21t-36 -14.5t-34.5 -8t-32.5 -2.5q-29 0 -54.5 5.5t-62 17t-62 17t-54.5 5.5q-16 0 -32.5 -2.5
t-33.5 -8.5t-35 -14.5t-37 -20.5z" />
    <glyph glyph-name="period.tab" horiz-adv-x="310" 
d="M102 0v106h106v-106h-106z" />
    <glyph glyph-name="comma.tab" horiz-adv-x="310" 
d="M102 0v106h106v-124q0 -28 -6.5 -50t-21 -37.5t-37.5 -24t-55 -8.5v53q17 0 29 3.5t20 11t11.5 20.5t3.5 32v18h-50z" />
    <glyph glyph-name="colon.tab" horiz-adv-x="310" 
d="M102 0v106h106v-106h-106zM102 317v106h106v-106h-106z" />
    <glyph glyph-name="semicolon.tab" horiz-adv-x="310" 
d="M102 0v106h106v-124q0 -28 -6.5 -50t-21 -37.5t-37.5 -24t-55 -8.5v53q17 0 29 3.5t20 11t11.5 20.5t3.5 32v18h-50zM102 317v106h106v-106h-106z" />
    <glyph glyph-name="space.tab" horiz-adv-x="310" 
 />
    <glyph glyph-name="thinspace" horiz-adv-x="60" 
 />
    </font>
</defs>
</svg>
